<svg width="800" height="262" viewBox="0 0 800 262" fill="none" xmlns="http://www.w3.org/2000/svg">
<path d="M74.2152 97.2076L70.3179 94.9579L65.8172 102.752L69.7145 105.001L71.9648 101.104L74.2152 97.2076ZM102.433 123.888L106.331 126.138L110.831 118.344L106.934 116.094L104.684 119.991L102.433 123.888ZM71.9648 101.104L69.7145 105.001L102.433 123.888L104.684 119.991L106.934 116.094L74.2152 97.2076L71.9648 101.104Z" fill="#203059"></path>
<path d="M74.2152 97.2076L70.3179 94.9579L65.8172 102.752L69.7145 105.001L71.9648 101.104L74.2152 97.2076ZM102.433 123.888L106.331 126.138L110.831 118.344L106.934 116.094L104.684 119.991L102.433 123.888ZM71.9648 101.104L69.7145 105.001L102.433 123.888L104.684 119.991L106.934 116.094L74.2152 97.2076L71.9648 101.104Z" fill="#203059"></path>
<path d="M74.2152 97.2076L70.3179 94.9579L65.8172 102.752L69.7145 105.001L71.9648 101.104L74.2152 97.2076ZM102.433 123.888L106.331 126.138L110.831 118.344L106.934 116.094L104.684 119.991L102.433 123.888ZM71.9648 101.104L69.7145 105.001L102.433 123.888L104.684 119.991L106.934 116.094L74.2152 97.2076L71.9648 101.104Z" fill="#203059"></path>
<path d="M44.9749 79.9313L41.1285 77.5957L36.456 85.2878L40.3024 87.6234L42.6387 83.7773L44.9749 79.9313ZM52.5501 95.0604L56.3965 97.396L61.069 89.7039L57.2226 87.3683L54.8863 91.2143L52.5501 95.0604ZM42.6387 83.7773L40.3024 87.6234L52.5501 95.0604L54.8863 91.2143L57.2226 87.3683L44.9749 79.9313L42.6387 83.7773Z" fill="#203059"></path>
<path d="M44.9749 79.9313L41.1285 77.5957L36.456 85.2878L40.3024 87.6234L42.6387 83.7773L44.9749 79.9313ZM52.5501 95.0604L56.3965 97.396L61.069 89.7039L57.2226 87.3683L54.8863 91.2143L52.5501 95.0604ZM42.6387 83.7773L40.3024 87.6234L52.5501 95.0604L54.8863 91.2143L57.2226 87.3683L44.9749 79.9313L42.6387 83.7773Z" fill="#203059"></path>
<path d="M44.9749 79.9313L41.1285 77.5957L36.456 85.2878L40.3024 87.6234L42.6387 83.7773L44.9749 79.9313ZM52.5501 95.0604L56.3965 97.396L61.069 89.7039L57.2226 87.3683L54.8863 91.2143L52.5501 95.0604ZM42.6387 83.7773L40.3024 87.6234L52.5501 95.0604L54.8863 91.2143L57.2226 87.3683L44.9749 79.9313L42.6387 83.7773Z" fill="#203059"></path>
<path d="M37.8669 62.4937L33.9696 64.7434L38.4702 72.5372L42.3675 70.2876L40.1172 66.3906L37.8669 62.4937ZM106.054 33.5251L109.951 31.2754L105.45 23.4816L101.553 25.7312L103.804 29.6282L106.054 33.5251ZM40.1172 66.3906L42.3675 70.2876L106.054 33.5251L103.804 29.6282L101.553 25.7312L37.8669 62.4937L40.1172 66.3906Z" fill="#203059"></path>
<path d="M158.58 39.5406L154.683 37.2909L150.182 45.0847L154.08 47.3344L156.33 43.4375L158.58 39.5406ZM192.346 69.4234L196.243 71.673L200.744 63.8792L196.847 61.6295L194.596 65.5264L192.346 69.4234ZM156.33 43.4375L154.08 47.3344L192.346 69.4234L194.596 65.5264L196.847 61.6295L158.58 39.5406L156.33 43.4375Z" fill="#203059"></path>
<path d="M207.812 87.5137V141.709" stroke="#203059" stroke-width="9" stroke-linecap="square"></path>
<path d="M207.812 87.5137V141.709" stroke="#203059" stroke-width="9" stroke-linecap="square"></path>
<path d="M117.365 171.69V141.036" stroke="#203059" stroke-width="9" stroke-linecap="square"></path>
<path d="M117.365 219.863V193.498" stroke="#203059" stroke-width="9" stroke-linecap="square"></path>
<path d="M64.8128 195.9L60.9155 193.65L56.4149 201.444L60.3122 203.694L62.5625 199.797L64.8128 195.9ZM102.027 227.773L105.924 230.023L110.425 222.229L106.528 219.98L104.277 223.877L102.027 227.773ZM62.5625 199.797L60.3122 203.694L102.027 227.773L104.277 223.877L106.528 219.98L64.8128 195.9L62.5625 199.797Z" fill="#203059"></path>
<path d="M129.08 219.847L125.182 222.097L129.683 229.891L133.58 227.641L131.33 223.744L129.08 219.847ZM197.179 190.929L201.077 188.679L196.576 180.886L192.679 183.135L194.929 187.032L197.179 190.929ZM131.33 223.744L133.58 227.641L197.179 190.929L194.929 187.032L192.679 183.135L129.08 219.847L131.33 223.744Z" fill="#203059"></path>
<path d="M164.506 96.189L160.608 98.4387L165.109 106.233L169.006 103.983L166.756 100.086L164.506 96.189ZM194.004 89.5532L197.901 87.3035L193.4 79.5096L189.503 81.7593L191.754 85.6562L194.004 89.5532ZM166.756 100.086L169.006 103.983L194.004 89.5532L191.754 85.6562L189.503 81.7593L164.506 96.189L166.756 100.086Z" fill="#203059"></path>
<path d="M130.683 115.966L126.786 118.216L131.287 126.01L135.184 123.76L132.934 119.863L130.683 115.966ZM153.04 113.453L156.937 111.203L152.436 103.41L148.539 105.659L150.789 109.556L153.04 113.453ZM132.934 119.863L135.184 123.76L153.04 113.453L150.789 109.556L148.539 105.659L130.683 115.966L132.934 119.863Z" fill="#203059"></path>
<path d="M26.7441 97.2686L26.7441 156.374" stroke="#203059" stroke-width="9" stroke-linecap="square"></path>
<path d="M117.367 212.877C129.603 212.877 139.522 222.797 139.522 235.033C139.522 247.269 129.603 257.189 117.367 257.189C105.131 257.189 95.2111 247.27 95.2109 235.033C95.2109 222.797 105.131 212.877 117.367 212.877Z" fill="#EEA594" stroke="#203059" stroke-width="9"></path>
<path d="M26.6582 161.649C38.8945 161.65 48.8135 171.569 48.8135 183.806C48.8134 196.042 38.8944 205.962 26.6582 205.962C14.4219 205.962 4.50207 196.042 4.50195 183.806C4.50195 171.569 14.4218 161.649 26.6582 161.649Z" fill="#F86447" stroke="#203059" stroke-width="9"></path>
<path d="M208.076 161.649C220.312 161.65 230.231 171.569 230.231 183.806C230.231 196.042 220.312 205.962 208.076 205.962C195.84 205.962 185.92 196.042 185.92 183.806C185.92 171.569 195.84 161.649 208.076 161.649Z" fill="#9EADC7" stroke="#203059" stroke-width="9"></path>
<path d="M117.367 108.688C129.603 108.689 139.522 118.608 139.522 130.845C139.522 143.081 129.603 153.001 117.367 153.001C105.131 153.001 95.2111 143.081 95.2109 130.845C95.2109 118.608 105.131 108.688 117.367 108.688Z" fill="#F86447" stroke="#203059" stroke-width="9"></path>
<path d="M26.6562 56.9395C38.8925 56.9396 48.8115 66.8594 48.8115 79.0957C48.8114 91.332 38.8925 101.252 26.6562 101.252C14.4199 101.252 4.50012 91.332 4.5 79.0957C4.5 66.8593 14.4198 56.9395 26.6562 56.9395Z" fill="#DCCFBD" stroke="#203059" stroke-width="9"></path>
<path d="M208.076 56.9395C220.312 56.9396 230.231 66.8594 230.231 79.0957C230.231 91.332 220.312 101.252 208.076 101.252C195.84 101.252 185.92 91.332 185.92 79.0957C185.92 66.8593 195.84 56.9395 208.076 56.9395Z" fill="#EEA594" stroke="#203059" stroke-width="9"></path>
<path d="M117.367 4.5C129.603 4.50014 139.522 14.4199 139.522 26.6563C139.522 38.8925 129.603 48.8124 117.367 48.8125C105.131 48.8125 95.2111 38.8926 95.2109 26.6562C95.2109 14.4198 105.131 4.5 117.367 4.5Z" fill="#F86447" stroke="#203059" stroke-width="9"></path>
<path d="M765.536 210.718C745.473 210.718 731.598 195.908 731.598 174.068C731.598 152.228 745.473 137.418 765.536 137.418C785.598 137.418 799.474 152.228 799.474 174.068C799.474 195.908 785.598 210.718 765.536 210.718ZM765.536 202.75C779.88 202.75 789.63 190.94 789.63 174.068C789.63 157.196 779.88 145.385 765.536 145.385C751.192 145.385 741.442 157.196 741.442 174.068C741.442 190.94 751.192 202.75 765.536 202.75Z" fill="#203059"></path>
<path d="M719.69 209.688H710.221V138.45H719.69V209.688Z" fill="#203059"></path>
<path d="M678.26 173.038C691.479 173.507 698.417 179.131 698.417 189.91C698.417 202.752 688.76 209.688 671.979 209.688H645.166V138.45H671.979C689.323 138.45 695.979 147.074 695.979 156.916C695.979 166.289 688.76 172.007 678.26 173.038ZM686.135 157.853C686.135 150.354 680.885 146.886 671.979 146.886H654.635V168.726H671.979C680.885 168.726 686.135 165.446 686.135 157.853ZM654.635 201.252H672.26C683.229 201.252 688.573 197.034 688.573 189.254C688.573 181.38 683.229 177.162 672.26 177.162H654.635V201.252Z" fill="#203059"></path>
<path d="M584.949 138.45V201.252H617.575V209.688H575.48V138.45H584.949Z" fill="#203059"></path>
<path d="M525.113 177.162V201.252H562.895V209.688H515.645V138.45H562.051V146.886H525.113V168.726H561.395V177.162H525.113Z" fill="#203059"></path>
<path d="M443.996 138.45H468.278C489.559 138.45 503.622 150.917 503.622 174.069C503.622 197.221 489.559 209.688 468.278 209.688H443.996V138.45ZM453.465 201.252H468.559C484.497 201.252 493.778 191.597 493.778 174.069C493.778 156.635 484.497 146.886 468.559 146.886H453.465V201.252Z" fill="#203059"></path>
<path d="M398.131 210.718C378.069 210.718 364.193 195.908 364.193 174.068C364.193 152.228 378.069 137.418 398.131 137.418C418.194 137.418 432.069 152.228 432.069 174.068C432.069 195.908 418.194 210.718 398.131 210.718ZM398.131 202.75C412.475 202.75 422.225 190.94 422.225 174.068C422.225 157.196 412.475 145.385 398.131 145.385C383.787 145.385 374.037 157.196 374.037 174.068C374.037 190.94 383.787 202.75 398.131 202.75Z" fill="#203059"></path>
<path d="M352.31 138.45V209.688H342.841V138.731L321.747 209.688H302.059L280.965 138.731V209.688H271.496V138.45H290.809L311.903 209.407L332.997 138.45H352.31Z" fill="#203059"></path>
<path d="M740.375 52.001H764.657C785.938 52.001 800.001 64.4676 800.001 87.6198C800.001 110.772 785.938 123.239 764.657 123.239H740.375V52.001ZM749.844 114.803H764.938C780.876 114.803 790.157 105.148 790.157 87.6198C790.157 70.1853 780.876 60.437 764.938 60.437H749.844V114.803Z" fill="#203059"></path>
<path d="M711.223 92.7752L729.411 123.239H718.348L701.192 94.1812H700.911H684.129V123.239H674.66V52.001H700.911C716.661 52.001 726.505 60.2496 726.505 73.0911C726.505 82.8394 720.786 89.9632 711.223 92.7752ZM701.098 60.437H684.129V85.7452H701.098C710.754 85.7452 716.661 81.2459 716.661 73.0911C716.661 64.9362 710.754 60.437 701.098 60.437Z" fill="#203059"></path>
<path d="M666.431 123.239H656.306L648.618 101.68H613.649L605.961 123.239H595.836L621.43 52.001H640.837L666.431 123.239ZM631.18 52.3759L616.649 93.2439H645.618L631.18 52.3759Z" fill="#203059"></path>
<path d="M533.162 52.001H557.444C578.725 52.001 592.788 64.4676 592.788 87.6198C592.788 110.772 578.725 123.239 557.444 123.239H533.162V52.001ZM542.631 114.803H557.725C573.663 114.803 582.944 105.148 582.944 87.6198C582.944 70.1853 573.663 60.437 557.725 60.437H542.631V114.803Z" fill="#203059"></path>
<path d="M506.839 122.864V52.001H516.308V123.239H496.713L464.557 52.3759V123.239H455.088V52.001H474.682L506.839 122.864Z" fill="#203059"></path>
<path d="M446.856 123.239H436.731L429.044 101.68H394.074L386.387 123.239H376.262L401.856 52.001H421.262L446.856 123.239ZM411.606 52.3759L397.075 93.2439H426.044L411.606 52.3759Z" fill="#203059"></path>
<path d="M326.42 52.001H383.327V60.437H359.608V123.239H350.139V60.437H326.42V52.001Z" fill="#203059"></path>
<path d="M294.278 124.27C279.184 124.27 268.309 115.74 266.152 101.773H275.996C277.309 111.428 284.715 116.302 294.278 116.302C306.84 116.302 313.684 111.053 313.684 103.648C313.684 95.8682 307.965 93.9936 296.528 91.4627L287.621 89.4943C276.465 87.0573 268.402 81.4332 268.402 70.7476C268.402 59.4058 279.746 50.9697 294.09 50.9697C309.09 50.9697 319.309 58.8434 321.372 70.5601H311.528C309.278 62.4053 302.715 58.9371 294.09 58.9371C285.09 58.9371 277.965 63.2489 277.965 69.8102C277.965 76.5591 282.559 78.8087 293.528 81.2458L302.434 83.2142C316.778 86.4011 323.247 91.4627 323.247 102.617C323.247 115.365 311.715 124.27 294.278 124.27Z" fill="#203059"></path>
</svg>