<svg width="400" height="612" viewBox="0 0 400 612" fill="none" xmlns="http://www.w3.org/2000/svg">
<path d="M125.572 171.792L120.412 168.731L114.533 179.192L119.693 182.253L122.633 177.022L125.572 171.792ZM175.448 215.322L180.609 218.382L186.488 207.921L181.328 204.86L178.388 210.091L175.448 215.322ZM122.633 177.022L119.693 182.253L175.448 215.322L178.388 210.091L181.328 204.86L125.572 171.792L122.633 177.022Z" fill="#F8F4EB"></path>
<path d="M125.572 171.792L120.412 168.731L114.533 179.192L119.693 182.253L122.633 177.022L125.572 171.792ZM175.448 215.322L180.609 218.382L186.488 207.921L181.328 204.86L178.388 210.091L175.448 215.322ZM122.633 177.022L119.693 182.253L175.448 215.322L178.388 210.091L181.328 204.86L125.572 171.792L122.633 177.022Z" fill="#F8F4EB"></path>
<path d="M125.572 171.792L120.412 168.731L114.533 179.192L119.693 182.253L122.633 177.022L125.572 171.792ZM175.448 215.322L180.609 218.382L186.488 207.921L181.328 204.86L178.388 210.091L175.448 215.322ZM122.633 177.022L119.693 182.253L175.448 215.322L178.388 210.091L181.328 204.86L125.572 171.792L122.633 177.022Z" fill="#F8F4EB"></path>
<path d="M75.7151 141.523L70.6219 138.346L64.512 148.666L69.6052 151.844L72.6602 146.684L75.7151 141.523ZM90.475 164.865L95.5682 168.042L101.678 157.721L96.585 154.544L93.53 159.704L90.475 164.865ZM72.6602 146.684L69.6052 151.844L90.475 164.865L93.53 159.704L96.585 154.544L75.7151 141.523L72.6602 146.684Z" fill="#F8F4EB"></path>
<path d="M75.7151 141.523L70.6219 138.346L64.512 148.666L69.6052 151.844L72.6602 146.684L75.7151 141.523ZM90.475 164.865L95.5682 168.042L101.678 157.721L96.585 154.544L93.53 159.704L90.475 164.865ZM72.6602 146.684L69.6052 151.844L90.475 164.865L93.53 159.704L96.585 154.544L75.7151 141.523L72.6602 146.684Z" fill="#F8F4EB"></path>
<path d="M75.7151 141.523L70.6219 138.346L64.512 148.666L69.6052 151.844L72.6602 146.684L75.7151 141.523ZM90.475 164.865L95.5682 168.042L101.678 157.721L96.585 154.544L93.53 159.704L90.475 164.865ZM72.6602 146.684L69.6052 151.844L90.475 164.865L93.53 159.704L96.585 154.544L75.7151 141.523L72.6602 146.684Z" fill="#F8F4EB"></path>
<path d="M65.4217 111.012L60.2611 114.072L66.1404 124.533L71.301 121.473L68.3613 116.242L65.4217 111.012ZM179.827 57.1059L184.987 54.0452L179.108 43.5841L173.947 46.6449L176.887 51.8754L179.827 57.1059ZM68.3613 116.242L71.301 121.473L179.827 57.1059L176.887 51.8754L173.947 46.6449L65.4217 111.012L68.3613 116.242Z" fill="#F8F4EB"></path>
<path d="M269.336 70.8232L264.176 67.7624L258.296 78.2235L263.457 81.2842L266.396 76.0537L269.336 70.8232ZM328.665 119.959L333.826 123.02L339.705 112.559L334.544 109.498L331.605 114.729L328.665 119.959ZM266.396 76.0537L263.457 81.2842L328.665 119.959L331.605 114.729L334.544 109.498L269.336 70.8232L266.396 76.0537Z" fill="#F8F4EB"></path>
<path d="M354.129 153.227V248.116" stroke="#F8F4EB" stroke-width="12" stroke-linecap="square"></path>
<path d="M354.129 153.227V248.116" stroke="#F8F4EB" stroke-width="12" stroke-linecap="square"></path>
<path d="M200 300.61V246.937" stroke="#F8F4EB" stroke-width="12" stroke-linecap="square"></path>
<path d="M200 384.954V338.792" stroke="#F8F4EB" stroke-width="12" stroke-linecap="square"></path>
<path d="M109.549 344.591L104.388 341.53L98.5091 351.991L103.67 355.052L106.609 349.821L109.549 344.591ZM174.755 397.212L179.915 400.273L185.795 389.812L180.634 386.751L177.694 391.982L174.755 397.212ZM106.609 349.821L103.67 355.052L174.755 397.212L177.694 391.982L180.634 386.751L109.549 344.591L106.609 349.821Z" fill="#F8F4EB"></path>
<path d="M220.855 386.518L215.695 389.579L221.574 400.04L226.735 396.98L223.795 391.749L220.855 386.518ZM335.111 332.701L340.272 329.64L334.393 319.179L329.232 322.24L332.172 327.471L335.111 332.701ZM223.795 391.749L226.735 396.98L335.111 332.701L332.172 327.471L329.232 322.24L220.855 386.518L223.795 391.749Z" fill="#F8F4EB"></path>
<path d="M281.224 170.009L276.064 173.069L281.943 183.531L287.104 180.47L284.164 175.239L281.224 170.009ZM329.701 155.205L334.862 152.144L328.983 141.683L323.822 144.744L326.762 149.975L329.701 155.205ZM284.164 175.239L287.104 180.47L329.701 155.205L326.762 149.975L323.822 144.744L281.224 170.009L284.164 175.239Z" fill="#F8F4EB"></path>
<path d="M223.588 204.637L218.427 207.697L224.306 218.158L229.467 215.098L226.527 209.867L223.588 204.637ZM259.894 197.051L265.055 193.991L259.175 183.529L254.015 186.59L256.955 191.821L259.894 197.051ZM226.527 209.867L229.467 215.098L259.894 197.051L256.955 191.821L254.015 186.59L223.588 204.637L226.527 209.867Z" fill="#F8F4EB"></path>
<path d="M45.5742 170.306L45.5742 273.792" stroke="#F8F4EB" stroke-width="12" stroke-linecap="square"></path>
<circle cx="200" cy="412.144" r="40.0434" fill="#FC8765" stroke="#F8F4EB" stroke-width="12"></circle>
<circle cx="46.0434" cy="321.822" r="40.0434" fill="#F86447" stroke="#F8F4EB" stroke-width="12"></circle>
<circle cx="353.957" cy="321.822" r="40.0434" fill="#9EADC7" stroke="#F8F4EB" stroke-width="12"></circle>
<circle cx="200" cy="229.094" r="40.0434" fill="#F86447" stroke="#F8F4EB" stroke-width="12"></circle>
<circle cx="46.0434" cy="138.487" r="40.0434" fill="#203059" stroke="#F8F4EB" stroke-width="12"></circle>
<circle cx="353.955" cy="138.487" r="40.0434" fill="#FC8765" stroke="#F8F4EB" stroke-width="12"></circle>
<circle cx="200" cy="46.0434" r="40.0434" fill="#F86447" stroke="#F8F4EB" stroke-width="12"></circle>
<path d="M374.177 611.769C359.144 611.769 348.748 600.367 348.748 583.553C348.748 566.74 359.144 555.338 374.177 555.338C389.21 555.338 399.606 566.74 399.606 583.553C399.606 600.367 389.21 611.769 374.177 611.769ZM374.177 605.635C384.925 605.635 392.23 596.543 392.23 583.553C392.23 570.564 384.925 561.472 374.177 561.472C363.429 561.472 356.124 570.564 356.124 583.553C356.124 596.543 363.429 605.635 374.177 605.635Z" fill="#F8F4EB"></path>
<path d="M339.825 610.975H332.73V556.132H339.825V610.975Z" fill="#F8F4EB"></path>
<path d="M308.783 582.76C318.688 583.121 323.886 587.45 323.886 595.749C323.886 605.635 316.651 610.975 304.077 610.975H283.986V556.132H304.077C317.072 556.132 322.06 562.771 322.06 570.348C322.06 577.564 316.651 581.966 308.783 582.76ZM314.684 571.069C314.684 565.296 310.75 562.626 304.077 562.626H291.081V579.44H304.077C310.75 579.44 314.684 576.915 314.684 571.069ZM291.081 604.481H304.287C312.506 604.481 316.51 601.233 316.51 595.244C316.51 589.182 312.506 585.935 304.287 585.935H291.081V604.481Z" fill="#F8F4EB"></path>
<path d="M238.866 556.132V604.481H263.312V610.975H231.771V556.132H238.866Z" fill="#F8F4EB"></path>
<path d="M194.032 585.935V604.481H222.341V610.975H186.938V556.132H221.709V562.626H194.032V579.44H221.217V585.935H194.032Z" fill="#F8F4EB"></path>
<path d="M133.254 556.132H151.448C167.393 556.132 177.93 565.729 177.93 583.553C177.93 601.378 167.393 610.975 151.448 610.975H133.254V556.132ZM140.349 604.481H151.658C163.6 604.481 170.554 597.048 170.554 583.553C170.554 570.131 163.6 562.626 151.658 562.626H140.349V604.481Z" fill="#F8F4EB"></path>
<path d="M98.8899 611.769C83.8573 611.769 73.4609 600.367 73.4609 583.553C73.4609 566.74 83.8573 555.338 98.8899 555.338C113.923 555.338 124.319 566.74 124.319 583.553C124.319 600.367 113.923 611.769 98.8899 611.769ZM98.8899 605.635C109.638 605.635 116.943 596.543 116.943 583.553C116.943 570.564 109.638 561.472 98.8899 561.472C88.1423 561.472 80.8367 570.564 80.8367 583.553C80.8367 596.543 88.1423 605.635 98.8899 605.635Z" fill="#F8F4EB"></path>
<path d="M64.5558 556.132V610.975H57.461V556.348L41.6557 610.975H26.904L11.0987 556.348V610.975H4.00391V556.132H18.4745L34.2798 610.759L50.0851 556.132H64.5558Z" fill="#F8F4EB"></path>
<path d="M355.324 489.578H373.518C389.464 489.578 400.001 499.176 400.001 517C400.001 534.824 389.464 544.421 373.518 544.421H355.324V489.578ZM362.419 537.927H373.729C385.67 537.927 392.625 530.494 392.625 517C392.625 503.578 385.67 496.073 373.729 496.073H362.419V537.927Z" fill="#F8F4EB"></path>
<path d="M333.482 520.969L347.109 544.421H338.82L325.966 522.051H325.755H313.181V544.421H306.086V489.578H325.755C337.556 489.578 344.932 495.928 344.932 505.815C344.932 513.32 340.647 518.804 333.482 520.969ZM325.895 496.073H313.181V515.557H325.895C333.131 515.557 337.556 512.093 337.556 505.815C337.556 499.537 333.131 496.073 325.895 496.073Z" fill="#F8F4EB"></path>
<path d="M299.919 544.421H292.332L286.572 527.824H260.37L254.61 544.421H247.023L266.201 489.578H280.741L299.919 544.421ZM273.506 489.867L262.618 521.33H284.324L273.506 489.867Z" fill="#F8F4EB"></path>
<path d="M200.064 489.578H218.258C234.204 489.578 244.741 499.176 244.741 517C244.741 534.824 234.204 544.421 218.258 544.421H200.064V489.578ZM207.159 537.927H218.469C230.411 537.927 237.365 530.494 237.365 517C237.365 503.578 230.411 496.073 218.469 496.073H207.159V537.927Z" fill="#F8F4EB"></path>
<path d="M180.34 544.133V489.578H187.435V544.421H172.754L148.659 489.867V544.421H141.564V489.578H156.246L180.34 544.133Z" fill="#F8F4EB"></path>
<path d="M135.397 544.421H127.81L122.05 527.824H95.8486L90.0885 544.421H82.502L101.679 489.578H116.22L135.397 544.421ZM108.985 489.867L98.0965 521.33H119.802L108.985 489.867Z" fill="#F8F4EB"></path>
<path d="M45.1562 489.578H87.7954V496.073H70.0233V544.421H62.9284V496.073H45.1562V489.578Z" fill="#F8F4EB"></path>
<path d="M21.0737 545.215C9.76416 545.215 1.61565 538.648 0 527.896H7.37581C8.35925 535.329 13.9087 539.081 21.0737 539.081C30.4867 539.081 35.6146 535.04 35.6146 529.339C35.6146 523.35 31.3296 521.907 22.7596 519.958L16.0863 518.443C7.72704 516.567 1.6859 512.237 1.6859 504.01C1.6859 495.279 10.1856 488.784 20.9332 488.784C32.1726 488.784 39.8294 494.846 41.3748 503.866H33.999C32.3131 497.588 27.3959 494.918 20.9332 494.918C14.1896 494.918 8.85097 498.237 8.85097 503.289C8.85097 508.484 12.293 510.216 20.5118 512.093L27.1851 513.608C37.9327 516.062 42.7797 519.958 42.7797 528.546C42.7797 538.36 34.1394 545.215 21.0737 545.215Z" fill="#F8F4EB"></path>
</svg>