<svg width="1450" height="228" viewBox="0 0 1450 228" fill="none" xmlns="http://www.w3.org/2000/svg">
<path d="M767.922 75.8047H794.816C818.387 75.8047 833.963 88.9612 833.963 113.395C833.963 137.828 818.387 150.985 794.816 150.985H767.922V75.8047ZM778.41 142.082H795.127C812.78 142.082 823.06 131.893 823.06 113.395C823.06 94.9954 812.78 84.7076 795.127 84.7076H778.41V142.082Z" fill="#203059"></path>
<path d="M735.639 118.835L755.784 150.985H743.531L724.529 120.319H724.217H705.63V150.985H695.143V75.8047H724.217C741.662 75.8047 752.565 84.5098 752.565 98.062C752.565 108.35 746.231 115.868 735.639 118.835ZM724.425 84.7076H705.63V111.416H724.425C735.12 111.416 741.662 106.668 741.662 98.062C741.662 89.4558 735.12 84.7076 724.425 84.7076Z" fill="#203059"></path>
<path d="M686.026 150.985H674.811L666.297 128.233H627.565L619.05 150.985H607.836L636.184 75.8047H657.678L686.026 150.985ZM646.983 76.2004L630.888 119.33H662.974L646.983 76.2004Z" fill="#203059"></path>
<path d="M538.416 75.8047H565.31C588.881 75.8047 604.457 88.9612 604.457 113.395C604.457 137.828 588.881 150.985 565.31 150.985H538.416V75.8047ZM548.904 142.082H565.622C583.274 142.082 593.554 131.893 593.554 113.395C593.554 94.9954 583.274 84.7076 565.622 84.7076H548.904V142.082Z" fill="#203059"></path>
<path d="M509.264 150.589V75.8047H519.751V150.985H498.049L462.433 76.2004V150.985H451.945V75.8047H473.647L509.264 150.589Z" fill="#203059"></path>
<path d="M442.829 150.985H431.614L423.099 128.233H384.368L375.853 150.985H364.639L392.986 75.8047H414.481L442.829 150.985ZM403.786 76.2004L387.691 119.33H419.777L403.786 76.2004Z" fill="#203059"></path>
<path d="M309.436 75.8047H372.465V84.7076H346.194V150.985H335.707V84.7076H309.436V75.8047Z" fill="#203059"></path>
<path d="M273.835 152.073C257.117 152.073 245.072 143.071 242.684 128.332H253.587C255.04 138.521 263.243 143.665 273.835 143.665C287.749 143.665 295.329 138.125 295.329 130.311C295.329 122.1 288.995 120.122 276.327 117.451L266.462 115.373C254.106 112.801 245.176 106.866 245.176 95.5892C245.176 83.6197 257.74 74.7168 273.627 74.7168C290.241 74.7168 301.56 83.0262 303.844 95.3913H292.941C290.449 86.7852 283.18 83.1251 273.627 83.1251C263.659 83.1251 255.767 87.6755 255.767 94.6C255.767 101.722 260.855 104.096 273.004 106.668L282.869 108.746C298.756 112.109 305.921 117.451 305.921 129.222C305.921 142.676 293.149 152.073 273.835 152.073Z" fill="#203059"></path>
<path d="M1412.41 152.073C1390.19 152.073 1374.82 136.444 1374.82 113.395C1374.82 90.3463 1390.19 74.7168 1412.41 74.7168C1434.63 74.7168 1450 90.3463 1450 113.395C1450 136.444 1434.63 152.073 1412.41 152.073ZM1412.41 143.665C1428.3 143.665 1439.1 131.201 1439.1 113.395C1439.1 95.5892 1428.3 83.1251 1412.41 83.1251C1396.52 83.1251 1385.73 95.5892 1385.73 113.395C1385.73 131.201 1396.52 143.665 1412.41 143.665Z" fill="#203059"></path>
<path d="M1361.63 152.073H1351.14V76.8926H1361.63V152.073Z" fill="#203059"></path>
<path d="M1315.74 113.394C1330.39 113.889 1338.07 119.824 1338.07 131.2C1338.07 144.753 1327.37 152.073 1308.79 152.073H1279.09V76.8926H1308.79C1328 76.8926 1335.37 85.9933 1335.37 96.3801C1335.37 106.272 1327.37 112.306 1315.74 113.394ZM1324.47 97.3693C1324.47 89.4556 1318.65 85.7955 1308.79 85.7955H1289.58V108.844H1308.79C1318.65 108.844 1324.47 105.382 1324.47 97.3693ZM1289.58 143.17H1309.1C1321.25 143.17 1327.17 138.718 1327.17 130.508C1327.17 122.198 1321.25 117.747 1309.1 117.747H1289.58V143.17Z" fill="#203059"></path>
<path d="M1212.4 76.8926V143.17H1248.53V152.073H1201.91V76.8926H1212.4Z" fill="#203059"></path>
<path d="M1146.12 117.747V143.17H1187.97V152.073H1135.63V76.8926H1187.03V85.7955H1146.12V108.844H1186.31V117.747H1146.12Z" fill="#203059"></path>
<path d="M1056.28 76.8926H1083.18C1106.75 76.8926 1122.32 90.0491 1122.32 114.483C1122.32 138.916 1106.75 152.073 1083.18 152.073H1056.28V76.8926ZM1066.77 143.17H1083.49C1101.14 143.17 1111.42 132.981 1111.42 114.483C1111.42 96.0833 1101.14 85.7955 1083.49 85.7955H1066.77V143.17Z" fill="#203059"></path>
<path d="M1005.48 152.073C983.257 152.073 967.889 136.444 967.889 113.395C967.889 90.3463 983.257 74.7168 1005.48 74.7168C1027.7 74.7168 1043.07 90.3463 1043.07 113.395C1043.07 136.444 1027.7 152.073 1005.48 152.073ZM1005.48 143.665C1021.37 143.665 1032.16 131.201 1032.16 113.395C1032.16 95.5892 1021.37 83.1251 1005.48 83.1251C989.591 83.1251 978.792 95.5892 978.792 113.395C978.792 131.201 989.591 143.665 1005.48 143.665Z" fill="#203059"></path>
<path d="M954.729 76.8926V152.073H944.241V77.1893L920.878 152.073H899.072L875.708 77.1893V152.073H865.221V76.8926H886.611L909.975 151.776L933.338 76.8926H954.729Z" fill="#203059"></path>
<path d="M62.8348 84.388L59.3944 82.3475L55.4748 89.3215L58.9152 91.362L60.875 87.875L62.8348 84.388ZM86.5924 107.777L90.0328 109.818L93.9524 102.844L90.512 100.803L88.5522 104.29L86.5924 107.777ZM60.875 87.875L58.9152 91.362L86.5924 107.777L88.5522 104.29L90.512 100.803L62.8348 84.388L60.875 87.875Z" fill="#203059"></path>
<path d="M62.8348 84.388L59.3944 82.3475L55.4748 89.3215L58.9152 91.362L60.875 87.875L62.8348 84.388ZM86.5924 107.777L90.0328 109.818L93.9524 102.844L90.512 100.803L88.5522 104.29L86.5924 107.777ZM60.875 87.875L58.9152 91.362L86.5924 107.777L88.5522 104.29L90.512 100.803L62.8348 84.388L60.875 87.875Z" fill="#203059"></path>
<path d="M62.8348 84.388L59.3944 82.3475L55.4748 89.3215L58.9152 91.362L60.875 87.875L62.8348 84.388ZM86.5924 107.777L90.0328 109.818L93.9524 102.844L90.512 100.803L88.5522 104.29L86.5924 107.777ZM60.875 87.875L58.9152 91.362L86.5924 107.777L88.5522 104.29L90.512 100.803L62.8348 84.388L60.875 87.875Z" fill="#203059"></path>
<path d="M38.105 69.3742L34.7095 67.2558L30.6363 74.1363L34.0317 76.2547L36.0684 72.8145L38.105 69.3742ZM44.3916 82.7182L47.7871 84.8366L51.8604 77.9561L48.4649 75.8377L46.4283 79.278L44.3916 82.7182ZM36.0684 72.8145L34.0317 76.2547L44.3916 82.7182L46.4283 79.278L48.4649 75.8377L38.105 69.3742L36.0684 72.8145Z" fill="#203059"></path>
<path d="M38.105 69.3742L34.7095 67.2558L30.6363 74.1363L34.0317 76.2547L36.0684 72.8145L38.105 69.3742ZM44.3916 82.7182L47.7871 84.8366L51.8604 77.9561L48.4649 75.8377L46.4283 79.278L44.3916 82.7182ZM36.0684 72.8145L34.0317 76.2547L44.3916 82.7182L46.4283 79.278L48.4649 75.8377L38.105 69.3742L36.0684 72.8145Z" fill="#203059"></path>
<path d="M38.105 69.3742L34.7095 67.2558L30.6363 74.1363L34.0317 76.2547L36.0684 72.8145L38.105 69.3742ZM44.3916 82.7182L47.7871 84.8366L51.8604 77.9561L48.4649 75.8377L46.4283 79.278L44.3916 82.7182ZM36.0684 72.8145L34.0317 76.2547L44.3916 82.7182L46.4283 79.278L48.4649 75.8377L38.105 69.3742L36.0684 72.8145Z" fill="#203059"></path>
<path d="M31.9758 54.2161L28.5354 56.2566L32.4549 63.2307L35.8953 61.1901L33.9355 57.7031L31.9758 54.2161ZM89.7681 29.2381L93.2085 27.1976L89.2889 20.2235L85.8485 22.264L87.8083 25.7511L89.7681 29.2381ZM33.9355 57.7031L35.8953 61.1901L89.7681 29.2381L87.8083 25.7511L85.8485 22.264L31.9758 54.2161L33.9355 57.7031Z" fill="#203059"></path>
<path d="M134.2 34.2669L130.76 32.2264L126.84 39.2004L130.28 41.2409L132.24 37.7539L134.2 34.2669ZM162.65 60.4395L166.091 62.48L170.01 55.506L166.57 53.4655L164.61 56.9525L162.65 60.4395ZM132.24 37.7539L130.28 41.2409L162.65 60.4395L164.61 56.9525L166.57 53.4655L134.2 34.2669L132.24 37.7539Z" fill="#203059"></path>
<path d="M175.791 76.0635V123.167" stroke="#203059" stroke-width="8" stroke-linecap="square"></path>
<path d="M175.791 76.0635V123.167" stroke="#203059" stroke-width="8" stroke-linecap="square"></path>
<path d="M99.2812 149.226V122.582" stroke="#203059" stroke-width="8" stroke-linecap="square"></path>
<path d="M99.2812 191.094V168.179" stroke="#203059" stroke-width="8" stroke-linecap="square"></path>
<path d="M54.8816 170.166L51.4412 168.126L47.5217 175.1L50.9621 177.14L52.9219 173.653L54.8816 170.166ZM86.2491 198.069L89.6895 200.11L93.609 193.136L90.1686 191.095L88.2089 194.582L86.2491 198.069ZM52.9219 173.653L50.9621 177.14L86.2491 198.069L88.2089 194.582L90.1686 191.095L54.8816 170.166L52.9219 173.653Z" fill="#203059"></path>
<path d="M109.132 190.98L105.692 193.02L109.611 199.994L113.052 197.954L111.092 194.467L109.132 190.98ZM166.85 166.046L170.291 164.005L166.371 157.031L162.931 159.072L164.891 162.559L166.85 166.046ZM111.092 194.467L113.052 197.954L166.85 166.046L164.891 162.559L162.931 159.072L109.132 190.98L111.092 194.467Z" fill="#203059"></path>
<path d="M139.101 83.5032L135.66 85.5437L139.58 92.5178L143.02 90.4773L141.061 86.9902L139.101 83.5032ZM164.166 77.9357L167.606 75.8952L163.687 68.9211L160.246 70.9616L162.206 74.4487L164.166 77.9357ZM141.061 86.9902L143.02 90.4773L164.166 77.9357L162.206 74.4487L160.246 70.9616L139.101 83.5032L141.061 86.9902Z" fill="#203059"></path>
<path d="M110.489 100.693L107.049 102.733L110.969 109.707L114.409 107.667L112.449 104.18L110.489 100.693ZM129.513 98.7084L132.954 96.6678L129.034 89.6938L125.594 91.7343L127.553 95.2213L129.513 98.7084ZM112.449 104.18L114.409 107.667L129.513 98.7084L127.553 95.2213L125.594 91.7343L110.489 100.693L112.449 104.18Z" fill="#203059"></path>
<path d="M22.623 84.541L22.623 135.912" stroke="#203059" stroke-width="8" stroke-linecap="square"></path>
<path d="M99.2822 185.734C109.696 185.735 118.138 194.177 118.138 204.591C118.138 215.005 109.696 223.447 99.2822 223.447C88.8683 223.447 80.4259 215.005 80.4258 204.591C80.4258 194.177 88.8683 185.734 99.2822 185.734Z" fill="#EEA594" stroke="#203059" stroke-width="8"></path>
<path d="M22.8564 140.898C33.2703 140.899 41.7119 149.341 41.7119 159.755C41.7118 170.169 33.2702 178.611 22.8564 178.611C12.4426 178.611 4.00013 170.169 4 159.755C4 149.341 12.4425 140.898 22.8564 140.898Z" fill="#F86447" stroke="#203059" stroke-width="8"></path>
<path d="M175.706 140.898C186.12 140.899 194.562 149.341 194.562 159.755C194.561 170.169 186.12 178.611 175.706 178.611C165.292 178.611 156.85 170.169 156.85 159.755C156.85 149.341 165.292 140.898 175.706 140.898Z" fill="#C4CDDE" stroke="#203059" stroke-width="8"></path>
<path d="M99.2822 94.8672C109.696 94.8673 118.138 103.31 118.138 113.724C118.138 124.137 109.696 132.58 99.2822 132.58C88.8683 132.58 80.4259 124.138 80.4258 113.724C80.4258 103.31 88.8683 94.8672 99.2822 94.8672Z" fill="#F86447" stroke="#203059" stroke-width="8"></path>
<path d="M22.8564 49.8896C33.2703 49.8898 41.7119 58.3322 41.7119 68.7461C41.7118 79.1599 33.2702 87.6024 22.8564 87.6025C12.4426 87.6025 4.00013 79.16 4 68.7461C4 58.3321 12.4425 49.8896 22.8564 49.8896Z" fill="#DCCFBD" stroke="#203059" stroke-width="8"></path>
<path d="M175.706 49.8896C186.12 49.8898 194.562 58.3322 194.562 68.7461C194.561 79.1599 186.12 87.6024 175.706 87.6025C165.292 87.6025 156.85 79.16 156.85 68.7461C156.85 58.3321 165.292 49.8896 175.706 49.8896Z" fill="#EEA594" stroke="#203059" stroke-width="8"></path>
<path d="M99.2822 4C109.696 4.00015 118.138 12.4425 118.138 22.8564C118.138 33.2702 109.696 41.7127 99.2822 41.7129C88.8683 41.7129 80.4259 33.2703 80.4258 22.8564C80.4258 12.4424 88.8683 4 99.2822 4Z" fill="#F86447" stroke="#203059" stroke-width="8"></path>
</svg>