<svg width="3818" height="523" viewBox="0 0 3818 523" fill="none" xmlns="http://www.w3.org/2000/svg">
<path d="M1276.73 274.726C1257.05 397.172 1188.94 523 1052.71 523C916.49 523 886.217 397.172 905.894 274.726C924.814 152.28 992.927 26.451 1130.67 26.451C1268.4 26.451 1295.65 152.28 1276.73 274.726ZM1068.61 416.79C1102.66 416.79 1129.91 362.67 1144.29 274.726C1157.91 186.781 1148.07 132.661 1113.26 132.661C1078.45 132.661 1051.96 186.781 1038.33 274.726C1023.96 362.67 1033.79 416.79 1068.61 416.79Z" fill="url(#paint0_linear_37_2)"></path>
<path d="M1720.22 510.823H1556.75L1549.18 297.05L1475.01 510.823H1312.3L1299.43 37.275H1426.58L1419.76 391.083L1532.53 37.275H1648.32L1649.83 391.083L1754.27 37.275H1880.66L1720.22 510.823Z" fill="url(#paint1_linear_37_2)"></path>
<path d="M1975.94 217.9H2094.76L2078.11 324.786H1959.29L1946.42 404.613H2085.68L2068.27 511.5H1796.58L1871.5 37.9515H2143.19L2127.3 144.162H1988.05L1975.94 217.9Z" fill="url(#paint2_linear_37_2)"></path>
<path d="M2298.34 511.5L2242.33 345.081L2215.09 511.5H2082.65L2157.57 37.9515H2323.31C2458.02 37.9515 2480.73 131.985 2468.62 206.399C2459.54 260.519 2423.97 309.227 2360.4 331.551L2436.83 511.5H2298.34ZM2336.18 206.399C2342.99 166.486 2326.34 144.162 2274.12 144.162L2254.44 268.637C2306.66 268.637 2330.12 246.313 2336.18 206.399Z" fill="url(#paint3_linear_37_2)"></path>
<path d="M2828.86 206.399C2817.51 280.814 2765.29 375.524 2630.57 375.524H2597.28L2575.33 511.5H2442.89L2517.81 37.9515H2683.55C2818.26 37.9515 2840.97 131.985 2828.86 206.399ZM2696.42 206.399C2703.23 166.486 2686.58 144.162 2634.36 144.162L2614.68 268.637C2666.9 268.637 2690.36 246.313 2696.42 206.399Z" fill="url(#paint4_linear_37_2)"></path>
<path d="M2802.37 511.5L2877.29 37.9515H3009.73L2952.22 405.29H3091.47L3074.06 511.5H2802.37Z" fill="url(#paint5_linear_37_2)"></path>
<path d="M3208.02 416.114L3178.5 511.5H3043.03L3214.83 37.9515H3398.73L3420.68 511.5H3285.21L3285.97 416.114H3208.02ZM3288.24 309.903L3289.75 150.25L3240.56 309.903H3288.24Z" fill="url(#paint6_linear_37_2)"></path>
<path d="M3617.45 510.823H3485.01L3509.22 352.523L3433.54 37.275H3569.01L3597.77 220.606L3682.53 37.275H3818L3641.66 352.523L3617.45 510.823Z" fill="url(#paint7_linear_37_2)"></path>
<path d="M755.29 37.9515H589.55L562.305 210.255L384.078 98.498L375.829 150.994L255.573 68.5292L248.459 115.343L0 0L308.095 317.142L317.858 256.122L443.411 348.058L450.525 304.356L537.709 365.511L514.627 511.567H647.067L669.015 375.591H702.314C837.025 375.591 889.245 280.882 900.597 206.467C912.705 132.052 890.001 38.0191 755.29 38.0191V37.9515ZM768.156 206.399C762.102 246.313 738.641 268.637 686.421 268.637L706.098 144.162C758.318 144.162 774.967 166.486 768.156 206.399Z" fill="url(#paint8_linear_37_2)"></path>
<defs>
<linearGradient id="paint0_linear_37_2" x1="66.2737" y1="69.3483" x2="1967.28" y2="-1711.95" gradientUnits="userSpaceOnUse">
<stop stop-color="#E505F5"></stop>
<stop offset="0.609375" stop-color="#FF0055"></stop>
</linearGradient>
<linearGradient id="paint1_linear_37_2" x1="66.2737" y1="69.3483" x2="1967.28" y2="-1711.95" gradientUnits="userSpaceOnUse">
<stop stop-color="#E505F5"></stop>
<stop offset="0.609375" stop-color="#FF0055"></stop>
</linearGradient>
<linearGradient id="paint2_linear_37_2" x1="66.2737" y1="69.3483" x2="1967.28" y2="-1711.95" gradientUnits="userSpaceOnUse">
<stop stop-color="#E505F5"></stop>
<stop offset="0.609375" stop-color="#FF0055"></stop>
</linearGradient>
<linearGradient id="paint3_linear_37_2" x1="66.2737" y1="69.3483" x2="1967.28" y2="-1711.95" gradientUnits="userSpaceOnUse">
<stop stop-color="#E505F5"></stop>
<stop offset="0.609375" stop-color="#FF0055"></stop>
</linearGradient>
<linearGradient id="paint4_linear_37_2" x1="66.2737" y1="69.3483" x2="1967.28" y2="-1711.95" gradientUnits="userSpaceOnUse">
<stop stop-color="#E505F5"></stop>
<stop offset="0.609375" stop-color="#FF0055"></stop>
</linearGradient>
<linearGradient id="paint5_linear_37_2" x1="66.2737" y1="69.3483" x2="1967.28" y2="-1711.95" gradientUnits="userSpaceOnUse">
<stop stop-color="#E505F5"></stop>
<stop offset="0.609375" stop-color="#FF0055"></stop>
</linearGradient>
<linearGradient id="paint6_linear_37_2" x1="66.2737" y1="69.3483" x2="1967.28" y2="-1711.95" gradientUnits="userSpaceOnUse">
<stop stop-color="#E505F5"></stop>
<stop offset="0.609375" stop-color="#FF0055"></stop>
</linearGradient>
<linearGradient id="paint7_linear_37_2" x1="66.2737" y1="69.3483" x2="1967.28" y2="-1711.95" gradientUnits="userSpaceOnUse">
<stop stop-color="#E505F5"></stop>
<stop offset="0.609375" stop-color="#FF0055"></stop>
</linearGradient>
<linearGradient id="paint8_linear_37_2" x1="66.2737" y1="69.3483" x2="1967.28" y2="-1711.95" gradientUnits="userSpaceOnUse">
<stop stop-color="#E505F5"></stop>
<stop offset="0.609375" stop-color="#FF0055"></stop>
</linearGradient>
</defs>
</svg>