<svg width="230" height="230" viewBox="0 0 230 230" fill="none" xmlns="http://www.w3.org/2000/svg">
<path d="M4.79175 220.8H225.208" stroke="#B52D04" stroke-width="5" stroke-linecap="round" stroke-linejoin="round"></path>
<path d="M43.125 179.4C43.1125 178.783 42.9787 178.175 42.7311 177.61C42.4836 177.045 42.1271 176.534 41.6821 176.107C41.2372 175.68 40.7124 175.345 40.1378 175.121C39.5632 174.896 38.95 174.787 38.3333 174.8H19.1667C18.55 174.787 17.9368 174.896 17.3622 175.121C16.7876 175.345 16.2628 175.68 15.8179 176.107C15.3729 176.534 15.0164 177.045 14.7689 177.61C14.5213 178.175 14.3875 178.783 14.375 179.4V220.8H43.125V179.4Z" fill="#F86447"></path>
<path d="M100.625 133.4C100.613 132.783 100.479 132.175 100.231 131.61C99.9836 131.045 99.6271 130.534 99.1821 130.107C98.7372 129.68 98.2124 129.345 97.6378 129.121C97.0632 128.896 96.45 128.787 95.8333 128.8H76.6667C76.05 128.787 75.4368 128.896 74.8622 129.121C74.2876 129.345 73.7628 129.68 73.3179 130.107C72.8729 130.534 72.5164 131.045 72.2689 131.61C72.0213 132.175 71.8875 132.783 71.875 133.4V220.8H100.625V133.4Z" fill="#F86447"></path>
<path d="M158.125 151.8C158.113 151.183 157.979 150.575 157.731 150.01C157.484 149.445 157.127 148.935 156.682 148.507C156.237 148.08 155.712 147.745 155.138 147.521C154.563 147.296 153.95 147.187 153.333 147.2H134.167C133.55 147.187 132.937 147.296 132.362 147.521C131.788 147.745 131.263 148.08 130.818 148.507C130.373 148.935 130.016 149.445 129.769 150.01C129.521 150.575 129.387 151.183 129.375 151.8V220.8H158.125V151.8Z" fill="#F86447"></path>
<path d="M215.625 87.4C215.613 86.7833 215.479 86.1751 215.231 85.6101C214.984 85.0452 214.627 84.5345 214.182 84.1073C213.737 83.6801 213.212 83.3448 212.638 83.1205C212.063 82.8962 211.45 82.7873 210.833 82.8H191.667C191.05 82.7873 190.437 82.8962 189.862 83.1205C189.288 83.3448 188.763 83.6801 188.318 84.1073C187.873 84.5345 187.516 85.0452 187.269 85.6101C187.021 86.1751 186.887 86.7833 186.875 87.4V220.8H215.625V87.4Z" fill="#F86447"></path>
<path d="M38.3333 174.8H19.1667C18.55 174.787 17.9368 174.896 17.3622 175.121C16.7876 175.345 16.2628 175.68 15.8179 176.107C15.3729 176.534 15.0164 177.045 14.7689 177.61C14.5213 178.175 14.3875 178.783 14.375 179.4V202.017C14.3875 201.4 14.5213 200.792 14.7689 200.227C15.0164 199.662 15.3729 199.151 15.8179 198.724C16.2628 198.297 16.7876 197.961 17.3622 197.737C17.9368 197.513 18.55 197.404 19.1667 197.417H38.3333C38.95 197.404 39.5632 197.513 40.1378 197.737C40.7124 197.961 41.2372 198.297 41.6821 198.724C42.1271 199.151 42.4836 199.662 42.7311 200.227C42.9787 200.792 43.1125 201.4 43.125 202.017V179.4C43.1125 178.783 42.9787 178.175 42.7311 177.61C42.4836 177.045 42.1271 176.534 41.6821 176.107C41.2372 175.68 40.7124 175.345 40.1378 175.121C39.5632 174.896 38.95 174.787 38.3333 174.8Z" fill="#FDCEC5"></path>
<path d="M95.8333 128.79H76.6667C75.4203 128.767 74.2157 129.24 73.3173 130.104C72.4189 130.968 71.9002 132.154 71.875 133.4V156.017C71.8875 155.4 72.0213 154.792 72.2689 154.227C72.5164 153.662 72.8729 153.151 73.3179 152.724C73.7628 152.297 74.2876 151.961 74.8622 151.737C75.4368 151.513 76.05 151.404 76.6667 151.417H95.8333C96.45 151.404 97.0632 151.513 97.6378 151.737C98.2124 151.961 98.7372 152.297 99.1821 152.724C99.6271 153.151 99.9836 153.662 100.231 154.227C100.479 154.792 100.613 155.4 100.625 156.017V133.4C100.6 132.154 100.081 130.968 99.1827 130.104C98.2843 129.24 97.0797 128.767 95.8333 128.79Z" fill="#FDCEC5"></path>
<path d="M153.333 147.2H134.167C133.55 147.187 132.937 147.296 132.362 147.521C131.788 147.745 131.263 148.08 130.818 148.507C130.373 148.935 130.016 149.445 129.769 150.01C129.521 150.575 129.387 151.183 129.375 151.8V174.417C129.387 173.8 129.521 173.192 129.769 172.627C130.016 172.062 130.373 171.551 130.818 171.124C131.263 170.697 131.788 170.361 132.362 170.137C132.937 169.913 133.55 169.804 134.167 169.817H153.333C153.95 169.804 154.563 169.913 155.138 170.137C155.712 170.361 156.237 170.697 156.682 171.124C157.127 171.551 157.484 172.062 157.731 172.627C157.979 173.192 158.113 173.8 158.125 174.417V151.8C158.113 151.183 157.979 150.575 157.731 150.01C157.484 149.445 157.127 148.935 156.682 148.507C156.237 148.08 155.712 147.745 155.138 147.521C154.563 147.296 153.95 147.187 153.333 147.2Z" fill="#FDCEC5"></path>
<path d="M210.833 82.8H191.667C191.05 82.7873 190.437 82.8962 189.862 83.1205C189.288 83.3448 188.763 83.6801 188.318 84.1073C187.873 84.5345 187.516 85.0452 187.269 85.6101C187.021 86.1751 186.887 86.7833 186.875 87.4V110.017C186.887 109.4 187.021 108.792 187.269 108.227C187.516 107.662 187.873 107.151 188.318 106.724C188.763 106.297 189.288 105.961 189.862 105.737C190.437 105.513 191.05 105.404 191.667 105.417H210.833C211.45 105.404 212.063 105.513 212.638 105.737C213.212 105.961 213.737 106.297 214.182 106.724C214.627 107.151 214.984 107.662 215.231 108.227C215.479 108.792 215.613 109.4 215.625 110.017V87.4C215.613 86.7833 215.479 86.1751 215.231 85.6101C214.984 85.0452 214.627 84.5345 214.182 84.1073C213.737 83.6801 213.212 83.3448 212.638 83.1205C212.063 82.8962 211.45 82.7873 210.833 82.8Z" fill="#FDCEC5"></path>
<path d="M43.125 179.4C43.1125 178.783 42.9787 178.175 42.7311 177.61C42.4836 177.045 42.1271 176.534 41.6821 176.107C41.2372 175.68 40.7124 175.345 40.1378 175.121C39.5632 174.896 38.95 174.787 38.3333 174.8H19.1667C18.55 174.787 17.9368 174.896 17.3622 175.121C16.7876 175.345 16.2628 175.68 15.8179 176.107C15.3729 176.534 15.0164 177.045 14.7689 177.61C14.5213 178.175 14.3875 178.783 14.375 179.4V220.8H43.125V179.4Z" stroke="#B52D04" stroke-width="5" stroke-linecap="round" stroke-linejoin="round"></path>
<path d="M100.625 133.4C100.613 132.783 100.479 132.175 100.231 131.61C99.9836 131.045 99.6271 130.534 99.1821 130.107C98.7372 129.68 98.2124 129.345 97.6378 129.121C97.0632 128.896 96.45 128.787 95.8333 128.8H76.6667C76.05 128.787 75.4368 128.896 74.8622 129.121C74.2876 129.345 73.7628 129.68 73.3179 130.107C72.8729 130.534 72.5164 131.045 72.2689 131.61C72.0213 132.175 71.8875 132.783 71.875 133.4V220.8H100.625V133.4Z" stroke="#B52D04" stroke-width="5" stroke-linecap="round" stroke-linejoin="round"></path>
<path d="M158.125 151.8C158.113 151.183 157.979 150.575 157.731 150.01C157.484 149.445 157.127 148.935 156.682 148.507C156.237 148.08 155.712 147.745 155.138 147.521C154.563 147.296 153.95 147.187 153.333 147.2H134.167C133.55 147.187 132.937 147.296 132.362 147.521C131.788 147.745 131.263 148.08 130.818 148.507C130.373 148.935 130.016 149.445 129.769 150.01C129.521 150.575 129.387 151.183 129.375 151.8V220.8H158.125V151.8Z" stroke="#B52D04" stroke-width="5" stroke-linecap="round" stroke-linejoin="round"></path>
<path d="M215.625 87.4C215.613 86.7833 215.479 86.1751 215.231 85.6101C214.984 85.0452 214.627 84.5345 214.182 84.1073C213.737 83.6801 213.212 83.3448 212.638 83.1205C212.063 82.8962 211.45 82.7873 210.833 82.8H191.667C191.05 82.7873 190.437 82.8962 189.862 83.1205C189.288 83.3448 188.763 83.6801 188.318 84.1073C187.873 84.5345 187.516 85.0452 187.269 85.6101C187.021 86.1751 186.887 86.7833 186.875 87.4V220.8H215.625V87.4Z" stroke="#B52D04" stroke-width="5" stroke-linecap="round" stroke-linejoin="round"></path>
<path d="M28.75 124.2C30.6055 124.269 32.4559 123.963 34.1906 123.301C35.9252 122.639 37.5085 121.633 38.8456 120.345C40.1828 119.057 41.2465 117.512 41.973 115.803C42.6995 114.095 43.074 112.257 43.074 110.4C43.074 108.543 42.6995 106.705 41.973 104.997C41.2465 103.288 40.1828 101.743 38.8456 100.455C37.5085 99.1667 35.9252 98.1613 34.1906 97.4989C32.4559 96.8366 30.6055 96.5308 28.75 96.6C26.8945 96.5308 25.0441 96.8366 23.3094 97.4989C21.5748 98.1613 19.9915 99.1667 18.6543 100.455C17.3172 101.743 16.2535 103.288 15.527 104.997C14.8005 106.705 14.426 108.543 14.426 110.4C14.426 112.257 14.8005 114.095 15.527 115.803C16.2535 117.512 17.3172 119.057 18.6543 120.345C19.9915 121.633 21.5748 122.639 23.3094 123.301C25.0441 123.963 26.8945 124.269 28.75 124.2Z" fill="#FBA897" stroke="#B52D04" stroke-width="5" stroke-linecap="round" stroke-linejoin="round"></path>
<path d="M86.25 78.2C88.9548 78.0892 91.5675 77.1858 93.763 75.6021C95.9586 74.0185 97.6403 71.8245 98.5991 69.2928C99.5578 66.7612 99.7514 64.0036 99.1556 61.3628C98.5598 58.7221 97.201 56.3147 95.2482 54.4399C93.2953 52.5652 90.8344 51.3057 88.1716 50.8182C85.5087 50.3307 82.7613 50.6365 80.2709 51.6978C77.7805 52.759 75.6569 54.5289 74.1642 56.7872C72.6714 59.0456 71.8754 61.6929 71.875 64.4C71.953 68.1357 73.5109 71.6875 76.2063 74.2752C78.9018 76.8628 82.5143 78.2745 86.25 78.2Z" fill="#FBA897" stroke="#B52D04" stroke-width="5" stroke-linecap="round" stroke-linejoin="round"></path>
<path d="M143.75 96.6C146.455 96.4892 149.067 95.5858 151.263 94.0021C153.459 92.4185 155.14 90.2245 156.099 87.6928C157.058 85.1612 157.251 82.4036 156.656 79.7628C156.06 77.1221 154.701 74.7147 152.748 72.8399C150.795 70.9652 148.334 69.7057 145.672 69.2182C143.009 68.7307 140.261 69.0365 137.771 70.0978C135.28 71.159 133.157 72.9289 131.664 75.1872C130.171 77.4456 129.375 80.0929 129.375 82.8C129.453 86.5357 131.011 90.0875 133.706 92.6752C136.402 95.2628 140.014 96.6745 143.75 96.6Z" fill="#FBA897" stroke="#B52D04" stroke-width="5" stroke-linecap="round" stroke-linejoin="round"></path>
<path d="M201.25 36.8C204.986 36.8745 208.598 35.4628 211.294 32.8752C213.989 30.2875 215.547 26.7357 215.625 23C215.625 19.1875 214.11 15.5312 211.415 12.8353C208.719 10.1395 205.062 8.625 201.25 8.625C197.438 8.625 193.781 10.1395 191.085 12.8353C188.39 15.5312 186.875 19.1875 186.875 23C186.953 26.7357 188.511 30.2875 191.206 32.8752C193.902 35.4628 197.514 36.8745 201.25 36.8Z" fill="#FBA897" stroke="#B52D04" stroke-width="5" stroke-linecap="round" stroke-linejoin="round"></path>
<path d="M40.8345 100.721L75.2099 73.2167" stroke="#B52D04" stroke-width="5" stroke-linecap="round" stroke-linejoin="round"></path>
<path d="M99.8872 68.8083L130.113 78.4779" stroke="#B52D04" stroke-width="5" stroke-linecap="round" stroke-linejoin="round"></path>
<path d="M189.75 31.2417L153.726 71.5875" stroke="#B52D04" stroke-width="5" stroke-linecap="round" stroke-linejoin="round"></path>
</svg>