<svg width="230" height="230" viewBox="0 0 230 230" fill="none" xmlns="http://www.w3.org/2000/svg">
<path d="M158.125 4.79167H215.625C218.167 4.79167 220.604 5.80134 222.401 7.59857C224.199 9.39579 225.208 11.8333 225.208 14.375V52.7083" stroke="#A02006" stroke-width="5" stroke-linecap="round" stroke-linejoin="round"></path>
<path d="M71.875 4.79167H14.375C11.8333 4.79167 9.39578 5.80134 7.59856 7.59857C5.80134 9.39579 4.79167 11.8333 4.79167 14.375V52.7083" stroke="#A02006" stroke-width="5" stroke-linecap="round" stroke-linejoin="round"></path>
<path d="M158.125 225.208H215.625C218.167 225.208 220.604 224.199 222.401 222.401C224.199 220.604 225.208 218.167 225.208 215.625V177.292" stroke="#A02006" stroke-width="5" stroke-linecap="round" stroke-linejoin="round"></path>
<path d="M71.875 225.208H14.375C11.8333 225.208 9.39578 224.199 7.59856 222.401C5.80134 220.604 4.79167 218.167 4.79167 215.625V177.292" stroke="#A02006" stroke-width="5" stroke-linecap="round" stroke-linejoin="round"></path>
<path d="M34.6087 25H194.391C194.391 25 202 25 202 32.6522V193.348C202 193.348 202 201 194.391 201H34.6087C34.6087 201 27 201 27 193.348V32.6522C27 32.6522 27 25 34.6087 25Z" fill="#FBA897"></path>
<path d="M175 25H34.621C32.5998 25 30.6614 25.8029 29.2321 27.2321C27.8029 28.6614 27 30.5998 27 32.621V173L175 25Z" fill="#FDDAD3"></path>
<path d="M168.824 133.69C171.466 137.106 173.096 141.196 173.527 145.493C173.958 149.79 173.174 154.122 171.263 157.995C169.352 161.868 166.392 165.126 162.72 167.399C159.047 169.671 154.811 170.867 150.492 170.849C149.813 170.849 149.134 170.725 148.455 170.664C148.774 171.725 148.94 172.827 148.949 173.935C148.959 176.892 147.907 179.754 145.985 182.001C144.064 184.248 141.399 185.731 138.476 186.179C135.554 186.628 132.567 186.012 130.06 184.445C127.553 182.878 125.691 180.462 124.814 177.639C121.797 179.259 118.425 180.108 115 180.108C111.575 180.108 108.203 179.259 105.186 177.639C104.309 180.462 102.447 182.878 99.9401 184.445C97.4329 186.012 94.4464 186.628 91.5237 186.179C88.6011 185.731 85.9365 184.248 84.0146 182.001C82.0927 179.754 81.0411 176.892 81.0512 173.935C81.0596 172.827 81.2259 171.725 81.545 170.664C80.8661 170.725 80.1871 170.849 79.5081 170.849C75.1895 170.867 70.9527 169.671 67.2804 167.399C63.608 165.126 60.6479 161.868 58.7372 157.995C56.8264 154.122 56.0419 149.79 56.4731 145.493C56.9042 141.196 58.5337 137.106 61.1758 133.69C56.5152 133.371 52.1498 131.294 48.9615 127.879C45.7733 124.465 44 119.968 44 115.296C44 110.625 45.7733 106.127 48.9615 102.713C52.1498 99.2987 56.5152 97.2219 61.1758 96.9022C58.5337 93.4861 56.9042 89.3965 56.4731 85.0995C56.0419 80.8024 56.8264 76.4706 58.7372 72.5977C60.6479 68.7248 63.608 65.4664 67.2804 63.1938C70.9527 60.9212 75.1895 59.7258 79.5081 59.7437C80.1871 59.7437 80.8661 59.8672 81.545 59.9289C81.2213 58.8685 81.0549 57.7663 81.0512 56.6575C80.9694 53.3834 82.1915 50.2109 84.4488 47.8379C86.706 45.4648 89.8135 44.0857 93.0876 44.0039C96.3617 43.922 99.5342 45.1441 101.907 47.4014C104.28 49.6587 105.659 52.7661 105.741 56.0402C108.559 54.4228 111.751 53.5717 115 53.5717C118.249 53.5717 121.441 54.4228 124.259 56.0402C124.341 52.7661 125.72 49.6587 128.093 47.4014C130.466 45.1441 133.638 43.922 136.912 44.0039C140.187 44.0857 143.294 45.4648 145.551 47.8379C147.809 50.2109 149.031 53.3834 148.949 56.6575C148.945 57.7663 148.779 58.8685 148.455 59.9289C149.134 59.8672 149.813 59.7437 150.492 59.7437C154.811 59.7258 159.047 60.9212 162.72 63.1938C166.392 65.4664 169.352 68.7248 171.263 72.5977C173.174 76.4706 173.958 80.8024 173.527 85.0995C173.096 89.3965 171.466 93.4861 168.824 96.9022C173.485 97.2219 177.85 99.2987 181.038 102.713C184.227 106.127 186 110.625 186 115.296C186 119.968 184.227 124.465 181.038 127.879C177.85 131.294 173.485 133.371 168.824 133.69Z" fill="#FDDAD3"></path>
<rect x="29.5" y="27.5" width="170" height="171" rx="5.5" stroke="#A02006" stroke-width="5"></rect>
<path d="M115 53.5712C111.752 53.5751 108.56 54.4261 105.741 56.0402C105.659 52.7661 104.28 49.6587 101.907 47.4014C99.5342 45.1441 96.3617 43.922 93.0876 44.0039C89.8135 44.0857 86.706 45.4648 84.4488 47.8379C82.1915 50.2109 80.9694 53.3834 81.0512 56.6575C81.0549 57.7663 81.2213 58.8685 81.545 59.9289C80.8661 59.8672 80.1871 59.7437 79.5081 59.7437C75.1895 59.7258 70.9527 60.9212 67.2804 63.1938C63.608 65.4664 60.6479 68.7248 58.7372 72.5977C56.8264 76.4706 56.0419 80.8024 56.4731 85.0995C56.9042 89.3965 58.5337 93.4861 61.1758 96.9022C56.5152 97.2219 52.1498 99.2987 48.9615 102.713C45.7733 106.127 44 110.625 44 115.296C44 119.968 45.7733 124.465 48.9615 127.879C52.1498 131.294 56.5152 133.371 61.1758 133.69C58.5337 137.106 56.9042 141.196 56.4731 145.493C56.0419 149.79 56.8264 154.122 58.7372 157.995C60.6479 161.868 63.608 165.126 67.2804 167.399C70.9527 169.671 75.1895 170.867 79.5081 170.849C80.1871 170.849 80.8661 170.725 81.545 170.664C81.2259 171.725 81.0596 172.827 81.0512 173.935C81.0411 176.892 82.0927 179.754 84.0146 182.001C85.9365 184.248 88.6011 185.731 91.5237 186.179C94.4464 186.628 97.4329 186.012 99.9401 184.445C102.447 182.878 104.309 180.462 105.186 177.639C108.205 179.255 111.575 180.103 115 180.108V53.5712Z" fill="#FDDAD3"></path>
<path d="M99.4268 147.708C99.4268 142.387 97.3135 137.284 93.5515 133.521C89.7896 129.758 84.6871 127.643 79.3661 127.641C79.039 127.641 78.7489 127.722 78.4217 127.74" stroke="#A02006" stroke-width="5" stroke-linecap="round" stroke-linejoin="round"></path>
<path d="M97.3466 162.331C100.396 163.35 102.925 165.523 104.39 168.385C105.855 171.247 106.141 174.569 105.186 177.639" stroke="#A02006" stroke-width="5" stroke-linecap="round" stroke-linejoin="round"></path>
<path d="M105.741 56.0402V56.6575C105.735 59.235 104.922 61.7459 103.417 63.8381C101.911 65.9303 99.7886 67.4987 97.3466 68.3235" stroke="#A02006" stroke-width="5" stroke-linecap="round" stroke-linejoin="round"></path>
<path d="M78.4217 102.865C78.7427 102.865 79.039 102.957 79.3661 102.957C84.6861 102.956 89.7876 100.842 93.5493 97.08C97.3111 93.3183 99.4251 88.2167 99.4268 82.8968" stroke="#A02006" stroke-width="5" stroke-linecap="round" stroke-linejoin="round"></path>
<path d="M130.573 147.708C130.573 142.387 132.687 137.284 136.448 133.521C140.21 129.758 145.313 127.643 150.634 127.641C150.961 127.641 151.251 127.722 151.578 127.74" stroke="#A02006" stroke-width="5" stroke-linecap="round" stroke-linejoin="round"></path>
<path d="M168.824 133.69C171.466 137.106 173.096 141.196 173.527 145.493C173.958 149.79 173.174 154.122 171.263 157.995C169.352 161.868 166.392 165.126 162.72 167.399C159.047 169.671 154.81 170.867 150.492 170.849C149.813 170.849 149.134 170.725 148.455 170.664C148.774 171.725 148.94 172.827 148.949 173.935C148.959 176.892 147.907 179.754 145.985 182.001C144.064 184.248 141.399 185.731 138.476 186.179C135.554 186.628 132.567 186.012 130.06 184.445C127.553 182.878 125.691 180.462 124.814 177.639C121.797 179.259 118.425 180.108 115 180.108C111.575 180.108 108.203 179.259 105.186 177.639C104.309 180.462 102.447 182.878 99.9401 184.445C97.4329 186.012 94.4464 186.628 91.5237 186.179C88.6011 185.731 85.9365 184.248 84.0146 182.001C82.0927 179.754 81.0411 176.892 81.0512 173.935C81.0596 172.827 81.2259 171.725 81.545 170.664C80.8661 170.725 80.1871 170.849 79.5081 170.849C75.1895 170.867 70.9527 169.671 67.2804 167.399C63.608 165.126 60.6479 161.868 58.7372 157.995C56.8264 154.122 56.0419 149.79 56.4731 145.493C56.9042 141.196 58.5337 137.106 61.1758 133.69C56.5152 133.371 52.1498 131.294 48.9615 127.879C45.7733 124.465 44 119.968 44 115.296C44 110.625 45.7733 106.127 48.9615 102.713C52.1498 99.2987 56.5152 97.2219 61.1758 96.9022C58.5337 93.4861 56.9042 89.3965 56.4731 85.0995C56.0419 80.8024 56.8264 76.4706 58.7372 72.5977C60.6479 68.7248 63.608 65.4664 67.2804 63.1938C70.9527 60.9212 75.1895 59.7258 79.5081 59.7437C80.1871 59.7437 80.8661 59.8672 81.545 59.9289C81.2213 58.8685 81.0549 57.7663 81.0512 56.6575C80.9694 53.3834 82.1915 50.2109 84.4488 47.8379C86.706 45.4648 89.8135 44.0857 93.0876 44.0039C96.3617 43.922 99.5342 45.1441 101.907 47.4014C104.28 49.6587 105.659 52.7661 105.741 56.0402C108.559 54.4228 111.751 53.5717 115 53.5717C118.249 53.5717 121.441 54.4228 124.259 56.0402C124.341 52.7661 125.72 49.6587 128.093 47.4014C130.466 45.1441 133.638 43.922 136.912 44.0039C140.186 44.0857 143.294 45.4648 145.551 47.8379C147.809 50.2109 149.031 53.3834 148.949 56.6575C148.945 57.7663 148.779 58.8685 148.455 59.9289C149.134 59.8672 149.813 59.7437 150.492 59.7437C154.81 59.7258 159.047 60.9212 162.72 63.1938C166.392 65.4664 169.352 68.7248 171.263 72.5977C173.174 76.4706 173.958 80.8024 173.527 85.0995C173.096 89.3965 171.466 93.4861 168.824 96.9022C173.485 97.2219 177.85 99.2987 181.038 102.713C184.227 106.127 186 110.625 186 115.296C186 119.968 184.227 124.465 181.038 127.879C177.85 131.294 173.485 133.371 168.824 133.69Z" stroke="#A02006" stroke-width="5" stroke-linecap="round" stroke-linejoin="round"></path>
<path d="M124.814 177.639C123.859 174.569 124.145 171.247 125.61 168.385C127.075 165.523 129.604 163.35 132.653 162.331" stroke="#A02006" stroke-width="5" stroke-linecap="round" stroke-linejoin="round"></path>
<path d="M124.259 56.0402V56.6575C124.265 59.235 125.078 61.7459 126.583 63.8381C128.089 65.9303 130.211 67.4987 132.653 68.3235" stroke="#A02006" stroke-width="5" stroke-linecap="round" stroke-linejoin="round"></path>
<path d="M151.578 102.865C151.257 102.865 150.961 102.957 150.634 102.957C145.314 102.956 140.212 100.842 136.451 97.08C132.689 93.3183 130.575 88.2167 130.573 82.8968" stroke="#A02006" stroke-width="5" stroke-linecap="round" stroke-linejoin="round"></path>
<path d="M115 84.44V149.251" stroke="#A02006" stroke-width="5" stroke-linecap="round" stroke-linejoin="round"></path>
<path d="M124 113H106" stroke="#A02006" stroke-width="5" stroke-linecap="round" stroke-linejoin="round"></path>
<path d="M84 113H71" stroke="#A02006" stroke-width="5" stroke-linecap="round" stroke-linejoin="round"></path>
<path d="M115 122V104" stroke="#A02006" stroke-width="5" stroke-linecap="round" stroke-linejoin="round"></path>
<path d="M35 113H48" stroke="#A02006" stroke-width="5" stroke-linecap="round" stroke-linejoin="round"></path>
<path d="M146 113H160" stroke="#A02006" stroke-width="5" stroke-linecap="round" stroke-linejoin="round"></path>
<path d="M195 113H182" stroke="#A02006" stroke-width="5" stroke-linecap="round" stroke-linejoin="round"></path>
<path d="M115 82V69" stroke="#A02006" stroke-width="5" stroke-linecap="round" stroke-linejoin="round"></path>
<path d="M115 33V46" stroke="#A02006" stroke-width="5" stroke-linecap="round" stroke-linejoin="round"></path>
<path d="M115 144V158" stroke="#A02006" stroke-width="5" stroke-linecap="round" stroke-linejoin="round"></path>
<path d="M115 193V180" stroke="#A02006" stroke-width="5" stroke-linecap="round" stroke-linejoin="round"></path>
</svg>