<svg width="230" height="230" viewBox="0 0 230 230" fill="none" xmlns="http://www.w3.org/2000/svg">
<path d="M4.79175 114.99C4.79175 129.463 7.64237 143.794 13.1809 157.165C18.7193 170.536 26.8372 182.686 37.071 192.92C47.3048 203.153 59.4541 211.271 72.8252 216.81C86.1963 222.348 100.527 225.199 115 225.199C129.473 225.199 143.804 222.348 157.175 216.81C170.546 211.271 182.695 203.153 192.929 192.92C203.163 182.686 211.281 170.536 216.819 157.165C222.358 143.794 225.208 129.463 225.208 114.99C225.208 100.518 222.358 86.1866 216.819 72.8155C211.281 59.4444 203.163 47.2952 192.929 37.0614C182.695 26.8276 170.546 18.7097 157.175 13.1712C143.804 7.63273 129.473 4.7821 115 4.7821C100.527 4.7821 86.1963 7.63273 72.8252 13.1712C59.4541 18.7097 47.3048 26.8276 37.071 37.0614C26.8372 47.2952 18.7193 59.4444 13.1809 72.8155C7.64237 86.1866 4.79175 100.518 4.79175 114.99Z" fill="#FBA897"></path>
<path d="M115 225.208C85.771 225.208 57.7391 213.597 37.071 192.929C16.4029 172.261 4.79175 144.229 4.79175 115C4.79175 85.7709 16.4029 57.739 37.071 37.0709C57.7391 16.4028 85.771 4.79163 115 4.79163V225.208Z" fill="#FDDAD3"></path>
<path d="M4.79175 114.99C4.79175 129.463 7.64237 143.794 13.1809 157.165C18.7193 170.536 26.8372 182.686 37.071 192.92C47.3048 203.153 59.4541 211.271 72.8252 216.81C86.1963 222.348 100.527 225.199 115 225.199C129.473 225.199 143.804 222.348 157.175 216.81C170.546 211.271 182.695 203.153 192.929 192.92C203.163 182.686 211.281 170.536 216.819 157.165C222.358 143.794 225.208 129.463 225.208 114.99C225.208 100.518 222.358 86.1866 216.819 72.8155C211.281 59.4444 203.163 47.2952 192.929 37.0614C182.695 26.8276 170.546 18.7097 157.175 13.1712C143.804 7.63273 129.473 4.7821 115 4.7821C100.527 4.7821 86.1963 7.63273 72.8252 13.1712C59.4541 18.7097 47.3048 26.8276 37.071 37.0614C26.8372 47.2952 18.7193 59.4444 13.1809 72.8155C7.64237 86.1866 4.79175 100.518 4.79175 114.99Z" stroke="#A02006" stroke-width="5" stroke-linecap="round" stroke-linejoin="round"></path>
<path d="M172.5 67.0737L105.417 158.115L57.5 119.782" stroke="#A02006" stroke-width="5" stroke-linecap="round" stroke-linejoin="round"></path>
</svg>