<svg width="230" height="230" viewBox="0 0 230 230" fill="none" xmlns="http://www.w3.org/2000/svg">
<path d="M4.79169 43.125V167.708C4.79169 188.887 45.5592 206.042 95.8334 206.042C146.108 206.042 186.875 188.887 186.875 167.708V43.125H4.79169Z" fill="#FBA897"></path>
<path d="M95.8334 43.125H4.79169V167.708C4.79169 188.887 45.5592 206.042 95.8334 206.042V43.125Z" fill="#FDDAD3"></path>
<path d="M4.79169 43.125C4.79169 48.159 7.14655 53.1437 11.7218 57.7945C16.2971 62.4453 23.0032 66.6711 31.4572 70.2307C39.9112 73.7903 49.9475 76.6139 60.9932 78.5404C72.0389 80.4668 83.8776 81.4583 95.8334 81.4583C107.789 81.4583 119.628 80.4668 130.674 78.5404C141.719 76.6139 151.756 73.7903 160.21 70.2307C168.664 66.6711 175.37 62.4453 179.945 57.7945C184.52 53.1437 186.875 48.159 186.875 43.125C186.875 38.091 184.52 33.1062 179.945 28.4554C175.37 23.8046 168.664 19.5788 160.21 16.0192C151.756 12.4596 141.719 9.63601 130.674 7.70958C119.628 5.78315 107.789 4.79163 95.8334 4.79163C83.8776 4.79163 72.0389 5.78315 60.9932 7.70958C49.9475 9.63601 39.9112 12.4596 31.4572 16.0192C23.0032 19.5788 16.2971 23.8046 11.7218 28.4554C7.14655 33.1062 4.79169 38.091 4.79169 43.125Z" fill="#FBA897"></path>
<path d="M186.875 43.3741C186.875 64.5054 146.108 81.7075 95.8334 81.7075C45.5592 81.7075 4.79169 64.5054 4.79169 43.3741C4.79169 22.2429 45.5592 4.79163 95.8334 4.79163C146.108 4.79163 186.875 22.1854 186.875 43.3741Z" stroke="#A02006" stroke-width="5" stroke-linecap="round" stroke-linejoin="round"></path>
<path d="M95.8334 120.041C45.5592 120.041 4.79169 102.839 4.79169 81.7075" stroke="#A02006" stroke-width="5" stroke-linecap="round" stroke-linejoin="round"></path>
<path d="M81.4584 162.677C38.0171 159.802 4.79169 143.913 4.79169 124.833" stroke="#A02006" stroke-width="5" stroke-linecap="round" stroke-linejoin="round"></path>
<path d="M86.25 205.975C40.48 203.943 4.79169 187.766 4.79169 167.957V43.125" stroke="#A02006" stroke-width="5" stroke-linecap="round" stroke-linejoin="round"></path>
<path d="M186.875 43.1345V86.2595" stroke="#A02006" stroke-width="5" stroke-linecap="round" stroke-linejoin="round"></path>
<path d="M110.208 167.718C110.208 182.968 116.266 197.593 127.05 208.377C137.833 219.16 152.458 225.218 167.708 225.218C182.958 225.218 197.584 219.16 208.367 208.377C219.15 197.593 225.208 182.968 225.208 167.718C225.208 152.468 219.15 137.843 208.367 127.059C197.584 116.276 182.958 110.218 167.708 110.218C152.458 110.218 137.833 116.276 127.05 127.059C116.266 137.843 110.208 152.468 110.208 167.718Z" fill="#FBA897"></path>
<path d="M208.37 127.056C203.031 121.716 196.693 117.48 189.716 114.59C182.74 111.7 175.263 110.212 167.712 110.212C152.461 110.211 137.835 116.268 127.051 127.051C116.267 137.834 110.208 152.459 110.207 167.71C110.206 175.261 111.693 182.738 114.583 189.715C117.472 196.691 121.707 203.031 127.046 208.37L208.37 127.056Z" fill="#FDDAD3"></path>
<path d="M110.16 167.718C110.16 175.269 111.648 182.746 114.537 189.722C117.427 196.698 121.662 203.037 127.002 208.377C132.341 213.716 138.68 217.951 145.656 220.841C152.632 223.731 160.109 225.218 167.66 225.218C175.211 225.218 182.688 223.731 189.665 220.841C196.641 217.951 202.98 213.716 208.319 208.377C213.658 203.037 217.894 196.698 220.783 189.722C223.673 182.746 225.16 175.269 225.16 167.718C225.16 160.167 223.673 152.69 220.783 145.714C217.894 138.737 213.658 132.399 208.319 127.059C202.98 121.72 196.641 117.484 189.665 114.595C182.688 111.705 175.211 110.218 167.66 110.218C160.109 110.218 152.632 111.705 145.656 114.595C138.68 117.484 132.341 121.72 127.002 127.059C121.662 132.399 117.427 138.737 114.537 145.714C111.648 152.69 110.16 160.167 110.16 167.718Z" stroke="#A02006" stroke-width="5" stroke-linecap="round" stroke-linejoin="round"></path>
<path d="M167.66 196.468V138.968" stroke="#A02006" stroke-width="5" stroke-linecap="round" stroke-linejoin="round"></path>
<path d="M167.66 138.968L146.098 160.53" stroke="#A02006" stroke-width="5" stroke-linecap="round" stroke-linejoin="round"></path>
<path d="M167.66 138.968L189.223 160.53" stroke="#A02006" stroke-width="5" stroke-linecap="round" stroke-linejoin="round"></path>
</svg>