<svg width="230" height="230" viewBox="0 0 230 230" fill="none" xmlns="http://www.w3.org/2000/svg">
<path d="M4.79166 43.125V167.708C4.79166 188.887 45.5592 206.042 95.8333 206.042C146.107 206.042 186.875 188.887 186.875 167.708V43.125H4.79166Z" fill="#FBA897"></path>
<path d="M95.8333 43.125H4.79166V167.708C4.79166 188.887 45.5592 206.042 95.8333 206.042V43.125Z" fill="#FDDAD3"></path>
<path d="M4.79166 43.125C4.79166 48.159 7.14652 53.1437 11.7218 57.7945C16.2971 62.4453 23.0031 66.6711 31.4571 70.2307C39.9111 73.7903 49.9475 76.6139 60.9932 78.5404C72.0389 80.4668 83.8776 81.4583 95.8333 81.4583C107.789 81.4583 119.628 80.4668 130.673 78.5404C141.719 76.6139 151.756 73.7903 160.21 70.2307C168.664 66.6711 175.37 62.4453 179.945 57.7945C184.52 53.1437 186.875 48.159 186.875 43.125C186.875 38.091 184.52 33.1062 179.945 28.4554C175.37 23.8046 168.664 19.5788 160.21 16.0192C151.756 12.4596 141.719 9.63601 130.673 7.70958C119.628 5.78315 107.789 4.79163 95.8333 4.79163C83.8776 4.79163 72.0389 5.78315 60.9932 7.70958C49.9475 9.63601 39.9111 12.4596 31.4571 16.0192C23.0031 19.5788 16.2971 23.8046 11.7218 28.4554C7.14652 33.1062 4.79166 38.091 4.79166 43.125Z" fill="#FBA897"></path>
<path d="M186.875 43.3645C186.875 64.5054 146.107 81.6979 95.8333 81.6979C45.5592 81.6979 4.79166 64.5054 4.79166 43.3645C4.79166 22.2237 45.5592 4.79163 95.8333 4.79163C146.107 4.79163 186.875 22.1854 186.875 43.3645Z" stroke="#A02006" stroke-width="5" stroke-linecap="round" stroke-linejoin="round"></path>
<path d="M95.8333 120.031C45.5592 120.031 4.79166 102.839 4.79166 81.6979" stroke="#A02006" stroke-width="5" stroke-linecap="round" stroke-linejoin="round"></path>
<path d="M81.4583 162.677C38.0171 159.802 4.79166 143.913 4.79166 124.833" stroke="#A02006" stroke-width="5" stroke-linecap="round" stroke-linejoin="round"></path>
<path d="M86.25 205.965C40.48 203.943 4.79166 187.757 4.79166 167.948V43.125" stroke="#A02006" stroke-width="5" stroke-linecap="round" stroke-linejoin="round"></path>
<path d="M186.875 43.1345V86.2595" stroke="#A02006" stroke-width="5" stroke-linecap="round" stroke-linejoin="round"></path>
<path d="M110.208 167.718C110.208 182.968 116.266 197.593 127.05 208.377C137.833 219.16 152.458 225.218 167.708 225.218C182.958 225.218 197.584 219.16 208.367 208.377C219.15 197.593 225.208 182.968 225.208 167.718C225.208 152.468 219.15 137.843 208.367 127.059C197.584 116.276 182.958 110.218 167.708 110.218C152.458 110.218 137.833 116.276 127.05 127.059C116.266 137.843 110.208 152.468 110.208 167.718Z" fill="#FBA897"></path>
<path d="M208.37 127.056C203.031 121.716 196.693 117.48 189.716 114.59C182.74 111.7 175.263 110.212 167.712 110.212C152.461 110.211 137.835 116.268 127.051 127.051C116.267 137.834 110.208 152.459 110.207 167.71C110.206 175.261 111.693 182.738 114.583 189.715C117.472 196.691 121.707 203.031 127.046 208.37L208.37 127.056Z" fill="#FDDAD3"></path>
<path d="M110.208 167.718C110.208 182.968 116.266 197.593 127.05 208.377C137.833 219.16 152.458 225.218 167.708 225.218C182.958 225.218 197.584 219.16 208.367 208.377C219.15 197.593 225.208 182.968 225.208 167.718C225.208 152.468 219.15 137.843 208.367 127.059C197.584 116.276 182.958 110.218 167.708 110.218C152.458 110.218 137.833 116.276 127.05 127.059C116.266 137.843 110.208 152.468 110.208 167.718Z" stroke="#A02006" stroke-width="5" stroke-linecap="round" stroke-linejoin="round"></path>
<path d="M138.958 167.718L196.458 167.718" stroke="#A02006" stroke-width="5" stroke-linecap="round" stroke-linejoin="round"></path>
<path d="M196.458 167.718L174.896 189.28" stroke="#A02006" stroke-width="5" stroke-linecap="round" stroke-linejoin="round"></path>
<path d="M196.458 167.718L174.896 146.155" stroke="#A02006" stroke-width="5" stroke-linecap="round" stroke-linejoin="round"></path>
</svg>