<svg width="230" height="230" viewBox="0 0 230 230" fill="none" xmlns="http://www.w3.org/2000/svg">
<path d="M177.292 225.208H14.3751C11.8334 225.208 9.39586 224.199 7.59864 222.401C5.80142 220.604 4.79175 218.167 4.79175 215.625V14.375C4.79175 11.8333 5.80142 9.39574 7.59864 7.59852C9.39586 5.8013 11.8334 4.79163 14.3751 4.79163H141.833C144.348 4.80221 146.757 5.80033 148.542 7.57079L184.086 43.125C185.884 44.9218 186.894 47.3589 186.894 49.9004V215.625C186.894 216.885 186.646 218.133 186.163 219.297C185.68 220.461 184.973 221.518 184.081 222.408C183.189 223.298 182.13 224.004 180.965 224.484C179.8 224.965 178.552 225.211 177.292 225.208Z" fill="#FBA897"></path>
<path d="M164.536 23.5175L148.542 7.52288C146.745 5.72553 144.308 4.71551 141.766 4.71497H14.3751C11.8334 4.71497 9.39586 5.72464 7.59864 7.52186C5.80142 9.31908 4.79175 11.7566 4.79175 14.2983V183.272L164.536 23.5175Z" fill="#FDDAD3"></path>
<path d="M106.059 225.208H14.3751C11.8334 225.208 9.39586 224.199 7.59864 222.401C5.80142 220.604 4.79175 218.167 4.79175 215.625V14.375C4.79175 11.8333 5.80142 9.39574 7.59864 7.59852C9.39586 5.8013 11.8334 4.79163 14.3751 4.79163H141.833C144.348 4.80221 146.757 5.80033 148.542 7.57079L184.086 43.125C185.86 44.9084 186.862 47.3178 186.875 49.8333V87.0741" stroke="#A02006" stroke-width="5" stroke-linecap="round" stroke-linejoin="round"></path>
<path d="M28.75 138.958H86.25" stroke="#A02006" stroke-width="5" stroke-linecap="round" stroke-linejoin="round"></path>
<path d="M43.1249 91.0416H52.7083C53.9791 91.0416 55.1979 91.5465 56.0965 92.4451C56.9951 93.3437 57.4999 94.5625 57.4999 95.8333V138.958H38.3333V95.8333C38.3333 94.5625 38.8381 93.3437 39.7367 92.4451C40.6353 91.5465 41.8541 91.0416 43.1249 91.0416Z" fill="#FA8B75" stroke="#A02006" stroke-width="5" stroke-linecap="round" stroke-linejoin="round"></path>
<path d="M95.7855 138.958V67.0833C95.7855 65.8125 95.2807 64.5937 94.3821 63.6951C93.4834 62.7965 92.2647 62.2916 90.9938 62.2916H81.4105C80.148 62.3043 78.9415 62.8147 78.0532 63.7119C77.1649 64.6092 76.6667 65.8207 76.6667 67.0833V138.958H95.7855Z" fill="#FA8B75" stroke="#A02006" stroke-width="5" stroke-linecap="round" stroke-linejoin="round"></path>
<path d="M171.168 223.733C170.721 224.199 170.184 224.571 169.589 224.824C168.995 225.078 168.355 225.209 167.708 225.209C167.062 225.209 166.422 225.078 165.828 224.824C165.233 224.571 164.696 224.199 164.249 223.733L118.699 176.218C114.398 171.913 111.559 166.365 110.583 160.357C109.608 154.35 110.547 148.189 113.265 142.744C115.321 138.635 118.323 135.073 122.025 132.351C125.727 129.63 130.023 127.827 134.558 127.092C139.093 126.356 143.738 126.709 148.111 128.12C152.483 129.532 156.457 131.962 159.706 135.211L167.708 143.213L175.71 135.211C178.959 131.962 182.934 129.532 187.306 128.12C191.678 126.709 196.323 126.356 200.859 127.092C205.394 127.827 209.69 129.63 213.391 132.351C217.093 135.073 220.096 138.635 222.151 142.744C224.872 148.188 225.811 154.35 224.835 160.358C223.86 166.365 221.02 171.914 216.718 176.218L171.168 223.733Z" fill="#F86447"></path>
<path d="M222.151 142.792C220.097 138.681 217.096 135.117 213.394 132.395C209.692 129.672 205.396 127.869 200.86 127.133C196.324 126.397 191.678 126.75 187.305 128.163C182.932 129.576 178.958 132.008 175.71 135.259L167.708 143.261L159.706 135.259C155.035 130.601 148.913 127.678 142.353 126.975C135.794 126.272 129.191 127.831 123.639 131.394C118.087 134.957 113.919 140.309 111.825 146.565C109.731 152.821 109.837 159.604 112.125 165.792C118.948 173.78 127.496 180.115 137.125 184.317C146.754 188.519 157.211 190.478 167.708 190.047C178.214 190.485 188.683 188.529 198.322 184.327C207.961 180.125 216.519 173.787 223.349 165.792C224.736 162.08 225.345 158.124 225.139 154.167C224.933 150.211 223.916 146.339 222.151 142.792Z" fill="#FBA897"></path>
<path d="M171.168 223.733C170.721 224.199 170.184 224.571 169.589 224.824C168.995 225.078 168.355 225.209 167.708 225.209C167.062 225.209 166.422 225.078 165.828 224.824C165.233 224.571 164.696 224.199 164.249 223.733L118.699 176.218C114.398 171.913 111.559 166.365 110.583 160.357C109.608 154.35 110.547 148.189 113.265 142.744C115.321 138.635 118.323 135.073 122.025 132.351C125.727 129.63 130.023 127.827 134.558 127.092C139.093 126.356 143.738 126.709 148.111 128.12C152.483 129.532 156.457 131.962 159.706 135.211L167.708 143.213L175.71 135.211C178.959 131.962 182.934 129.532 187.306 128.12C191.678 126.709 196.323 126.356 200.859 127.092C205.394 127.827 209.69 129.63 213.391 132.351C217.093 135.073 220.096 138.635 222.151 142.744C224.872 148.188 225.811 154.35 224.835 160.358C223.86 166.365 221.02 171.914 216.718 176.218L171.168 223.733Z" stroke="#A02006" stroke-width="5" stroke-linecap="round" stroke-linejoin="round"></path>
</svg>