<svg width="236" height="236" viewBox="0 0 236 236" fill="none" xmlns="http://www.w3.org/2000/svg">
<path d="M172.783 62.7963C179.134 78.1543 180.789 95.0463 177.537 111.342C174.286 127.637 166.274 142.606 154.513 154.361C142.752 166.116 127.768 174.129 111.452 177.391C95.1352 180.653 78.2165 179.018 62.8298 172.69L172.783 62.7963Z" fill="#F86447"></path>
<path d="M62.8297 172.689C56.4786 157.331 54.8244 140.439 58.0759 124.143C61.3274 107.848 69.3389 92.8789 81.0999 81.1243C92.8609 69.3696 107.845 61.3559 124.161 58.0938C140.478 54.8318 157.396 56.4676 172.783 62.7949L62.8297 172.689Z" fill="#FBA897"></path>
<path d="M171.02 2.51389C163.922 22.1025 164.552 43.6536 172.783 62.7951C191.925 71.0006 213.468 71.6667 233.081 64.6594L171.02 2.51389Z" fill="#FBA897"></path>
<path d="M2.50073 170.833C22.1217 163.811 43.6785 164.474 62.8299 172.687C71.0621 191.865 71.6924 213.448 64.5933 233.072L2.50073 170.833Z" fill="#F86447"></path>
<path d="M196.755 69.0265C209.031 70.301 221.437 68.811 233.06 64.666" stroke="#A02006" stroke-width="5" stroke-linecap="round" stroke-linejoin="round"></path>
<path d="M64.5721 233.081C71.6743 213.456 71.0514 191.87 62.8295 172.686C56.4659 157.329 54.8078 140.431 58.065 124.133C61.3221 107.834 69.3482 92.8669 81.1274 81.1246C90.124 72.1858 101.01 65.3706 112.987 61.1786C124.964 56.9866 137.729 55.5241 150.346 56.8982" stroke="#A02006" stroke-width="5" stroke-linecap="round" stroke-linejoin="round"></path>
<path d="M88.1082 178.901C100.286 179.812 112.517 178.096 123.972 173.869C135.427 169.643 145.837 163.004 154.495 154.405C166.274 142.656 174.299 127.683 177.554 111.379C180.809 95.0755 179.149 78.1741 172.783 62.8129C164.569 43.6573 163.935 22.1045 171.009 2.50069" stroke="#A02006" stroke-width="5" stroke-linecap="round" stroke-linejoin="round"></path>
<path d="M2.50073 170.831C14.8761 166.393 28.1345 164.972 41.1711 166.688" stroke="#A02006" stroke-width="5" stroke-linecap="round" stroke-linejoin="round"></path>
<path d="M124.093 58.1091L177.535 111.471" stroke="#A02006" stroke-width="5" stroke-linecap="round" stroke-linejoin="round"></path>
<path d="M167.815 13.8831L221.827 67.8047" stroke="#A02006" stroke-width="5" stroke-linecap="round" stroke-linejoin="round"></path>
<path d="M13.7866 167.687L67.7986 221.619" stroke="#A02006" stroke-width="5" stroke-linecap="round" stroke-linejoin="round"></path>
<path d="M93.1711 71.1834L164.454 142.35" stroke="#A02006" stroke-width="5" stroke-linecap="round" stroke-linejoin="round"></path>
<path d="M58.0786 124.02L111.52 177.393" stroke="#A02006" stroke-width="5" stroke-linecap="round" stroke-linejoin="round"></path>
<path d="M71.1597 93.1516L142.443 164.319" stroke="#A02006" stroke-width="5" stroke-linecap="round" stroke-linejoin="round"></path>
</svg>