<svg width="230" height="231" viewBox="0 0 230 231" fill="none" xmlns="http://www.w3.org/2000/svg">
<path d="M71.875 178.063H138.958V168.438C138.958 150.569 131.891 133.431 119.31 120.796C106.73 108.161 89.6666 101.062 71.875 101.062C54.0834 101.062 37.0205 108.161 24.4399 120.796C11.8594 133.431 4.79167 150.569 4.79167 168.438V178.063H71.875Z" fill="#FDDAD3"></path>
<path d="M71.875 130.438C85.0845 130.43 98.095 133.671 109.769 139.879C121.443 146.087 131.425 155.073 138.843 166.05C138.221 148.631 130.893 132.134 118.403 120.032C105.913 107.93 89.2349 101.167 71.8798 101.167C54.5247 101.167 37.8466 107.93 25.3565 120.032C12.8664 132.134 5.53881 148.631 4.91625 166.05C12.3327 155.074 22.3133 146.089 33.9857 139.88C45.6581 133.672 58.667 130.43 71.875 130.438Z" fill="#FBA897"></path>
<path d="M112.221 40.2325C103.727 43.8295 94.6056 45.6944 85.3875 45.7187C76.3126 45.737 67.3266 43.923 58.9635 40.3846C50.6003 36.8463 43.0306 31.6557 36.7042 25.1212C40.9739 17.7625 47.4251 11.9267 55.157 8.42855C62.8889 4.93042 71.5154 3.94463 79.8321 5.60884C88.1489 7.27306 95.7405 11.5042 101.547 17.7114C107.354 23.9187 111.085 31.7922 112.221 40.2325Z" fill="#F86447" stroke="#A02006" stroke-width="5" stroke-linecap="round" stroke-linejoin="round"></path>
<path d="M112.604 45.7188C112.604 56.5678 108.313 66.9724 100.675 74.6439C93.0367 82.3153 82.677 86.625 71.875 86.625C61.073 86.625 50.7133 82.3153 43.0751 74.6439C35.4369 66.9724 31.1458 56.5678 31.1458 45.7188C31.1319 38.4773 33.0513 31.3646 36.7042 25.1213C43.0306 31.6557 50.6003 36.8463 58.9635 40.3847C67.3266 43.923 76.3126 45.737 85.3875 45.7188C94.6056 45.6944 103.727 43.8295 112.221 40.2325C112.491 42.0484 112.62 43.8828 112.604 45.7188Z" fill="#FBA897" stroke="#A02006" stroke-width="5" stroke-linecap="round" stroke-linejoin="round"></path>
<path d="M105.417 110.081C95.2181 104.167 83.6493 101.054 71.873 101.055C60.0968 101.055 48.5281 104.169 38.3299 110.083C28.1317 115.997 19.6634 124.504 13.7762 134.747C7.88895 144.991 4.79028 156.61 4.79167 168.437V178.062H91.0417" stroke="#A02006" stroke-width="5" stroke-linecap="round" stroke-linejoin="round"></path>
<path d="M43.0867 107.55V139.562" stroke="#A02006" stroke-width="5" stroke-linecap="round" stroke-linejoin="round"></path>
<path d="M33.5033 149.188C33.5033 151.74 34.513 154.188 36.3102 155.993C38.1075 157.798 40.545 158.813 43.0867 158.813C45.6283 158.813 48.0659 157.798 49.8631 155.993C51.6603 154.188 52.67 151.74 52.67 149.188C52.67 146.635 51.6603 144.187 49.8631 142.382C48.0659 140.577 45.6283 139.562 43.0867 139.562C40.545 139.562 38.1075 140.577 36.3102 142.382C34.513 144.187 33.5033 146.635 33.5033 149.188Z" fill="#FBA897" stroke="#A02006" stroke-width="5" stroke-linecap="round" stroke-linejoin="round"></path>
<path d="M71.8367 101.062V178.063" stroke="#A02006" stroke-width="5" stroke-linecap="round" stroke-linejoin="round"></path>
<path d="M105.378 110.072V125.125" stroke="#A02006" stroke-width="5" stroke-linecap="round" stroke-linejoin="round"></path>
<path d="M110.208 125.962C108.67 125.412 107.05 125.129 105.417 125.125C101.604 125.125 97.9478 126.646 95.252 129.354C92.5562 132.061 91.0417 135.733 91.0417 139.562V158.812" stroke="#A02006" stroke-width="5" stroke-linecap="round" stroke-linejoin="round"></path>
<path d="M119.792 139.562H215.625C215.625 139.562 225.208 139.562 225.208 149.188V216.562C225.208 216.562 225.208 226.188 215.625 226.188H119.792C119.792 226.188 110.208 226.188 110.208 216.562V149.188C110.208 149.188 110.208 139.562 119.792 139.562Z" fill="#FBA897"></path>
<path d="M215.625 139.562H119.792C117.25 139.562 114.812 140.577 113.015 142.382C111.218 144.187 110.208 146.635 110.208 149.188V171.325C110.208 168.772 111.218 166.324 113.015 164.519C114.812 162.714 117.25 161.7 119.792 161.7H215.625C218.167 161.7 220.604 162.714 222.401 164.519C224.199 166.324 225.208 168.772 225.208 171.325V149.188C225.208 146.635 224.199 144.187 222.401 142.382C220.604 140.577 218.167 139.562 215.625 139.562Z" fill="#FDDAD3"></path>
<path d="M119.763 139.562H215.596C215.596 139.562 225.18 139.562 225.18 149.188V216.562C225.18 216.562 225.18 226.188 215.596 226.188H119.763C119.763 226.188 110.18 226.188 110.18 216.562V149.188C110.18 149.188 110.18 139.562 119.763 139.562Z" stroke="#A02006" stroke-width="5" stroke-linecap="round" stroke-linejoin="round"></path>
<path d="M191.667 175.656C191.667 175.018 191.414 174.406 190.965 173.955C190.516 173.504 189.906 173.25 189.271 173.25H177.292V161.219C177.292 160.581 177.039 159.969 176.59 159.517C176.141 159.066 175.531 158.812 174.896 158.812H160.521C159.885 158.812 159.276 159.066 158.827 159.517C158.377 159.969 158.125 160.581 158.125 161.219V173.25H146.146C145.51 173.25 144.901 173.504 144.452 173.955C144.002 174.406 143.75 175.018 143.75 175.656V190.094C143.75 190.732 144.002 191.344 144.452 191.795C144.901 192.246 145.51 192.5 146.146 192.5H158.125V204.531C158.125 205.169 158.377 205.781 158.827 206.233C159.276 206.684 159.885 206.938 160.521 206.938H174.896C175.531 206.938 176.141 206.684 176.59 206.233C177.039 205.781 177.292 205.169 177.292 204.531V192.5H189.271C189.906 192.5 190.516 192.246 190.965 191.795C191.414 191.344 191.667 190.732 191.667 190.094V175.656Z" fill="#FDDAD3" stroke="#A02006" stroke-width="5" stroke-linecap="round" stroke-linejoin="round"></path>
<path d="M148.542 139.563V129.938C148.542 127.385 149.551 124.937 151.349 123.132C153.146 121.327 155.583 120.312 158.125 120.312H177.292C179.833 120.312 182.271 121.327 184.068 123.132C185.865 124.937 186.875 127.385 186.875 129.938V139.563" stroke="#A02006" stroke-width="5" stroke-linecap="round" stroke-linejoin="round"></path>
</svg>