<svg width="200" height="200" viewBox="0 0 200 200" fill="none" xmlns="http://www.w3.org/2000/svg">
<path d="M16.6667 16.6666H166.667C166.667 16.6666 179.167 16.6666 179.167 29.1666V120.833C179.167 120.833 179.167 133.333 166.667 133.333H16.6667C16.6667 133.333 4.16675 133.333 4.16675 120.833V29.1666C4.16675 29.1666 4.16675 16.6666 16.6667 16.6666Z" fill="#FBA897"></path>
<path d="M16.6667 16.6666C13.3515 16.6666 10.1721 17.9836 7.82791 20.3278C5.48371 22.672 4.16675 25.8514 4.16675 29.1666V120.833C4.16675 124.148 5.48371 127.328 7.82791 129.672C10.1721 132.016 13.3515 133.333 16.6667 133.333H27.8001L144.467 16.6666H16.6667Z" fill="#FDDAD3"></path>
<path d="M145.833 158.333V183.333L195.833 137.5L145.833 91.6666V116.667H87.5V158.333H145.833Z" fill="#FA8B75"></path>
<path d="M145.833 91.6666V116.667H87.5V158.333H116.667L165.4 109.6L145.833 91.6666Z" fill="#FDDAD3"></path>
<path d="M145.833 158.333V183.333L195.833 137.5L145.833 91.6666V116.667H87.5V158.333H145.833Z" stroke="#A02006" stroke-width="5" stroke-linecap="round" stroke-linejoin="round"></path>
<path d="M70.8334 133.333H16.6667C13.3515 133.333 10.1721 132.016 7.82791 129.672C5.48371 127.328 4.16675 124.148 4.16675 120.833V29.1666C4.16675 25.8514 5.48371 22.672 7.82791 20.3278C10.1721 17.9836 13.3515 16.6666 16.6667 16.6666H166.667C169.982 16.6666 173.161 17.9836 175.506 20.3278C177.85 22.672 179.167 25.8514 179.167 29.1666V83.3333" stroke="#A02006" stroke-width="5" stroke-linecap="round" stroke-linejoin="round"></path>
<path d="M175.558 20.3833L91.6666 87.5L7.7749 20.3833" stroke="#A02006" stroke-width="5" stroke-linecap="round" stroke-linejoin="round"></path>
</svg>