<svg width="230" height="230" viewBox="0 0 230 230" fill="none" xmlns="http://www.w3.org/2000/svg">
<path d="M4.79175 153.333V33.5417C4.79175 29.7292 6.30625 26.0729 9.00209 23.377C11.6979 20.6812 15.3543 19.1667 19.1667 19.1667H210.833C214.646 19.1667 218.302 20.6812 220.998 23.377C223.694 26.0729 225.208 29.7292 225.208 33.5417V153.333H4.79175Z" fill="#FBA897"></path>
<path d="M182.083 19.1667H19.1667C15.3543 19.1667 11.6979 20.6812 9.00209 23.377C6.30625 26.0729 4.79175 29.7292 4.79175 33.5417V153.333H47.9167L182.083 19.1667Z" fill="#FDDAD3"></path>
<path d="M4.79175 153.333H225.208V177.292C225.208 181.104 223.694 184.761 220.998 187.456C218.302 190.152 214.646 191.667 210.833 191.667H19.1667C15.3543 191.667 11.6979 190.152 9.00209 187.456C6.30625 184.761 4.79175 181.104 4.79175 177.292V153.333Z" fill="#F86447"></path>
<path d="M4.79175 153.333H225.208" stroke="#A02006" stroke-width="5" stroke-linecap="round" stroke-linejoin="round"></path>
<path d="M71.875 38.3333H76.6667C77.9375 38.3333 79.1563 38.8381 80.0549 39.7368C80.9535 40.6354 81.4583 41.8542 81.4583 43.125V76.6667" stroke="#A02006" stroke-width="5" stroke-linecap="round" stroke-linejoin="round"></path>
<path d="M71.8655 76.6667H91.0321" stroke="#A02006" stroke-width="5" stroke-linecap="round" stroke-linejoin="round"></path>
<path d="M110.208 95.8333H115C116.271 95.8333 117.49 96.3381 118.388 97.2368C119.287 98.1354 119.792 99.3542 119.792 100.625V134.167" stroke="#A02006" stroke-width="5" stroke-linecap="round" stroke-linejoin="round"></path>
<path d="M110.199 134.167H129.365" stroke="#A02006" stroke-width="5" stroke-linecap="round" stroke-linejoin="round"></path>
<path d="M186.875 95.8333H191.667C192.937 95.8333 194.156 96.3381 195.055 97.2368C195.954 98.1354 196.458 99.3542 196.458 100.625V134.167" stroke="#A02006" stroke-width="5" stroke-linecap="round" stroke-linejoin="round"></path>
<path d="M186.865 134.167H206.032" stroke="#A02006" stroke-width="5" stroke-linecap="round" stroke-linejoin="round"></path>
<path d="M33.5417 95.8333H38.3334C39.6042 95.8333 40.823 96.3381 41.7216 97.2368C42.6202 98.1354 43.1251 99.3542 43.1251 100.625V134.167" stroke="#A02006" stroke-width="5" stroke-linecap="round" stroke-linejoin="round"></path>
<path d="M33.532 134.167H52.6987" stroke="#A02006" stroke-width="5" stroke-linecap="round" stroke-linejoin="round"></path>
<path d="M148.542 38.3333H153.333C154.604 38.3333 155.823 38.8381 156.722 39.7368C157.62 40.6354 158.125 41.8542 158.125 43.125V76.6667" stroke="#A02006" stroke-width="5" stroke-linecap="round" stroke-linejoin="round"></path>
<path d="M148.532 76.6667H167.699" stroke="#A02006" stroke-width="5" stroke-linecap="round" stroke-linejoin="round"></path>
<path d="M186.875 38.3333H191.667C192.937 38.3333 194.156 38.8381 195.055 39.7368C195.954 40.6354 196.458 41.8542 196.458 43.125V76.6667" stroke="#A02006" stroke-width="5" stroke-linecap="round" stroke-linejoin="round"></path>
<path d="M186.865 76.6667H206.032" stroke="#A02006" stroke-width="5" stroke-linecap="round" stroke-linejoin="round"></path>
<path d="M52.7084 67.0833C52.7084 69.625 51.6987 72.0625 49.9015 73.8598C48.1043 75.657 45.6667 76.6667 43.1251 76.6667C40.5834 76.6667 38.1459 75.657 36.3486 73.8598C34.5514 72.0625 33.5417 69.625 33.5417 67.0833V47.9166C33.5417 45.375 34.5514 42.9374 36.3486 41.1402C38.1459 39.343 40.5834 38.3333 43.1251 38.3333C45.6667 38.3333 48.1043 39.343 49.9015 41.1402C51.6987 42.9374 52.7084 45.375 52.7084 47.9166V67.0833Z" stroke="#A02006" stroke-width="5" stroke-linecap="round" stroke-linejoin="round"></path>
<path d="M91.0417 124.583C91.0417 127.125 90.032 129.563 88.2348 131.36C86.4376 133.157 84 134.167 81.4583 134.167C78.9167 134.167 76.4791 133.157 74.6819 131.36C72.8847 129.563 71.875 127.125 71.875 124.583V105.417C71.875 102.875 72.8847 100.437 74.6819 98.6402C76.4791 96.843 78.9167 95.8333 81.4583 95.8333C84 95.8333 86.4376 96.843 88.2348 98.6402C90.032 100.437 91.0417 102.875 91.0417 105.417V124.583Z" stroke="#A02006" stroke-width="5" stroke-linecap="round" stroke-linejoin="round"></path>
<path d="M167.708 124.583C167.708 127.125 166.699 129.563 164.902 131.36C163.104 133.157 160.667 134.167 158.125 134.167C155.583 134.167 153.146 133.157 151.349 131.36C149.551 129.563 148.542 127.125 148.542 124.583V105.417C148.542 102.875 149.551 100.437 151.349 98.6402C153.146 96.843 155.583 95.8333 158.125 95.8333C160.667 95.8333 163.104 96.843 164.902 98.6402C166.699 100.437 167.708 102.875 167.708 105.417V124.583Z" stroke="#A02006" stroke-width="5" stroke-linecap="round" stroke-linejoin="round"></path>
<path d="M129.375 67.0833C129.375 69.625 128.365 72.0625 126.568 73.8598C124.771 75.657 122.333 76.6667 119.792 76.6667C117.25 76.6667 114.812 75.657 113.015 73.8598C111.218 72.0625 110.208 69.625 110.208 67.0833V47.9166C110.208 45.375 111.218 42.9374 113.015 41.1402C114.812 39.343 117.25 38.3333 119.792 38.3333C122.333 38.3333 124.771 39.343 126.568 41.1402C128.365 42.9374 129.375 45.375 129.375 47.9166V67.0833Z" stroke="#A02006" stroke-width="5" stroke-linecap="round" stroke-linejoin="round"></path>
<path d="M19.1667 19.1667H210.833C210.833 19.1667 225.208 19.1667 225.208 33.5417V177.292C225.208 177.292 225.208 191.667 210.833 191.667H19.1667C19.1667 191.667 4.79175 191.667 4.79175 177.292V33.5417C4.79175 33.5417 4.79175 19.1667 19.1667 19.1667Z" stroke="#A02006" stroke-width="5" stroke-linecap="round" stroke-linejoin="round"></path>
</svg>