<svg width="230" height="234" viewBox="0 0 230 234" fill="none" xmlns="http://www.w3.org/2000/svg">
<path d="M184.067 43.875C185.865 45.7031 186.875 48.1826 186.875 50.7682V219.375C186.875 221.961 185.865 224.441 184.068 226.269C182.271 228.098 179.833 229.125 177.292 229.125H14.3751C11.8334 229.125 9.39586 228.098 7.59864 226.269C5.80142 224.441 4.79175 221.961 4.79175 219.375V14.625C4.79175 12.0391 5.80142 9.55919 7.59864 7.73071C9.39586 5.90223 11.8334 4.875 14.3751 4.875H141.766C143.029 4.88421 144.278 5.14737 145.441 5.64935C146.604 6.15133 147.658 6.88223 148.542 7.8L184.067 43.875Z" fill="#FBA897"></path>
<path d="M166.29 25.818L148.542 7.8C147.658 6.88223 146.604 6.15133 145.441 5.64935C144.278 5.14737 143.029 4.88421 141.766 4.875H14.3751C11.8334 4.875 9.39587 5.90223 7.59864 7.73071C5.80142 9.55919 4.79175 12.0391 4.79175 14.625V190.125L166.29 25.818Z" fill="#FDDAD3"></path>
<path d="M101.309 229.734H15.0594C12.5177 229.734 10.0802 228.707 8.28297 226.879C6.48574 225.05 5.47607 222.57 5.47607 219.984V15.2344C5.47607 12.6485 6.48574 10.1686 8.28297 8.34008C10.0802 6.5116 12.5177 5.48438 15.0594 5.48438H142.451C143.714 5.49359 144.963 5.75675 146.125 6.25873C147.288 6.76071 148.342 7.4916 149.226 8.40938L184.751 44.4844C186.549 46.3124 187.559 48.792 187.559 51.3776V73.7344" stroke="#A02006" stroke-width="5" stroke-linecap="round" stroke-linejoin="round"></path>
<path d="M33.5417 53.6641V92.6641" stroke="#A02006" stroke-width="5" stroke-linecap="round" stroke-linejoin="round"></path>
<path d="M119.792 53.6641V92.6641" stroke="#A02006" stroke-width="5" stroke-linecap="round" stroke-linejoin="round"></path>
<path d="M91.0417 121.914V160.914" stroke="#A02006" stroke-width="5" stroke-linecap="round" stroke-linejoin="round"></path>
<path d="M148.542 53.6641V92.6641" stroke="#A02006" stroke-width="5" stroke-linecap="round" stroke-linejoin="round"></path>
<path d="M76.6667 53.625C80.4792 53.625 84.1356 55.1658 86.8314 57.9086C89.5272 60.6513 91.0417 64.3712 91.0417 68.25V78C91.0417 81.8788 89.5272 85.5987 86.8314 88.3414C84.1356 91.0842 80.4792 92.625 76.6667 92.625C72.8543 92.625 69.1979 91.0842 66.5021 88.3414C63.8063 85.5987 62.2917 81.8788 62.2917 78V68.25C62.2917 64.3712 63.8063 60.6513 66.5021 57.9086C69.1979 55.1658 72.8543 53.625 76.6667 53.625Z" stroke="#A02006" stroke-width="5" stroke-linecap="round" stroke-linejoin="round"></path>
<path d="M47.9167 121.875C51.7292 121.875 55.3856 123.416 58.0814 126.159C60.7772 128.901 62.2917 132.621 62.2917 136.5V146.25C62.2917 150.129 60.7772 153.849 58.0814 156.591C55.3856 159.334 51.7292 160.875 47.9167 160.875C44.1043 160.875 40.4479 159.334 37.7521 156.591C35.0563 153.849 33.5417 150.129 33.5417 146.25V136.5C33.5417 132.621 35.0563 128.901 37.7521 126.159C40.4479 123.416 44.1043 121.875 47.9167 121.875Z" stroke="#A02006" stroke-width="5" stroke-linecap="round" stroke-linejoin="round"></path>
<path d="M212.405 171.844C210.843 170.116 209.975 167.854 209.975 165.506C209.975 163.158 210.843 160.896 212.405 159.169L221.873 148.785C223.664 146.829 224.791 144.341 225.091 141.686C225.391 139.03 224.846 136.347 223.538 134.03C222.23 131.712 220.226 129.881 217.821 128.807C215.415 127.732 212.735 127.469 210.172 128.056L196.641 131.245C194.383 131.755 192.019 131.373 190.028 130.177C188.037 128.98 186.567 127.058 185.917 124.8L181.853 111.228C181.097 108.669 179.551 106.426 177.443 104.832C175.335 103.237 172.779 102.376 170.152 102.376C167.526 102.376 164.969 103.237 162.861 104.832C160.754 106.426 159.207 108.669 158.451 111.228L154.34 124.8C153.672 127.052 152.187 128.962 150.187 130.142C148.187 131.322 145.821 131.685 143.568 131.157L130.036 127.969C127.474 127.381 124.793 127.644 122.388 128.719C119.983 129.794 117.979 131.624 116.671 133.942C115.362 136.26 114.818 138.943 115.118 141.598C115.417 144.253 116.545 146.741 118.335 148.697L127.803 159.081C129.366 160.809 130.233 163.071 130.233 165.418C130.233 167.766 129.366 170.028 127.803 171.756L118.335 182.14C116.545 184.096 115.417 186.584 115.118 189.239C114.818 191.894 115.362 194.577 116.671 196.895C117.979 199.213 119.983 201.043 122.388 202.118C124.793 203.193 127.474 203.456 130.036 202.868L143.568 199.68C145.821 199.152 148.187 199.515 150.187 200.695C152.187 201.875 153.672 203.785 154.34 206.037L158.403 219.609C159.159 222.168 160.706 224.411 162.814 226.005C164.921 227.6 167.478 228.461 170.104 228.461C172.731 228.461 175.287 227.6 177.395 226.005C179.503 224.411 181.049 222.168 181.806 219.609L185.869 206.037C186.537 203.785 188.021 201.875 190.021 200.695C192.021 199.515 194.387 199.152 196.641 199.68L210.172 202.868C212.735 203.456 215.415 203.193 217.821 202.118C220.226 201.043 222.23 199.213 223.538 196.895C224.846 194.577 225.391 191.894 225.091 189.239C224.791 186.584 223.664 184.096 221.873 182.14L212.405 171.844ZM170.104 179.497C167.378 179.499 164.713 178.679 162.445 177.139C160.178 175.6 158.41 173.411 157.366 170.849C156.321 168.287 156.047 165.468 156.577 162.748C157.108 160.027 158.42 157.528 160.347 155.566C162.274 153.605 164.729 152.268 167.403 151.727C170.076 151.185 172.847 151.462 175.366 152.523C177.885 153.584 180.038 155.381 181.552 157.687C183.067 159.992 183.876 162.704 183.876 165.477C183.876 169.194 182.425 172.758 179.843 175.388C177.26 178.017 173.758 179.495 170.104 179.497Z" fill="#FA8B75"></path>
<path d="M118.335 182.227C116.545 184.183 115.417 186.671 115.118 189.327C114.818 191.982 115.362 194.665 116.671 196.983C117.979 199.301 119.983 201.131 122.388 202.206C124.793 203.281 127.474 203.544 130.036 202.956L134.253 201.981L160.368 175.412C157.89 172.762 156.529 169.231 156.574 165.574C156.619 161.917 158.067 158.422 160.609 155.836C163.151 153.25 166.586 151.776 170.181 151.73C173.775 151.685 177.245 153.07 179.851 155.59L205.965 129.022L196.641 131.215C194.387 131.727 192.026 131.35 190.035 130.159C188.045 128.968 186.573 127.053 185.917 124.8L181.853 111.228C181.097 108.669 179.551 106.426 177.443 104.832C175.335 103.237 172.779 102.376 170.152 102.376C167.526 102.376 164.969 103.237 162.861 104.832C160.754 106.426 159.207 108.669 158.451 111.228L154.34 124.8C153.672 127.052 152.187 128.962 150.187 130.142C148.187 131.322 145.821 131.685 143.568 131.157L130.036 127.969C127.474 127.381 124.793 127.644 122.388 128.719C119.983 129.794 117.979 131.624 116.671 133.942C115.362 136.26 114.818 138.943 115.118 141.598C115.417 144.253 116.545 146.741 118.335 148.697L127.803 159.081C129.366 160.809 130.233 163.071 130.233 165.418C130.233 167.766 129.366 170.028 127.803 171.756L118.335 182.227Z" fill="#FDDAD3"></path>
<path d="M212.405 171.844C210.843 170.116 209.975 167.854 209.975 165.506C209.975 163.158 210.843 160.896 212.405 159.169L221.873 148.785C223.664 146.829 224.791 144.341 225.091 141.686C225.391 139.03 224.846 136.347 223.538 134.03C222.23 131.712 220.226 129.881 217.821 128.807C215.415 127.732 212.735 127.469 210.172 128.056L196.641 131.245C194.383 131.755 192.019 131.373 190.028 130.177C188.037 128.98 186.567 127.058 185.917 124.8L181.853 111.228C181.097 108.669 179.551 106.426 177.443 104.832C175.335 103.237 172.779 102.376 170.152 102.376C167.526 102.376 164.969 103.237 162.861 104.832C160.754 106.426 159.207 108.669 158.451 111.228L154.34 124.8C153.672 127.052 152.187 128.962 150.187 130.142C148.187 131.322 145.821 131.685 143.568 131.157L130.036 127.969C127.474 127.381 124.793 127.644 122.388 128.719C119.983 129.794 117.979 131.624 116.671 133.942C115.362 136.26 114.818 138.943 115.118 141.598C115.417 144.253 116.545 146.741 118.335 148.697L127.803 159.081C129.366 160.809 130.233 163.071 130.233 165.418C130.233 167.766 129.366 170.028 127.803 171.756L118.335 182.14C116.545 184.096 115.417 186.584 115.118 189.239C114.818 191.894 115.362 194.577 116.671 196.895C117.979 199.213 119.983 201.043 122.388 202.118C124.793 203.193 127.474 203.456 130.036 202.868L143.568 199.68C145.821 199.152 148.187 199.515 150.187 200.695C152.187 201.875 153.672 203.785 154.34 206.037L158.403 219.609C159.159 222.168 160.706 224.411 162.814 226.005C164.921 227.6 167.478 228.461 170.104 228.461C172.731 228.461 175.287 227.6 177.395 226.005C179.503 224.411 181.049 222.168 181.806 219.609L185.869 206.037C186.537 203.785 188.021 201.875 190.021 200.695C192.021 199.515 194.387 199.152 196.641 199.68L210.172 202.868C212.735 203.456 215.415 203.193 217.821 202.118C220.226 201.043 222.23 199.213 223.538 196.895C224.846 194.577 225.391 191.894 225.091 189.239C224.791 186.584 223.664 184.096 221.873 182.14L212.405 171.844ZM170.104 179.497C167.378 179.499 164.713 178.679 162.445 177.139C160.178 175.6 158.41 173.411 157.366 170.849C156.321 168.287 156.047 165.468 156.577 162.748C157.108 160.027 158.42 157.528 160.347 155.566C162.274 153.605 164.729 152.268 167.403 151.727C170.076 151.185 172.847 151.462 175.366 152.523C177.885 153.584 180.038 155.381 181.552 157.687C183.067 159.992 183.876 162.704 183.876 165.477C183.876 169.194 182.425 172.758 179.843 175.388C177.26 178.017 173.758 179.495 170.104 179.497Z" stroke="#A02006" stroke-width="5" stroke-linecap="round" stroke-linejoin="round"></path>
</svg>