<svg width="230" height="230" viewBox="0 0 230 230" fill="none" xmlns="http://www.w3.org/2000/svg">
<path d="M186.875 167.708C189.417 167.708 191.854 166.699 193.651 164.901C195.449 163.104 196.458 160.667 196.458 158.125V43.125C196.458 40.5833 195.449 38.1457 193.651 36.3485C191.854 34.5513 189.417 33.5416 186.875 33.5416H92.1725C90.3932 33.5407 88.6493 33.0444 87.1362 32.1084C85.623 31.1724 84.4003 29.8337 83.605 28.242L74.52 10.0912C73.7246 8.4996 72.5019 7.16083 70.9888 6.22484C69.4756 5.28884 67.7317 4.79258 65.9525 4.79163H14.375C11.8333 4.79163 9.39574 5.8013 7.59852 7.59852C5.8013 9.39574 4.79163 11.8333 4.79163 14.375V158.125C4.79163 160.667 5.8013 163.104 7.59852 164.901C9.39574 166.699 11.8333 167.708 14.375 167.708H186.875Z" fill="#FBA897"></path>
<path d="M92.1725 33.5416C90.3932 33.5407 88.6493 33.0444 87.1362 32.1084C85.623 31.1724 84.4003 29.8337 83.605 28.242L74.52 10.0912C73.7246 8.4996 72.5019 7.16083 70.9888 6.22484C69.4756 5.28884 67.7317 4.79258 65.9525 4.79163H14.375C11.8333 4.79163 9.39574 5.8013 7.59852 7.59852C5.8013 9.39574 4.79163 11.8333 4.79163 14.375V158.125C4.79163 160.667 5.8013 163.104 7.59852 164.901C9.39574 166.699 11.8333 167.708 14.375 167.708H21.0833L155.25 33.5416H92.1725Z" fill="#FDDAD3"></path>
<path d="M196.458 81.4583V43.125C196.458 40.5833 195.449 38.1457 193.651 36.3485C191.854 34.5513 189.417 33.5416 186.875 33.5416H92.1725C90.3932 33.5407 88.6493 33.0444 87.1362 32.1084C85.623 31.1724 84.4003 29.8337 83.605 28.242L74.52 10.0912C73.7246 8.4996 72.5019 7.16083 70.9888 6.22484C69.4756 5.28884 67.7317 4.79258 65.9525 4.79163H14.375C11.8333 4.79163 9.39574 5.8013 7.59852 7.59852C5.8013 9.39574 4.79163 11.8333 4.79163 14.375V158.125C4.79163 160.667 5.8013 163.104 7.59852 164.901C9.39574 166.699 11.8333 167.708 14.375 167.708H81.4583" stroke="#A02006" stroke-width="5" stroke-linecap="round" stroke-linejoin="round"></path>
<path d="M110.208 174.896C110.208 180.614 112.48 186.099 116.524 190.143C120.568 194.186 126.052 196.458 131.771 196.458C137.49 196.458 142.974 194.186 147.018 190.143C151.062 186.099 153.333 180.614 153.333 174.896C153.333 169.177 151.062 163.693 147.018 159.649C142.974 155.605 137.49 153.333 131.771 153.333C126.052 153.333 120.568 155.605 116.524 159.649C112.48 163.693 110.208 169.177 110.208 174.896Z" fill="#F86447" stroke="#A02006" stroke-width="5" stroke-linecap="round" stroke-linejoin="round"></path>
<path d="M182.083 203.646C182.083 209.364 184.355 214.849 188.399 218.893C192.443 222.936 197.927 225.208 203.646 225.208C209.365 225.208 214.849 222.936 218.893 218.893C222.937 214.849 225.208 209.364 225.208 203.646C225.208 197.927 222.937 192.443 218.893 188.399C214.849 184.355 209.365 182.083 203.646 182.083C197.927 182.083 192.443 184.355 188.399 188.399C184.355 192.443 182.083 197.927 182.083 203.646Z" fill="#F86447" stroke="#A02006" stroke-width="5" stroke-linecap="round" stroke-linejoin="round"></path>
<path d="M182.083 131.771C182.083 137.49 184.355 142.974 188.399 147.018C192.443 151.062 197.927 153.333 203.646 153.333C209.365 153.333 214.849 151.062 218.893 147.018C222.937 142.974 225.208 137.49 225.208 131.771C225.208 126.052 222.937 120.568 218.893 116.524C214.849 112.48 209.365 110.208 203.646 110.208C197.927 110.208 192.443 112.48 188.399 116.524C184.355 120.568 182.083 126.052 182.083 131.771Z" fill="#F86447" stroke="#A02006" stroke-width="5" stroke-linecap="round" stroke-linejoin="round"></path>
<path d="M150.219 163.827L185.198 142.84" stroke="#A02006" stroke-width="5" stroke-linecap="round" stroke-linejoin="round"></path>
<path d="M151.781 182.898L183.636 195.644" stroke="#A02006" stroke-width="5" stroke-linecap="round" stroke-linejoin="round"></path>
</svg>