<svg width="230" height="230" viewBox="0 0 230 230" fill="none" xmlns="http://www.w3.org/2000/svg">
<path d="M14.3751 177.292H43.1251C43.1251 177.292 52.7084 177.292 52.7084 186.875V215.625C52.7084 215.625 52.7084 225.208 43.1251 225.208H14.3751C14.3751 225.208 4.79175 225.208 4.79175 215.625V186.875C4.79175 186.875 4.79175 177.292 14.3751 177.292Z" fill="#F86447"></path>
<path d="M52.7084 196.458V186.875C52.7084 184.333 51.6987 181.896 49.9015 180.099C48.1043 178.301 45.6667 177.292 43.1251 177.292H14.3751C11.8334 177.292 9.39586 178.301 7.59864 180.099C5.80142 181.896 4.79175 184.333 4.79175 186.875V196.458H52.7084Z" fill="#FDDAD3"></path>
<path d="M100.625 177.292H129.375C129.375 177.292 138.958 177.292 138.958 186.875V215.625C138.958 215.625 138.958 225.208 129.375 225.208H100.625C100.625 225.208 91.0417 225.208 91.0417 215.625V186.875C91.0417 186.875 91.0417 177.292 100.625 177.292Z" fill="#F86447"></path>
<path d="M138.958 196.458V186.875C138.958 184.333 137.949 181.896 136.152 180.099C134.354 178.301 131.917 177.292 129.375 177.292H100.625C98.0834 177.292 95.6459 178.301 93.8486 180.099C92.0514 181.896 91.0417 184.333 91.0417 186.875V196.458H138.958Z" fill="#FDDAD3"></path>
<path d="M186.875 177.292H215.625C215.625 177.292 225.208 177.292 225.208 186.875V215.625C225.208 215.625 225.208 225.208 215.625 225.208H186.875C186.875 225.208 177.292 225.208 177.292 215.625V186.875C177.292 186.875 177.292 177.292 186.875 177.292Z" fill="#F86447"></path>
<path d="M225.208 196.458V186.875C225.208 184.333 224.199 181.896 222.402 180.099C220.604 178.301 218.167 177.292 215.625 177.292H186.875C184.333 177.292 181.896 178.301 180.099 180.099C178.301 181.896 177.292 184.333 177.292 186.875V196.458H225.208Z" fill="#FDDAD3"></path>
<path d="M115 52.6987V177.282" stroke="#A02006" stroke-width="5" stroke-linecap="round" stroke-linejoin="round"></path>
<path d="M100.625 177.282H129.375C129.375 177.282 138.958 177.282 138.958 186.865V215.615C138.958 215.615 138.958 225.199 129.375 225.199H100.625C100.625 225.199 91.0417 225.199 91.0417 215.615V186.865C91.0417 186.865 91.0417 177.282 100.625 177.282Z" stroke="#A02006" stroke-width="5" stroke-linecap="round" stroke-linejoin="round"></path>
<path d="M14.3751 177.282H43.1251C43.1251 177.282 52.7084 177.282 52.7084 186.865V215.615C52.7084 215.615 52.7084 225.199 43.1251 225.199H14.3751C14.3751 225.199 4.79175 225.199 4.79175 215.615V186.865C4.79175 186.865 4.79175 177.282 14.3751 177.282Z" stroke="#A02006" stroke-width="5" stroke-linecap="round" stroke-linejoin="round"></path>
<path d="M186.875 177.282H215.625C215.625 177.282 225.208 177.282 225.208 186.865V215.615C225.208 215.615 225.208 225.199 215.625 225.199H186.875C186.875 225.199 177.292 225.199 177.292 215.615V186.865C177.292 186.865 177.292 177.282 186.875 177.282Z" stroke="#A02006" stroke-width="5" stroke-linecap="round" stroke-linejoin="round"></path>
<path d="M52.5833 14H177.167C177.167 14 186.75 14 186.75 23.5833V42.75C186.75 42.75 186.75 52.3333 177.167 52.3333H52.5833C52.5833 52.3333 43 52.3333 43 42.75V23.5833C43 23.5833 43 14 52.5833 14Z" fill="#F86447"></path>
<path d="M196.917 177.292V129.375C196.917 126.833 195.907 124.396 194.11 122.599C192.313 120.801 189.875 119.792 187.333 119.792H43.5833C41.0417 119.792 38.6041 120.801 36.8069 122.599C35.0097 124.396 34 126.833 34 129.375V177.292" stroke="#A02006" stroke-width="5" stroke-linecap="round" stroke-linejoin="round"></path>
<path d="M43 28.75V23.9583C43 21.4167 44.0097 18.9791 45.8069 17.1819C47.6041 15.3847 50.0417 14.375 52.5833 14.375H177.167C179.708 14.375 182.146 15.3847 183.943 17.1819C185.74 18.9791 186.75 21.4167 186.75 23.9583V28.75H43Z" fill="#FDDAD3"></path>
<path d="M52.5833 14H177.167C177.167 14 186.75 14 186.75 23.5833V42.75C186.75 42.75 186.75 52.3333 177.167 52.3333H52.5833C52.5833 52.3333 43 52.3333 43 42.75V23.5833C43 23.5833 43 14 52.5833 14Z" stroke="#A02006" stroke-width="5" stroke-linecap="round" stroke-linejoin="round"></path>
</svg>