<svg width="230" height="230" viewBox="0 0 230 230" fill="none" xmlns="http://www.w3.org/2000/svg">
<path d="M4.79175 177.292H225.208V206.042H4.79175V177.292Z" fill="#FDDAD3"></path>
<path d="M4.79175 191.667H225.208V206.042H4.79175V191.667Z" fill="#FA8B75"></path>
<path d="M4.79175 129.375V225.208" stroke="#A02006" stroke-width="5" stroke-linecap="round" stroke-linejoin="round"></path>
<path d="M225 153.333V225.208" stroke="#A02006" stroke-width="5" stroke-linecap="round" stroke-linejoin="round"></path>
<path d="M5 177.292H225.417V206.042H5V177.292Z" stroke="#A02006" stroke-width="5" stroke-linecap="round" stroke-linejoin="round"></path>
<path d="M29 153.333C29 159.687 31.5242 165.781 36.0172 170.274C40.5103 174.767 46.6042 177.292 52.9583 177.292C59.3125 177.292 65.4064 174.767 69.8994 170.274C74.3925 165.781 76.9167 159.687 76.9167 153.333C76.9167 146.979 74.3925 140.885 69.8994 136.392C65.4064 131.899 59.3125 129.375 52.9583 129.375C46.6042 129.375 40.5103 131.899 36.0172 136.392C31.5242 140.885 29 146.979 29 153.333Z" fill="#FCBEB1" stroke="#A02006" stroke-width="5" stroke-linecap="round" stroke-linejoin="round"></path>
<path d="M79.0417 177.292H194.042V148.542C194.042 143.458 192.022 138.583 188.428 134.989C184.834 131.394 179.958 129.375 174.875 129.375H83.8334C82.5626 129.375 81.3438 129.88 80.4452 130.778C79.5466 131.677 79.0417 132.896 79.0417 134.167V177.292Z" fill="#FBA897"></path>
<path d="M174.875 129.375H83.8334C82.5626 129.375 81.3438 129.88 80.4452 130.778C79.5466 131.677 79.0417 132.896 79.0417 134.167V158.125C79.0417 156.854 79.5466 155.635 80.4452 154.737C81.3438 153.838 82.5626 153.333 83.8334 153.333H174.875C179.958 153.333 184.834 155.353 188.428 158.947C192.022 162.542 194.042 167.417 194.042 172.5V148.542C194.042 143.458 192.022 138.583 188.428 134.989C184.834 131.394 179.958 129.375 174.875 129.375Z" fill="#FDDAD3"></path>
<path d="M79.0417 177.292H194.042V148.542C194.042 143.458 192.022 138.583 188.428 134.989C184.834 131.394 179.958 129.375 174.875 129.375H83.8334C82.5626 129.375 81.3438 129.88 80.4452 130.778C79.5466 131.677 79.0417 132.896 79.0417 134.167V177.292Z" stroke="#A02006" stroke-width="5" stroke-linecap="round" stroke-linejoin="round"></path>
<path d="M131.567 80H68.4898C67.299 80 66.157 79.6282 65.315 78.9663C64.473 78.3044 64 77.4066 64 76.4706V23.5294C64 22.5934 64.473 21.6956 65.315 21.0337C66.157 20.3718 67.299 20 68.4898 20H131.567C132.204 19.9998 132.833 20.106 133.414 20.3117C133.994 20.5173 134.513 20.8178 134.934 21.1929L164.647 47.6635C165.372 48.3085 165.772 49.1394 165.772 50C165.772 50.8606 165.372 51.6915 164.647 52.3365L134.934 78.8071C134.513 79.1823 133.994 79.4827 133.414 79.6883C132.833 79.894 132.204 80.0002 131.567 80Z" fill="#FDDAD3"></path>
<path d="M164.653 47.3855L136.545 22.2785L64.7595 78.9107C65.1762 79.2547 65.677 79.5286 66.2315 79.7158C66.786 79.903 67.3828 79.9997 67.986 80H131.382C132.022 80.0003 132.655 79.8931 133.239 79.6857C133.822 79.4782 134.343 79.1752 134.767 78.7968L164.63 52.0986C165.362 51.4502 165.768 50.6134 165.772 49.7454C165.776 48.8774 165.378 48.0382 164.653 47.3855Z" fill="#FBA897"></path>
<path d="M65.519 50.4365H84.0317C84.6704 50.4365 85.3003 50.3001 85.8715 50.038C86.4427 49.7759 86.9396 49.3953 87.3228 48.9265L94.8266 39.7379C95.2275 39.2474 95.7526 38.8538 96.3565 38.5913C96.9603 38.3288 97.6248 38.2052 98.2924 38.2312C98.9599 38.2573 99.6106 38.4321 100.188 38.7407C100.765 39.0492 101.252 39.4822 101.606 40.0021L116.252 61.5127C116.58 61.9951 117.022 62.4034 117.545 62.7071C118.069 63.0108 118.66 63.2021 119.276 63.2667C119.891 63.3313 120.515 63.2675 121.099 63.0802C121.684 62.8928 122.215 62.5867 122.653 62.1847L134.246 51.5464C134.629 51.1961 135.083 50.9184 135.583 50.7292C136.083 50.5401 136.618 50.4432 137.159 50.4441H164.253" stroke="#A02006" stroke-width="5" stroke-linecap="round" stroke-linejoin="round"></path>
<path d="M131.567 80H68.4898C67.299 80 66.157 79.6282 65.315 78.9663C64.473 78.3044 64 77.4066 64 76.4706V23.5294C64 22.5934 64.473 21.6956 65.315 21.0337C66.157 20.3718 67.299 20 68.4898 20H131.567C132.204 19.9998 132.833 20.106 133.414 20.3117C133.994 20.5173 134.513 20.8178 134.934 21.1929L164.647 47.6635C165.372 48.3085 165.772 49.1394 165.772 50C165.772 50.8606 165.372 51.6915 164.647 52.3365L134.934 78.8071C134.513 79.1823 133.994 79.4827 133.414 79.6883C132.833 79.894 132.204 80.0002 131.567 80Z" stroke="#A02006" stroke-width="5" stroke-linecap="round" stroke-linejoin="round"></path>
</svg>