<svg width="230" height="230" viewBox="0 0 230 230" fill="none" xmlns="http://www.w3.org/2000/svg">
<path d="M167.038 140.971L217.542 162.917C218.398 163.289 219.126 163.903 219.638 164.684C220.15 165.464 220.422 166.377 220.422 167.311C220.422 168.244 220.15 169.157 219.638 169.938C219.126 170.718 218.398 171.332 217.542 171.705L119.361 214.417C118.756 214.681 118.103 214.818 117.444 214.818C116.784 214.818 116.132 214.681 115.527 214.417L17.3459 171.724C16.49 171.351 15.7615 170.737 15.2498 169.957C14.7382 169.176 14.4656 168.263 14.4656 167.33C14.4656 166.396 14.7382 165.483 15.2498 164.703C15.7615 163.922 16.49 163.308 17.3459 162.936L67.8501 140.971" fill="#F86447"></path>
<path d="M167.038 88.2625L217.542 110.208C218.398 110.581 219.126 111.195 219.638 111.975C220.15 112.756 220.422 113.669 220.422 114.602C220.422 115.536 220.15 116.449 219.638 117.229C219.126 118.01 218.398 118.624 217.542 118.996L119.361 161.709C118.756 161.973 118.103 162.109 117.444 162.109C116.784 162.109 116.132 161.973 115.527 161.709L17.3459 119.015C16.49 118.643 15.7615 118.029 15.2498 117.248C14.7382 116.468 14.4656 115.555 14.4656 114.621C14.4656 113.688 14.7382 112.775 15.2498 111.995C15.7615 111.214 16.49 110.6 17.3459 110.228L67.8501 88.2625" fill="#FA8B75"></path>
<path d="M119.36 108.953C118.755 109.214 118.103 109.349 117.444 109.349C116.785 109.349 116.132 109.214 115.527 108.953L17.3459 66.2591C16.4984 65.8829 15.7782 65.2689 15.2728 64.4915C14.7673 63.7142 14.4983 62.8068 14.4983 61.8796C14.4983 60.9523 14.7673 60.045 15.2728 59.2676C15.7782 58.4902 16.4984 57.8762 17.3459 57.5L115.527 14.7775C116.132 14.5136 116.784 14.3774 117.444 14.3774C118.103 14.3774 118.756 14.5136 119.36 14.7775L217.542 57.5C218.398 57.8723 219.126 58.4864 219.638 59.267C220.149 60.0476 220.422 60.9606 220.422 61.8939C220.422 62.8273 220.149 63.7403 219.638 64.5209C219.126 65.3014 218.398 65.9156 217.542 66.2879L119.36 108.953Z" fill="#FCBEB1"></path>
<path d="M167.038 140.971L217.542 162.917C218.398 163.289 219.126 163.903 219.638 164.684C220.15 165.464 220.422 166.377 220.422 167.311C220.422 168.244 220.15 169.157 219.638 169.938C219.126 170.718 218.398 171.332 217.542 171.705L119.361 214.417C118.756 214.681 118.103 214.818 117.444 214.818C116.784 214.818 116.132 214.681 115.527 214.417L17.3459 171.724C16.49 171.351 15.7615 170.737 15.2498 169.957C14.7382 169.176 14.4656 168.263 14.4656 167.33C14.4656 166.396 14.7382 165.483 15.2498 164.703C15.7615 163.922 16.49 163.308 17.3459 162.936L67.8501 140.971" stroke="#B52D04" stroke-width="5" stroke-linecap="round" stroke-linejoin="round"></path>
<path d="M167.038 88.2625L217.542 110.208C218.398 110.581 219.126 111.195 219.638 111.975C220.15 112.756 220.422 113.669 220.422 114.602C220.422 115.536 220.15 116.449 219.638 117.229C219.126 118.01 218.398 118.624 217.542 118.996L119.361 161.709C118.756 161.973 118.103 162.109 117.444 162.109C116.784 162.109 116.132 161.973 115.527 161.709L17.3459 119.015C16.49 118.643 15.7615 118.029 15.2498 117.248C14.7382 116.468 14.4656 115.555 14.4656 114.621C14.4656 113.688 14.7382 112.775 15.2498 111.995C15.7615 111.214 16.49 110.6 17.3459 110.228L67.8501 88.2625" stroke="#B52D04" stroke-width="5" stroke-linecap="round" stroke-linejoin="round"></path>
<path d="M119.36 108.953C118.755 109.214 118.103 109.349 117.444 109.349C116.785 109.349 116.132 109.214 115.527 108.953L17.3459 66.2591C16.4984 65.8829 15.7782 65.2689 15.2728 64.4915C14.7673 63.7142 14.4983 62.8068 14.4983 61.8796C14.4983 60.9523 14.7673 60.045 15.2728 59.2676C15.7782 58.4902 16.4984 57.8762 17.3459 57.5L115.527 14.7775C116.132 14.5136 116.784 14.3774 117.444 14.3774C118.103 14.3774 118.756 14.5136 119.36 14.7775L217.542 57.5C218.398 57.8723 219.126 58.4864 219.638 59.267C220.149 60.0476 220.422 60.9606 220.422 61.8939C220.422 62.8273 220.149 63.7403 219.638 64.5209C219.126 65.3014 218.398 65.9156 217.542 66.2879L119.36 108.953Z" stroke="#B52D04" stroke-width="5" stroke-linecap="round" stroke-linejoin="round"></path>
</svg>