<svg width="230" height="231" viewBox="0 0 230 231" fill="none" xmlns="http://www.w3.org/2000/svg">
<path d="M196.458 216.562C196.458 219.115 195.449 221.563 193.651 223.368C191.854 225.173 189.417 226.188 186.875 226.188H43.125C40.5833 226.188 38.1457 225.173 36.3485 223.368C34.5513 221.563 33.5416 219.115 33.5416 216.562V14.4375C33.5416 11.8848 34.5513 9.43664 36.3485 7.6316C38.1457 5.82656 40.5833 4.8125 43.125 4.8125H134.991C137.532 4.81305 139.969 5.82746 141.766 7.63262L193.65 59.7424C195.448 61.547 196.458 63.9948 196.458 66.5472V216.562Z" fill="#FBA897"></path>
<path d="M167.766 33.7453L141.766 7.63263C139.969 5.82746 137.532 4.81305 134.991 4.8125H43.125C40.5833 4.8125 38.1457 5.82656 36.3485 7.6316C34.5513 9.43664 33.5416 11.8848 33.5416 14.4375V168.553L167.766 33.7453Z" fill="#FDDAD3"></path>
<path d="M196.458 216.562C196.458 219.115 195.449 221.563 193.651 223.368C191.854 225.173 189.417 226.188 186.875 226.188H43.125C40.5833 226.188 38.1457 225.173 36.3485 223.368C34.5513 221.563 33.5416 219.115 33.5416 216.562V14.4375C33.5416 11.8848 34.5513 9.43663 36.3485 7.6316C38.1457 5.82656 40.5833 4.8125 43.125 4.8125H134.991C137.532 4.81305 139.969 5.82746 141.766 7.63262L193.65 59.7424C195.448 61.547 196.458 63.9948 196.458 66.5473V216.562Z" stroke="#A02006" stroke-width="5" stroke-linecap="round" stroke-linejoin="round"></path>
<path d="M195.542 62.7875H148.583C146.042 62.7875 143.604 61.7734 141.807 59.9684C140.01 58.1634 139 55.7152 139 53.1625V6C140.047 6.40153 140.995 7.02533 141.779 7.82875L193.721 59.9963C194.521 60.7842 195.142 61.7363 195.542 62.7875Z" fill="#F86447" stroke="#A02006" stroke-width="5" stroke-linecap="round" stroke-linejoin="round"></path>
<path d="M195.596 62.5625H195.5" stroke="#A02006" stroke-linecap="round" stroke-linejoin="round"></path>
<path d="M138.958 5.77502V5.67877" stroke="#A02006" stroke-linecap="round" stroke-linejoin="round"></path>
<path d="M62.2916 178.062H167.708" stroke="#A02006" stroke-width="5" stroke-linecap="round" stroke-linejoin="round"></path>
<path d="M62.2916 197.312H167.708" stroke="#A02006" stroke-width="5" stroke-linecap="round" stroke-linejoin="round"></path>
<path d="M148.542 105.875C148.542 104.599 148.037 103.375 147.138 102.472C146.24 101.57 145.021 101.062 143.75 101.062H129.375V86.625C129.375 85.3486 128.87 84.1246 127.972 83.222C127.073 82.3195 125.854 81.8125 124.583 81.8125H105.417C104.146 81.8125 102.927 82.3195 102.028 83.222C101.13 84.1246 100.625 85.3486 100.625 86.625V101.062H86.25C84.9792 101.062 83.7604 101.57 82.8618 102.472C81.9632 103.375 81.4584 104.599 81.4584 105.875V125.125C81.4584 126.401 81.9632 127.625 82.8618 128.528C83.7604 129.43 84.9792 129.938 86.25 129.938H100.625V144.375C100.625 145.651 101.13 146.875 102.028 147.778C102.927 148.68 104.146 149.188 105.417 149.188H124.583C125.854 149.188 127.073 148.68 127.972 147.778C128.87 146.875 129.375 145.651 129.375 144.375V129.938H143.75C145.021 129.938 146.24 129.43 147.138 128.528C148.037 127.625 148.542 126.401 148.542 125.125V105.875Z" fill="#FDDAD3" stroke="#A02006" stroke-width="5" stroke-linecap="round" stroke-linejoin="round"></path>
</svg>