<svg width="230" height="230" viewBox="0 0 230 230" fill="none" xmlns="http://www.w3.org/2000/svg">
<path d="M38.3333 225.208C44.0196 225.208 49.5781 223.522 54.306 220.363C59.0339 217.204 62.7189 212.714 64.8949 207.46C67.0709 202.207 67.6402 196.426 66.5309 190.849C65.4216 185.272 62.6834 180.15 58.6627 176.129C54.6419 172.108 49.5191 169.37 43.9422 168.261C38.3652 167.151 32.5846 167.721 27.3312 169.897C22.0778 172.073 17.5877 175.758 14.4286 180.486C11.2695 185.214 9.58334 190.772 9.58334 196.458C9.58334 204.083 12.6124 211.396 18.004 216.788C23.3957 222.179 30.7084 225.208 38.3333 225.208Z" fill="#F86447"></path>
<path d="M86.25 167.708H143.75V225.208H86.25V167.708Z" fill="#F86447"></path>
<path d="M191.667 167.708L162.917 225.208H220.417L191.667 167.708Z" fill="#F86447"></path>
<path d="M38.3333 190.143C43.9805 190.141 49.5032 191.802 54.2122 194.92C58.9211 198.037 62.6078 202.472 64.8121 207.671C66.661 203.3 67.399 198.539 66.9602 193.813C66.5214 189.087 64.9195 184.544 62.2975 180.588C59.6754 176.632 56.1147 173.386 51.9332 171.141C47.7517 168.896 43.0794 167.721 38.3333 167.721C33.5872 167.721 28.9149 168.896 24.7334 171.141C20.5519 173.386 16.9912 176.632 14.3692 180.588C11.7471 184.544 10.1452 189.087 9.70645 193.813C9.26767 198.539 10.0057 203.3 11.8546 207.671C14.0589 202.472 17.7455 198.037 22.4545 194.92C27.1634 191.802 32.6861 190.141 38.3333 190.143Z" fill="#FDDAD3"></path>
<path d="M86.25 225.208V167.708H143.75L86.25 225.208Z" fill="#FDDAD3"></path>
<path d="M191.667 167.708L162.917 225.208H191.667V167.708Z" fill="#FDDAD3"></path>
<path d="M38.3333 167.708V134.167C38.3333 132.896 38.8382 131.677 39.7368 130.778C40.6354 129.88 41.8542 129.375 43.125 129.375H186.875C188.146 129.375 189.365 129.88 190.263 130.778C191.162 131.677 191.667 132.896 191.667 134.167V167.708" stroke="#A02006" stroke-width="5" stroke-linecap="round" stroke-linejoin="round"></path>
<path d="M115 100.625V167.708" stroke="#A02006" stroke-width="5" stroke-linecap="round" stroke-linejoin="round"></path>
<path d="M38.3333 225.208C44.0196 225.208 49.5781 223.522 54.306 220.363C59.0339 217.204 62.7189 212.714 64.8949 207.46C67.0709 202.207 67.6402 196.426 66.5309 190.849C65.4216 185.272 62.6834 180.15 58.6627 176.129C54.6419 172.108 49.5191 169.37 43.9422 168.261C38.3652 167.151 32.5846 167.721 27.3312 169.897C22.0778 172.073 17.5877 175.758 14.4286 180.486C11.2695 185.214 9.58334 190.772 9.58334 196.458C9.58334 204.083 12.6124 211.396 18.004 216.788C23.3957 222.179 30.7084 225.208 38.3333 225.208Z" stroke="#A02006" stroke-width="5" stroke-linecap="round" stroke-linejoin="round"></path>
<path d="M86.25 167.708H143.75V225.208H86.25V167.708Z" stroke="#A02006" stroke-width="5" stroke-linecap="round" stroke-linejoin="round"></path>
<path d="M191.667 167.708L162.917 225.208H220.417L191.667 167.708Z" stroke="#A02006" stroke-width="5" stroke-linecap="round" stroke-linejoin="round"></path>
<path d="M115 100.625C124.477 100.625 133.741 97.8147 141.621 92.5496C149.501 87.2844 155.643 79.8009 159.269 71.0452C162.896 62.2896 163.845 52.6552 161.996 43.3602C160.147 34.0653 155.583 25.5274 148.882 18.8261C142.181 12.1248 133.643 7.56123 124.348 5.71235C115.053 3.86348 105.419 4.81239 96.6631 8.43909C87.9074 12.0658 80.4239 18.2074 75.1587 26.0872C69.8936 33.9671 67.0833 43.2313 67.0833 52.7083C67.0833 65.4166 72.1317 77.6044 81.1178 86.5905C90.1039 95.5766 102.292 100.625 115 100.625Z" fill="#FBA897"></path>
<path d="M115 4.79168C105.64 4.76617 96.4776 7.49 88.6513 12.6251C80.8251 17.7602 74.6791 25.0806 70.9762 33.6775C67.2733 42.2745 66.1764 51.7696 67.8218 60.9844C69.4672 70.1992 73.7823 78.7279 80.2317 85.5121L147.804 17.94C138.962 9.50922 127.217 4.80152 115 4.79168Z" fill="#FDDAD3"></path>
<path d="M115 100.625C124.477 100.625 133.741 97.8147 141.621 92.5496C149.501 87.2844 155.643 79.8009 159.269 71.0452C162.896 62.2896 163.845 52.6552 161.996 43.3602C160.147 34.0653 155.583 25.5274 148.882 18.8261C142.181 12.1248 133.643 7.56123 124.348 5.71235C115.053 3.86348 105.419 4.81239 96.6631 8.43909C87.9074 12.0658 80.4239 18.2074 75.1587 26.0872C69.8936 33.9671 67.0833 43.2313 67.0833 52.7083C67.0833 65.4166 72.1317 77.6044 81.1178 86.5905C90.1039 95.5766 102.292 100.625 115 100.625Z" stroke="#A02006" stroke-width="5" stroke-linecap="round" stroke-linejoin="round"></path>
<path d="M115 71.875V81.4583" stroke="#A02006" stroke-width="5" stroke-linecap="round" stroke-linejoin="round"></path>
<path d="M115 23.9584V33.5417" stroke="#A02006" stroke-width="5" stroke-linecap="round" stroke-linejoin="round"></path>
<path d="M95.8333 71.875H124.583C127.125 71.875 129.563 70.8653 131.36 69.0681C133.157 67.2708 134.167 64.8333 134.167 62.2916C134.167 59.75 133.157 57.3124 131.36 55.5152C129.563 53.718 127.125 52.7083 124.583 52.7083H105.417C102.875 52.7083 100.437 51.6986 98.6402 49.9014C96.843 48.1042 95.8333 45.6666 95.8333 43.125C95.8333 40.5833 96.843 38.1457 98.6402 36.3485C100.437 34.5513 102.875 33.5416 105.417 33.5416H134.167" stroke="#A02006" stroke-width="5" stroke-linecap="round" stroke-linejoin="round"></path>
</svg>