<svg width="230" height="230" viewBox="0 0 230 230" fill="none" xmlns="http://www.w3.org/2000/svg">
<path d="M225.208 23.9583V91.0416H176.142C175.105 91.0416 174.096 90.7054 173.267 90.0833C172.437 89.4612 171.832 88.5869 171.542 87.5916L158.7 42.6458C158.401 41.6183 157.767 40.7203 156.899 40.0951C156.03 39.4698 154.978 39.1532 153.908 39.1958C152.841 39.2027 151.81 39.5788 150.989 40.2601C150.168 40.9414 149.608 41.886 149.404 42.9333L133.113 121.037C132.885 122.055 132.331 122.971 131.535 123.646C130.74 124.32 129.746 124.717 128.704 124.775C127.634 124.832 126.575 124.534 125.691 123.928C124.807 123.321 124.149 122.44 123.817 121.421L104.458 59.9916C104.161 59.064 103.59 58.2476 102.822 57.6488C102.053 57.0499 101.122 56.6965 100.15 56.6344C99.1779 56.5724 98.2095 56.8046 97.3711 57.3009C96.5327 57.7971 95.8633 58.5344 95.45 59.4166L85.0042 83.0875C84.6447 83.8695 84.0813 84.5403 83.373 85.0293C82.6647 85.5183 81.8378 85.8076 80.9792 85.8666C80.1359 85.9463 79.2871 85.7916 78.5261 85.4196C77.7652 85.0476 77.1217 84.4727 76.6667 83.7583L66.3167 68.2333C65.866 67.5829 65.2644 67.0515 64.5634 66.6844C63.8624 66.3174 63.083 66.1256 62.2917 66.1256C61.5004 66.1256 60.7209 66.3174 60.02 66.6844C59.319 67.0515 58.7174 67.5829 58.2667 68.2333L44.5625 88.9333C44.1185 89.5903 43.5183 90.1269 42.8158 90.4949C42.1133 90.8629 41.3305 91.0507 40.5375 91.0416H4.79169V23.9583C4.80685 18.8796 6.83107 14.0133 10.4222 10.4222C14.0134 6.831 18.8797 4.80679 23.9584 4.79163H206.042C211.12 4.80679 215.987 6.831 219.578 10.4222C223.169 14.0133 225.193 18.8796 225.208 23.9583Z" fill="#FDDAD3" stroke="#A02006" stroke-width="5" stroke-linecap="round" stroke-linejoin="round"></path>
<path d="M225.417 90.8496V167.516C207.017 167.516 207.017 186.683 188.617 186.683C170.217 186.683 170.217 167.516 151.817 167.516C133.417 167.516 133.512 186.683 115.112 186.683C96.7125 186.683 96.8083 167.516 78.4083 167.516C60.0083 167.516 60.1042 186.683 41.7042 186.683C23.3042 186.683 23.4 167.516 5 167.516V90.8496H40.7458C41.5388 90.8587 42.3216 90.6708 43.0241 90.3029C43.7266 89.9349 44.3268 89.3983 44.7708 88.7413L58.475 68.0413C58.9257 67.3909 59.5273 66.8595 60.2283 66.4924C60.9292 66.1254 61.7087 65.9336 62.5 65.9336C63.2913 65.9336 64.0707 66.1254 64.7717 66.4924C65.4727 66.8595 66.0743 67.3909 66.525 68.0413L76.875 83.5663C77.33 84.2807 77.9735 84.8556 78.7344 85.2276C79.4954 85.5996 80.3442 85.7543 81.1875 85.6746C82.0462 85.6156 82.8731 85.3263 83.5813 84.8373C84.2896 84.3483 84.853 83.6775 85.2125 82.8955L95.6583 59.2246C96.0716 58.3424 96.7411 57.6051 97.5794 57.1088C98.4178 56.6126 99.3862 56.3804 100.358 56.4424C101.331 56.5045 102.262 56.8579 103.03 57.4568C103.799 58.0556 104.369 58.872 104.667 59.7996L124.025 121.229C124.357 122.248 125.016 123.129 125.899 123.735C126.783 124.342 127.842 124.64 128.912 124.583C129.954 124.525 130.948 124.128 131.744 123.454C132.539 122.779 133.093 121.863 133.321 120.845L149.613 42.7413C149.816 41.694 150.376 40.7494 151.197 40.0681C152.018 39.3868 153.05 39.0107 154.117 39.0038C155.186 38.9612 156.239 39.2778 157.107 39.9031C157.975 40.5283 158.61 41.4263 158.908 42.4538L171.75 87.3996C172.04 88.3949 172.646 89.2692 173.475 89.8913C174.304 90.5134 175.313 90.8496 176.35 90.8496H225.417Z" fill="#FBA897" stroke="#A02006" stroke-width="5" stroke-linecap="round" stroke-linejoin="round"></path>
<path d="M225.208 167.708V206.042C225.193 211.12 223.169 215.987 219.578 219.578C215.987 223.169 211.12 225.193 206.042 225.208H23.9584C18.8797 225.193 14.0134 223.169 10.4222 219.578C6.83107 215.987 4.80685 211.12 4.79169 206.042V167.708C23.1917 167.708 23.1917 186.875 41.4959 186.875C59.8 186.875 59.8959 167.708 78.2 167.708C96.5042 167.708 96.6 186.875 114.904 186.875C133.208 186.875 133.304 167.708 151.608 167.708C169.913 167.708 170.008 186.875 188.408 186.875C206.808 186.875 206.808 167.708 225.208 167.708Z" fill="#F86447" stroke="#A02006" stroke-width="5" stroke-linecap="round" stroke-linejoin="round"></path>
</svg>