<svg width="230" height="230" viewBox="0 0 230 230" fill="none" xmlns="http://www.w3.org/2000/svg">
<path d="M34.2796 4.79163C32.6543 4.79162 31.0556 5.20503 29.6339 5.99296C28.2123 6.78089 27.0144 7.91747 26.153 9.29579L8.18423 38.0458C7.23229 39.5689 6.72754 41.3288 6.72754 43.125C6.72754 44.9211 7.23229 46.681 8.18423 48.2041L28.9705 81.4583H72.0955L96.0538 43.125L74.913 9.29579C74.0515 7.91747 72.8537 6.78089 71.432 5.99296C70.0104 5.20503 68.4117 4.79162 66.7863 4.79163H34.2796Z" fill="#FBA897"></path>
<path d="M22.8467 71.6641L78.8709 15.64L74.913 9.29579C74.0515 7.91747 72.8536 6.78089 71.432 5.99296C70.0104 5.20503 68.4117 4.79162 66.7863 4.79163H34.2796C32.6543 4.79162 31.0556 5.20503 29.6339 5.99296C28.2123 6.78089 27.0144 7.91747 26.153 9.29579L8.18423 38.0458C7.23229 39.5689 6.72754 41.3289 6.72754 43.125C6.72754 44.9211 7.23229 46.681 8.18423 48.2041L22.8467 71.6641Z" fill="#FDDAD3"></path>
<path d="M134.387 43.125H96.0538L72.0955 81.4583L96.0538 119.792H134.387L158.345 81.4583L134.387 43.125Z" fill="#FBA897"></path>
<path d="M141.757 54.9221L134.387 43.125H96.0538L72.0955 81.4583L88.6842 107.995L141.757 54.9221Z" fill="#FDDAD3"></path>
<path d="M72.0955 81.4584H28.9705L8.18423 114.713C7.23229 116.236 6.72754 117.996 6.72754 119.792C6.72754 121.588 7.23229 123.348 8.18423 124.871L28.9705 158.125H72.0955L96.0538 119.792L72.0955 81.4584Z" fill="#FBA897"></path>
<path d="M23.3067 149.069L79.3405 93.0446L72.0955 81.4584H28.9705L8.18423 114.713C7.23229 116.236 6.72754 117.996 6.72754 119.792C6.72754 121.588 7.23229 123.348 8.18423 124.871L23.3067 149.069Z" fill="#FDDAD3"></path>
<path d="M134.387 119.792H96.0538L72.0955 158.125L96.0538 196.458H134.387L158.345 158.125L134.387 119.792Z" fill="#FBA897"></path>
<path d="M141.757 131.589L134.387 119.792H96.0538L72.0955 158.125L88.6842 184.661L141.757 131.589Z" fill="#FDDAD3"></path>
<path d="M78.0851 225.208L96.0538 196.458L72.0955 158.125H28.9705L8.18423 191.379C7.23229 192.902 6.72754 194.662 6.72754 196.458C6.72754 198.254 7.23229 200.014 8.18423 201.538L23.0001 225.208H78.0851Z" fill="#FBA897"></path>
<path d="M22.8467 224.998L78.8709 168.973L72.0955 158.125H28.9705L8.18423 191.379C7.23229 192.902 6.72754 194.662 6.72754 196.458C6.72754 198.254 7.23229 200.014 8.18423 201.538L22.8467 224.998Z" fill="#FDDAD3"></path>
<path d="M163.655 4.79163C162.029 4.79162 160.431 5.20503 159.009 5.99296C157.587 6.78089 156.389 7.91747 155.528 9.29579L134.387 43.125L158.346 81.4583H201.471L222.257 48.2041C223.209 46.681 223.713 44.9211 223.713 43.125C223.713 41.3288 223.209 39.5689 222.257 38.0458L204.288 9.29579C203.427 7.91747 202.229 6.78089 200.807 5.99296C199.385 5.20503 197.787 4.79162 196.161 4.79163H163.655Z" fill="#FBA897"></path>
<path d="M207.594 14.5858L204.288 9.29579C203.427 7.91747 202.229 6.78089 200.807 5.99296C199.385 5.20503 197.787 4.79162 196.161 4.79163H163.655C162.029 4.79162 160.431 5.20503 159.009 5.99296C157.587 6.78089 156.389 7.91747 155.528 9.29579L134.387 43.125L151.561 70.61L207.594 14.5858Z" fill="#FDDAD3"></path>
<path d="M201.471 81.4584H158.346L134.387 119.792L158.346 158.125H201.471L222.257 124.871C223.209 123.348 223.713 121.588 223.713 119.792C223.713 117.996 223.209 116.236 222.257 114.713L201.471 81.4584Z" fill="#FBA897"></path>
<path d="M207.594 91.2525L201.471 81.4584H158.346L134.387 119.792L151.561 147.277L207.594 91.2525Z" fill="#FDDAD3"></path>
<path d="M207.46 225.208L222.257 201.538C223.209 200.014 223.713 198.254 223.713 196.458C223.713 194.662 223.209 192.902 222.257 191.379L201.471 158.125H158.346L134.387 196.458L152.327 225.208H207.46Z" fill="#FBA897"></path>
<path d="M207.594 167.919L201.471 158.125H158.346L134.387 196.458L151.561 223.943L207.594 167.919Z" fill="#FDDAD3"></path>
<path d="M34.2796 4.79163C32.6543 4.79162 31.0556 5.20503 29.6339 5.99296C28.2123 6.78089 27.0144 7.91747 26.153 9.29579L8.18423 38.0458C7.23229 39.5689 6.72754 41.3288 6.72754 43.125C6.72754 44.9211 7.23229 46.681 8.18423 48.2041L28.9705 81.4583H72.0955L96.0538 43.125L74.913 9.29579C74.0515 7.91747 72.8537 6.78089 71.432 5.99296C70.0104 5.20503 68.4117 4.79162 66.7863 4.79163H34.2796Z" stroke="#A02006" stroke-width="5" stroke-linecap="round" stroke-linejoin="round"></path>
<path d="M134.387 43.125H96.0538L72.0955 81.4583L96.0538 119.792H134.387L158.345 81.4583L134.387 43.125Z" stroke="#A02006" stroke-width="5" stroke-linecap="round" stroke-linejoin="round"></path>
<path d="M72.0955 81.4584H28.9705L8.18423 114.713C7.23229 116.236 6.72754 117.996 6.72754 119.792C6.72754 121.588 7.23229 123.348 8.18423 124.871L28.9705 158.125H72.0955L96.0538 119.792L72.0955 81.4584Z" stroke="#A02006" stroke-width="5" stroke-linecap="round" stroke-linejoin="round"></path>
<path d="M134.387 119.792H96.0538L72.0955 158.125L96.0538 196.458H134.387L158.345 158.125L134.387 119.792Z" stroke="#A02006" stroke-width="5" stroke-linecap="round" stroke-linejoin="round"></path>
<path d="M78.0851 225.208L96.0538 196.458L72.0955 158.125H28.9705L8.18423 191.379C7.23229 192.902 6.72754 194.662 6.72754 196.458C6.72754 198.254 7.23229 200.014 8.18423 201.538L23.0001 225.208" stroke="#A02006" stroke-width="5" stroke-linecap="round" stroke-linejoin="round"></path>
<path d="M163.655 4.79163C162.029 4.79162 160.431 5.20503 159.009 5.99296C157.587 6.78089 156.39 7.91747 155.528 9.29579L134.387 43.125L158.346 81.4583H201.471L222.257 48.2041C223.209 46.681 223.713 44.9211 223.713 43.125C223.713 41.3288 223.209 39.5689 222.257 38.0458L204.288 9.29579C203.427 7.91747 202.229 6.78089 200.807 5.99296C199.385 5.20503 197.787 4.79162 196.161 4.79163H163.655Z" stroke="#A02006" stroke-width="5" stroke-linecap="round" stroke-linejoin="round"></path>
<path d="M201.471 81.4584H158.346L134.387 119.792L158.346 158.125H201.471L222.257 124.871C223.209 123.348 223.713 121.588 223.713 119.792C223.713 117.996 223.209 116.236 222.257 114.713L201.471 81.4584Z" stroke="#A02006" stroke-width="5" stroke-linecap="round" stroke-linejoin="round"></path>
<path d="M207.46 225.208L222.257 201.538C223.209 200.014 223.713 198.254 223.713 196.458C223.713 194.662 223.209 192.902 222.257 191.379L201.471 158.125H158.346L134.387 196.458L152.327 225.208" stroke="#A02006" stroke-width="5" stroke-linecap="round" stroke-linejoin="round"></path>
</svg>