<svg width="230" height="231" viewBox="0 0 230 231" fill="none" xmlns="http://www.w3.org/2000/svg">
<path d="M14.375 4.8125H215.625C215.625 4.8125 225.208 4.8125 225.208 14.4375V216.562C225.208 216.562 225.208 226.188 215.625 226.188H14.375C14.375 226.188 4.79167 226.188 4.79167 216.562V14.4375C4.79167 14.4375 4.79167 4.8125 14.375 4.8125Z" fill="#FBA897"></path>
<path d="M190.9 4.8125H14.375C11.8333 4.8125 9.39578 5.82656 7.59856 7.6316C5.80134 9.43664 4.79167 11.8848 4.79167 14.4375V191.73L190.9 4.8125Z" fill="#FDDAD3"></path>
<path d="M14.375 4.8125H215.625C215.625 4.8125 225.208 4.8125 225.208 14.4375V216.562C225.208 216.562 225.208 226.188 215.625 226.188H14.375C14.375 226.188 4.79167 226.188 4.79167 216.562V14.4375C4.79167 14.4375 4.79167 4.8125 14.375 4.8125Z" stroke="#A02006" stroke-width="5" stroke-linecap="round" stroke-linejoin="round"></path>
<path d="M115 28.875V192.5" stroke="#A02006" stroke-width="5" stroke-linecap="round" stroke-linejoin="round"></path>
<path d="M186.559 88.55C186.559 74.1702 154.522 62.5625 115 62.5625C75.4783 62.5625 43.4412 74.1702 43.4412 88.55" stroke="#A02006" stroke-width="5" stroke-linecap="round" stroke-linejoin="round"></path>
<path d="M187.412 163.625C187.412 147.676 154.991 134.75 115 134.75C75.0088 134.75 42.5883 147.676 42.5883 163.625" stroke="#A02006" stroke-width="5" stroke-linecap="round" stroke-linejoin="round"></path>
<path d="M191.667 125.125C191.667 109.176 157.339 96.25 115 96.25C72.6608 96.25 38.3333 109.176 38.3333 125.125" stroke="#A02006" stroke-width="5" stroke-linecap="round" stroke-linejoin="round"></path>
</svg>