<svg width="230" height="230" viewBox="0 0 230 230" fill="none" xmlns="http://www.w3.org/2000/svg">
<path d="M52.7083 100.625H177.292C177.292 100.625 186.875 100.625 186.875 110.208V186.875C186.875 186.875 186.875 196.458 177.292 196.458H52.7083C52.7083 196.458 43.125 196.458 43.125 186.875V110.208C43.125 110.208 43.125 100.625 52.7083 100.625Z" fill="#FBA897"></path>
<path d="M52.7083 100.625C50.1667 100.625 47.7291 101.635 45.9319 103.432C44.1347 105.229 43.125 107.667 43.125 110.208V186.875C43.1401 188.582 43.6167 190.252 44.5041 191.71C45.3915 193.168 46.6568 194.358 48.1658 195.155L142.696 100.625H52.7083Z" fill="#FDDAD3"></path>
<path d="M52.7083 100.625H177.292C177.292 100.625 186.875 100.625 186.875 110.208V186.875C186.875 186.875 186.875 196.458 177.292 196.458H52.7083C52.7083 196.458 43.125 196.458 43.125 186.875V110.208C43.125 110.208 43.125 100.625 52.7083 100.625Z" stroke="#A02006" stroke-width="5" stroke-linecap="round" stroke-linejoin="round"></path>
<path d="M115 119.792V177.292" stroke="#A02006" stroke-width="5" stroke-linecap="round" stroke-linejoin="round"></path>
<path d="M162.917 129.375L147.42 124.641C126.29 118.175 103.71 118.175 82.5795 124.641L67.0833 129.375" stroke="#A02006" stroke-width="5" stroke-linecap="round" stroke-linejoin="round"></path>
<path d="M74.6733 158.595L87.2083 153.736C105.088 146.805 124.912 146.805 142.792 153.736L155.336 158.595" stroke="#A02006" stroke-width="5" stroke-linecap="round" stroke-linejoin="round"></path>
<path d="M95.8333 177.292H134.167" stroke="#A02006" stroke-width="5" stroke-linecap="round" stroke-linejoin="round"></path>
<path d="M95.0378 215.625L95.8333 225.208H134.167L134.962 215.625" stroke="#A02006" stroke-width="5" stroke-linecap="round" stroke-linejoin="round"></path>
<path d="M135.911 81.4583C129.391 78.3046 122.242 76.6665 115 76.6665C107.758 76.6665 100.609 78.3046 94.0891 81.4583" stroke="#A02006" stroke-width="5" stroke-linecap="round" stroke-linejoin="round"></path>
<path d="M86.25 33.5417C86.25 41.1667 89.279 48.4793 94.6707 53.871C100.062 59.2627 107.375 62.2917 115 62.2917C122.625 62.2917 129.938 59.2627 135.329 53.871C140.721 48.4793 143.75 41.1667 143.75 33.5417C143.75 25.9167 140.721 18.604 135.329 13.2124C129.938 7.8207 122.625 4.79169 115 4.79169C107.375 4.79169 100.062 7.8207 94.6707 13.2124C89.279 18.604 86.25 25.9167 86.25 33.5417Z" fill="#FBA897" stroke="#A02006" stroke-width="5" stroke-linecap="round" stroke-linejoin="round"></path>
</svg>