<svg width="231" height="231" viewBox="0 0 231 231" fill="none" xmlns="http://www.w3.org/2000/svg">
<path d="M188.323 77.7219C185.951 77.7237 183.633 77.0201 181.662 75.7006L167.225 66.0756L135.944 48.2309L113.806 43.7938C112.231 43.5115 110.728 42.9179 109.385 42.0476C108.042 41.1773 106.886 40.0479 105.985 38.7254C105.084 37.403 104.456 35.9141 104.138 34.3459C103.819 32.7777 103.817 31.1617 104.13 29.5926C104.444 28.0234 105.068 26.5326 105.965 25.2074C106.862 23.8822 108.014 22.7492 109.354 21.8749C110.694 21.0005 112.195 20.4022 113.77 20.1151C115.344 19.828 116.96 19.8579 118.522 20.2029L142.585 25.0154C143.854 25.2681 145.073 25.7266 146.194 26.3725L179.882 45.6225L195.003 55.6806C197.151 57.1134 198.782 59.1995 199.653 61.6305C200.525 64.0616 200.591 66.7085 199.842 69.1801C199.093 71.6516 197.569 73.8166 195.494 75.3548C193.42 76.8931 190.905 77.723 188.323 77.7219Z" fill="#FBA897"></path>
<path d="M226.188 162.422V85.4219L141.016 72.4378C139.645 72.2283 138.244 72.3177 136.911 72.6999C135.577 73.0821 134.342 73.7481 133.29 74.6522C132.238 75.5562 131.393 76.6771 130.815 77.9379C130.236 79.1987 129.937 80.5697 129.938 81.9569V165.887C129.937 167.274 130.236 168.645 130.815 169.906C131.393 171.167 132.238 172.288 133.29 173.192C134.342 174.096 135.577 174.762 136.911 175.144C138.244 175.526 139.645 175.615 141.016 175.406L226.188 162.422Z" fill="#FDDAD3"></path>
<path d="M117.358 168.437C116.399 165.397 114.275 162.859 111.45 161.38C108.626 159.901 105.33 159.601 102.285 160.545L70.8111 170.411L2.02125 186.812C1.31993 187.071 0.643442 187.393 0 187.774L0 209.44C1.50644 210.153 3.14631 210.54 4.8125 210.576C5.75563 210.575 6.69552 210.465 7.61337 210.248L77.2021 193.645L109.475 183.558C110.987 183.086 112.391 182.32 113.607 181.303C114.822 180.287 115.825 179.041 116.558 177.636C117.29 176.231 117.738 174.695 117.875 173.116C118.012 171.538 117.836 169.948 117.358 168.437Z" fill="#FBA897"></path>
<path d="M96.25 130.717L66.0371 133.788L25.6121 135.501H1.53038C1.01473 135.561 0.503529 135.654 0 135.78L0 159.226C0.502876 159.362 1.01409 159.465 1.53038 159.534H26.0934L67.7408 157.763L98.6851 154.674C101.862 154.351 104.78 152.779 106.798 150.304C108.816 147.83 109.769 144.655 109.446 141.478C109.123 138.301 107.551 135.383 105.077 133.365C102.602 131.347 99.4268 130.394 96.25 130.717Z" fill="#FBA897"></path>
<path d="M102.266 92.6984L70.6186 89.5606L29.1734 87.8281H5.11088C3.33657 87.8515 1.5901 88.2725 0 89.0601L0 110.688C1.5901 111.475 3.33657 111.896 5.11088 111.92H28.6729L68.9246 113.594L99.8594 116.684C100.27 116.722 100.674 116.742 101.072 116.742C104.162 116.746 107.136 115.561 109.376 113.432C111.616 111.303 112.951 108.394 113.105 105.308C113.258 102.221 112.218 99.1942 110.2 96.8538C108.182 94.5134 105.341 93.0393 102.266 92.7369V92.6984Z" fill="#FBA897"></path>
<path d="M109.465 64.0736L76.3936 53.7748L7.60375 37.3931C5.04375 36.8209 2.36569 37.126 0 38.2593L0 59.8578C0.641475 60.2425 1.31832 60.5648 2.02125 60.8203L70.0123 77L102.285 87.087C103.45 87.4306 104.66 87.5993 105.875 87.5875C108.748 87.5795 111.523 86.5446 113.7 84.6696C115.877 82.7947 117.311 80.2032 117.745 77.3633C118.178 74.5233 117.582 71.6219 116.063 69.1831C114.545 66.7442 112.205 64.9382 109.465 64.0736Z" fill="#FBA897"></path>
<path d="M226.188 85.4219V162.422" stroke="#A02006" stroke-width="5" stroke-linecap="round" stroke-linejoin="round"></path>
<path d="M206.938 85.4219V162.422" stroke="#A02006" stroke-width="5" stroke-linecap="round" stroke-linejoin="round"></path>
<path d="M187.688 66.1719L173.25 56.5469" stroke="#A02006" stroke-width="5" stroke-linecap="round" stroke-linejoin="round"></path>
<path d="M139.562 37.2969L115.5 32.4844" stroke="#A02006" stroke-width="5" stroke-linecap="round" stroke-linejoin="round"></path>
<path d="M149.188 80.6094L182.875 85.4219" stroke="#A02006" stroke-width="5" stroke-linecap="round" stroke-linejoin="round"></path>
<path d="M149.188 109.484H182.875" stroke="#A02006" stroke-width="5" stroke-linecap="round" stroke-linejoin="round"></path>
<path d="M149.188 167.234L182.875 162.422" stroke="#A02006" stroke-width="5" stroke-linecap="round" stroke-linejoin="round"></path>
<path d="M149.188 138.359H182.875" stroke="#A02006" stroke-width="5" stroke-linecap="round" stroke-linejoin="round"></path>
<path d="M129.938 80.6094V109.484" stroke="#A02006" stroke-width="5" stroke-linecap="round" stroke-linejoin="round"></path>
<path d="M129.938 167.234V138.359" stroke="#A02006" stroke-width="5" stroke-linecap="round" stroke-linejoin="round"></path>
<path d="M154 44.5156C154 45.1538 154.254 45.7658 154.705 46.2171C155.156 46.6684 155.768 46.9219 156.406 46.9219C157.044 46.9219 157.656 46.6684 158.108 46.2171C158.559 45.7658 158.813 45.1538 158.813 44.5156C158.813 43.8774 158.559 43.2654 158.108 42.8141C157.656 42.3629 157.044 42.1094 156.406 42.1094C155.768 42.1094 155.156 42.3629 154.705 42.8141C154.254 43.2654 154 43.8774 154 44.5156Z" stroke="#A02006" stroke-width="5" stroke-linecap="round" stroke-linejoin="round"></path>
<path d="M52.9375 61.3594C52.9375 61.9976 53.191 62.6096 53.6423 63.0609C54.0935 63.5121 54.7056 63.7656 55.3438 63.7656C55.9819 63.7656 56.594 63.5121 57.0452 63.0609C57.4965 62.6096 57.75 61.9976 57.75 61.3594C57.75 60.7212 57.4965 60.1092 57.0452 59.6579C56.594 59.2066 55.9819 58.9531 55.3438 58.9531C54.7056 58.9531 54.0935 59.2066 53.6423 59.6579C53.191 60.1092 52.9375 60.7212 52.9375 61.3594Z" stroke="#A02006" stroke-width="5" stroke-linecap="round" stroke-linejoin="round"></path>
<path d="M47.0951 99.8594C47.0951 100.498 47.3486 101.11 47.7999 101.561C48.2512 102.012 48.8632 102.266 49.5014 102.266C50.1396 102.266 50.7516 102.012 51.2028 101.561C51.6541 101.11 51.9076 100.498 51.9076 99.8594C51.9076 99.2212 51.6541 98.6092 51.2028 98.1579C50.7516 97.7066 50.1396 97.4531 49.5014 97.4531C48.8632 97.4531 48.2512 97.7066 47.7999 98.1579C47.3486 98.6092 47.0951 99.2212 47.0951 99.8594Z" stroke="#A02006" stroke-width="5" stroke-linecap="round" stroke-linejoin="round"></path>
<path d="M37.3161 57.0666L4.8125 49.3281" stroke="#A02006" stroke-width="5" stroke-linecap="round" stroke-linejoin="round"></path>
<path d="M105.875 75.7968L73.6024 65.7098" stroke="#A02006" stroke-width="5" stroke-linecap="round" stroke-linejoin="round"></path>
<path d="M29.1734 99.8594H5.11087" stroke="#A02006" stroke-width="5" stroke-linecap="round" stroke-linejoin="round"></path>
<path d="M101.062 104.672L70.1181 101.582" stroke="#A02006" stroke-width="5" stroke-linecap="round" stroke-linejoin="round"></path>
<path d="M52.9375 186.484C52.9375 187.123 53.191 187.735 53.6423 188.186C54.0935 188.637 54.7056 188.891 55.3438 188.891C55.9819 188.891 56.594 188.637 57.0452 188.186C57.4965 187.735 57.75 187.123 57.75 186.484C57.75 185.846 57.4965 185.234 57.0452 184.783C56.594 184.332 55.9819 184.078 55.3438 184.078C54.7056 184.078 54.0935 184.332 53.6423 184.783C53.191 185.234 52.9375 185.846 52.9375 186.484Z" stroke="#A02006" stroke-width="5" stroke-linecap="round" stroke-linejoin="round"></path>
<path d="M47.0951 147.984C47.0951 148.623 47.3486 149.235 47.7999 149.686C48.2512 150.137 48.8632 150.391 49.5014 150.391C50.1396 150.391 50.7516 150.137 51.2028 149.686C51.6541 149.235 51.9076 148.623 51.9076 147.984C51.9076 147.346 51.6541 146.734 51.2028 146.283C50.7516 145.832 50.1396 145.578 49.5014 145.578C48.8632 145.578 48.2512 145.832 47.7999 146.283C47.3486 146.734 47.0951 147.346 47.0951 147.984Z" stroke="#A02006" stroke-width="5" stroke-linecap="round" stroke-linejoin="round"></path>
<path d="M37.3161 190.777L4.8125 198.516" stroke="#A02006" stroke-width="5" stroke-linecap="round" stroke-linejoin="round"></path>
<path d="M105.875 172.047L73.6024 182.134" stroke="#A02006" stroke-width="5" stroke-linecap="round" stroke-linejoin="round"></path>
<path d="M29.1734 147.984H5.11087" stroke="#A02006" stroke-width="5" stroke-linecap="round" stroke-linejoin="round"></path>
<path d="M101.062 143.172L70.1181 146.262" stroke="#A02006" stroke-width="5" stroke-linecap="round" stroke-linejoin="round"></path>
</svg>