<svg width="200" height="200" viewBox="0 0 200 200" fill="none" xmlns="http://www.w3.org/2000/svg">
<path d="M165.325 73.0334C165.325 68.3879 163.93 63.8495 161.321 60.0059C158.712 56.1623 155.009 53.1904 150.692 51.475C152.528 47.2102 153.042 42.4925 152.168 37.9323C151.294 33.372 149.071 29.1791 145.788 25.8957C142.504 22.6124 138.311 20.3899 133.751 19.5156C129.191 18.6413 124.473 19.1555 120.208 20.9917C118.492 16.6755 115.52 12.9739 111.676 10.3659C107.833 7.75788 103.295 6.36365 98.65 6.36365C94.0052 6.36365 89.4673 7.75788 85.6237 10.3659C81.7801 12.9739 78.8079 16.6755 77.0917 20.9917C72.8269 19.1555 68.1092 18.6413 63.549 19.5156C58.9887 20.3899 54.7957 22.6124 51.5124 25.8957C48.2291 29.1791 46.0065 33.372 45.1323 37.9323C44.258 42.4925 44.7722 47.2102 46.6084 51.475C42.2915 53.1894 38.5889 56.1605 35.9801 60.0035C33.3713 63.8465 31.9766 68.3844 31.9766 73.0292C31.9766 77.674 33.3713 82.2119 35.9801 86.0549C38.5889 89.8979 42.2915 92.869 46.6084 94.5834C44.7722 98.8482 44.258 103.566 45.1323 108.126C46.0065 112.686 48.2291 116.879 51.5124 120.163C54.7957 123.446 58.9887 125.669 63.549 126.543C68.1092 127.417 72.8269 126.903 77.0917 125.067C78.8079 129.383 81.7801 133.085 85.6237 135.693C89.4673 138.301 94.0052 139.695 98.65 139.695C103.295 139.695 107.833 138.301 111.676 135.693C115.52 133.085 118.492 129.383 120.208 125.067C124.473 126.903 129.191 127.417 133.751 126.543C138.311 125.669 142.504 123.446 145.788 120.163C149.071 116.879 151.294 112.686 152.168 108.126C153.042 103.566 152.528 98.8482 150.692 94.5834C155.009 92.8705 158.712 89.9003 161.321 86.0579C163.93 82.2155 165.325 77.6779 165.325 73.0334Z" fill="#FBA897"></path>
<path d="M145.833 25.8917C142.55 22.6073 138.356 20.3843 133.795 19.5107C129.233 18.637 124.515 19.153 120.25 20.9917C118.534 16.6755 115.562 12.9739 111.718 10.3659C107.874 7.75788 103.337 6.36365 98.6917 6.36365C94.0469 6.36365 89.5089 7.75788 85.6654 10.3659C81.8218 12.9739 78.8495 16.6755 77.1334 20.9917C72.8667 19.1426 68.1429 18.6182 63.5746 19.4868C59.0063 20.3553 54.8044 22.5766 51.5141 25.8624C48.2237 29.1483 45.9967 33.3471 45.1219 37.9142C44.2472 42.4813 44.7651 47.2059 46.6084 51.475C42.2915 53.1894 38.5889 56.1605 35.9801 60.0035C33.3713 63.8465 31.9766 68.3844 31.9766 73.0292C31.9766 77.674 33.3713 82.2119 35.9801 86.0549C38.5889 89.8979 42.2915 92.869 46.6084 94.5834C44.7696 98.8481 44.2537 103.567 45.1273 108.128C46.001 112.689 48.2239 116.883 51.5084 120.167L145.833 25.8917Z" fill="#FDDAD3"></path>
<path d="M83.3334 89.7V52.2C83.3334 51.4262 83.1179 50.6677 82.7111 50.0094C82.3043 49.3512 81.7222 48.8193 81.0301 48.4732C80.338 48.1272 79.5632 47.9807 78.7926 48.0502C78.0219 48.1197 77.2858 48.4024 76.6667 48.8667L66.6667 56.3667" stroke="#A02006" stroke-width="5" stroke-linecap="round" stroke-linejoin="round"></path>
<path d="M75 89.7H91.6667" stroke="#A02006" stroke-width="5" stroke-linecap="round" stroke-linejoin="round"></path>
<path d="M129.167 77.2C129.167 80.5152 127.85 83.6946 125.506 86.0388C123.161 88.383 119.982 89.7 116.667 89.7C113.352 89.7 110.172 88.383 107.828 86.0388C105.484 83.6946 104.167 80.5152 104.167 77.2V60.5333C104.167 57.2181 105.484 54.0387 107.828 51.6945C110.172 49.3503 113.352 48.0333 116.667 48.0333C119.982 48.0333 123.161 49.3503 125.506 51.6945C127.85 54.0387 129.167 57.2181 129.167 60.5333V77.2Z" stroke="#A02006" stroke-width="5" stroke-linecap="round" stroke-linejoin="round"></path>
<path d="M166.342 124.167L190.325 165.7C192.608 169.667 190.792 172.292 186.275 171.533L162.4 167.5L154.167 190.192C152.6 194.5 149.4 194.8 147.067 190.85L124.15 152.167" fill="#FBA897"></path>
<path d="M166.342 124.167L190.325 165.7C192.608 169.667 190.792 172.292 186.275 171.533L162.4 167.5L154.167 190.192C152.6 194.5 149.4 194.8 147.067 190.85L124.15 152.167" stroke="#A02006" stroke-width="5" stroke-linecap="round" stroke-linejoin="round"></path>
<path d="M33.6584 124.167L9.67504 165.658C7.39171 169.625 9.20838 172.25 13.725 171.492L37.6 167.458L45.8834 190.2C47.45 194.508 50.65 194.8 52.9834 190.858L75.875 152.217" fill="#FDDAD3"></path>
<path d="M33.6584 124.167L9.67504 165.658C7.39171 169.625 9.20838 172.25 13.725 171.492L37.6 167.458L45.8834 190.2C47.45 194.508 50.65 194.8 52.9834 190.858L75.875 152.217" stroke="#A02006" stroke-width="5" stroke-linecap="round" stroke-linejoin="round"></path>
<path d="M165.325 73.0334C165.325 68.3879 163.93 63.8495 161.321 60.0059C158.712 56.1623 155.009 53.1904 150.692 51.475C152.528 47.2102 153.042 42.4925 152.168 37.9323C151.294 33.372 149.071 29.1791 145.788 25.8957C142.504 22.6124 138.311 20.3899 133.751 19.5156C129.191 18.6413 124.473 19.1555 120.208 20.9917C118.492 16.6755 115.52 12.9739 111.676 10.3659C107.833 7.75788 103.295 6.36365 98.65 6.36365C94.0052 6.36365 89.4673 7.75788 85.6237 10.3659C81.7801 12.9739 78.8079 16.6755 77.0917 20.9917C72.8269 19.1555 68.1092 18.6413 63.549 19.5156C58.9887 20.3899 54.7957 22.6124 51.5124 25.8957C48.2291 29.1791 46.0065 33.372 45.1323 37.9323C44.258 42.4925 44.7722 47.2102 46.6084 51.475C42.2915 53.1894 38.5889 56.1605 35.9801 60.0035C33.3713 63.8465 31.9766 68.3844 31.9766 73.0292C31.9766 77.674 33.3713 82.2119 35.9801 86.0549C38.5889 89.8979 42.2915 92.869 46.6084 94.5834C44.7722 98.8482 44.258 103.566 45.1323 108.126C46.0065 112.686 48.2291 116.879 51.5124 120.163C54.7957 123.446 58.9887 125.669 63.549 126.543C68.1092 127.417 72.8269 126.903 77.0917 125.067C78.8079 129.383 81.7801 133.085 85.6237 135.693C89.4673 138.301 94.0052 139.695 98.65 139.695C103.295 139.695 107.833 138.301 111.676 135.693C115.52 133.085 118.492 129.383 120.208 125.067C124.473 126.903 129.191 127.417 133.751 126.543C138.311 125.669 142.504 123.446 145.788 120.163C149.071 116.879 151.294 112.686 152.168 108.126C153.042 103.566 152.528 98.8482 150.692 94.5834C155.009 92.8705 158.712 89.9003 161.321 86.0579C163.93 82.2155 165.325 77.6779 165.325 73.0334Z" stroke="#A02006" stroke-width="5" stroke-linecap="round" stroke-linejoin="round"></path>
</svg>