<svg width="230" height="230" viewBox="0 0 230 230" fill="none" xmlns="http://www.w3.org/2000/svg">
<path d="M117.731 119.792C129.104 119.792 140.221 116.419 149.677 110.101C159.132 103.783 166.502 94.8027 170.854 84.296C175.206 73.7892 176.345 62.2279 174.126 51.074C171.908 39.9201 166.431 29.6745 158.39 21.633C150.348 13.5915 140.103 8.11515 128.949 5.8965C117.795 3.67785 106.234 4.81654 95.7269 9.16858C85.2202 13.5206 76.2399 20.8905 69.9217 30.3464C63.6036 39.8022 60.2312 50.9192 60.2312 62.2917C60.2312 77.5416 66.2893 92.1669 77.0726 102.95C87.8559 113.734 102.481 119.792 117.731 119.792Z" fill="#FBA897"></path>
<path d="M117.731 4.79167C106.287 4.79425 95.1046 8.21154 85.6141 14.6062C76.1236 21.0008 68.757 30.0819 64.4572 40.6873C60.1575 51.2927 59.12 62.9398 61.4778 74.1382C63.8355 85.3365 69.4811 95.5766 77.6921 103.548L158.988 22.2429C153.635 16.7133 147.223 12.3183 140.135 9.3201C133.047 6.32186 125.427 4.78177 117.731 4.79167Z" fill="#FDDAD3"></path>
<path d="M161.412 133.371C150.708 140.52 145.188 153.554 161.412 164.507C170.315 186.75 186.856 180.799 196.65 170.449C202.144 162.546 205.701 153.46 207.033 143.927C208.365 134.394 207.434 124.682 204.317 115.575C188.696 127.382 174.752 124.478 161.412 133.371Z" fill="#F86447" stroke="#A02006" stroke-width="5" stroke-linecap="round" stroke-linejoin="round"></path>
<path d="M44.505 172.117C52.4687 180.799 65.0325 183.952 72.6512 167.737C91.5112 156.573 83.7775 142.447 73.0729 135.048C65.1553 131.188 56.4398 129.247 47.6323 129.382C38.8248 129.516 30.1728 131.724 22.3771 135.825C35.2475 148.302 34.5862 161.307 44.505 172.117Z" fill="#FBA897" stroke="#A02006" stroke-width="5" stroke-linecap="round" stroke-linejoin="round"></path>
<path d="M117.731 119.792C129.104 119.792 140.221 116.419 149.677 110.101C159.132 103.783 166.502 94.8027 170.854 84.2959C175.206 73.7892 176.345 62.2279 174.126 51.074C171.908 39.9201 166.431 29.6745 158.39 21.633C150.348 13.5915 140.103 8.11515 128.949 5.8965C117.795 3.67785 106.234 4.81654 95.7269 9.16858C85.2202 13.5206 76.2399 20.8905 69.9217 30.3464C63.6036 39.8022 60.2312 50.9192 60.2312 62.2917C60.2312 77.5416 66.2893 92.1669 77.0726 102.95C87.8559 113.734 102.481 119.792 117.731 119.792Z" stroke="#A02006" stroke-width="5" stroke-linecap="round" stroke-linejoin="round"></path>
<path d="M117.731 119.792V225.208" stroke="#A02006" stroke-width="5" stroke-linecap="round" stroke-linejoin="round"></path>
<path d="M117.731 225.208C117.731 225.208 141.69 172.5 180.023 148.542" stroke="#A02006" stroke-width="5" stroke-linecap="round" stroke-linejoin="round"></path>
<path d="M117.731 215.625C117.731 215.625 108.148 182.083 60.2312 153.333" stroke="#A02006" stroke-width="5" stroke-linecap="round" stroke-linejoin="round"></path>
<path d="M132.106 33.5416H112.623C109.637 33.5437 106.745 34.5847 104.443 36.4859C102.141 38.3872 100.572 41.0303 100.005 43.962C99.4386 46.8936 99.9097 49.931 101.338 52.5532C102.766 55.1755 105.062 57.2192 107.832 58.3337L127.612 66.2495C130.382 67.3641 132.678 69.4078 134.106 72.03C135.534 74.6523 136.005 77.6897 135.438 80.6213C134.872 83.5529 133.303 86.196 131 88.0973C128.698 89.9986 125.806 91.0395 122.82 91.0416H103.356" stroke="#A02006" stroke-width="5" stroke-linecap="round" stroke-linejoin="round"></path>
<path d="M117.731 100.625V91.0416" stroke="#A02006" stroke-width="5" stroke-linecap="round" stroke-linejoin="round"></path>
<path d="M117.731 33.5417V23.9584" stroke="#A02006" stroke-width="5" stroke-linecap="round" stroke-linejoin="round"></path>
</svg>