<svg width="230" height="230" viewBox="0 0 230 230" fill="none" xmlns="http://www.w3.org/2000/svg">
<path d="M225.017 66.7001V191.283C225.017 196.367 222.997 201.242 219.403 204.836C215.809 208.431 210.933 210.45 205.85 210.45H23.7668C18.6834 210.45 13.8083 208.431 10.2139 204.836C6.61944 201.242 4.6001 196.367 4.6001 191.283V66.7001H225.017Z" fill="#FBA897"></path>
<path d="M23.9584 210.833H43.1251L186.875 67.0833H4.79175V191.667C4.79175 196.75 6.81109 201.625 10.4055 205.22C14 208.814 18.8751 210.833 23.9584 210.833Z" fill="#FDDAD3"></path>
<path d="M225.208 67.0833H4.79175V38.3333C4.79175 33.25 6.81109 28.3749 10.4055 24.7805C14 21.186 18.8751 19.1667 23.9584 19.1667H206.042C211.125 19.1667 216 21.186 219.595 24.7805C223.189 28.3749 225.208 33.25 225.208 38.3333V67.0833Z" fill="#FCBEB1"></path>
<path d="M23.9584 19.205H206.042C206.042 19.205 225.208 19.205 225.208 38.3717V191.705C225.208 191.705 225.208 210.872 206.042 210.872H23.9584C23.9584 210.872 4.79175 210.872 4.79175 191.705V38.3717C4.79175 38.3717 4.79175 19.205 23.9584 19.205Z" stroke="#A02006" stroke-width="5" stroke-linecap="round" stroke-linejoin="round"></path>
<path d="M4.79175 67.1217H225.208" stroke="#A02006" stroke-width="5" stroke-linecap="round" stroke-linejoin="round"></path>
<path d="M38.3333 40.7675C38.8072 40.7675 39.2704 40.908 39.6644 41.1713C40.0584 41.4345 40.3655 41.8087 40.5468 42.2465C40.7281 42.6843 40.7756 43.166 40.6831 43.6307C40.5907 44.0955 40.3625 44.5224 40.0274 44.8574C39.6924 45.1925 39.2655 45.4207 38.8007 45.5131C38.336 45.6056 37.8543 45.5581 37.4165 45.3768C36.9787 45.1955 36.6045 44.8884 36.3413 44.4944C36.078 44.1004 35.9375 43.6372 35.9375 43.1633C35.9375 42.5279 36.1899 41.9185 36.6392 41.4692C37.0885 41.0199 37.6979 40.7675 38.3333 40.7675Z" stroke="#A02006" stroke-width="5" stroke-linecap="round" stroke-linejoin="round"></path>
<path d="M67.0833 40.7675C67.5572 40.7675 68.0204 40.908 68.4144 41.1713C68.8084 41.4345 69.1155 41.8087 69.2968 42.2465C69.4781 42.6843 69.5256 43.166 69.4331 43.6307C69.3407 44.0955 69.1125 44.5224 68.7774 44.8574C68.4424 45.1925 68.0155 45.4207 67.5507 45.5131C67.086 45.6056 66.6043 45.5581 66.1665 45.3768C65.7287 45.1955 65.3545 44.8884 65.0913 44.4944C64.828 44.1004 64.6875 43.6372 64.6875 43.1633C64.6875 42.5279 64.9399 41.9185 65.3892 41.4692C65.8385 41.0199 66.4479 40.7675 67.0833 40.7675Z" stroke="#A02006" stroke-width="5" stroke-linecap="round" stroke-linejoin="round"></path>
<path d="M95.8333 40.7675C96.3072 40.7675 96.7704 40.908 97.1644 41.1713C97.5584 41.4345 97.8655 41.8087 98.0468 42.2465C98.2281 42.6843 98.2756 43.166 98.1831 43.6307C98.0907 44.0955 97.8625 44.5224 97.5274 44.8574C97.1924 45.1925 96.7655 45.4207 96.3007 45.5131C95.836 45.6056 95.3543 45.5581 94.9165 45.3768C94.4787 45.1955 94.1045 44.8884 93.8413 44.4944C93.578 44.1004 93.4375 43.6372 93.4375 43.1633C93.4375 42.5279 93.6899 41.9185 94.1392 41.4692C94.5885 41.0199 95.1979 40.7675 95.8333 40.7675Z" stroke="#A02006" stroke-width="5" stroke-linecap="round" stroke-linejoin="round"></path>
<path d="M91.0417 138.997C91.0417 145.351 93.5659 151.445 98.059 155.938C102.552 160.431 108.646 162.955 115 162.955C121.354 162.955 127.448 160.431 131.941 155.938C136.434 151.445 138.958 145.351 138.958 138.997C138.958 132.643 136.434 126.549 131.941 122.056C127.448 117.563 121.354 115.038 115 115.038C108.646 115.038 102.552 117.563 98.059 122.056C93.5659 126.549 91.0417 132.643 91.0417 138.997Z" fill="#FBA897"></path>
<path d="M98.0566 155.93C93.5967 151.43 91.101 145.346 91.1158 139.01C91.1306 132.674 93.6545 126.602 98.1354 122.123C102.616 117.643 108.689 115.121 115.025 115.108C121.361 115.095 127.444 117.592 131.943 122.053L98.0566 155.93Z" fill="#FDDAD3"></path>
<path d="M98.5065 125.186L96.3768 123.877L93.9936 128.273L96.1233 129.582L97.3149 127.384L98.5065 125.186ZM112.634 139.732L114.764 141.042L117.147 136.646L115.017 135.337L113.825 137.535L112.634 139.732ZM97.3149 127.384L96.1233 129.582L112.634 139.732L113.825 137.535L115.017 135.337L98.5065 125.186L97.3149 127.384Z" fill="#A02006"></path>
<path d="M98.5065 125.186L96.3768 123.877L93.9936 128.273L96.1233 129.582L97.3149 127.384L98.5065 125.186ZM112.634 139.732L114.764 141.042L117.147 136.646L115.017 135.337L113.825 137.535L112.634 139.732ZM97.3149 127.384L96.1233 129.582L112.634 139.732L113.825 137.535L115.017 135.337L98.5065 125.186L97.3149 127.384Z" fill="#A02006"></path>
<path d="M98.5065 125.186L96.3768 123.877L93.9936 128.273L96.1233 129.582L97.3149 127.384L98.5065 125.186ZM112.634 139.732L114.764 141.042L117.147 136.646L115.017 135.337L113.825 137.535L112.634 139.732ZM97.3149 127.384L96.1233 129.582L112.634 139.732L113.825 137.535L115.017 135.337L98.5065 125.186L97.3149 127.384Z" fill="#A02006"></path>
<path d="M83.7562 115.905L81.6543 114.545L79.1742 118.88L81.2761 120.239L82.5161 118.072L83.7562 115.905ZM87.4564 124.236L89.5583 125.595L92.0384 121.261L89.9365 119.902L88.6965 122.069L87.4564 124.236ZM82.5161 118.072L81.2761 120.239L87.4564 124.236L88.6965 122.069L89.9365 119.902L83.7562 115.905L82.5161 118.072Z" fill="#A02006"></path>
<path d="M83.7562 115.905L81.6543 114.545L79.1742 118.88L81.2761 120.239L82.5161 118.072L83.7562 115.905ZM87.4564 124.236L89.5583 125.595L92.0384 121.261L89.9365 119.902L88.6965 122.069L87.4564 124.236ZM82.5161 118.072L81.2761 120.239L87.4564 124.236L88.6965 122.069L89.9365 119.902L83.7562 115.905L82.5161 118.072Z" fill="#A02006"></path>
<path d="M83.7562 115.905L81.6543 114.545L79.1742 118.88L81.2761 120.239L82.5161 118.072L83.7562 115.905ZM87.4564 124.236L89.5583 125.595L92.0384 121.261L89.9365 119.902L88.6965 122.069L87.4564 124.236ZM82.5161 118.072L81.2761 120.239L87.4564 124.236L88.6965 122.069L89.9365 119.902L83.7562 115.905L82.5161 118.072Z" fill="#A02006"></path>
<path d="M80.052 107.594L77.9223 108.903L80.3055 113.298L82.4353 111.989L81.2437 109.791L80.052 107.594ZM114.572 92.2318L116.702 90.9225L114.319 86.527L112.189 87.8363L113.381 90.034L114.572 92.2318ZM81.2437 109.791L82.4353 111.989L114.572 92.2318L113.381 90.034L112.189 87.8363L80.052 107.594L81.2437 109.791Z" fill="#A02006"></path>
<path d="M141.077 94.1946L138.948 92.8852L136.564 97.2807L138.694 98.59L139.886 96.3923L141.077 94.1946ZM158.004 110.461L160.134 111.771L162.517 107.375L160.387 106.066L159.196 108.264L158.004 110.461ZM139.886 96.3923L138.694 98.59L158.004 110.461L159.196 108.264L160.387 106.066L141.077 94.1946L139.886 96.3923Z" fill="#A02006"></path>
<path d="M165.865 120.081V149.207" stroke="#A02006" stroke-width="5" stroke-linecap="square"></path>
<path d="M165.865 120.081V149.207" stroke="#A02006" stroke-width="5" stroke-linecap="square"></path>
<path d="M120.224 165.32V148.845" stroke="#A02006" stroke-width="5" stroke-linecap="square"></path>
<path d="M120.224 191.209V177.04" stroke="#A02006" stroke-width="5" stroke-linecap="square"></path>
<path d="M93.7614 167.587L91.6317 166.278L89.2485 170.674L91.3782 171.983L92.5698 169.785L93.7614 167.587ZM112.428 184.924L114.558 186.233L116.941 181.838L114.811 180.529L113.62 182.726L112.428 184.924ZM92.5698 169.785L91.3782 171.983L112.428 184.924L113.62 182.726L114.811 180.529L93.7614 167.587L92.5698 169.785Z" fill="#A02006"></path>
<path d="M126.079 180.458L123.949 181.767L126.332 186.162L128.462 184.853L127.271 182.655L126.079 180.458ZM160.555 165.123L162.685 163.814L160.302 159.418L158.172 160.727L159.364 162.925L160.555 165.123ZM127.271 182.655L128.462 184.853L160.555 165.123L159.364 162.925L158.172 160.727L126.079 180.458L127.271 182.655Z" fill="#A02006"></path>
<path d="M143.955 124.64L141.825 125.949L144.208 130.344L146.338 129.035L145.146 126.837L143.955 124.64ZM158.952 121.28L161.082 119.971L158.699 115.575L156.569 116.885L157.761 119.082L158.952 121.28ZM145.146 126.837L146.338 129.035L158.952 121.28L157.761 119.082L156.569 116.885L143.955 124.64L145.146 126.837Z" fill="#A02006"></path>
<path d="M126.887 135.268L124.758 136.577L127.141 140.973L129.271 139.664L128.079 137.466L126.887 135.268ZM138.281 134.124L140.411 132.815L138.027 128.419L135.898 129.729L137.089 131.926L138.281 134.124ZM128.079 137.466L129.271 139.664L138.281 134.124L137.089 131.926L135.898 129.729L126.887 135.268L128.079 137.466Z" fill="#A02006"></path>
<path d="M74.4961 125.323L74.4961 157.088" stroke="#A02006" stroke-width="5" stroke-linecap="square"></path>
<circle cx="120.458" cy="180.874" r="11.3816" fill="#FDDAD3" stroke="#A02006" stroke-width="5"></circle>
<circle cx="74.8816" cy="159.187" r="11.3816" fill="#F86447" stroke="#A02006" stroke-width="5"></circle>
<circle cx="165.568" cy="159.187" r="11.3816" fill="#F86447" stroke="#A02006" stroke-width="5"></circle>
<circle cx="120.226" cy="137.665" r="11.3816" fill="#F86447" stroke="#A02006" stroke-width="5"></circle>
<circle cx="74.8816" cy="116.635" r="11.3816" fill="#FDDAD3" stroke="#A02006" stroke-width="5"></circle>
<circle cx="165.568" cy="116.635" r="11.3816" fill="#FDDAD3" stroke="#A02006" stroke-width="5"></circle>
<circle cx="120.226" cy="94.8816" r="11.3816" fill="#F86447" stroke="#A02006" stroke-width="5"></circle>
</svg>