<svg width="237" height="236" viewBox="0 0 237 236" fill="none" xmlns="http://www.w3.org/2000/svg">
<path d="M222.187 4.91663H138.25C135.119 4.91651 132.02 5.53041 129.127 6.72326C126.235 7.91612 123.607 9.66457 121.393 11.8688L8.4332 124.352C7.32486 125.455 6.4456 126.764 5.8457 128.205C5.24579 129.646 4.93701 131.19 4.93701 132.75C4.93701 134.31 5.24579 135.854 5.8457 137.295C6.4456 138.736 7.32486 140.045 8.4332 141.148L95.2542 227.602C96.3612 228.706 97.6758 229.581 99.1228 230.179C100.57 230.776 102.121 231.084 103.687 231.084C105.254 231.084 106.805 230.776 108.252 230.179C109.699 229.581 111.014 228.706 112.121 227.602L225.081 115.119C227.295 112.915 229.052 110.298 230.25 107.418C231.448 104.538 232.064 101.451 232.062 98.3333V14.75C232.062 12.142 231.022 9.64085 229.17 7.79674C227.318 5.95264 224.806 4.91663 222.187 4.91663ZM187.625 63.9166C184.695 63.9166 181.831 63.0516 179.396 61.4308C176.96 59.81 175.061 57.5064 173.94 54.8112C172.819 52.116 172.526 49.1503 173.097 46.289C173.669 43.4278 175.079 40.7996 177.151 38.7368C179.223 36.674 181.862 35.2692 184.735 34.7C187.609 34.1309 190.587 34.423 193.293 35.5394C196 36.6558 198.313 38.5463 199.941 40.972C201.569 43.3976 202.437 46.2494 202.437 49.1666C202.437 53.0786 200.877 56.8303 198.099 59.5965C195.321 62.3626 191.553 63.9166 187.625 63.9166Z" fill="#FBA897"></path>
<path d="M222.187 4.91663H138.25C135.119 4.91651 132.02 5.53041 129.127 6.72326C126.235 7.91612 123.607 9.66457 121.393 11.8688L8.4332 124.352C7.32486 125.455 6.4456 126.764 5.8457 128.205C5.24579 129.646 4.93701 131.19 4.93701 132.75C4.93701 134.31 5.24579 135.854 5.8457 137.295C6.4456 138.736 7.32486 140.045 8.4332 141.148L52.3375 184.867L177.75 60.0718C176.228 58.7463 174.996 57.1235 174.129 55.3041C173.263 53.4848 172.781 51.5076 172.714 49.4952C172.647 47.4828 172.995 45.4781 173.738 43.6054C174.481 41.7327 175.602 40.0319 177.032 38.6085C178.462 37.1851 180.171 36.0694 182.052 35.3306C183.933 34.5918 185.946 34.2456 187.967 34.3136C189.988 34.3815 191.973 34.8621 193.8 35.7256C195.627 36.5891 197.256 37.817 198.586 39.3333L229.604 8.42713C228.697 7.34094 227.565 6.46427 226.284 5.85804C225.003 5.25181 223.605 4.93056 222.187 4.91663Z" fill="#FDDAD3"></path>
<path d="M140.788 123.615L121.186 104.096C120.16 102.895 118.884 101.931 117.446 101.269C116.009 100.608 114.445 100.266 112.861 100.266C111.278 100.266 109.713 100.608 108.276 101.269C106.839 101.931 105.563 102.895 104.537 104.096C95.4023 113.182 116.387 147.952 107.223 157.038C106.144 158.154 104.85 159.041 103.419 159.647C101.988 160.254 100.448 160.566 98.8931 160.566C97.3378 160.566 95.7985 160.254 94.3673 159.647C92.9361 159.041 91.6423 158.154 90.5635 157.038L70.9617 137.519" stroke="#A02006" stroke-width="5" stroke-linecap="round" stroke-linejoin="round"></path>
<path d="M126.825 109.711L137.302 99.2773" stroke="#A02006" stroke-width="5" stroke-linecap="round" stroke-linejoin="round"></path>
<path d="M74.4575 161.857L84.9349 151.423" stroke="#A02006" stroke-width="5" stroke-linecap="round" stroke-linejoin="round"></path>
<path d="M222.187 4.91663H138.25C135.119 4.91651 132.02 5.53041 129.127 6.72326C126.235 7.91612 123.607 9.66457 121.393 11.8688L8.4332 124.352C7.32486 125.455 6.4456 126.764 5.8457 128.205C5.24579 129.646 4.93701 131.19 4.93701 132.75C4.93701 134.31 5.24579 135.854 5.8457 137.295C6.4456 138.736 7.32486 140.045 8.4332 141.148L95.2542 227.602C96.3612 228.706 97.6758 229.581 99.1228 230.179C100.57 230.776 102.121 231.084 103.687 231.084C105.254 231.084 106.805 230.776 108.252 230.179C109.699 229.581 111.014 228.706 112.121 227.602L225.081 115.119C227.295 112.915 229.052 110.298 230.25 107.418C231.448 104.538 232.064 101.451 232.062 98.3333V14.75C232.062 12.142 231.022 9.64085 229.17 7.79674C227.318 5.95264 224.806 4.91663 222.187 4.91663ZM187.625 63.9166C184.695 63.9166 181.831 63.0516 179.396 61.4308C176.96 59.81 175.061 57.5064 173.94 54.8112C172.819 52.116 172.526 49.1503 173.097 46.289C173.669 43.4278 175.079 40.7996 177.151 38.7368C179.222 36.674 181.862 35.2692 184.735 34.7C187.609 34.1309 190.587 34.423 193.293 35.5394C196 36.6558 198.313 38.5463 199.941 40.972C201.569 43.3976 202.437 46.2494 202.437 49.1666C202.437 53.0786 200.877 56.8303 198.099 59.5965C195.321 62.3626 191.553 63.9166 187.625 63.9166Z" stroke="#A02006" stroke-width="5" stroke-linecap="round" stroke-linejoin="round"></path>
</svg>