<svg width="230" height="230" viewBox="0 0 230 230" fill="none" xmlns="http://www.w3.org/2000/svg">
<path d="M196.458 225.208H33.5416C30.9999 225.208 28.5624 224.199 26.7651 222.401C24.9679 220.604 23.9583 218.167 23.9583 215.625V14.375C23.9583 11.8333 24.9679 9.39576 26.7651 7.59853C28.5624 5.80131 30.9999 4.79164 33.5416 4.79164H160.914C162.175 4.78939 163.425 5.03627 164.591 5.51812C165.757 5.99998 166.816 6.70732 167.708 7.59956L203.243 43.125C205.041 44.9218 206.051 47.3589 206.051 49.9004V215.625C206.051 216.884 205.803 218.131 205.321 219.295C204.839 220.458 204.132 221.515 203.241 222.405C202.35 223.295 201.292 224.001 200.129 224.482C198.965 224.963 197.718 225.21 196.458 225.208Z" fill="#FBA897"></path>
<path d="M185.485 25.3766L167.708 7.59956C166.816 6.70732 165.757 5.99998 164.591 5.51812C163.425 5.03627 162.175 4.78939 160.914 4.79164H33.5416C30.9999 4.79164 28.5624 5.80131 26.7651 7.59853C24.9679 9.39576 23.9583 11.8333 23.9583 14.375V186.923L185.485 25.3766Z" fill="#FDDAD3"></path>
<path d="M203.234 43.125C205.031 44.9218 206.041 47.3589 206.042 49.9004V215.625C206.042 218.167 205.032 220.604 203.235 222.401C201.437 224.199 199 225.208 196.458 225.208H33.5416C30.9999 225.208 28.5624 224.199 26.7651 222.401C24.9679 220.604 23.9583 218.167 23.9583 215.625V14.375C23.9583 11.8333 24.9679 9.39574 26.7651 7.59852C28.5624 5.8013 30.9999 4.79163 33.5416 4.79163H160.933C163.474 4.79217 165.911 5.80219 167.708 7.59954L203.234 43.125Z" stroke="#A02006" stroke-width="5" stroke-linecap="round" stroke-linejoin="round"></path>
<path d="M57.5 74.4721L67.8788 84.8413C68.3702 85.3331 68.9628 85.7121 69.6154 85.9519C70.268 86.1918 70.965 86.2868 71.658 86.2302C72.3509 86.1737 73.0233 85.967 73.6284 85.6246C74.2335 85.2821 74.7569 84.8121 75.1621 84.2471L95.8333 55.3054" stroke="#A02006" stroke-width="5" stroke-linecap="round" stroke-linejoin="round"></path>
<path d="M129.375 71.875H167.708" stroke="#A02006" stroke-width="5" stroke-linecap="round" stroke-linejoin="round"></path>
<path d="M57.5 122.389L67.8788 132.758C68.3702 133.25 68.9628 133.629 69.6154 133.869C70.268 134.108 70.965 134.203 71.658 134.147C72.3509 134.09 73.0233 133.884 73.6284 133.541C74.2335 133.199 74.7569 132.729 75.1621 132.164L95.8333 103.222" stroke="#A02006" stroke-width="5" stroke-linecap="round" stroke-linejoin="round"></path>
<path d="M129.375 119.792H167.708" stroke="#A02006" stroke-width="5" stroke-linecap="round" stroke-linejoin="round"></path>
<path d="M57.5 170.305L67.8788 180.675C68.3702 181.166 68.9628 181.545 69.6154 181.785C70.268 182.025 70.965 182.12 71.658 182.064C72.3509 182.007 73.0233 181.8 73.6284 181.458C74.2335 181.115 74.7569 180.645 75.1621 180.08L95.8333 151.139" stroke="#A02006" stroke-width="5" stroke-linecap="round" stroke-linejoin="round"></path>
<path d="M129.375 167.708H167.708" stroke="#A02006" stroke-width="5" stroke-linecap="round" stroke-linejoin="round"></path>
</svg>