<svg width="230" height="230" viewBox="0 0 230 230" fill="none" xmlns="http://www.w3.org/2000/svg">
<path d="M129.375 67.0833V105.417C129.375 107.958 130.385 110.396 132.182 112.193C133.979 113.99 136.417 115 138.958 115H220.417C221.688 115 222.906 115.505 223.805 116.403C224.704 117.302 225.208 118.521 225.208 119.792V191.667C225.208 196.75 223.189 201.625 219.595 205.22C216 208.814 211.125 210.833 206.042 210.833H23.9584C18.8751 210.833 14 208.814 10.4055 205.22C6.81109 201.625 4.79175 196.75 4.79175 191.667V67.0833H129.375Z" fill="#FA8B75"></path>
<path d="M23.9584 210.833H43.1251L138.958 115C136.417 115 133.979 113.99 132.182 112.193C130.385 110.396 129.375 107.958 129.375 105.417V67.0833H4.79175V191.667C4.79175 196.75 6.81109 201.625 10.4055 205.22C14 208.814 18.8751 210.833 23.9584 210.833Z" fill="#FDDAD3"></path>
<path d="M129.375 67.0833H4.79175V38.3333C4.79175 33.25 6.81109 28.3749 10.4055 24.7805C14 21.186 18.8751 19.1667 23.9584 19.1667H124.583C125.854 19.1667 127.073 19.6715 127.972 20.5701C128.87 21.4687 129.375 22.6875 129.375 23.9583V67.0833Z" fill="#FCBEB1"></path>
<path d="M220.417 115C221.688 115 222.906 115.505 223.805 116.403C224.704 117.302 225.208 118.521 225.208 119.792V191.667C225.208 196.75 223.189 201.625 219.595 205.22C216 208.814 211.125 210.833 206.042 210.833H23.9584C18.8751 210.833 14 208.814 10.4055 205.22C6.81109 201.625 4.79175 196.75 4.79175 191.667V38.3333C4.79175 33.25 6.81109 28.3749 10.4055 24.7805C14 21.186 18.8751 19.1667 23.9584 19.1667H124.583C125.854 19.1667 127.073 19.6715 127.972 20.5701C128.87 21.4687 129.375 22.6875 129.375 23.9583V105.417C129.375 107.958 130.385 110.396 132.182 112.193C133.979 113.99 136.417 115 138.958 115H220.417Z" stroke="#A02006" stroke-width="5" stroke-linecap="round" stroke-linejoin="round"></path>
<path d="M4.79175 67.0833H129.375" stroke="#A02006" stroke-width="5" stroke-linecap="round" stroke-linejoin="round"></path>
<path d="M38.333 38.2292C39.1802 38.2292 40.0114 38.4486 40.7451 38.8639L41.0537 39.0544L41.3467 39.2663C41.9165 39.7112 42.3809 40.2769 42.7061 40.9225L42.8564 41.2516L42.9824 41.5905C43.2467 42.3912 43.3 43.2487 43.1348 44.0798C42.9459 45.0295 42.4796 45.9019 41.7949 46.5866C41.1102 47.2713 40.2378 47.7375 39.2881 47.9264C38.3385 48.1153 37.3544 48.0186 36.46 47.6481C35.5655 47.2776 34.8006 46.6503 34.2627 45.8454C33.7247 45.0403 33.4375 44.093 33.4375 43.1247C33.4376 41.8263 33.953 40.5808 34.8711 39.6628L35.0479 39.4958C35.9458 38.6828 37.1159 38.2293 38.333 38.2292Z" stroke="#A02006" stroke-width="5" stroke-linecap="round" stroke-linejoin="round"></path>
<path d="M67.083 38.2292C67.9302 38.2292 68.7614 38.4486 69.4951 38.8639L69.8037 39.0544L70.0967 39.2663C70.6665 39.7112 71.1309 40.2769 71.4561 40.9225L71.6064 41.2516L71.7324 41.5905C71.9967 42.3912 72.05 43.2487 71.8848 44.0798C71.6959 45.0295 71.2296 45.9019 70.5449 46.5866C69.8602 47.2713 68.9878 47.7375 68.0381 47.9264C67.0885 48.1153 66.1044 48.0186 65.21 47.6481C64.3155 47.2776 63.5507 46.6504 63.0127 45.8454C62.4747 45.0403 62.1875 44.093 62.1875 43.1247C62.1876 41.8263 62.703 40.5808 63.6211 39.6628L63.7979 39.4958C64.6958 38.6828 65.8659 38.2293 67.083 38.2292Z" stroke="#A02006" stroke-width="5" stroke-linecap="round" stroke-linejoin="round"></path>
<path d="M95.833 38.2292C96.6802 38.2292 97.5114 38.4486 98.2451 38.8639L98.5537 39.0544L98.8467 39.2663C99.4165 39.7112 99.8809 40.2769 100.206 40.9225L100.356 41.2516L100.482 41.5905C100.747 42.3912 100.8 43.2487 100.635 44.0798C100.446 45.0295 99.9796 45.9019 99.2949 46.5866C98.6102 47.2713 97.7378 47.7375 96.7881 47.9264C95.8385 48.1153 94.8544 48.0186 93.96 47.6481C93.0655 47.2776 92.3007 46.6504 91.7627 45.8454C91.2247 45.0403 90.9375 44.093 90.9375 43.1247C90.9376 41.8263 91.453 40.5808 92.3711 39.6628L92.5479 39.4958C93.4458 38.6828 94.6159 38.2293 95.833 38.2292Z" stroke="#A02006" stroke-width="5" stroke-linecap="round" stroke-linejoin="round"></path>
<path d="M129.375 76.6667H225.208" stroke="#A02006" stroke-width="5" stroke-linecap="round" stroke-linejoin="round"></path>
<path d="M129.375 38.3333H225.208" stroke="#A02006" stroke-width="5" stroke-linecap="round" stroke-linejoin="round"></path>
<path d="M206.042 19.1667V115" stroke="#A02006" stroke-width="5" stroke-linecap="round" stroke-linejoin="round"></path>
<path d="M167.708 19.1667V115" stroke="#A02006" stroke-width="5" stroke-linecap="round" stroke-linejoin="round"></path>
</svg>