<svg width="234" height="227" viewBox="0 0 234 227" fill="none" xmlns="http://www.w3.org/2000/svg">
<path d="M23 95.6152C23 107.121 25.2614 118.514 29.655 129.144C34.0486 139.774 40.4884 149.433 48.6068 157.569C56.7251 165.704 66.363 172.158 76.9701 176.561C87.5772 180.964 98.9458 183.23 110.427 183.23C121.908 183.23 133.277 180.964 143.884 176.561C154.491 172.158 164.129 165.704 172.247 157.569C180.365 149.433 186.805 139.774 191.199 129.144C195.592 118.514 197.854 107.121 197.854 95.6152C197.854 84.1094 195.592 72.7163 191.199 62.0863C186.805 51.4563 180.365 41.7977 172.247 33.6619C164.129 25.526 154.491 19.0723 143.884 14.6693C133.277 10.2662 121.908 7.99994 110.427 7.99994C98.9458 7.99994 87.5772 10.2662 76.9701 14.6693C66.363 19.0723 56.7251 25.526 48.6068 33.6619C40.4884 41.7977 34.0486 51.4563 29.655 62.0863C25.2614 72.7163 23 84.1094 23 95.6152Z" fill="#FBA897"></path>
<path d="M49.3343 118.487C49.3319 103.184 53.3289 88.1472 60.9275 74.8736C68.5261 61.6 79.4613 50.5524 92.6445 42.8304C105.828 35.1084 120.799 30.9814 136.069 30.8602C151.338 30.7389 166.373 34.6277 179.676 42.1394C171.765 31.8559 161.672 23.4633 150.127 17.5686C138.582 11.6739 125.874 8.42459 112.922 8.05569C99.9704 7.68679 87.0987 10.2075 75.2383 15.4356C63.3779 20.6636 52.8253 28.4682 44.344 38.2848C35.8626 48.1013 29.6646 59.6844 26.1982 72.196C22.7318 84.7076 22.0838 97.835 24.301 110.628C26.5182 123.422 31.5452 135.561 39.0184 146.169C46.4915 156.776 56.2239 165.587 67.5115 171.962C55.6998 156.652 49.305 137.839 49.3343 118.487Z" fill="#FDDAD3"></path>
<path d="M33.6279 137.533H91.4285" stroke="#A02006" stroke-width="5" stroke-linecap="round" stroke-linejoin="round"></path>
<path d="M38.2959 46.1088H182.619" stroke="#A02006" stroke-width="5" stroke-linecap="round" stroke-linejoin="round"></path>
<path d="M99.0233 91.821H23.0835" stroke="#A02006" stroke-width="5" stroke-linecap="round" stroke-linejoin="round"></path>
<path d="M105.698 183.124C89.2882 182.214 73.4665 176.686 60.048 167.176C46.6295 157.665 36.1577 144.557 29.8338 129.355C23.51 114.152 21.5902 97.4712 24.2946 81.2252C26.999 64.9791 34.2182 49.826 45.124 37.504C56.0298 25.1821 70.1805 16.1904 85.9529 11.5603C101.725 6.93018 118.481 6.84927 134.297 11.3268C150.113 15.8044 164.35 24.659 175.373 36.8751C186.397 49.0911 193.762 64.1738 196.622 80.393" stroke="#A02006" stroke-width="5" stroke-linecap="round" stroke-linejoin="round"></path>
<path d="M104.87 8.21313C59.2555 57.7348 60.0842 122.174 105.698 183.124" stroke="#A02006" stroke-width="5" stroke-linecap="round" stroke-linejoin="round"></path>
<path d="M115.977 8.21313C133.013 25.9841 144.323 48.4783 148.439 72.7742" stroke="#A02006" stroke-width="5" stroke-linecap="round" stroke-linejoin="round"></path>
<path d="M210.2 115.499V194.502C210.2 207.585 189.062 218.204 163.017 218.204C136.972 218.204 115.834 207.585 115.834 194.502V115.499H210.2Z" fill="#FBA897"></path>
<path d="M162.51 115.499H115.834V194.502C115.834 207.585 136.745 218.204 162.51 218.204V115.499Z" fill="#FDDAD3"></path>
<path d="M210.2 115.499V194.502C210.2 207.585 189.062 218.204 163.017 218.204C136.972 218.204 115.834 207.585 115.834 194.502V115.499" stroke="#A02006" stroke-width="5" stroke-linecap="round" stroke-linejoin="round"></path>
<path d="M115.834 116.007C115.834 122.345 120.805 128.423 129.653 132.905C138.502 137.386 150.503 139.904 163.017 139.904C175.531 139.904 187.532 137.386 196.38 132.905C205.229 128.423 210.2 122.345 210.2 116.007C210.2 109.669 205.229 103.591 196.38 99.1098C187.532 94.6283 175.531 92.1106 163.017 92.1106C150.503 92.1106 138.502 94.6283 129.653 99.1098C120.805 103.591 115.834 109.669 115.834 116.007Z" fill="#FBA897" stroke="#A02006" stroke-width="5" stroke-linecap="round" stroke-linejoin="round"></path>
<path d="M187.877 169.757C187.877 168.928 187.549 168.134 186.964 167.548C186.38 166.962 185.587 166.633 184.76 166.633H175.411V157.264C175.411 156.435 175.082 155.641 174.498 155.055C173.913 154.469 173.121 154.14 172.294 154.14H159.828C159.001 154.14 158.209 154.469 157.624 155.055C157.04 155.641 156.711 156.435 156.711 157.264V166.633H147.362C146.535 166.633 145.742 166.962 145.158 167.548C144.573 168.134 144.245 168.928 144.245 169.757V182.25C144.245 183.078 144.573 183.872 145.158 184.458C145.742 185.044 146.535 185.373 147.362 185.373H156.711V194.743C156.711 195.571 157.04 196.366 157.624 196.951C158.209 197.537 159.001 197.866 159.828 197.866H172.294C173.121 197.866 173.913 197.537 174.498 196.951C175.082 196.366 175.411 195.571 175.411 194.743V185.373H184.76C185.587 185.373 186.38 185.044 186.964 184.458C187.549 183.872 187.877 183.078 187.877 182.25V169.757Z" fill="#FDDAD3" stroke="#A02006" stroke-width="5" stroke-linecap="round" stroke-linejoin="round"></path>
</svg>