<svg width="230" height="230" viewBox="0 0 230 230" fill="none" xmlns="http://www.w3.org/2000/svg">
<path d="M148.101 47.9167C149.705 47.9167 151.284 48.3195 152.692 49.088C154.1 49.8565 155.293 50.9662 156.16 52.3154L193.123 109.815C194.118 111.362 194.647 113.161 194.647 115C194.647 116.839 194.118 118.638 193.123 120.185L156.16 177.685C155.293 179.034 154.1 180.143 152.692 180.912C151.284 181.681 149.705 182.083 148.101 182.083H81.8992C80.295 182.083 78.7164 181.681 77.3083 180.912C75.9002 180.143 74.7075 179.034 73.8396 177.685L36.8767 120.185C35.882 118.638 35.3531 116.839 35.3531 115C35.3531 113.161 35.882 111.362 36.8767 109.815L73.8396 52.3154C74.7075 50.9662 75.9002 49.8565 77.3083 49.088C78.7164 48.3195 80.295 47.9167 81.8992 47.9167H148.101Z" fill="#FDDAD3"></path>
<path d="M193.123 109.815L176.889 84.5537C176.705 85.0595 176.481 85.5498 176.218 86.02L137.042 146.941C136.123 148.372 134.859 149.548 133.368 150.364C131.876 151.179 130.203 151.607 128.503 151.608H58.3625C57.8923 151.582 57.4247 151.521 56.9634 151.426L73.8396 177.685C74.7075 179.034 75.9002 180.143 77.3083 180.912C78.7165 181.681 80.295 182.083 81.8992 182.083H148.101C149.705 182.083 151.284 181.681 152.692 180.912C154.1 180.143 155.293 179.034 156.16 177.685L193.123 120.185C194.118 118.638 194.647 116.839 194.647 115C194.647 113.161 194.118 111.362 193.123 109.815Z" fill="#F86447"></path>
<path d="M148.101 47.9167C149.705 47.9167 151.284 48.3195 152.692 49.088C154.1 49.8565 155.293 50.9662 156.16 52.3154L193.123 109.815C194.118 111.362 194.647 113.161 194.647 115C194.647 116.839 194.118 118.638 193.123 120.185L156.16 177.685C155.293 179.034 154.1 180.143 152.692 180.912C151.284 181.681 149.705 182.083 148.101 182.083H81.8992C80.295 182.083 78.7164 181.681 77.3083 180.912C75.9002 180.143 74.7075 179.034 73.8396 177.685L36.8767 120.185C35.882 118.638 35.3531 116.839 35.3531 115C35.3531 113.161 35.882 111.362 36.8767 109.815L73.8396 52.3154C74.7075 50.9662 75.9002 49.8565 77.3083 49.088C78.7164 48.3195 80.295 47.9167 81.8992 47.9167H148.101Z" stroke="#A02006" stroke-width="5" stroke-linecap="round" stroke-linejoin="round"></path>
<path d="M194.647 115H225.208" stroke="#A02006" stroke-width="5" stroke-linecap="round" stroke-linejoin="round"></path>
<path d="M4.79163 115H35.3529" stroke="#A02006" stroke-width="5" stroke-linecap="round" stroke-linejoin="round"></path>
<path d="M152.48 48.99L172.5 23.9583" stroke="#A02006" stroke-width="5" stroke-linecap="round" stroke-linejoin="round"></path>
<path d="M77.5292 48.99L57.5 23.9583" stroke="#A02006" stroke-width="5" stroke-linecap="round" stroke-linejoin="round"></path>
<path d="M152.471 181L172.5 206.042" stroke="#A02006" stroke-width="5" stroke-linecap="round" stroke-linejoin="round"></path>
<path d="M77.5196 181.01L57.5 206.042" stroke="#A02006" stroke-width="5" stroke-linecap="round" stroke-linejoin="round"></path>
<path d="M136.563 69.5833C142.889 69.5834 148.957 72.0963 153.43 76.5697C157.904 81.0432 160.416 87.1113 160.416 93.4378C160.416 99.7642 157.903 105.832 153.43 110.305C148.957 114.778 142.889 117.291 136.563 117.291C130.236 117.291 124.168 114.779 119.695 110.305C115.221 105.832 112.708 99.7642 112.708 93.4378C112.708 87.1113 115.221 81.0432 119.695 76.5697C124.168 72.0961 130.236 69.5833 136.563 69.5833Z" fill="#FBA897" stroke="#A02006" stroke-width="5"></path>
<path d="M81.4584 146.146C81.4584 149.323 82.7205 152.37 84.967 154.616C87.2135 156.863 90.2605 158.125 93.4375 158.125C96.6146 158.125 99.6616 156.863 101.908 154.616C104.155 152.37 105.417 149.323 105.417 146.146C105.417 142.969 104.155 139.922 101.908 137.675C99.6616 135.429 96.6146 134.167 93.4375 134.167C90.2605 134.167 87.2135 135.429 84.967 137.675C82.7205 139.922 81.4584 142.969 81.4584 146.146Z" fill="#FDDAD3" stroke="#A02006" stroke-width="5" stroke-linecap="round" stroke-linejoin="round"></path>
</svg>