<svg width="230" height="230" viewBox="0 0 230 230" fill="none" xmlns="http://www.w3.org/2000/svg">
<path d="M80.7588 7.08208C80.3312 6.38012 79.7301 5.79997 79.0135 5.3974C78.2969 4.99483 77.4887 4.78339 76.6667 4.78339C75.8448 4.78339 75.0366 4.99483 74.32 5.3974C73.6033 5.79997 73.0023 6.38012 72.5747 7.08208C57.3467 32.0371 4.79175 120.117 4.79175 153.832C4.79175 172.894 12.3643 191.176 25.8434 204.655C39.3226 218.134 57.6043 225.707 76.6667 225.707C95.7292 225.707 114.011 218.134 127.49 204.655C140.969 191.176 148.542 172.894 148.542 153.832C148.542 120.117 95.9867 32.0275 80.7588 7.08208Z" fill="#FDDAD3"></path>
<path d="M76.6667 196.66C60.4221 196.693 44.6468 191.214 31.9212 181.117C19.1955 171.02 10.2729 156.903 6.61258 141.076C5.53864 145.248 4.92801 149.526 4.79175 153.832C4.79175 172.894 12.3643 191.176 25.8434 204.655C39.3226 218.134 57.6043 225.707 76.6667 225.707C95.7292 225.707 114.011 218.134 127.49 204.655C140.969 191.176 148.542 172.894 148.542 153.832C148.406 149.523 147.796 145.242 146.721 141.067C143.063 156.895 134.141 171.014 121.415 181.113C108.689 191.212 92.9127 196.693 76.6667 196.66Z" fill="#FC8765"></path>
<path d="M76.7624 196.66C65.3662 196.693 54.4201 192.214 46.3162 184.201" stroke="#A02006" stroke-width="5" stroke-linecap="round" stroke-linejoin="round"></path>
<path d="M76.9351 137.943C76.9351 145.955 78.5133 153.89 81.5797 161.293C84.6461 168.696 89.1406 175.422 94.8065 181.088C100.473 186.754 107.199 191.249 114.602 194.315C122.005 197.381 129.939 198.96 137.952 198.96C145.965 198.96 153.899 197.381 161.302 194.315C168.705 191.249 175.432 186.754 181.098 181.088C186.764 175.422 191.258 168.696 194.325 161.293C197.391 153.89 198.969 145.955 198.969 137.943C198.969 129.93 197.391 121.995 194.325 114.592C191.258 107.189 186.764 100.463 181.098 94.7969C175.432 89.131 168.705 84.6365 161.302 81.5701C153.899 78.5037 145.965 76.9254 137.952 76.9254C129.939 76.9254 122.005 78.5037 114.602 81.5701C107.199 84.6365 100.473 89.131 94.8065 94.7969C89.1406 100.463 84.6461 107.189 81.5797 114.592C78.5133 121.995 76.9351 129.93 76.9351 137.943Z" fill="#FDA68B"></path>
<path d="M138 76.9254C125.859 76.9124 113.99 80.5233 103.913 87.296C93.8368 94.0687 86.0109 103.695 81.4378 114.942C76.8647 126.189 75.7525 138.545 78.2437 150.428C80.7349 162.31 86.716 173.179 95.4212 181.643L181.671 95.3925C176 89.5459 169.212 84.8984 161.71 81.7261C154.208 78.5538 146.145 76.9212 138 76.9254Z" fill="#FDDAD3"></path>
<path d="M76.9351 138.048C76.9351 146.061 78.5133 153.995 81.5797 161.398C84.6461 168.801 89.1406 175.528 94.8065 181.194C100.473 186.859 107.199 191.354 114.602 194.42C122.005 197.487 129.939 199.065 137.952 199.065C145.965 199.065 153.899 197.487 161.302 194.42C168.705 191.354 175.432 186.859 181.098 181.194C186.764 175.528 191.258 168.801 194.325 161.398C197.391 153.995 198.969 146.061 198.969 138.048C198.969 130.035 197.391 122.101 194.325 114.698C191.258 107.295 186.764 100.568 181.098 94.9023C175.432 89.2364 168.705 84.7419 161.302 81.6755C153.899 78.6091 145.965 77.0308 137.952 77.0308C129.939 77.0308 122.005 78.6091 114.602 81.6755C107.199 84.7419 100.473 89.2364 94.8065 94.9023C89.1406 100.568 84.6461 107.295 81.5797 114.698C78.5133 122.101 76.9351 130.035 76.9351 138.048Z" stroke="#A02006" stroke-width="5" stroke-linecap="round" stroke-linejoin="round"></path>
<path d="M225.112 225.208L181.096 181.192" stroke="#A02006" stroke-width="5" stroke-linecap="round" stroke-linejoin="round"></path>
<path d="M122.283 105.599C122.919 105.599 123.528 105.851 123.978 106.3C124.427 106.75 124.679 107.359 124.679 107.995" stroke="#A02006" stroke-width="5" stroke-linecap="round" stroke-linejoin="round"></path>
<path d="M119.887 107.995C119.886 107.68 119.947 107.367 120.067 107.076C120.187 106.785 120.364 106.52 120.586 106.298C120.809 106.075 121.074 105.898 121.365 105.779C121.656 105.659 121.968 105.597 122.283 105.599" stroke="#A02006" stroke-width="5" stroke-linecap="round" stroke-linejoin="round"></path>
<path d="M122.283 110.39C121.968 110.392 121.656 110.331 121.365 110.211C121.074 110.091 120.809 109.914 120.586 109.692C120.364 109.469 120.187 109.204 120.067 108.913C119.947 108.622 119.886 108.31 119.887 107.995" stroke="#A02006" stroke-width="5" stroke-linecap="round" stroke-linejoin="round"></path>
<path d="M124.679 107.995C124.679 108.63 124.427 109.239 123.978 109.689C123.528 110.138 122.919 110.39 122.283 110.39" stroke="#A02006" stroke-width="5" stroke-linecap="round" stroke-linejoin="round"></path>
<path d="M103.117 139.14C103.752 139.14 104.362 139.393 104.811 139.842C105.26 140.291 105.513 140.901 105.513 141.536" stroke="#A02006" stroke-width="5" stroke-linecap="round" stroke-linejoin="round"></path>
<path d="M100.721 141.536C100.719 141.221 100.781 140.909 100.901 140.618C101.02 140.327 101.197 140.062 101.42 139.839C101.642 139.617 101.907 139.44 102.198 139.32C102.489 139.2 102.802 139.139 103.117 139.14" stroke="#A02006" stroke-width="5" stroke-linecap="round" stroke-linejoin="round"></path>
<path d="M103.117 143.932C102.802 143.933 102.489 143.872 102.198 143.752C101.907 143.632 101.642 143.456 101.42 143.233C101.197 143.01 101.02 142.746 100.901 142.455C100.781 142.163 100.719 141.851 100.721 141.536" stroke="#A02006" stroke-width="5" stroke-linecap="round" stroke-linejoin="round"></path>
<path d="M105.513 141.536C105.513 142.172 105.26 142.781 104.811 143.23C104.362 143.68 103.752 143.932 103.117 143.932" stroke="#A02006" stroke-width="5" stroke-linecap="round" stroke-linejoin="round"></path>
<path d="M127.075 167.89C127.71 167.89 128.32 168.143 128.769 168.592C129.218 169.041 129.471 169.651 129.471 170.286" stroke="#A02006" stroke-width="5" stroke-linecap="round" stroke-linejoin="round"></path>
<path d="M124.679 170.286C124.678 169.971 124.739 169.659 124.859 169.368C124.979 169.077 125.155 168.812 125.378 168.589C125.601 168.367 125.865 168.19 126.157 168.07C126.448 167.95 126.76 167.889 127.075 167.89" stroke="#A02006" stroke-width="5" stroke-linecap="round" stroke-linejoin="round"></path>
<path d="M127.075 172.682C126.76 172.683 126.448 172.622 126.157 172.502C125.865 172.382 125.601 172.206 125.378 171.983C125.155 171.76 124.979 171.496 124.859 171.205C124.739 170.913 124.678 170.601 124.679 170.286" stroke="#A02006" stroke-width="5" stroke-linecap="round" stroke-linejoin="round"></path>
<path d="M129.471 170.286C129.471 170.922 129.218 171.531 128.769 171.98C128.32 172.43 127.71 172.682 127.075 172.682" stroke="#A02006" stroke-width="5" stroke-linecap="round" stroke-linejoin="round"></path>
<path d="M141.45 134.349C142.085 134.349 142.695 134.601 143.144 135.05C143.593 135.5 143.846 136.109 143.846 136.745" stroke="#A02006" stroke-width="5" stroke-linecap="round" stroke-linejoin="round"></path>
<path d="M139.054 136.745C139.053 136.43 139.114 136.117 139.234 135.826C139.354 135.535 139.53 135.27 139.753 135.048C139.976 134.825 140.24 134.649 140.532 134.529C140.823 134.409 141.135 134.347 141.45 134.349" stroke="#A02006" stroke-width="5" stroke-linecap="round" stroke-linejoin="round"></path>
<path d="M141.45 139.14C141.135 139.142 140.823 139.081 140.532 138.961C140.24 138.841 139.976 138.664 139.753 138.442C139.53 138.219 139.354 137.954 139.234 137.663C139.114 137.372 139.053 137.06 139.054 136.745" stroke="#A02006" stroke-width="5" stroke-linecap="round" stroke-linejoin="round"></path>
<path d="M143.846 136.745C143.846 137.38 143.593 137.989 143.144 138.439C142.695 138.888 142.085 139.14 141.45 139.14" stroke="#A02006" stroke-width="5" stroke-linecap="round" stroke-linejoin="round"></path>
<path d="M170.2 158.307C170.835 158.307 171.445 158.56 171.894 159.009C172.343 159.458 172.596 160.067 172.596 160.703" stroke="#A02006" stroke-width="5" stroke-linecap="round" stroke-linejoin="round"></path>
<path d="M167.804 160.703C167.803 160.388 167.864 160.076 167.984 159.785C168.104 159.493 168.28 159.229 168.503 159.006C168.726 158.783 168.99 158.607 169.282 158.487C169.573 158.367 169.885 158.306 170.2 158.307" stroke="#A02006" stroke-width="5" stroke-linecap="round" stroke-linejoin="round"></path>
<path d="M170.2 163.099C169.885 163.1 169.573 163.039 169.282 162.919C168.99 162.799 168.726 162.623 168.503 162.4C168.28 162.177 168.104 161.913 167.984 161.621C167.864 161.33 167.803 161.018 167.804 160.703" stroke="#A02006" stroke-width="5" stroke-linecap="round" stroke-linejoin="round"></path>
<path d="M172.596 160.703C172.596 161.338 172.343 161.948 171.894 162.397C171.445 162.846 170.835 163.099 170.2 163.099" stroke="#A02006" stroke-width="5" stroke-linecap="round" stroke-linejoin="round"></path>
<path d="M165.408 115.182C166.044 115.182 166.653 115.434 167.103 115.884C167.552 116.333 167.804 116.943 167.804 117.578" stroke="#A02006" stroke-width="5" stroke-linecap="round" stroke-linejoin="round"></path>
<path d="M163.012 117.578C163.011 117.263 163.072 116.951 163.192 116.66C163.312 116.368 163.489 116.104 163.711 115.881C163.934 115.658 164.199 115.482 164.49 115.362C164.781 115.242 165.093 115.181 165.408 115.182" stroke="#A02006" stroke-width="5" stroke-linecap="round" stroke-linejoin="round"></path>
<path d="M165.408 119.974C165.093 119.975 164.781 119.914 164.49 119.794C164.199 119.674 163.934 119.498 163.711 119.275C163.489 119.052 163.312 118.788 163.192 118.496C163.072 118.205 163.011 117.893 163.012 117.578" stroke="#A02006" stroke-width="5" stroke-linecap="round" stroke-linejoin="round"></path>
<path d="M167.804 117.578C167.804 118.213 167.552 118.823 167.103 119.272C166.653 119.721 166.044 119.974 165.408 119.974" stroke="#A02006" stroke-width="5" stroke-linecap="round" stroke-linejoin="round"></path>
<path d="M112.269 61.6208C102.277 43.1702 91.7991 24.9874 80.845 7.09167C80.4168 6.39186 79.8161 5.81371 79.1004 5.41259C78.3847 5.01147 77.5781 4.80083 76.7577 4.80083C75.9372 4.80083 75.1306 5.01147 74.4149 5.41259C73.6992 5.81371 73.0986 6.39186 72.6704 7.09167C57.4329 32.0467 4.88745 120.118 4.88745 153.832C4.99363 166.511 8.44737 178.938 14.8992 189.854C21.3509 200.77 30.5718 209.787 41.6286 215.995C52.6854 222.202 65.1857 225.378 77.8645 225.202C90.5432 225.026 102.951 221.504 113.831 214.992" stroke="#A02006" stroke-width="5" stroke-linecap="round" stroke-linejoin="round"></path>
</svg>