<svg width="226" height="207" viewBox="0 0 226 207" fill="none" xmlns="http://www.w3.org/2000/svg">
<path d="M189.95 203.75L177.118 165.263C181.908 164.89 186.381 162.726 189.647 159.202C192.913 155.679 194.732 151.054 194.742 146.25C202.367 146.25 209.679 143.221 215.071 137.829C220.463 132.438 223.492 125.125 223.492 117.5V103.125C223.473 96.344 221.059 89.7877 216.675 84.6146C212.291 79.4414 206.219 75.9843 199.533 74.8542V74.375C199.533 65.4792 195.999 56.9477 189.709 50.6575C183.419 44.3672 174.887 40.8333 165.992 40.8333C165.992 30.6667 161.953 20.9165 154.764 13.7276C147.575 6.53868 137.825 2.5 127.658 2.5H98.9083C88.7417 2.5 78.9915 6.53868 71.8026 13.7276C64.6137 20.9165 60.575 30.6667 60.575 40.8333C51.6792 40.8333 43.1477 44.3672 36.8575 50.6575C30.5672 56.9477 27.0333 65.4792 27.0333 74.375H26.4583C20.1042 74.375 14.0103 76.8992 9.51723 81.3922C5.02417 85.8853 2.5 91.9792 2.5 98.3333C2.5 104.687 5.02417 110.781 9.51723 115.274C14.0103 119.767 20.1042 122.292 26.4583 122.292H74.95C74.95 128.646 77.4742 134.74 81.9672 139.233C86.4603 143.726 92.5542 146.25 98.9083 146.25H142.033L161.2 203.75" fill="#FDDAD3"></path>
<path d="M144.324 113.025C87.8875 113.025 37.7187 103.441 5.22166 88.4146C3.81498 91.5326 3.08343 94.9127 3.07499 98.3333C3.00082 104.611 5.42226 110.66 9.80704 115.153C14.1918 119.646 20.1811 122.213 26.4583 122.292H74.95C74.95 128.646 77.4742 134.74 81.9672 139.233C86.4603 143.726 92.5542 146.25 98.9083 146.25H142.033L161.2 203.75H189.95L177.118 165.263C181.908 164.89 186.381 162.726 189.647 159.202C192.913 155.679 194.732 151.054 194.742 146.25C202.367 146.25 209.679 143.221 215.071 137.829C220.463 132.438 223.492 125.125 223.492 117.5V106.172C197.359 110.81 170.864 113.103 144.324 113.025Z" fill="#FBA897"></path>
<path d="M189.95 203.75L177.118 165.263C181.908 164.89 186.381 162.726 189.647 159.202C192.913 155.679 194.732 151.054 194.742 146.25C202.367 146.25 209.679 143.221 215.071 137.829C220.463 132.438 223.492 125.125 223.492 117.5V103.125C223.473 96.344 221.059 89.7877 216.675 84.6146C212.291 79.4414 206.219 75.9843 199.533 74.8542V74.375C199.533 65.4792 195.999 56.9477 189.709 50.6575C183.419 44.3672 174.887 40.8333 165.992 40.8333C165.992 30.6667 161.953 20.9165 154.764 13.7276C147.575 6.53868 137.825 2.5 127.658 2.5H98.9083C88.7417 2.5 78.9915 6.53868 71.8026 13.7276C64.6137 20.9165 60.575 30.6667 60.575 40.8333C51.6792 40.8333 43.1477 44.3672 36.8575 50.6575C30.5672 56.9477 27.0333 65.4792 27.0333 74.375H26.4583C20.1042 74.375 14.0103 76.8992 9.51723 81.3922C5.02417 85.8853 2.5 91.9792 2.5 98.3333C2.5 104.687 5.02417 110.781 9.51723 115.274C14.0103 119.767 20.1042 122.292 26.4583 122.292H74.95C74.95 128.646 77.4742 134.74 81.9672 139.233C86.4603 143.726 92.5542 146.25 98.9083 146.25H142.033L161.2 203.75" stroke="#A02006" stroke-width="5" stroke-linecap="round" stroke-linejoin="round"></path>
<path d="M74.95 122.292C74.95 115.938 77.4742 109.844 81.9672 105.351C86.4603 100.858 92.5542 98.3333 98.9083 98.3333" stroke="#A02006" stroke-width="5" stroke-linecap="round" stroke-linejoin="round"></path>
<path d="M127.658 98.3333C127.658 91.9792 130.182 85.8853 134.676 81.3922C139.169 76.8992 145.263 74.375 151.617 74.375C157.971 74.375 164.065 76.8992 168.558 81.3922C173.051 85.8853 175.575 91.9792 175.575 98.3333" stroke="#A02006" stroke-width="5" stroke-linecap="round" stroke-linejoin="round"></path>
<path d="M132.45 31.25C132.45 34.3963 131.83 37.5117 130.626 40.4185C129.422 43.3252 127.657 45.9664 125.433 48.1911C123.208 50.4158 120.567 52.1806 117.66 53.3846C114.753 54.5886 111.638 55.2083 108.492 55.2083H94.1167C87.7625 55.2083 81.6686 57.7325 77.1756 62.2256C72.6825 66.7186 70.1583 72.8125 70.1583 79.1667" stroke="#A02006" stroke-width="5" stroke-linecap="round" stroke-linejoin="round"></path>
<path d="M60.575 40.8333C66.1162 40.8325 71.5713 42.2044 76.4528 44.8266C81.3342 47.4488 85.49 51.2395 88.5488 55.86" stroke="#A02006" stroke-width="5" stroke-linecap="round" stroke-linejoin="round"></path>
<path d="M199.533 107.917C199.533 111.729 198.019 115.385 195.323 118.081C192.627 120.777 188.971 122.292 185.158 122.292" stroke="#A02006" stroke-width="5" stroke-linecap="round" stroke-linejoin="round"></path>
</svg>