<svg width="226" height="226" viewBox="0 0 226 226" fill="none" xmlns="http://www.w3.org/2000/svg">
<path d="M196.3 141.752C200.402 147.056 202.932 153.405 203.601 160.077C204.271 166.748 203.053 173.474 200.086 179.487C197.12 185.5 192.524 190.559 186.822 194.087C181.121 197.615 174.543 199.471 167.838 199.444C166.783 199.444 165.729 199.252 164.675 199.156C165.171 200.804 165.429 202.514 165.442 204.235C165.457 208.826 163.825 213.27 160.841 216.759C157.857 220.247 153.72 222.549 149.182 223.246C144.645 223.942 140.008 222.986 136.115 220.553C132.223 218.119 129.333 214.369 127.971 209.985C123.286 212.502 118.051 213.819 112.733 213.819C107.416 213.819 102.181 212.502 97.496 209.985C96.1344 214.369 93.2445 218.119 89.3518 220.553C85.4591 222.986 80.8222 223.942 76.2846 223.246C71.7469 222.549 67.6099 220.247 64.626 216.759C61.6421 213.27 60.0095 208.826 60.0252 204.235C60.0381 202.514 60.2963 200.804 60.7918 199.156C59.7377 199.252 58.6835 199.444 57.6293 199.444C50.9243 199.471 44.3463 197.615 38.6447 194.087C32.9431 190.559 28.3472 185.5 25.3807 179.487C22.4141 173.474 21.1961 166.748 21.8655 160.077C22.5349 153.405 25.0648 147.056 29.1668 141.752C21.9309 141.256 15.1532 138.031 10.2032 132.73C5.25317 127.429 2.5 120.446 2.5 113.194C2.5 105.941 5.25317 98.9581 10.2032 93.657C15.1532 88.3559 21.9309 85.1314 29.1668 84.6352C25.0648 79.3313 22.5349 72.9819 21.8655 66.3104C21.1961 59.6389 22.4141 52.9134 25.3807 46.9003C28.3472 40.8873 32.9431 35.8284 38.6447 32.3C44.3463 28.7716 50.9243 26.9156 57.6293 26.9435C58.6835 26.9435 59.7377 27.1352 60.7918 27.231C60.2892 25.5846 60.0309 23.8733 60.0252 22.1518C59.8981 17.0685 61.7955 12.1429 65.3001 8.45861C68.8047 4.7743 73.6293 2.63308 78.7127 2.506C83.796 2.37891 88.7216 4.27638 92.4059 7.78096C96.0902 11.2855 98.2314 16.1102 98.3585 21.1935C102.733 18.6823 107.689 17.3609 112.733 17.3609C117.778 17.3609 122.734 18.6823 127.108 21.1935C127.236 16.1102 129.377 11.2855 133.061 7.78096C136.745 4.27638 141.671 2.37891 146.754 2.506C151.838 2.63308 156.662 4.7743 160.167 8.45861C163.671 12.1429 165.569 17.0685 165.442 22.1518C165.436 23.8733 165.178 25.5846 164.675 27.231C165.729 27.1352 166.783 26.9435 167.838 26.9435C174.543 26.9156 181.121 28.7716 186.822 32.3C192.524 35.8284 197.12 40.8873 200.086 46.9003C203.053 52.9134 204.271 59.6389 203.601 66.3104C202.932 72.9819 200.402 79.3313 196.3 84.6352C203.536 85.1314 210.314 88.3559 215.264 93.657C220.214 98.9581 222.967 105.941 222.967 113.194C222.967 120.446 220.214 127.429 215.264 132.73C210.314 138.031 203.536 141.256 196.3 141.752Z" fill="#FBA897"></path>
<path d="M112.733 17.3602C107.69 17.3662 102.735 18.6874 98.3585 21.1935C98.2314 16.1102 96.0902 11.2855 92.4059 7.78096C88.7216 4.27638 83.796 2.37891 78.7127 2.506C73.6293 2.63308 68.8047 4.7743 65.3001 8.4586C61.7955 12.1429 59.8981 17.0685 60.0252 22.1518C60.0309 23.8733 60.2892 25.5846 60.7918 27.231C59.7377 27.1352 58.6835 26.9435 57.6293 26.9435C50.9243 26.9156 44.3463 28.7716 38.6447 32.3C32.9431 35.8284 28.3472 40.8873 25.3807 46.9003C22.4141 52.9134 21.1961 59.6388 21.8655 66.3104C22.5349 72.9819 25.0648 79.3313 29.1668 84.6352C21.9309 85.1314 15.1532 88.3559 10.2032 93.657C5.25317 98.9581 2.5 105.941 2.5 113.193C2.5 120.446 5.25317 127.429 10.2032 132.73C15.1532 138.031 21.9309 141.256 29.1668 141.752C25.0648 147.056 22.5349 153.405 21.8655 160.077C21.1961 166.748 22.4141 173.474 25.3807 179.487C28.3472 185.5 32.9431 190.559 38.6447 194.087C44.3463 197.615 50.9243 199.471 57.6293 199.443C58.6835 199.443 59.7377 199.252 60.7918 199.156C60.2963 200.804 60.0381 202.514 60.0252 204.235C60.0095 208.826 61.6421 213.27 64.626 216.759C67.6099 220.247 71.7469 222.549 76.2846 223.245C80.8222 223.942 85.4591 222.986 89.3518 220.553C93.2445 218.119 96.1344 214.369 97.496 209.985C102.183 212.495 107.417 213.812 112.733 213.818V17.3602Z" fill="#FDDAD3"></path>
<path d="M88.5547 163.516C88.5547 155.254 85.2736 147.331 79.4329 141.489C73.5922 135.646 65.6701 132.363 57.4089 132.36C56.901 132.36 56.4505 132.485 55.9426 132.513" stroke="#A02006" stroke-width="5" stroke-linecap="round" stroke-linejoin="round"></path>
<path d="M85.3252 186.219C90.0596 187.801 93.9854 191.175 96.2606 195.618C98.5359 200.061 98.9794 205.219 97.496 209.985" stroke="#A02006" stroke-width="5" stroke-linecap="round" stroke-linejoin="round"></path>
<path d="M98.3585 21.1935V22.1518C98.3488 26.1536 97.0868 30.052 94.7494 33.3003C92.4121 36.5486 89.1166 38.9838 85.3252 40.2643" stroke="#A02006" stroke-width="5" stroke-linecap="round" stroke-linejoin="round"></path>
<path d="M55.9426 93.8927C56.441 93.8927 56.901 94.0364 57.4089 94.0364C65.6685 94.0339 73.5891 90.7516 79.4295 84.9112C85.2699 79.0708 88.5522 71.1502 88.5547 62.8906" stroke="#A02006" stroke-width="5" stroke-linecap="round" stroke-linejoin="round"></path>
<path d="M136.912 163.516C136.912 155.254 140.193 147.331 146.034 141.489C151.875 135.646 159.797 132.363 168.058 132.36C168.566 132.36 169.016 132.485 169.524 132.513" stroke="#A02006" stroke-width="5" stroke-linecap="round" stroke-linejoin="round"></path>
<path d="M196.3 141.752C200.402 147.056 202.932 153.405 203.601 160.077C204.271 166.748 203.053 173.474 200.086 179.487C197.12 185.5 192.524 190.559 186.822 194.087C181.121 197.615 174.543 199.471 167.838 199.443C166.783 199.443 165.729 199.252 164.675 199.156C165.171 200.804 165.429 202.514 165.442 204.235C165.457 208.826 163.825 213.27 160.841 216.759C157.857 220.247 153.72 222.549 149.182 223.245C144.645 223.942 140.008 222.986 136.115 220.553C132.222 218.119 129.333 214.369 127.971 209.985C123.286 212.502 118.051 213.819 112.733 213.819C107.416 213.819 102.181 212.502 97.496 209.985C96.1344 214.369 93.2445 218.119 89.3518 220.553C85.4591 222.986 80.8222 223.942 76.2846 223.245C71.7469 222.549 67.6099 220.247 64.626 216.759C61.6421 213.27 60.0095 208.826 60.0252 204.235C60.0381 202.514 60.2963 200.804 60.7918 199.156C59.7377 199.252 58.6835 199.443 57.6293 199.443C50.9243 199.471 44.3463 197.615 38.6447 194.087C32.9431 190.559 28.3472 185.5 25.3807 179.487C22.4141 173.474 21.1961 166.748 21.8655 160.077C22.5349 153.405 25.0648 147.056 29.1668 141.752C21.9309 141.256 15.1532 138.031 10.2032 132.73C5.25317 127.429 2.5 120.446 2.5 113.193C2.5 105.941 5.25317 98.9581 10.2032 93.657C15.1532 88.3559 21.9309 85.1314 29.1668 84.6352C25.0648 79.3313 22.5349 72.9819 21.8655 66.3104C21.1961 59.6388 22.4141 52.9134 25.3807 46.9003C28.3472 40.8873 32.9431 35.8284 38.6447 32.3C44.3463 28.7716 50.9243 26.9156 57.6293 26.9435C58.6835 26.9435 59.7377 27.1352 60.7918 27.231C60.2892 25.5846 60.0309 23.8733 60.0252 22.1518C59.8981 17.0685 61.7955 12.1429 65.3001 8.4586C68.8047 4.7743 73.6293 2.63308 78.7127 2.506C83.796 2.37891 88.7216 4.27638 92.4059 7.78096C96.0902 11.2855 98.2314 16.1102 98.3585 21.1935C102.733 18.6823 107.689 17.3609 112.733 17.3609C117.778 17.3609 122.734 18.6823 127.108 21.1935C127.236 16.1102 129.377 11.2855 133.061 7.78096C136.745 4.27638 141.671 2.37891 146.754 2.506C151.838 2.63308 156.662 4.7743 160.167 8.4586C163.671 12.1429 165.569 17.0685 165.442 22.1518C165.436 23.8733 165.178 25.5846 164.675 27.231C165.729 27.1352 166.783 26.9435 167.838 26.9435C174.543 26.9156 181.121 28.7716 186.822 32.3C192.524 35.8284 197.12 40.8873 200.086 46.9003C203.053 52.9134 204.271 59.6388 203.601 66.3104C202.932 72.9819 200.402 79.3313 196.3 84.6352C203.536 85.1314 210.314 88.3559 215.264 93.657C220.214 98.9581 222.967 105.941 222.967 113.193C222.967 120.446 220.214 127.429 215.264 132.73C210.314 138.031 203.536 141.256 196.3 141.752Z" stroke="#A02006" stroke-width="5" stroke-linecap="round" stroke-linejoin="round"></path>
<path d="M127.971 209.985C126.488 205.219 126.931 200.061 129.206 195.618C131.482 191.175 135.407 187.801 140.142 186.219" stroke="#A02006" stroke-width="5" stroke-linecap="round" stroke-linejoin="round"></path>
<path d="M127.109 21.1935V22.1518C127.118 26.1536 128.38 30.052 130.718 33.3003C133.055 36.5486 136.35 38.9838 140.142 40.2643" stroke="#A02006" stroke-width="5" stroke-linecap="round" stroke-linejoin="round"></path>
<path d="M169.524 93.8927C169.026 93.8927 168.566 94.0364 168.058 94.0364C159.798 94.0339 151.878 90.7516 146.037 84.9112C140.197 79.0708 136.915 71.1502 136.912 62.8906" stroke="#A02006" stroke-width="5" stroke-linecap="round" stroke-linejoin="round"></path>
<path d="M112.734 65.2864V165.911" stroke="#A02006" stroke-width="5" stroke-linecap="round" stroke-linejoin="round"></path>
</svg>