<svg width="236" height="236" viewBox="0 0 236 236" fill="none" xmlns="http://www.w3.org/2000/svg">
<path d="M231.083 118C231.103 111.196 229.376 104.5 226.069 98.5537C222.762 92.6072 217.984 87.6085 212.194 84.0357C212.86 81.1322 213.206 78.1645 213.226 75.1857C213.321 65.3263 209.695 55.7937 203.071 48.4902C196.447 41.1866 187.313 36.6492 177.492 35.7835C177.592 31.7974 176.9 27.8311 175.455 24.1147C174.011 20.3983 171.842 17.0059 169.076 14.1343C166.309 11.2627 163 8.96921 159.34 7.38687C155.68 5.80453 151.743 4.96489 147.756 4.91667C141.501 5.27477 135.453 7.28321 130.226 10.7377C124.999 14.1921 120.781 18.9693 118 24.5833C115.219 18.9693 111.001 14.1921 105.774 10.7377C100.547 7.28321 94.4991 5.27477 88.2444 4.91667C84.2573 4.96489 80.3196 5.80453 76.6597 7.38687C72.9997 8.96921 69.6906 11.2627 66.9242 14.1343C64.1578 17.0059 61.9893 20.3983 60.5446 24.1147C59.0999 27.8311 58.4078 31.7974 58.5084 35.7835C48.6832 36.6495 39.5463 41.1897 32.9221 48.4974C26.298 55.8051 22.674 65.3426 22.774 75.2053C22.7778 78.1824 23.1075 81.1501 23.7573 84.0553C17.9807 87.6432 13.2145 92.6453 9.90964 98.5884C6.60475 104.532 4.8703 111.219 4.8703 118.02C4.8703 124.82 6.60475 131.508 9.90964 137.451C13.2145 143.394 17.9807 148.396 23.7573 151.984C23.1075 154.889 22.7778 157.857 22.774 160.834C22.684 170.69 26.3124 180.218 32.9356 187.517C39.5588 194.816 48.6901 199.351 58.5084 200.217C58.4078 204.203 59.0999 208.169 60.5446 211.885C61.9893 215.602 64.1578 218.994 66.9242 221.866C69.6906 224.737 72.9997 227.031 76.6597 228.613C80.3196 230.195 84.2573 231.035 88.2444 231.083C94.0287 231.224 99.7603 229.954 104.944 227.384C110.128 224.814 114.609 221.022 118 216.333C121.391 221.022 125.872 224.814 131.056 227.384C136.24 229.954 141.971 231.224 147.756 231.083C151.743 231.035 155.68 230.195 159.34 228.613C163 227.031 166.309 224.737 169.076 221.866C171.842 218.994 174.011 215.602 175.455 211.885C176.9 208.169 177.592 204.203 177.492 200.217C187.317 199.351 196.454 194.81 203.078 187.503C209.702 180.195 213.326 170.657 213.226 160.795C213.206 157.816 212.86 154.848 212.194 151.945C217.981 148.374 222.757 143.378 226.064 137.435C229.371 131.492 231.099 124.801 231.083 118Z" fill="#FBA897"></path>
<path d="M118 24.5833C115.219 18.9693 111.001 14.1921 105.774 10.7377C100.547 7.28321 94.4991 5.27477 88.2444 4.91667C84.2573 4.96489 80.3196 5.80453 76.6597 7.38687C72.9997 8.96921 69.6906 11.2627 66.9242 14.1343C64.1578 17.0059 61.9893 20.3983 60.5446 24.1147C59.0999 27.8311 58.4078 31.7974 58.5084 35.7835C48.6832 36.6495 39.5463 41.1897 32.9221 48.4974C26.298 55.8051 22.674 65.3426 22.774 75.2053C22.7778 78.1824 23.1075 81.1501 23.7573 84.0553C17.9807 87.6432 13.2145 92.6453 9.90964 98.5884C6.60475 104.532 4.8703 111.219 4.8703 118.02C4.8703 124.82 6.60475 131.508 9.90964 137.451C13.2145 143.394 17.9807 148.396 23.7573 151.984C23.1075 154.889 22.7778 157.857 22.774 160.834C22.684 170.69 26.3124 180.218 32.9356 187.517C39.5588 194.816 48.6901 199.351 58.5084 200.217C58.4078 204.203 59.0999 208.169 60.5446 211.885C61.9893 215.602 64.1578 218.994 66.9242 221.866C69.6906 224.737 72.9997 227.031 76.6597 228.613C80.3196 230.195 84.2573 231.035 88.2444 231.083C94.0287 231.224 99.7603 229.954 104.944 227.384C110.128 224.814 114.609 221.022 118 216.333V24.5833Z" fill="#FDDAD3"></path>
<path d="M231.083 118C231.103 111.196 229.376 104.5 226.069 98.5537C222.762 92.6072 217.984 87.6085 212.194 84.0357C212.86 81.1322 213.206 78.1645 213.226 75.1857C213.321 65.3263 209.695 55.7937 203.071 48.4902C196.447 41.1866 187.313 36.6492 177.492 35.7835C177.592 31.7974 176.9 27.8311 175.455 24.1147C174.011 20.3983 171.842 17.0059 169.076 14.1343C166.309 11.2627 163 8.96921 159.34 7.38687C155.68 5.80453 151.743 4.96489 147.756 4.91667C141.501 5.27477 135.453 7.28321 130.226 10.7377C124.999 14.1921 120.781 18.9693 118 24.5833C115.219 18.9693 111.001 14.1921 105.774 10.7377C100.547 7.28321 94.4991 5.27477 88.2444 4.91667C84.2573 4.96489 80.3196 5.80453 76.6597 7.38687C72.9997 8.96921 69.6906 11.2627 66.9242 14.1343C64.1578 17.0059 61.9893 20.3983 60.5446 24.1147C59.0999 27.8311 58.4078 31.7974 58.5084 35.7835C48.6832 36.6495 39.5463 41.1897 32.9221 48.4974C26.298 55.8052 22.674 65.3426 22.774 75.2053C22.7778 78.1824 23.1075 81.1501 23.7573 84.0553C17.9807 87.6433 13.2145 92.6453 9.90964 98.5884C6.60475 104.532 4.8703 111.219 4.8703 118.02C4.8703 124.82 6.60475 131.508 9.90964 137.451C13.2145 143.394 17.9807 148.396 23.7573 151.984C23.1075 154.889 22.7778 157.857 22.774 160.834C22.684 170.69 26.3124 180.218 32.9356 187.517C39.5588 194.816 48.6901 199.351 58.5084 200.216C58.4078 204.203 59.0999 208.169 60.5446 211.885C61.9893 215.602 64.1578 218.994 66.9242 221.866C69.6906 224.737 72.9997 227.031 76.6597 228.613C80.3196 230.195 84.2573 231.035 88.2444 231.083C94.0287 231.224 99.7603 229.954 104.944 227.384C110.128 224.814 114.609 221.022 118 216.333C121.391 221.022 125.872 224.814 131.056 227.384C136.24 229.954 141.971 231.224 147.756 231.083C151.743 231.035 155.68 230.195 159.34 228.613C163 227.031 166.309 224.737 169.076 221.866C171.842 218.994 174.011 215.602 175.455 211.885C176.9 208.169 177.592 204.203 177.492 200.216C187.317 199.351 196.454 194.81 203.078 187.503C209.702 180.195 213.326 170.657 213.226 160.795C213.206 157.816 212.86 154.848 212.194 151.945C217.981 148.374 222.757 143.378 226.064 137.435C229.371 131.492 231.099 124.801 231.083 118Z" stroke="#A02006" stroke-width="5" stroke-linecap="round" stroke-linejoin="round"></path>
<path d="M58.5083 200.217C63.6371 199.363 68.4654 197.222 72.5413 193.994C76.6173 190.766 79.8074 186.556 81.8133 181.759" stroke="#A02006" stroke-width="5" stroke-linecap="round" stroke-linejoin="round"></path>
<path d="M23.8065 84.0356C33.7281 85.7755 43.1086 89.8009 51.2053 95.7932C59.302 101.786 65.8928 109.58 70.4559 118.56" stroke="#A02006" stroke-width="5" stroke-linecap="round" stroke-linejoin="round"></path>
<path d="M56.8661 100.585L74.4973 87.3593" stroke="#A02006" stroke-width="5" stroke-linecap="round" stroke-linejoin="round"></path>
<path d="M98.3334 6.61783C98.1443 16.4754 96.3645 26.2378 93.0627 35.5278" stroke="#A02006" stroke-width="5" stroke-linecap="round" stroke-linejoin="round"></path>
<path d="M78.6667 44.25C78.6667 46.858 79.7027 49.3591 81.5468 51.2032C83.3909 53.0473 85.8921 54.0833 88.5 54.0833C91.108 54.0833 93.6091 53.0473 95.4532 51.2032C97.2973 49.3591 98.3334 46.858 98.3334 44.25C98.3334 41.642 97.2973 39.1409 95.4532 37.2968C93.6091 35.4527 91.108 34.4167 88.5 34.4167C85.8921 34.4167 83.3909 35.4527 81.5468 37.2968C79.7027 39.1409 78.6667 41.642 78.6667 44.25Z" fill="#FBA897" stroke="#A02006" stroke-width="5" stroke-linecap="round" stroke-linejoin="round"></path>
<path d="M137.667 63.9167C137.667 66.5246 138.703 69.0258 140.547 70.8699C142.391 72.714 144.892 73.75 147.5 73.75C150.108 73.75 152.609 72.714 154.453 70.8699C156.297 69.0258 157.333 66.5246 157.333 63.9167C157.333 61.3087 156.297 58.8076 154.453 56.9635C152.609 55.1194 150.108 54.0833 147.5 54.0833C144.892 54.0833 142.391 55.1194 140.547 56.9635C138.703 58.8076 137.667 61.3087 137.667 63.9167Z" fill="#FDDAD3" stroke="#A02006" stroke-width="5" stroke-linecap="round" stroke-linejoin="round"></path>
<path d="M172.083 103.25C172.083 105.858 173.119 108.359 174.963 110.203C176.808 112.047 179.309 113.083 181.917 113.083C184.525 113.083 187.026 112.047 188.87 110.203C190.714 108.359 191.75 105.858 191.75 103.25C191.75 100.642 190.714 98.1409 188.87 96.2968C187.026 94.4527 184.525 93.4167 181.917 93.4167C179.309 93.4167 176.808 94.4527 174.963 96.2968C173.119 98.1409 172.083 100.642 172.083 103.25Z" fill="#FBA897" stroke="#A02006" stroke-width="5" stroke-linecap="round" stroke-linejoin="round"></path>
<path d="M137.667 137.667C137.667 140.275 138.703 142.776 140.547 144.62C142.391 146.464 144.892 147.5 147.5 147.5C150.108 147.5 152.609 146.464 154.453 144.62C156.297 142.776 157.333 140.275 157.333 137.667C157.333 135.059 156.297 132.558 154.453 130.713C152.609 128.869 150.108 127.833 147.5 127.833C144.892 127.833 142.391 128.869 140.547 130.713C138.703 132.558 137.667 135.059 137.667 137.667Z" fill="#F86447" stroke="#A02006" stroke-width="5" stroke-linecap="round" stroke-linejoin="round"></path>
<path d="M73.75 83.5833C73.75 86.1913 74.786 88.6924 76.6301 90.5365C78.4742 92.3807 80.9754 93.4167 83.5833 93.4167C86.1913 93.4167 88.6924 92.3807 90.5365 90.5365C92.3807 88.6924 93.4167 86.1913 93.4167 83.5833C93.4167 80.9754 92.3807 78.4742 90.5365 76.6301C88.6924 74.786 86.1913 73.75 83.5833 73.75C80.9754 73.75 78.4742 74.786 76.6301 76.6301C74.786 78.4742 73.75 80.9754 73.75 83.5833Z" fill="#F86447" stroke="#A02006" stroke-width="5" stroke-linecap="round" stroke-linejoin="round"></path>
<path d="M63.9167 127.833C63.9167 130.441 64.9527 132.942 66.7968 134.787C68.6409 136.631 71.1421 137.667 73.75 137.667C76.358 137.667 78.8591 136.631 80.7032 134.787C82.5473 132.942 83.5834 130.441 83.5834 127.833C83.5834 125.225 82.5473 122.724 80.7032 120.88C78.8591 119.036 76.358 118 73.75 118C71.1421 118 68.6409 119.036 66.7968 120.88C64.9527 122.724 63.9167 125.225 63.9167 127.833Z" fill="#FDDAD3" stroke="#A02006" stroke-width="5" stroke-linecap="round" stroke-linejoin="round"></path>
<path d="M118 24.5833V137.667" stroke="#A02006" stroke-width="5" stroke-linecap="round" stroke-linejoin="round"></path>
<path d="M118 176.587V216.333" stroke="#A02006" stroke-width="5" stroke-linecap="round" stroke-linejoin="round"></path>
<path d="M208.201 55.6862L180.933 69.3348C177.002 71.303 172.674 72.349 168.278 72.3933C163.882 72.4376 159.533 71.479 155.563 69.5905" stroke="#A02006" stroke-width="5" stroke-linecap="round" stroke-linejoin="round"></path>
<path d="M147.5 127.833C148.93 121.866 151.983 116.411 156.322 112.072C160.661 107.733 166.116 104.68 172.083 103.25" stroke="#A02006" stroke-width="5" stroke-linecap="round" stroke-linejoin="round"></path>
<path d="M177.492 200.216C174.778 190.767 170.146 183.5 162.25 181.917" stroke="#A02006" stroke-width="5" stroke-linecap="round" stroke-linejoin="round"></path>
<path d="M73.75 172.083C73.75 174.691 74.786 177.192 76.6301 179.037C78.4742 180.881 80.9754 181.917 83.5833 181.917C86.1913 181.917 88.6924 180.881 90.5365 179.037C92.3807 177.192 93.4167 174.691 93.4167 172.083C93.4167 169.475 92.3807 166.974 90.5365 165.13C88.6924 163.286 86.1913 162.25 83.5833 162.25C80.9754 162.25 78.4742 163.286 76.6301 165.13C74.786 166.974 73.75 169.475 73.75 172.083Z" fill="#F86447" stroke="#A02006" stroke-width="5" stroke-linecap="round" stroke-linejoin="round"></path>
<path d="M142.583 181.917C142.583 184.525 143.619 187.026 145.463 188.87C147.308 190.714 149.809 191.75 152.417 191.75C155.025 191.75 157.526 190.714 159.37 188.87C161.214 187.026 162.25 184.525 162.25 181.917C162.25 179.309 161.214 176.808 159.37 174.963C157.526 173.119 155.025 172.083 152.417 172.083C149.809 172.083 147.308 173.119 145.463 174.963C143.619 176.808 142.583 179.309 142.583 181.917Z" fill="#FDDAD3" stroke="#A02006" stroke-width="5" stroke-linecap="round" stroke-linejoin="round"></path>
</svg>