<svg width="230" height="230" viewBox="0 0 230 230" fill="none" xmlns="http://www.w3.org/2000/svg">
<path d="M4.79175 115C4.79175 129.473 7.64237 143.804 13.1809 157.175C18.7193 170.546 26.8372 182.695 37.071 192.929C47.3048 203.163 59.4541 211.281 72.8252 216.819C86.1963 222.358 100.527 225.208 115 225.208C129.473 225.208 143.804 222.358 157.175 216.819C170.546 211.281 182.695 203.163 192.929 192.929C203.163 182.695 211.281 170.546 216.819 157.175C222.358 143.804 225.208 129.473 225.208 115C225.208 100.527 222.358 86.1962 216.819 72.8251C211.281 59.454 203.163 47.3047 192.929 37.0709C182.695 26.8371 170.546 18.7192 157.175 13.1807C143.804 7.64225 129.473 4.79163 115 4.79163C100.527 4.79163 86.1963 7.64225 72.8252 13.1807C59.4541 18.7192 47.3048 26.8371 37.071 37.0709C26.8372 47.3047 18.7193 59.454 13.1809 72.8251C7.64237 86.1962 4.79175 100.527 4.79175 115Z" fill="#FA8B75"></path>
<path d="M37.0684 192.932C16.3997 172.263 4.78809 144.23 4.78809 115C4.78809 85.7699 16.3997 57.7371 37.0684 37.0683C57.7372 16.3996 85.7701 4.78796 115 4.78796C144.23 4.78796 172.263 16.3996 192.932 37.0683L37.0684 192.932Z" fill="#FDDAD3"></path>
<path d="M4.79175 115C4.79175 129.473 7.64237 143.804 13.1809 157.175C18.7193 170.546 26.8372 182.695 37.071 192.929C47.3048 203.163 59.4541 211.281 72.8252 216.819C86.1963 222.358 100.527 225.208 115 225.208C129.473 225.208 143.804 222.358 157.175 216.819C170.546 211.281 182.695 203.163 192.929 192.929C203.163 182.695 211.281 170.546 216.819 157.175C222.358 143.804 225.208 129.473 225.208 115C225.208 100.527 222.358 86.1962 216.819 72.8251C211.281 59.454 203.163 47.3047 192.929 37.0709C182.695 26.8371 170.546 18.7192 157.175 13.1807C143.804 7.64225 129.473 4.79163 115 4.79163C100.527 4.79163 86.1963 7.64225 72.8252 13.1807C59.4541 18.7192 47.3048 26.8371 37.071 37.0709C26.8372 47.3047 18.7193 59.454 13.1809 72.8251C7.64237 86.1962 4.79175 100.527 4.79175 115Z" stroke="#A02006" stroke-width="5" stroke-linecap="round" stroke-linejoin="round"></path>
<path d="M100.625 115C100.625 118.812 102.14 122.469 104.835 125.165C107.531 127.86 111.188 129.375 115 129.375C118.812 129.375 122.469 127.86 125.165 125.165C127.86 122.469 129.375 118.812 129.375 115C129.375 111.188 127.86 107.531 125.165 104.835C122.469 102.14 118.812 100.625 115 100.625C111.188 100.625 107.531 102.14 104.835 104.835C102.14 107.531 100.625 111.188 100.625 115Z" fill="#FDDAD3" stroke="#A02006" stroke-width="5" stroke-linecap="round" stroke-linejoin="round"></path>
<path d="M125.168 104.842L172.596 57.4042" stroke="#A02006" stroke-width="5" stroke-linecap="round" stroke-linejoin="round"></path>
<path d="M23.4216 110.208H42.5883" stroke="#A02006" stroke-width="5" stroke-linecap="round" stroke-linejoin="round"></path>
<path d="M30.8774 149.835L48.597 142.504" stroke="#A02006" stroke-width="5" stroke-linecap="round" stroke-linejoin="round"></path>
<path d="M199.103 149.845L181.403 142.504" stroke="#A02006" stroke-width="5" stroke-linecap="round" stroke-linejoin="round"></path>
<path d="M206.032 110.208L186.875 110.199" stroke="#A02006" stroke-width="5" stroke-linecap="round" stroke-linejoin="round"></path>
<path d="M199.103 80.1646L181.403 87.4958" stroke="#A02006" stroke-width="5" stroke-linecap="round" stroke-linejoin="round"></path>
<path d="M155.883 30.8966L148.542 48.5874" stroke="#A02006" stroke-width="5" stroke-linecap="round" stroke-linejoin="round"></path>
<path d="M119.792 25.7312V44.8979" stroke="#A02006" stroke-width="5" stroke-linecap="round" stroke-linejoin="round"></path>
<path d="M80.1646 30.8871L87.4958 48.5875" stroke="#A02006" stroke-width="5" stroke-linecap="round" stroke-linejoin="round"></path>
<path d="M50.6287 50.6191L64.1699 64.17" stroke="#A02006" stroke-width="5" stroke-linecap="round" stroke-linejoin="round"></path>
<path d="M30.8967 80.155L48.5971 87.4959" stroke="#A02006" stroke-width="5" stroke-linecap="round" stroke-linejoin="round"></path>
<path d="M76.6667 158.125H153.333C153.333 158.125 158.125 158.125 158.125 162.917V182.083C158.125 182.083 158.125 186.875 153.333 186.875H76.6667C76.6667 186.875 71.875 186.875 71.875 182.083V162.917C71.875 162.917 71.875 158.125 76.6667 158.125Z" fill="#FDDAD3" stroke="#A02006" stroke-width="5" stroke-linecap="round" stroke-linejoin="round"></path>
</svg>