<svg width="230" height="230" viewBox="0 0 230 230" fill="none" xmlns="http://www.w3.org/2000/svg">
<path d="M52.7083 43.125H177.292C177.292 43.125 186.875 43.125 186.875 52.7083V177.292C186.875 177.292 186.875 186.875 177.292 186.875H52.7083C52.7083 186.875 43.125 186.875 43.125 177.292V52.7083C43.125 52.7083 43.125 43.125 52.7083 43.125Z" fill="#FDDAD3" stroke="#A02006" stroke-width="5" stroke-linecap="round" stroke-linejoin="round"></path>
<path d="M115 4.79167V43.125" stroke="#A02006" stroke-width="5" stroke-linecap="round" stroke-linejoin="round"></path>
<path d="M71.875 4.79167V43.125" stroke="#A02006" stroke-width="5" stroke-linecap="round" stroke-linejoin="round"></path>
<path d="M158.125 4.79167V43.125" stroke="#A02006" stroke-width="5" stroke-linecap="round" stroke-linejoin="round"></path>
<path d="M4.79169 115H43.125" stroke="#A02006" stroke-width="5" stroke-linecap="round" stroke-linejoin="round"></path>
<path d="M4.79169 158.125H43.125" stroke="#A02006" stroke-width="5" stroke-linecap="round" stroke-linejoin="round"></path>
<path d="M4.79169 71.875H43.125" stroke="#A02006" stroke-width="5" stroke-linecap="round" stroke-linejoin="round"></path>
<path d="M115 225.208V186.875" stroke="#A02006" stroke-width="5" stroke-linecap="round" stroke-linejoin="round"></path>
<path d="M158.125 225.208V186.875" stroke="#A02006" stroke-width="5" stroke-linecap="round" stroke-linejoin="round"></path>
<path d="M71.875 225.208V186.875" stroke="#A02006" stroke-width="5" stroke-linecap="round" stroke-linejoin="round"></path>
<path d="M225.208 115H186.875" stroke="#A02006" stroke-width="5" stroke-linecap="round" stroke-linejoin="round"></path>
<path d="M225.208 71.875H186.875" stroke="#A02006" stroke-width="5" stroke-linecap="round" stroke-linejoin="round"></path>
<path d="M225.208 158.125H186.875" stroke="#A02006" stroke-width="5" stroke-linecap="round" stroke-linejoin="round"></path>
<path d="M81.4587 64.7917H148.556C148.579 64.792 148.618 64.7928 148.674 64.7946C148.784 64.7983 148.959 64.8066 149.187 64.8229C149.645 64.8556 150.315 64.9222 151.126 65.0573C152.759 65.3295 154.898 65.8692 157.007 66.9235C159.106 67.9731 161.13 69.5084 162.633 71.7643C164.127 74.0047 165.209 77.1045 165.209 81.4587V148.542C165.209 148.545 165.208 148.55 165.208 148.556C165.207 148.579 165.207 148.618 165.205 148.674C165.201 148.784 165.194 148.959 165.177 149.187C165.145 149.645 165.078 150.315 164.943 151.126C164.671 152.759 164.131 154.898 163.077 157.007C162.027 159.106 160.492 161.13 158.236 162.633C155.996 164.127 152.896 165.209 148.542 165.209H81.4645L81.444 165.208C81.4217 165.207 81.382 165.207 81.3268 165.205C81.216 165.201 81.0414 165.194 80.8132 165.177C80.3556 165.145 79.6853 165.078 78.8747 164.943C77.2416 164.671 75.1019 164.131 72.9929 163.077C70.8937 162.027 68.8708 160.492 67.3669 158.236C65.8733 155.996 64.7917 152.896 64.7917 148.542V81.444C64.792 81.4217 64.7928 81.382 64.7946 81.3268C64.7983 81.216 64.8066 81.0414 64.8229 80.8132C64.8556 80.3556 64.9222 79.6853 65.0573 78.8747C65.3295 77.2415 65.869 75.1019 66.9235 72.9928C67.9731 70.8937 69.5085 68.8708 71.7643 67.3669C74.0047 65.8733 77.1045 64.7917 81.4587 64.7917Z" fill="#F86447" stroke="#A02006" stroke-width="5"></path>
<path d="M115 154.5C122.812 154.5 130.449 152.183 136.945 147.843C143.441 143.503 148.504 137.334 151.493 130.116C154.483 122.898 155.265 114.956 153.741 107.294C152.217 99.6317 148.455 92.5935 142.931 87.0693C137.407 81.5451 130.368 77.7831 122.706 76.259C115.044 74.7349 107.102 75.5171 99.884 78.5068C92.6663 81.4964 86.4973 86.5592 82.157 93.055C77.8166 99.5507 75.5 107.188 75.5 115C75.5 125.476 79.6616 135.523 87.0693 142.931C94.477 150.338 104.524 154.5 115 154.5Z" fill="#FBA897"></path>
<path d="M115 75.5C106.96 75.4936 99.1104 77.9426 92.5007 82.5192C85.891 87.0959 80.8366 93.582 78.0139 101.11C75.1911 108.637 74.7345 116.847 76.7053 124.642C78.676 132.436 82.9801 139.442 89.0415 144.724L144.723 89.0419C141.027 84.7886 136.46 81.3785 131.332 79.0423C126.205 76.706 120.635 75.498 115 75.5Z" fill="#FDDAD3"></path>
<path d="M115 154.5C122.812 154.5 130.449 152.183 136.945 147.843C143.441 143.503 148.504 137.334 151.493 130.116C154.483 122.898 155.265 114.956 153.741 107.294C152.217 99.6317 148.455 92.5935 142.931 87.0693C137.407 81.5451 130.368 77.7831 122.706 76.259C115.044 74.7349 107.102 75.5171 99.884 78.5068C92.6663 81.4964 86.4973 86.5592 82.157 93.055C77.8166 99.5507 75.5 107.188 75.5 115C75.5 125.476 79.6616 135.523 87.0693 142.931C94.477 150.338 104.524 154.5 115 154.5Z" stroke="#A02006" stroke-width="5" stroke-linecap="round" stroke-linejoin="round"></path>
<path d="M124.875 95.3687H111.465C109.411 95.3663 107.42 96.0798 105.835 97.3863C104.25 98.6929 103.17 100.511 102.78 102.528C102.39 104.544 102.716 106.634 103.7 108.437C104.684 110.24 106.266 111.643 108.173 112.406L121.754 117.838C123.657 118.603 125.235 120.007 126.216 121.809C127.197 123.61 127.52 125.697 127.131 127.71C126.742 129.724 125.664 131.54 124.082 132.846C122.501 134.152 120.514 134.867 118.463 134.869H105.125" stroke="#A02006" stroke-width="5" stroke-linecap="round" stroke-linejoin="round"></path>
<path d="M115 141.452V134.869" stroke="#A02006" stroke-width="5" stroke-linecap="round" stroke-linejoin="round"></path>
<path d="M115 95.3685V88.7852" stroke="#A02006" stroke-width="5" stroke-linecap="round" stroke-linejoin="round"></path>
</svg>