<svg width="230" height="230" viewBox="0 0 230 230" fill="none" xmlns="http://www.w3.org/2000/svg">
<path d="M158.125 4.79163H38.3333C30.7083 4.79163 23.3956 7.82064 18.0039 13.2123C12.6123 18.604 9.58325 25.9167 9.58325 33.5416V196.458C9.58325 197.729 10.0881 198.948 10.9867 199.847C11.8853 200.745 13.1041 201.25 14.3749 201.25H129.375C130.646 201.25 131.865 200.745 132.763 199.847C133.662 198.948 134.167 197.729 134.167 196.458V33.5416" fill="#FBA897"></path>
<path d="M150.458 4.79163H38.3333C30.7083 4.79163 23.3956 7.82063 18.0039 13.2123C12.6123 18.604 9.58325 25.9167 9.58325 33.5416V145.667L150.458 4.79163Z" fill="#FDDAD3"></path>
<path d="M158.125 4.79163H38.3333C30.7083 4.79163 23.3956 7.82064 18.0039 13.2123C12.6123 18.604 9.58325 25.9167 9.58325 33.5416V196.458C9.58325 197.729 10.0881 198.948 10.9867 199.847C11.8853 200.745 13.1041 201.25 14.3749 201.25H129.375C130.646 201.25 131.865 200.745 132.763 199.847C133.662 198.948 134.167 197.729 134.167 196.458V33.5416" stroke="#A02006" stroke-width="5" stroke-linecap="round" stroke-linejoin="round"></path>
<path d="M153.89 205.448H153.793" stroke="#A02006" stroke-width="5" stroke-linecap="round" stroke-linejoin="round"></path>
<path d="M193.66 152.26C192.364 153.94 191.663 156.003 191.667 158.125V197.905L153.908 205.467L164.642 196.842C165.966 195.755 166.809 194.19 166.989 192.486C167.168 190.782 166.669 189.076 165.6 187.738L147.2 167.421L140.396 170.2C137.78 171.284 134.857 171.366 132.185 170.429C129.513 169.491 127.281 167.601 125.916 165.121C124.551 162.64 124.149 159.743 124.787 156.985C125.426 154.226 127.059 151.8 129.375 150.171C129.883 149.796 130.429 149.475 131.004 149.213L148.733 140.588C150.669 139.625 152.782 139.07 154.941 138.954C157.1 138.839 159.26 139.166 161.287 139.917L193.66 152.26Z" fill="#FDDAD3" stroke="#A02006" stroke-width="5" stroke-linecap="round" stroke-linejoin="round"></path>
<path d="M158.106 162.897L147.181 167.402" stroke="#A02006" stroke-width="5" stroke-linecap="round" stroke-linejoin="round"></path>
<path d="M164.622 196.822L153.889 205.447H153.793L131.081 223.761C129.757 224.832 128.071 225.35 126.375 225.207C124.678 225.064 123.103 224.271 121.977 222.995L99.6667 206.042H86.25V158.125L113.563 146.539C115.21 145.89 116.967 145.564 118.738 145.58C121.731 145.576 124.649 146.519 127.075 148.273L129.375 150.19C127.059 151.819 125.426 154.245 124.787 157.004C124.149 159.762 124.551 162.659 125.916 165.14C127.281 167.621 129.513 169.511 132.185 170.448C134.857 171.385 137.78 171.304 140.396 170.219L147.2 167.44L165.6 187.757C166.655 189.095 167.144 190.794 166.961 192.489C166.778 194.184 165.939 195.739 164.622 196.822Z" fill="#FDDAD3" stroke="#A02006" stroke-width="5" stroke-linecap="round" stroke-linejoin="round"></path>
<path d="M86.25 158.125V206.042C86.25 208.583 85.2403 211.021 83.4431 212.818C81.6459 214.615 79.2083 215.625 76.6667 215.625H57.5V148.542H76.6667C79.2083 148.542 81.6459 149.551 83.4431 151.349C85.2403 153.146 86.25 155.583 86.25 158.125Z" fill="#F86447" stroke="#A02006" stroke-width="5" stroke-linecap="round" stroke-linejoin="round"></path>
<path d="M220.417 148.542V215.625H201.25C198.708 215.625 196.271 214.615 194.474 212.818C192.676 211.021 191.667 208.583 191.667 206.042V158.125C191.675 156.011 192.383 153.959 193.679 152.289C194.564 151.12 195.709 150.172 197.023 149.522C198.337 148.872 199.784 148.536 201.25 148.542H220.417Z" fill="#F86447" stroke="#A02006" stroke-width="5" stroke-linecap="round" stroke-linejoin="round"></path>
<path d="M38.3333 47.9166H105.417" stroke="#A02006" stroke-width="5" stroke-linecap="round" stroke-linejoin="round"></path>
<path d="M38.3333 76.6666H105.417" stroke="#A02006" stroke-width="5" stroke-linecap="round" stroke-linejoin="round"></path>
<path d="M38.3333 105.417H71.8749" stroke="#A02006" stroke-width="5" stroke-linecap="round" stroke-linejoin="round"></path>
<path d="M134.167 33.5416V28.75C134.167 22.3958 136.691 16.3019 141.184 11.8089C145.677 7.3158 151.771 4.79163 158.125 4.79163C171.35 4.79163 182.083 15.5154 182.083 33.5416H134.167Z" fill="#FBA897" stroke="#A02006" stroke-width="5" stroke-linecap="round" stroke-linejoin="round"></path>
</svg>