<svg width="231" height="232" viewBox="0 0 231 232" fill="none" xmlns="http://www.w3.org/2000/svg">
<path d="M33.6875 116C33.6875 137.792 42.307 158.691 57.6498 174.101C72.9926 189.51 93.802 198.167 115.5 198.167C137.198 198.167 158.007 189.51 173.35 174.101C188.693 158.691 197.312 137.792 197.312 116C197.312 94.2081 188.693 73.3087 173.35 57.8994C158.007 42.4902 137.198 33.8334 115.5 33.8334C93.802 33.8334 72.9926 42.4902 57.6498 57.8994C42.307 73.3087 33.6875 94.2081 33.6875 116Z" fill="#FBA897"></path>
<path d="M62.832 116C62.832 122.946 64.1943 129.825 66.8411 136.242C69.488 142.66 73.3675 148.491 78.2581 153.403C83.1488 158.315 88.9549 162.211 95.3449 164.87C101.735 167.528 108.584 168.896 115.5 168.896C122.416 168.896 129.265 167.528 135.655 164.87C142.045 162.211 147.851 158.315 152.742 153.403C157.633 148.491 161.512 142.66 164.159 136.242C166.806 129.825 168.168 122.946 168.168 116C168.168 109.054 166.806 102.175 164.159 95.7576C161.512 89.3399 157.633 83.5087 152.742 78.5969C147.851 73.685 142.045 69.7887 135.655 67.1305C129.265 64.4722 122.416 63.104 115.5 63.104C108.584 63.104 101.735 64.4722 95.3449 67.1305C88.9549 69.7887 83.1488 73.685 78.2581 78.5969C73.3675 83.5087 69.488 89.3399 66.8411 95.7576C64.1943 102.175 62.832 109.054 62.832 116Z" fill="#FDDAD3"></path>
<path d="M115.5 90.8667C127.058 90.8741 138.292 94.7011 147.47 101.757C156.647 108.813 163.258 118.707 166.282 129.91C168.432 122.059 168.749 113.814 167.207 105.82C165.665 97.825 162.305 90.2958 157.391 83.8188C152.476 77.3418 146.139 72.0919 138.873 68.478C131.607 64.8642 123.608 62.984 115.5 62.984C107.392 62.984 99.3931 64.8642 92.127 68.478C84.8609 72.0919 78.5237 77.3418 73.6092 83.8188C68.6947 90.2958 65.3355 97.825 63.7934 105.82C62.2513 113.814 62.5679 122.059 64.7185 129.91C67.7422 118.707 74.3527 108.813 83.5302 101.757C92.7077 94.7011 103.942 90.8741 115.5 90.8667Z" fill="#F86447"></path>
<path d="M176.137 195.586C177.387 197.259 178.062 199.294 178.062 201.386V207.833C178.062 210.397 177.048 212.856 175.243 214.669C173.438 216.482 170.99 217.5 168.438 217.5H62.5625C60.0098 217.5 57.5616 216.482 55.7566 214.669C53.9516 212.856 52.9375 210.397 52.9375 207.833V201.386C52.9375 199.294 53.613 197.259 54.8625 195.586L78.925 163.367C79.8215 162.166 80.9841 161.192 82.3206 160.521C83.6571 159.849 85.1308 159.5 86.625 159.5H144.375C145.869 159.5 147.343 159.849 148.679 160.521C150.016 161.192 151.178 162.166 152.075 163.367L176.137 195.586Z" fill="#FBA897"></path>
<path d="M53.515 198.167C53.1418 199.199 52.9465 200.288 52.9375 201.386V207.833C52.9375 210.397 53.9516 212.856 55.7566 214.669C57.5616 216.482 60.0098 217.5 62.5625 217.5H168.438C170.99 217.5 173.438 216.482 175.243 214.669C177.048 212.856 178.062 210.397 178.062 207.833V201.386C178.053 200.288 177.858 199.199 177.485 198.167H53.515Z" fill="#F86447"></path>
<path d="M176.137 195.586C177.387 197.259 178.062 199.294 178.062 201.386V207.833C178.062 210.397 177.048 212.856 175.243 214.669C173.438 216.482 170.99 217.5 168.438 217.5H62.5625C60.0098 217.5 57.5616 216.482 55.7566 214.669C53.9516 212.856 52.9375 210.397 52.9375 207.833V201.386C52.9375 199.294 53.613 197.259 54.8625 195.586L78.925 163.367C79.8215 162.166 80.9841 161.192 82.3206 160.521C83.6571 159.849 85.1308 159.5 86.625 159.5H144.375C145.869 159.5 147.343 159.849 148.679 160.521C150.016 161.192 151.178 162.166 152.075 163.367L176.137 195.586Z" stroke="#A02006" stroke-width="5" stroke-linecap="round" stroke-linejoin="round"></path>
<path d="M145.395 39.498L139.024 68.4304" stroke="#A02006" stroke-width="5" stroke-linecap="round" stroke-linejoin="round"></path>
<path d="M91.9766 68.4303L85.6433 39.6816" stroke="#A02006" stroke-width="5" stroke-linecap="round" stroke-linejoin="round"></path>
<path d="M50.7623 166.267C41.4113 154.113 35.6396 139.57 34.1021 124.288C32.5645 109.006 35.3227 93.5972 42.0637 79.8101C48.8046 66.0229 59.2585 54.4095 72.2389 46.2875C85.2193 38.1656 100.207 33.8604 115.5 33.8604C130.794 33.8604 145.781 38.1656 158.761 46.2875C171.742 54.4095 182.195 66.0229 188.936 79.8101C195.677 93.5972 198.436 109.006 196.898 124.288C195.36 139.57 189.589 154.113 180.238 166.267" stroke="#A02006" stroke-width="5" stroke-linecap="round" stroke-linejoin="round"></path>
<path d="M72.1875 217.5V227.167" stroke="#A02006" stroke-width="5" stroke-linecap="round" stroke-linejoin="round"></path>
<path d="M158.812 217.5V227.167" stroke="#A02006" stroke-width="5" stroke-linecap="round" stroke-linejoin="round"></path>
<path d="M160.295 143.724C165.228 135.712 167.942 126.521 168.154 117.103C168.367 107.684 166.072 98.3797 161.505 90.1507C156.938 81.9218 150.266 75.067 142.178 70.2951C134.09 65.5231 124.88 63.0071 115.5 63.0071C106.12 63.0071 96.9098 65.5231 88.822 70.2951C80.7341 75.067 74.062 81.9218 69.4953 90.1507C64.9285 98.3797 62.6329 107.684 62.8456 117.103C63.0583 126.521 65.7717 135.712 70.7053 143.724" stroke="#A02006" stroke-width="5" stroke-linecap="round" stroke-linejoin="round"></path>
</svg>