<svg width="230" height="230" viewBox="0 0 230 230" fill="none" xmlns="http://www.w3.org/2000/svg">
<path d="M177.292 225.208H14.3751C11.8334 225.208 9.39586 224.199 7.59864 222.401C5.80142 220.604 4.79175 218.167 4.79175 215.625V14.375C4.79175 11.8333 5.80142 9.39574 7.59864 7.59852C9.39586 5.8013 11.8334 4.79163 14.3751 4.79163H141.833C144.352 4.80986 146.761 5.81854 148.542 7.59954L184.086 43.125C185.884 44.9218 186.894 47.3589 186.894 49.9004V215.625C186.894 216.885 186.646 218.133 186.163 219.297C185.68 220.461 184.973 221.518 184.081 222.408C183.189 223.298 182.13 224.004 180.965 224.484C179.8 224.965 178.552 225.211 177.292 225.208Z" fill="#FBA897"></path>
<path d="M164.536 23.5462L148.542 7.55161C146.737 5.77183 144.301 4.77943 141.766 4.79161H14.3751C11.8334 4.79161 9.39587 5.80128 7.59864 7.59851C5.80142 9.39573 4.79175 11.8333 4.79175 14.3749V183.3L164.536 23.5462Z" fill="#FDDAD3"></path>
<path d="M106.059 225.208H14.3751C11.8334 225.208 9.39586 224.199 7.59864 222.401C5.80142 220.604 4.79175 218.167 4.79175 215.625V14.375C4.79175 11.8333 5.80142 9.39574 7.59864 7.59852C9.39586 5.8013 11.8334 4.79163 14.3751 4.79163H141.833C144.352 4.80986 146.761 5.81854 148.542 7.59954L184.086 43.125C185.884 44.9218 186.894 47.3589 186.894 49.9004V87.1029" stroke="#A02006" stroke-width="5" stroke-linecap="round" stroke-linejoin="round"></path>
<path d="M28.9512 138.958H86.4512" stroke="#A02006" stroke-width="5" stroke-linecap="round" stroke-linejoin="round"></path>
<path d="M43.3263 91.0416H52.9097C54.1805 91.0416 55.3993 91.5465 56.2979 92.4451C57.1965 93.3437 57.7013 94.5625 57.7013 95.8333V138.958H38.5347V95.8333C38.5347 94.5625 39.0395 93.3437 39.9381 92.4451C40.8367 91.5465 42.0555 91.0416 43.3263 91.0416Z" fill="#F86447" stroke="#A02006" stroke-width="5" stroke-linecap="round" stroke-linejoin="round"></path>
<path d="M96.0346 138.958V67.0833C96.0346 65.8125 95.5298 64.5937 94.6311 63.6951C93.7325 62.7965 92.5137 62.2916 91.2429 62.2916H81.6596C80.3888 62.2916 79.17 62.7965 78.2714 63.6951C77.3728 64.5937 76.8679 65.8125 76.8679 67.0833V138.958H96.0346Z" fill="#F86447" stroke="#A02006" stroke-width="5" stroke-linecap="round" stroke-linejoin="round"></path>
<path d="M167.708 225.208C179.081 225.208 190.198 221.836 199.654 215.518C209.109 209.2 216.479 200.219 220.831 189.713C225.183 179.206 226.322 167.644 224.103 156.491C221.885 145.337 216.408 135.091 208.367 127.05C200.325 119.008 190.08 113.532 178.926 111.313C167.772 109.094 156.211 110.233 145.704 114.585C135.197 118.937 126.217 126.307 119.899 135.763C113.581 145.219 110.208 156.336 110.208 167.708C110.208 182.958 116.266 197.584 127.05 208.367C137.833 219.15 152.458 225.208 167.708 225.208Z" fill="#FBA897"></path>
<path d="M167.708 110.208C156.015 110.223 144.604 113.802 134.997 120.469C125.391 127.135 118.045 136.572 113.94 147.521C109.834 158.47 109.165 170.41 112.02 181.749C114.875 193.089 121.12 203.288 129.921 210.987L210.977 129.931C205.598 123.737 198.951 118.77 191.486 115.367C184.021 111.965 175.912 110.205 167.708 110.208Z" fill="#FDDAD3"></path>
<path d="M167.708 225.208C179.081 225.208 190.198 221.836 199.654 215.518C209.109 209.2 216.479 200.219 220.831 189.713C225.183 179.206 226.322 167.644 224.103 156.491C221.885 145.337 216.408 135.091 208.367 127.05C200.325 119.008 190.08 113.532 178.926 111.313C167.772 109.094 156.211 110.233 145.704 114.585C135.197 118.937 126.217 126.307 119.899 135.763C113.581 145.219 110.208 156.336 110.208 167.708C110.208 182.958 116.266 197.584 127.05 208.367C137.833 219.15 152.458 225.208 167.708 225.208Z" stroke="#A02006" stroke-width="5" stroke-linecap="round" stroke-linejoin="round"></path>
<path d="M193.334 151.033L165.543 188.159C164.924 188.982 164.137 189.663 163.233 190.155C162.329 190.647 161.33 190.94 160.303 191.012C159.276 191.085 158.246 190.936 157.281 190.576C156.317 190.216 155.441 189.653 154.713 188.926L140.338 174.551" stroke="#A02006" stroke-width="5" stroke-linecap="round" stroke-linejoin="round"></path>
</svg>