<svg width="230" height="230" viewBox="0 0 230 230" fill="none" xmlns="http://www.w3.org/2000/svg">
<path d="M23.9584 52.7084V177.292C23.9584 198.471 64.7259 215.625 115 215.625C165.274 215.625 206.042 198.471 206.042 177.292V52.7084H23.9584Z" fill="#FBA897"></path>
<path d="M115 52.7084H23.9584V177.292C23.9584 198.471 64.7259 215.625 115 215.625V52.7084Z" fill="#FDDAD3"></path>
<path d="M23.9584 52.7084V177.292C23.9584 198.471 64.7259 215.625 115 215.625C165.274 215.625 206.042 198.471 206.042 177.292V52.7084" stroke="#A02006" stroke-width="5" stroke-linecap="round" stroke-linejoin="round"></path>
<path d="M23.9679 52.7179C23.9679 57.7519 26.3228 62.7366 30.898 67.3874C35.4733 72.0382 42.1794 76.264 50.6334 79.8236C59.0874 83.3832 69.1237 86.2068 80.1694 88.1332C91.2151 90.0597 103.054 91.0512 115.01 91.0512C126.965 91.0512 138.804 90.0597 149.85 88.1332C160.895 86.2068 170.932 83.3832 179.386 79.8236C187.84 76.264 194.546 72.0382 199.121 67.3874C203.696 62.7366 206.051 57.7519 206.051 52.7179C206.051 47.6838 203.696 42.6991 199.121 38.0483C194.546 33.3975 187.84 29.1717 179.386 25.6121C170.932 22.0525 160.895 19.2289 149.85 17.3025C138.804 15.376 126.965 14.3845 115.01 14.3845C103.054 14.3845 91.2151 15.376 80.1694 17.3025C69.1237 19.2289 59.0874 22.0525 50.6334 25.6121C42.1794 29.1717 35.4733 33.3975 30.898 38.0483C26.3228 42.6991 23.9679 47.6838 23.9679 52.7179Z" fill="#FBA897" stroke="#A02006" stroke-width="5" stroke-linecap="round" stroke-linejoin="round"></path>
<path d="M206.042 91.0416C206.042 112.221 165.274 129.375 115 129.375C64.7259 129.375 23.9584 112.221 23.9584 91.0416" stroke="#A02006" stroke-width="5" stroke-linecap="round" stroke-linejoin="round"></path>
<path d="M206.042 134.167C206.042 155.346 165.274 172.5 115 172.5C64.7259 172.5 23.9584 155.346 23.9584 134.167" stroke="#A02006" stroke-width="5" stroke-linecap="round" stroke-linejoin="round"></path>
</svg>