<svg width="230" height="230" viewBox="0 0 230 230" fill="none" xmlns="http://www.w3.org/2000/svg">
<path d="M4.79163 43.125V167.708C4.79163 188.888 45.5591 206.042 95.8333 206.042C146.107 206.042 186.875 188.888 186.875 167.708V43.125H4.79163Z" fill="#FBA897"></path>
<path d="M95.8333 43.125H4.79163V167.708C4.79163 188.888 45.5591 206.042 95.8333 206.042V43.125Z" fill="#FDDAD3"></path>
<path d="M4.80127 43.125C4.80127 53.2916 14.3931 63.0418 31.4668 70.2307C48.5404 77.4196 71.6972 81.4583 95.8429 81.4583C119.989 81.4583 143.145 77.4196 160.219 70.2307C177.293 63.0418 186.885 53.2916 186.885 43.125C186.885 32.9583 177.293 23.2081 160.219 16.0192C143.145 8.83031 119.989 4.79163 95.8429 4.79163C71.6972 4.79163 48.5404 8.83031 31.4668 16.0192C14.3931 23.2081 4.80127 32.9583 4.80127 43.125Z" fill="#FBA897"></path>
<path d="M4.80127 43.125C4.80127 53.2916 14.3931 63.0418 31.4668 70.2307C48.5404 77.4196 71.6972 81.4583 95.8429 81.4583C119.989 81.4583 143.145 77.4196 160.219 70.2307C177.293 63.0418 186.885 53.2916 186.885 43.125C186.885 32.9583 177.293 23.2081 160.219 16.0192C143.145 8.83031 119.989 4.79163 95.8429 4.79163C71.6972 4.79163 48.5404 8.83031 31.4668 16.0192C14.3931 23.2081 4.80127 32.9583 4.80127 43.125Z" stroke="#A02006" stroke-width="5" stroke-linecap="round" stroke-linejoin="round"></path>
<path d="M140.08 113.84C125.78 118.086 110.91 120.093 95.9963 119.792C45.7221 119.792 4.95459 102.638 4.95459 81.4584" stroke="#A02006" stroke-width="5" stroke-linecap="round" stroke-linejoin="round"></path>
<path d="M105.618 162.706C102.462 162.846 99.2674 162.917 96.0346 162.917C45.7604 162.917 4.99292 145.763 4.99292 124.583" stroke="#A02006" stroke-width="5" stroke-linecap="round" stroke-linejoin="round"></path>
<path d="M187.076 86.25V43.125" stroke="#A02006" stroke-width="5" stroke-linecap="round" stroke-linejoin="round"></path>
<path d="M4.79163 43.125V167.708C4.79163 188.888 45.5591 206.042 95.8333 206.042C99.0725 206.042 102.273 205.975 105.417 205.831" stroke="#A02006" stroke-width="5" stroke-linecap="round" stroke-linejoin="round"></path>
<path d="M225.208 215.625C225.208 218.167 224.199 220.604 222.401 222.401C220.604 224.199 218.167 225.208 215.625 225.208H148.542C146 225.208 143.562 224.199 141.765 222.401C139.968 220.604 138.958 218.167 138.958 215.625V158.125C138.958 155.583 139.968 153.146 141.765 151.349C143.562 149.551 146 148.542 148.542 148.542H215.625C218.167 148.542 220.604 149.551 222.401 151.349C224.199 153.146 225.208 155.583 225.208 158.125V215.625Z" fill="#F86447"></path>
<path d="M182.083 148.542H148.542C146 148.542 143.562 149.551 141.765 151.349C139.968 153.146 138.958 155.583 138.958 158.125V215.625C138.958 218.167 139.968 220.604 141.765 222.401C143.562 224.199 146 225.208 148.542 225.208H182.083V148.542Z" fill="#FBA897"></path>
<path d="M225.208 215.625C225.208 218.167 224.199 220.604 222.401 222.401C220.604 224.199 218.167 225.208 215.625 225.208H148.542C146 225.208 143.562 224.199 141.765 222.401C139.968 220.604 138.958 218.167 138.958 215.625V158.125C138.958 155.583 139.968 153.146 141.765 151.349C143.562 149.551 146 148.542 148.542 148.542H215.625C218.167 148.542 220.604 149.551 222.401 151.349C224.199 153.146 225.208 155.583 225.208 158.125V215.625Z" stroke="#A02006" stroke-width="5" stroke-linecap="round" stroke-linejoin="round"></path>
<path d="M170.104 187.479C170.104 189.052 170.414 190.61 171.016 192.063C171.618 193.516 172.5 194.837 173.613 195.949C174.725 197.062 176.046 197.944 177.499 198.546C178.952 199.148 180.51 199.458 182.083 199.458C183.656 199.458 185.214 199.148 186.668 198.546C188.121 197.944 189.441 197.062 190.554 195.949C191.666 194.837 192.549 193.516 193.151 192.063C193.753 190.61 194.062 189.052 194.062 187.479C194.062 185.906 193.753 184.348 193.151 182.895C192.549 181.441 191.666 180.121 190.554 179.008C189.441 177.896 188.121 177.013 186.668 176.411C185.214 175.809 183.656 175.5 182.083 175.5C180.51 175.5 178.952 175.809 177.499 176.411C176.046 177.013 174.725 177.896 173.613 179.008C172.5 180.121 171.618 181.441 171.016 182.895C170.414 184.348 170.104 185.906 170.104 187.479Z" fill="#FDDAD3" stroke="#A02006" stroke-width="5" stroke-linecap="round" stroke-linejoin="round"></path>
<path d="M206.042 134.167C206.042 127.813 203.517 121.719 199.024 117.226C194.531 112.733 188.437 110.208 182.083 110.208C175.729 110.208 169.635 112.733 165.142 117.226C160.649 121.719 158.125 127.813 158.125 134.167V148.542H206.042V134.167Z" stroke="#A02006" stroke-width="5" stroke-linecap="round" stroke-linejoin="round"></path>
</svg>