<svg width="230" height="230" viewBox="0 0 230 230" fill="none" xmlns="http://www.w3.org/2000/svg">
<path d="M162.15 111.071C157.838 134.262 132.058 149.979 117.875 152.087C116.863 152.269 115.837 152.366 114.808 152.375C113.946 152.375 112.988 152.279 111.933 152.183C97.75 150.171 71.7792 134.358 67.4667 110.975C82.2732 103.986 98.446 100.369 114.819 100.386C131.192 100.402 147.358 104.052 162.15 111.071Z" fill="#FDDAD3"></path>
<path d="M167.708 103.308C166.277 103.965 165.03 104.965 164.078 106.219C163.125 107.472 162.496 108.941 162.246 110.496C162.246 110.688 162.15 110.879 162.15 111.071C147.358 104.052 131.192 100.402 114.819 100.386C98.446 100.369 82.2732 103.986 67.4667 110.975C67.4667 110.783 67.3709 110.688 67.3709 110.496C67.1209 108.941 66.4917 107.472 65.5389 106.219C64.5862 104.965 63.3393 103.965 61.9083 103.308C51.5583 98.6125 48.9708 79.8292 57.3083 75.7083H57.5V62.2917H172.5V75.7083H172.308C180.646 79.8292 178.058 98.6125 167.708 103.308Z" fill="#FDDAD3"></path>
<path d="M172.5 23.9583V62.2917H57.5V23.9583C57.5 18.875 59.5193 13.9999 63.1138 10.4055C66.7082 6.81101 71.5834 4.79167 76.6667 4.79167H153.333C158.417 4.79167 163.292 6.81101 166.886 10.4055C170.481 13.9999 172.5 18.875 172.5 23.9583Z" fill="#FBA897"></path>
<path d="M86.25 33.5417C86.25 41.1666 89.279 48.4793 94.6707 53.871C100.062 59.2627 107.375 62.2917 115 62.2917C122.625 62.2917 129.938 59.2627 135.329 53.871C140.721 48.4793 143.75 41.1666 143.75 33.5417C143.75 25.9167 140.721 18.604 135.329 13.2124C129.938 7.82068 122.625 4.79167 115 4.79167C107.375 4.79167 100.062 7.82068 94.6707 13.2124C89.279 18.604 86.25 25.9167 86.25 33.5417Z" fill="#FDDAD3"></path>
<path d="M225.208 215.625V225.208H4.79164V215.625C4.78577 207.809 7.1693 200.178 11.6227 193.755C16.0761 187.331 22.3866 182.423 29.7083 179.687L111.933 152.183C112.987 152.279 113.946 152.375 114.808 152.375C115.837 152.366 116.863 152.269 117.875 152.087L200.292 179.687C207.613 182.423 213.924 187.331 218.377 193.755C222.831 200.178 225.214 207.809 225.208 215.625Z" fill="#F86447"></path>
<path d="M200.09 179.965L115 151.417L29.5071 179.965C22.1855 182.701 15.875 187.609 11.4215 194.033C6.96813 200.456 4.5846 208.087 4.59046 215.903V225.486H9.44921C13.8445 217.473 20.958 211.295 29.5071 208.064L95.4405 186.022C108.143 181.767 121.886 181.767 134.588 186.022L200.09 208.016C208.64 211.247 215.753 217.425 220.148 225.438H225.007V215.855C225.003 208.047 222.615 200.427 218.162 194.013C213.71 187.599 207.404 182.698 200.09 179.965Z" fill="#FDDAD3"></path>
<path d="M153.333 4.79167C158.412 4.80684 163.278 6.83105 166.87 10.4222C170.461 14.0134 172.485 18.8797 172.5 23.9583V75.7083H172.308C180.675 79.8963 178.058 98.7083 167.718 103.395C166.285 104.043 165.033 105.035 164.074 106.281C163.114 107.528 162.477 108.992 162.217 110.544C157.972 135.882 128.139 152.375 114.808 152.375C101.478 152.375 71.6834 135.882 67.3996 110.544C67.14 108.992 66.5023 107.528 65.543 106.281C64.5836 105.035 63.3321 104.043 61.8988 103.395C51.5296 98.7083 48.9326 79.8579 57.3084 75.7083H57.5001V23.9583C57.5001 18.875 59.5194 13.9999 63.1138 10.4055C66.7083 6.81101 71.5834 4.79167 76.6667 4.79167" stroke="#A02006" stroke-width="5" stroke-linecap="round" stroke-linejoin="round"></path>
<path d="M115 177.292V225.208" stroke="#A02006" stroke-width="5" stroke-linecap="round" stroke-linejoin="round"></path>
<path d="M136.562 210.833C137.198 210.833 137.807 211.086 138.257 211.535C138.706 211.984 138.958 212.594 138.958 213.229" stroke="#A02006" stroke-width="5" stroke-linecap="round" stroke-linejoin="round"></path>
<path d="M134.167 213.229C134.167 212.594 134.419 211.984 134.868 211.535C135.318 211.086 135.927 210.833 136.562 210.833" stroke="#A02006" stroke-width="5" stroke-linecap="round" stroke-linejoin="round"></path>
<path d="M136.562 215.625C135.927 215.625 135.318 215.373 134.868 214.923C134.419 214.474 134.167 213.865 134.167 213.229" stroke="#A02006" stroke-width="5" stroke-linecap="round" stroke-linejoin="round"></path>
<path d="M138.958 213.229C138.958 213.865 138.706 214.474 138.257 214.923C137.807 215.373 137.198 215.625 136.562 215.625" stroke="#A02006" stroke-width="5" stroke-linecap="round" stroke-linejoin="round"></path>
<path d="M136.562 186.875C137.198 186.875 137.807 187.127 138.257 187.577C138.706 188.026 138.958 188.635 138.958 189.271" stroke="#A02006" stroke-width="5" stroke-linecap="round" stroke-linejoin="round"></path>
<path d="M134.167 189.271C134.167 188.635 134.419 188.026 134.868 187.577C135.318 187.127 135.927 186.875 136.562 186.875" stroke="#A02006" stroke-width="5" stroke-linecap="round" stroke-linejoin="round"></path>
<path d="M136.562 191.667C135.927 191.667 135.318 191.414 134.868 190.965C134.419 190.516 134.167 189.906 134.167 189.271" stroke="#A02006" stroke-width="5" stroke-linecap="round" stroke-linejoin="round"></path>
<path d="M138.958 189.271C138.958 189.906 138.706 190.516 138.257 190.965C137.807 191.414 137.198 191.667 136.562 191.667" stroke="#A02006" stroke-width="5" stroke-linecap="round" stroke-linejoin="round"></path>
<path d="M162.112 111.1C147.332 104.069 131.174 100.415 114.807 100.402C98.441 100.389 82.2767 104.017 67.4858 111.023" stroke="#A02006" stroke-width="5" stroke-linecap="round" stroke-linejoin="round"></path>
<path d="M105.417 86.25C104.402 84.6596 102.974 83.3742 101.287 82.5305C99.5993 81.6867 97.7147 81.3162 95.8333 81.4583C93.952 81.3162 92.0673 81.6867 90.3798 82.5305C88.6923 83.3742 87.2651 84.6596 86.25 86.25" stroke="#A02006" stroke-width="5" stroke-linecap="round" stroke-linejoin="round"></path>
<path d="M143.75 86.25C142.735 84.6596 141.308 83.3742 139.62 82.5305C137.933 81.6867 136.048 81.3162 134.167 81.4583C132.285 81.3162 130.401 81.6867 128.713 82.5305C127.026 83.3742 125.598 84.6596 124.583 86.25" stroke="#A02006" stroke-width="5" stroke-linecap="round" stroke-linejoin="round"></path>
<path d="M62.2916 220.417V191.667" stroke="#A02006" stroke-width="5" stroke-linecap="round" stroke-linejoin="round"></path>
<path d="M47.9166 206.042H76.6666" stroke="#A02006" stroke-width="5" stroke-linecap="round" stroke-linejoin="round"></path>
<path d="M86.25 33.5417C86.25 41.1666 89.279 48.4793 94.6707 53.871C100.062 59.2627 107.375 62.2917 115 62.2917C122.625 62.2917 129.938 59.2627 135.329 53.871C140.721 48.4793 143.75 41.1666 143.75 33.5417C143.75 25.9167 140.721 18.604 135.329 13.2124C129.938 7.82068 122.625 4.79167 115 4.79167C107.375 4.79167 100.062 7.82068 94.6707 13.2124C89.279 18.604 86.25 25.9167 86.25 33.5417Z" stroke="#A02006" stroke-width="5" stroke-linecap="round" stroke-linejoin="round"></path>
<path d="M115 31.1458C115.474 31.1458 115.937 31.2863 116.331 31.5496C116.725 31.8129 117.032 32.187 117.213 32.6248C117.395 33.0626 117.442 33.5443 117.35 34.0091C117.257 34.4738 117.029 34.9007 116.694 35.2358C116.359 35.5708 115.932 35.799 115.467 35.8915C115.003 35.9839 114.521 35.9365 114.083 35.7551C113.645 35.5738 113.271 35.2667 113.008 34.8727C112.745 34.4787 112.604 34.0155 112.604 33.5417C112.604 32.9062 112.857 32.2969 113.306 31.8476C113.755 31.3982 114.365 31.1458 115 31.1458Z" stroke="#A02006" stroke-width="5" stroke-linecap="round" stroke-linejoin="round"></path>
<path d="M225.208 225.208V215.625C225.204 207.817 222.816 200.197 218.364 193.783C213.911 187.369 207.606 182.468 200.292 179.735L153.333 163.961" stroke="#A02006" stroke-width="5" stroke-linecap="round" stroke-linejoin="round"></path>
<path d="M76.6666 163.961L29.7083 179.735C22.3943 182.468 16.0891 187.369 11.6364 193.783C7.1836 200.197 4.79553 207.817 4.79163 215.625V225.208" stroke="#A02006" stroke-width="5" stroke-linecap="round" stroke-linejoin="round"></path>
<path d="M57.5 62.2917H71.875" stroke="#A02006" stroke-width="5" stroke-linecap="round" stroke-linejoin="round"></path>
<path d="M158.125 62.2917H172.5" stroke="#A02006" stroke-width="5" stroke-linecap="round" stroke-linejoin="round"></path>
</svg>