<svg width="230" height="230" viewBox="0 0 230 230" fill="none" xmlns="http://www.w3.org/2000/svg">
<path d="M19.1667 105.417C19.1667 130.833 29.2634 155.209 47.2356 173.181C65.2079 191.153 89.5834 201.25 115 201.25C140.417 201.25 164.792 191.153 182.764 173.181C200.737 155.209 210.833 130.833 210.833 105.417C210.833 80.0001 200.737 55.6245 182.764 37.6523C164.792 19.6801 140.417 9.58337 115 9.58337C89.5834 9.58337 65.2079 19.6801 47.2356 37.6523C29.2634 55.6245 19.1667 80.0001 19.1667 105.417Z" fill="#FDDAD3"></path>
<path d="M196.458 69.2779V136.361L138.862 147.286C138.942 146.844 138.974 146.394 138.958 145.945H143.75C146.421 145.954 149.04 145.214 151.311 143.807C153.581 142.401 155.411 140.386 156.592 137.99C157.778 135.603 158.28 132.934 158.043 130.278C157.806 127.623 156.84 125.085 155.25 122.945L124.487 83.557L104.746 90.0737C102.024 90.9349 99.0773 90.7419 96.4908 89.533C93.9043 88.324 91.8665 86.1874 90.7812 83.5466C89.6959 80.9058 89.6425 77.9536 90.6315 75.2753C91.6205 72.5969 93.5797 70.388 96.1208 69.0862L101.104 66.5945L129.279 52.6029C132.095 51.1815 135.173 50.3544 138.322 50.1731C141.471 49.9917 144.623 50.46 147.583 51.5487L196.458 69.2779Z" fill="#FDDAD3"></path>
<path d="M156.611 138C155.43 140.395 153.6 142.411 151.33 143.817C149.059 145.223 146.44 145.964 143.769 145.954H138.978C138.993 146.404 138.961 146.853 138.882 147.296C138.668 149.817 137.868 152.253 136.544 154.41C135.221 156.567 133.411 158.383 131.259 159.715C129.108 161.047 126.675 161.857 124.154 162.08C121.634 162.303 119.096 161.933 116.744 161L115.019 160.329V166.367C115 169.04 114.167 171.645 112.631 173.833C111.094 176.021 108.928 177.689 106.42 178.616C103.912 179.542 101.181 179.682 98.5912 179.018C96.0015 178.353 93.6756 176.915 91.9234 174.896L57.5 136.361H33.5417V78.8613L77.7209 61.1321C80.9767 59.8519 84.5039 59.4178 87.9729 59.8703C91.442 60.3228 94.7398 61.6471 97.5584 63.7196L101.104 66.5946L96.1209 69.0863C93.5798 70.388 91.6206 72.597 90.6316 75.2754C89.6426 77.9537 89.696 80.9059 90.7813 83.5467C91.8665 86.1875 93.9044 88.3241 96.4909 89.5331C99.0774 90.742 102.024 90.935 104.746 90.0738L124.488 83.5571L155.25 122.945C156.845 125.084 157.816 127.623 158.056 130.28C158.296 132.938 157.796 135.61 156.611 138Z" fill="#FDDAD3"></path>
<path d="M151.1 117.597L155.269 122.945C156.859 125.085 157.825 127.623 158.062 130.278C158.299 132.934 157.797 135.603 156.611 137.99C155.43 140.386 153.6 142.401 151.33 143.807C149.059 145.214 146.44 145.954 143.769 145.945H138.977C138.993 146.394 138.961 146.844 138.882 147.286L196.477 136.361V108.215C181.659 112.677 166.474 115.817 151.1 117.597Z" fill="#FBA897"></path>
<path d="M151.1 117.597C139.754 118.922 128.34 119.584 116.917 119.581C88.6444 119.734 60.519 115.506 33.5417 107.046V136.361H57.5L91.9042 174.886C93.657 176.906 95.9837 178.344 98.5744 179.009C101.165 179.673 103.897 179.532 106.405 178.604C108.914 177.677 111.08 176.007 112.616 173.817C114.151 171.628 114.983 169.022 115 166.348V160.32L116.725 160.99C119.077 161.924 121.615 162.294 124.135 162.07C126.655 161.847 129.089 161.037 131.24 159.706C133.392 158.374 135.201 156.557 136.525 154.4C137.849 152.244 138.649 149.808 138.863 147.286C138.942 146.844 138.974 146.394 138.958 145.945H143.75C146.421 145.954 149.04 145.214 151.311 143.808C153.581 142.401 155.411 140.386 156.592 137.99C157.778 135.603 158.28 132.934 158.043 130.278C157.806 127.623 156.84 125.085 155.25 122.945L151.1 117.597Z" fill="#FBA897"></path>
<path d="M138.977 78.8612L124.507 83.557" stroke="#A02006" stroke-width="5" stroke-linecap="round" stroke-linejoin="round"></path>
<path d="M196.458 69.2779V136.361L138.862 147.286C138.942 146.844 138.974 146.394 138.958 145.945H143.75C146.421 145.954 149.04 145.214 151.311 143.807C153.581 142.401 155.411 140.386 156.592 137.99C157.778 135.603 158.28 132.934 158.043 130.278C157.806 127.623 156.84 125.085 155.25 122.945L124.487 83.557L104.746 90.0737C102.024 90.9349 99.0773 90.7419 96.4908 89.533C93.9043 88.324 91.8665 86.1874 90.7812 83.5466C89.6959 80.9058 89.6425 77.9536 90.6315 75.2753C91.6205 72.5969 93.5797 70.388 96.1208 69.0862L101.104 66.5945L129.279 52.6029C132.095 51.1815 135.173 50.3544 138.322 50.1731C141.471 49.9917 144.623 50.46 147.583 51.5487L196.458 69.2779Z" stroke="#A02006" stroke-width="5" stroke-linecap="round" stroke-linejoin="round"></path>
<path d="M156.611 138C155.43 140.395 153.6 142.411 151.33 143.817C149.059 145.223 146.44 145.964 143.769 145.954H138.978C138.993 146.404 138.961 146.853 138.882 147.296C138.668 149.817 137.868 152.253 136.544 154.41C135.221 156.567 133.411 158.383 131.259 159.715C129.108 161.047 126.675 161.857 124.154 162.08C121.634 162.303 119.096 161.933 116.744 161L115.019 160.329V166.367C115 169.04 114.167 171.645 112.631 173.833C111.094 176.021 108.928 177.689 106.42 178.616C103.912 179.542 101.181 179.682 98.5912 179.018C96.0015 178.353 93.6756 176.915 91.9234 174.896L57.5 136.361H33.5417V78.8613L77.7209 61.1321C80.9767 59.8519 84.5039 59.4178 87.9729 59.8703C91.442 60.3228 94.7398 61.6471 97.5584 63.7196L101.104 66.5946L96.1209 69.0863C93.5798 70.388 91.6206 72.597 90.6316 75.2754C89.6426 77.9537 89.696 80.9059 90.7813 83.5467C91.8665 86.1875 93.9044 88.3241 96.4909 89.5331C99.0774 90.742 102.024 90.935 104.746 90.0738L124.488 83.5571L155.25 122.945C156.845 125.084 157.816 127.623 158.056 130.28C158.296 132.938 157.796 135.61 156.611 138Z" stroke="#A02006" stroke-width="5" stroke-linecap="round" stroke-linejoin="round"></path>
<path d="M4.79169 59.6946H23.9584C26.5 59.6946 28.9376 60.7042 30.7348 62.5015C32.532 64.2987 33.5417 66.7363 33.5417 69.2779V136.361C33.5417 138.903 32.532 141.34 30.7348 143.138C28.9376 144.935 26.5 145.945 23.9584 145.945H4.79169" fill="#F86447"></path>
<path d="M4.79169 59.6946H23.9584C26.5 59.6946 28.9376 60.7042 30.7348 62.5015C32.532 64.2987 33.5417 66.7363 33.5417 69.2779V136.361C33.5417 138.903 32.532 141.34 30.7348 143.138C28.9376 144.935 26.5 145.945 23.9584 145.945H4.79169" stroke="#A02006" stroke-width="5" stroke-linecap="round" stroke-linejoin="round"></path>
<path d="M225.208 145.945H206.042C203.5 145.945 201.062 144.935 199.265 143.138C197.468 141.34 196.458 138.903 196.458 136.361V69.2779C196.458 66.7363 197.468 64.2987 199.265 62.5015C201.062 60.7042 203.5 59.6946 206.042 59.6946H225.208" fill="#F86447"></path>
<path d="M225.208 145.945H206.042C203.5 145.945 201.062 144.935 199.265 143.138C197.468 141.34 196.458 138.903 196.458 136.361V69.2779C196.458 66.7363 197.468 64.2987 199.265 62.5015C201.062 60.7042 203.5 59.6946 206.042 59.6946H225.208" stroke="#A02006" stroke-width="5" stroke-linecap="round" stroke-linejoin="round"></path>
<path d="M115 160.32L105.417 150.736" stroke="#A02006" stroke-width="5" stroke-linecap="round" stroke-linejoin="round"></path>
<path d="M124.583 131.57L138.958 145.945" stroke="#A02006" stroke-width="5" stroke-linecap="round" stroke-linejoin="round"></path>
</svg>