<svg width="230" height="230" viewBox="0 0 230 230" fill="none" xmlns="http://www.w3.org/2000/svg">
<path d="M220.417 62.2917H57.5C56.2292 62.2917 55.0104 62.7965 54.1118 63.6951C53.2132 64.5937 52.7083 65.8125 52.7083 67.0833V182.083C52.7083 188.437 50.1842 194.531 45.6911 199.024C41.198 203.517 35.1041 206.042 28.75 206.042H196.458C204.083 206.042 211.396 203.013 216.788 197.621C222.179 192.229 225.208 184.917 225.208 177.292V67.0833C225.208 65.8125 224.704 64.5937 223.805 63.6951C222.906 62.7965 221.688 62.2917 220.417 62.2917Z" fill="#FBA897"></path>
<path d="M207.46 62.2917H57.5C56.2292 62.2917 55.0104 62.7965 54.1118 63.6951C53.2132 64.5937 52.7083 65.8125 52.7083 67.0833V182.083C52.7083 188.437 50.1842 194.531 45.6911 199.024C41.198 203.517 35.1041 206.042 28.75 206.042H63.71L207.46 62.2917Z" fill="#FDDAD3"></path>
<path d="M220.417 62.2917H57.5C56.2292 62.2917 55.0104 62.7965 54.1118 63.6951C53.2132 64.5937 52.7083 65.8125 52.7083 67.0833V182.083C52.7083 188.437 50.1842 194.531 45.6911 199.024C41.198 203.517 35.1041 206.042 28.75 206.042H196.458C204.083 206.042 211.396 203.013 216.788 197.621C222.179 192.229 225.208 184.917 225.208 177.292V67.0833C225.208 65.8125 224.704 64.5937 223.805 63.6951C222.906 62.7965 221.688 62.2917 220.417 62.2917Z" stroke="#A02006" stroke-width="5" stroke-linecap="round" stroke-linejoin="round"></path>
<path d="M196.458 43.125V62.2917H57.5001C56.2293 62.2917 55.0105 62.7965 54.1119 63.6951C53.2132 64.5937 52.7084 65.8125 52.7084 67.0833V182.083C52.7084 188.438 50.1842 194.531 45.6912 199.024C41.1981 203.518 35.1042 206.042 28.7501 206.042C22.3959 206.042 16.302 203.518 11.809 199.024C7.31592 194.531 4.79175 188.438 4.79175 182.083V28.75C4.79175 27.4792 5.29658 26.2604 6.19519 25.3618C7.09381 24.4632 8.31259 23.9583 9.58341 23.9583H67.0834C68.3542 23.9583 69.573 24.4632 70.4716 25.3618C71.3702 26.2604 71.8751 27.4792 71.8751 28.75V38.3333C71.8751 39.6042 72.3799 40.8229 73.2785 41.7215C74.1771 42.6202 75.3959 43.125 76.6667 43.125H196.458Z" fill="#F86447" stroke="#A02006" stroke-width="5" stroke-linecap="round" stroke-linejoin="round"></path>
<path d="M115.507 122.186L113.377 120.877L110.994 125.273L113.123 126.582L114.315 124.384L115.507 122.186ZM129.634 136.732L131.764 138.042L134.147 133.646L132.017 132.337L130.825 134.535L129.634 136.732ZM114.315 124.384L113.123 126.582L129.634 136.732L130.825 134.535L132.017 132.337L115.507 122.186L114.315 124.384Z" fill="#A02006"></path>
<path d="M115.507 122.186L113.377 120.877L110.994 125.273L113.123 126.582L114.315 124.384L115.507 122.186ZM129.634 136.732L131.764 138.042L134.147 133.646L132.017 132.337L130.825 134.535L129.634 136.732ZM114.315 124.384L113.123 126.582L129.634 136.732L130.825 134.535L132.017 132.337L115.507 122.186L114.315 124.384Z" fill="#A02006"></path>
<path d="M115.507 122.186L113.377 120.877L110.994 125.273L113.123 126.582L114.315 124.384L115.507 122.186ZM129.634 136.732L131.764 138.042L134.147 133.646L132.017 132.337L130.825 134.535L129.634 136.732ZM114.315 124.384L113.123 126.582L129.634 136.732L130.825 134.535L132.017 132.337L115.507 122.186L114.315 124.384Z" fill="#A02006"></path>
<path d="M100.756 112.905L98.6543 111.545L96.1742 115.88L98.2761 117.239L99.5161 115.072L100.756 112.905ZM104.456 121.236L106.558 122.595L109.038 118.261L106.937 116.902L105.696 119.069L104.456 121.236ZM99.5161 115.072L98.2761 117.239L104.456 121.236L105.696 119.069L106.937 116.902L100.756 112.905L99.5161 115.072Z" fill="#A02006"></path>
<path d="M100.756 112.905L98.6543 111.545L96.1742 115.88L98.2761 117.239L99.5161 115.072L100.756 112.905ZM104.456 121.236L106.558 122.595L109.038 118.261L106.937 116.902L105.696 119.069L104.456 121.236ZM99.5161 115.072L98.2761 117.239L104.456 121.236L105.696 119.069L106.937 116.902L100.756 112.905L99.5161 115.072Z" fill="#A02006"></path>
<path d="M100.756 112.905L98.6543 111.545L96.1742 115.88L98.2761 117.239L99.5161 115.072L100.756 112.905ZM104.456 121.236L106.558 122.595L109.038 118.261L106.937 116.902L105.696 119.069L104.456 121.236ZM99.5161 115.072L98.2761 117.239L104.456 121.236L105.696 119.069L106.937 116.902L100.756 112.905L99.5161 115.072Z" fill="#A02006"></path>
<path d="M97.052 104.594L94.9223 105.903L97.3055 110.298L99.4353 108.989L98.2437 106.791L97.052 104.594ZM131.572 89.2318L133.702 87.9225L131.319 83.527L129.189 84.8363L130.381 87.034L131.572 89.2318ZM98.2437 106.791L99.4353 108.989L131.572 89.2318L130.381 87.034L129.189 84.8363L97.052 104.594L98.2437 106.791Z" fill="#A02006"></path>
<path d="M158.077 91.1946L155.948 89.8852L153.564 94.2807L155.694 95.59L156.886 93.3923L158.077 91.1946ZM175.004 107.461L177.134 108.771L179.517 104.375L177.387 103.066L176.196 105.264L175.004 107.461ZM156.886 93.3923L155.694 95.59L175.004 107.461L176.196 105.264L177.387 103.066L158.077 91.1946L156.886 93.3923Z" fill="#A02006"></path>
<path d="M182.865 117.081V146.207" stroke="#A02006" stroke-width="5" stroke-linecap="square"></path>
<path d="M182.865 117.081V146.207" stroke="#A02006" stroke-width="5" stroke-linecap="square"></path>
<path d="M137.224 162.32V145.845" stroke="#A02006" stroke-width="5" stroke-linecap="square"></path>
<path d="M137.224 188.209V174.04" stroke="#A02006" stroke-width="5" stroke-linecap="square"></path>
<path d="M110.761 164.587L108.632 163.278L106.248 167.674L108.378 168.983L109.57 166.785L110.761 164.587ZM129.428 181.924L131.558 183.233L133.941 178.838L131.811 177.529L130.62 179.726L129.428 181.924ZM109.57 166.785L108.378 168.983L129.428 181.924L130.62 179.726L131.811 177.529L110.761 164.587L109.57 166.785Z" fill="#A02006"></path>
<path d="M143.079 177.458L140.949 178.767L143.332 183.162L145.462 181.853L144.271 179.655L143.079 177.458ZM177.555 162.123L179.685 160.814L177.302 156.418L175.172 157.727L176.364 159.925L177.555 162.123ZM144.271 179.655L145.462 181.853L177.555 162.123L176.364 159.925L175.172 157.727L143.079 177.458L144.271 179.655Z" fill="#A02006"></path>
<path d="M160.955 121.64L158.825 122.949L161.208 127.344L163.338 126.035L162.146 123.837L160.955 121.64ZM175.952 118.28L178.082 116.971L175.699 112.575L173.569 113.885L174.761 116.082L175.952 118.28ZM162.146 123.837L163.338 126.035L175.952 118.28L174.761 116.082L173.569 113.885L160.955 121.64L162.146 123.837Z" fill="#A02006"></path>
<path d="M143.887 132.268L141.758 133.577L144.141 137.973L146.271 136.664L145.079 134.466L143.887 132.268ZM155.281 131.124L157.411 129.815L155.027 125.419L152.898 126.729L154.089 128.926L155.281 131.124ZM145.079 134.466L146.271 136.664L155.281 131.124L154.089 128.926L152.898 126.729L143.887 132.268L145.079 134.466Z" fill="#A02006"></path>
<path d="M91.4961 122.323L91.4961 154.088" stroke="#A02006" stroke-width="5" stroke-linecap="square"></path>
<circle cx="137.458" cy="177.874" r="11.3816" fill="#FDDAD3" stroke="#A02006" stroke-width="5"></circle>
<circle cx="91.8816" cy="156.187" r="11.3816" fill="#F86447" stroke="#A02006" stroke-width="5"></circle>
<circle cx="182.568" cy="156.187" r="11.3816" fill="#F86447" stroke="#A02006" stroke-width="5"></circle>
<circle cx="137.226" cy="134.665" r="11.3816" fill="#F86447" stroke="#A02006" stroke-width="5"></circle>
<circle cx="91.8816" cy="113.635" r="11.3816" fill="#FDDAD3" stroke="#A02006" stroke-width="5"></circle>
<circle cx="182.568" cy="113.635" r="11.3816" fill="#FDDAD3" stroke="#A02006" stroke-width="5"></circle>
<circle cx="137.226" cy="91.8816" r="11.3816" fill="#F86447" stroke="#A02006" stroke-width="5"></circle>
</svg>