<svg width="230" height="230" viewBox="0 0 230 230" fill="none" xmlns="http://www.w3.org/2000/svg">
<path d="M220.417 62.2917H57.5C56.2292 62.2917 55.0104 62.7965 54.1118 63.6951C53.2132 64.5937 52.7083 65.8125 52.7083 67.0834V182.083C52.7083 188.438 50.1842 194.531 45.6911 199.024C41.198 203.518 35.1041 206.042 28.75 206.042H196.458C204.083 206.042 211.396 203.013 216.788 197.621C222.179 192.229 225.208 184.917 225.208 177.292V67.0834C225.208 65.8125 224.704 64.5937 223.805 63.6951C222.906 62.7965 221.688 62.2917 220.417 62.2917Z" fill="#FBA897"></path>
<path d="M207.46 62.2917H57.5C56.2292 62.2917 55.0104 62.7965 54.1118 63.6951C53.2132 64.5937 52.7083 65.8125 52.7083 67.0834V182.083C52.7083 188.437 50.1842 194.531 45.6911 199.024C41.198 203.518 35.1041 206.042 28.75 206.042H63.71L207.46 62.2917Z" fill="#FDDAD3"></path>
<path d="M220.417 62.2917H57.5C56.2292 62.2917 55.0104 62.7965 54.1118 63.6951C53.2132 64.5937 52.7083 65.8125 52.7083 67.0834V182.083C52.7083 188.437 50.1842 194.531 45.6911 199.024C41.198 203.518 35.1041 206.042 28.75 206.042H196.458C204.083 206.042 211.396 203.013 216.788 197.621C222.179 192.229 225.208 184.917 225.208 177.292V67.0834C225.208 65.8125 224.704 64.5937 223.805 63.6951C222.906 62.7965 221.688 62.2917 220.417 62.2917Z" stroke="#A02006" stroke-width="5" stroke-linecap="round" stroke-linejoin="round"></path>
<path d="M177.292 124.583V143.75C177.292 145.021 176.787 146.24 175.888 147.138C174.99 148.037 173.771 148.542 172.5 148.542H148.542V172.5C148.542 173.771 148.037 174.99 147.138 175.888C146.24 176.787 145.021 177.292 143.75 177.292H124.583C123.312 177.292 122.094 176.787 121.195 175.888C120.296 174.99 119.792 173.771 119.792 172.5V148.542H95.8333C94.5625 148.542 93.3437 148.037 92.4451 147.138C91.5465 146.24 91.0416 145.021 91.0416 143.75V124.583C91.0416 123.313 91.5465 122.094 92.4451 121.195C93.3437 120.297 94.5625 119.792 95.8333 119.792H119.792V95.8334C119.792 94.5625 120.296 93.3437 121.195 92.4451C122.094 91.5465 123.312 91.0417 124.583 91.0417H143.75C145.021 91.0417 146.24 91.5465 147.138 92.4451C148.037 93.3437 148.542 94.5625 148.542 95.8334V119.792H172.5C173.771 119.792 174.99 120.297 175.888 121.195C176.787 122.094 177.292 123.313 177.292 124.583Z" fill="#F86447"></path>
<path d="M150.037 119.792H148.542V95.8334C148.542 94.5625 148.037 93.3437 147.138 92.4451C146.24 91.5465 145.021 91.0417 143.75 91.0417H124.583C123.312 91.0417 122.094 91.5465 121.195 92.4451C120.296 93.3437 119.792 94.5625 119.792 95.8334V119.792H95.8333C94.5625 119.792 93.3437 120.297 92.4451 121.195C91.5465 122.094 91.0416 123.313 91.0416 124.583V143.75C91.0416 145.021 91.5465 146.24 92.4451 147.138C93.3437 148.037 94.5625 148.542 95.8333 148.542H119.792V150.037L150.037 119.792Z" fill="#FBA897"></path>
<path d="M177.292 124.583V143.75C177.292 145.021 176.787 146.24 175.888 147.138C174.99 148.037 173.771 148.542 172.5 148.542H148.542V172.5C148.542 173.771 148.037 174.99 147.138 175.888C146.24 176.787 145.021 177.292 143.75 177.292H124.583C123.312 177.292 122.094 176.787 121.195 175.888C120.296 174.99 119.792 173.771 119.792 172.5V148.542H95.8333C94.5625 148.542 93.3437 148.037 92.4451 147.138C91.5465 146.24 91.0416 145.021 91.0416 143.75V124.583C91.0416 123.313 91.5465 122.094 92.4451 121.195C93.3437 120.297 94.5625 119.792 95.8333 119.792H119.792V95.8334C119.792 94.5625 120.296 93.3437 121.195 92.4451C122.094 91.5465 123.312 91.0417 124.583 91.0417H143.75C145.021 91.0417 146.24 91.5465 147.138 92.4451C148.037 93.3437 148.542 94.5625 148.542 95.8334V119.792H172.5C173.771 119.792 174.99 120.297 175.888 121.195C176.787 122.094 177.292 123.313 177.292 124.583Z" fill="#FDDAD3" stroke="#A02006" stroke-width="5" stroke-linecap="round" stroke-linejoin="round"></path>
<path d="M196.458 43.125V62.2917H57.5C56.2291 62.2917 55.0103 62.7965 54.1117 63.6951C53.2131 64.5937 52.7083 65.8125 52.7083 67.0833V182.083C52.7083 188.437 50.1841 194.531 45.6911 199.024C41.198 203.518 35.1041 206.042 28.75 206.042C22.3958 206.042 16.3019 203.518 11.8089 199.024C7.3158 194.531 4.79163 188.437 4.79163 182.083V28.75C4.79163 27.4792 5.29646 26.2604 6.19507 25.3618C7.09368 24.4631 8.31246 23.9583 9.58329 23.9583H67.0833C68.3541 23.9583 69.5729 24.4631 70.4715 25.3618C71.3701 26.2604 71.875 27.4792 71.875 28.75V38.3333C71.875 39.6041 72.3798 40.8229 73.2784 41.7215C74.177 42.6201 75.3958 43.125 76.6666 43.125H196.458Z" fill="#F86447" stroke="#A02006" stroke-width="5" stroke-linecap="round" stroke-linejoin="round"></path>
</svg>