<svg width="230" height="230" viewBox="0 0 230 230" fill="none" xmlns="http://www.w3.org/2000/svg">
<path d="M172.5 93.4375L115 136.562L57.4999 93.4375C55.7974 84.8384 55.9932 75.9712 58.0739 67.4557C60.1545 58.9402 64.0697 50.9818 69.5458 44.1367C75.0218 37.2916 81.9267 31.7249 89.7778 27.8258C97.6289 23.9266 106.237 21.7891 115 21.5625C123.757 21.8071 132.355 23.9565 140.197 27.8612C148.039 31.7659 154.936 37.3322 160.409 44.1729C165.881 51.0135 169.798 58.9643 171.886 67.4721C173.974 75.9799 174.184 84.8405 172.5 93.4375Z" fill="#FBA897"></path>
<path d="M58.7362 94.3671C62.0739 81.9588 69.3796 70.9833 79.5384 63.1155C89.6972 55.2476 102.151 50.9195 115 50.7917C127.838 50.9799 140.268 55.3354 150.416 63.2017C160.564 71.0681 167.881 82.0193 171.264 94.4054L172.5 93.4375C174.184 84.8405 173.974 75.9799 171.886 67.4721C169.798 58.9643 165.881 51.0135 160.409 44.1729C154.936 37.3322 148.039 31.7659 140.197 27.8612C132.355 23.9565 123.757 21.8071 115 21.5625C106.237 21.7891 97.6289 23.9266 89.7778 27.8258C81.9267 31.7249 75.0218 37.2916 69.5458 44.1367C64.0697 50.9818 60.1545 58.9402 58.0739 67.4557C55.9932 75.9712 55.7974 84.8384 57.4999 93.4375L58.7362 94.3671Z" fill="#FDDAD3"></path>
<path d="M172.5 93.4375L115 136.562L57.4999 93.4375C55.7974 84.8384 55.9932 75.9712 58.0739 67.4557C60.1545 58.9402 64.0697 50.9818 69.5458 44.1367C75.0218 37.2916 81.9267 31.7249 89.7778 27.8258C97.6289 23.9266 106.237 21.7891 115 21.5625C123.757 21.8071 132.355 23.9565 140.197 27.8612C148.039 31.7659 154.936 37.3322 160.409 44.1729C165.881 51.0135 169.798 58.9643 171.886 67.4721C173.974 75.9799 174.184 84.8405 172.5 93.4375Z" stroke="#A02006" stroke-width="5" stroke-linecap="round" stroke-linejoin="round"></path>
<path d="M220.417 150.938C220.417 166.187 214.359 180.813 203.575 191.596C192.792 202.379 178.167 208.438 162.917 208.438C153.551 208.849 144.236 206.864 135.851 202.672C127.467 198.48 120.29 192.218 115 184.479V136.562L172.5 93.4375C185.979 95.8454 198.176 102.933 206.941 113.452C215.707 123.971 220.479 137.245 220.417 150.938Z" fill="#FDDAD3"></path>
<path d="M187.086 98.2292C193.698 107.892 197.26 119.315 197.311 131.023C197.311 146.273 191.253 160.899 180.47 171.682C169.687 182.465 155.061 188.523 139.811 188.523C131.296 188.579 122.858 186.916 115 183.636V184.479C120.29 192.218 127.467 198.48 135.851 202.672C144.236 206.864 153.551 208.849 162.917 208.438C178.167 208.438 192.792 202.38 203.575 191.596C214.359 180.813 220.417 166.187 220.417 150.938C220.403 139.902 217.265 129.095 211.367 119.768C205.468 110.44 197.05 102.973 187.086 98.2292Z" fill="#F86447"></path>
<path d="M220.417 150.937C220.417 166.187 214.359 180.813 203.575 191.596C192.792 202.379 178.167 208.437 162.917 208.437C153.551 208.849 144.236 206.864 135.851 202.672C127.467 198.48 120.29 192.218 115 184.479V136.562L172.5 93.4375C185.979 95.8454 198.176 102.933 206.941 113.452C215.707 123.971 220.479 137.245 220.417 150.937Z" stroke="#A02006" stroke-width="5" stroke-linecap="round" stroke-linejoin="round"></path>
<path d="M115 136.562V184.479C109.665 192.172 102.479 198.399 94.1053 202.586C85.7316 206.772 76.439 208.785 67.0834 208.438C51.8334 208.438 37.2081 202.379 26.4247 191.596C15.6414 180.813 9.58336 166.187 9.58336 150.938C9.52118 137.245 14.2933 123.971 23.0589 113.452C31.8245 102.933 44.0211 95.8454 57.5 93.4375L115 136.562Z" fill="#FDDAD3"></path>
<path d="M67.0833 182.083C54.1617 182.072 41.6207 177.709 31.4826 169.697C21.3446 161.685 14.2006 150.492 11.2028 137.923C10.1796 142.187 9.63641 146.553 9.58325 150.938C9.58325 166.187 15.6413 180.813 26.4246 191.596C37.208 202.379 51.8333 208.438 67.0833 208.438C76.4389 208.785 85.7315 206.772 94.1052 202.586C102.479 198.399 109.664 192.172 115 184.479V158.125C109.664 165.818 102.479 172.045 94.1052 176.231C85.7315 180.418 76.4389 182.431 67.0833 182.083Z" fill="#F86447"></path>
<path d="M115 136.562V184.479C109.665 192.172 102.479 198.399 94.1053 202.586C85.7316 206.772 76.439 208.785 67.0834 208.437C51.8334 208.437 37.2081 202.379 26.4247 191.596C15.6414 180.813 9.58336 166.187 9.58336 150.937C9.52118 137.245 14.2933 123.971 23.0589 113.452C31.8245 102.933 44.0211 95.8454 57.5 93.4375L115 136.562Z" stroke="#A02006" stroke-width="5" stroke-linecap="round" stroke-linejoin="round"></path>
</svg>