<svg width="231" height="231" viewBox="0 0 231 231" fill="none" xmlns="http://www.w3.org/2000/svg">
<path d="M137.166 61.3786L165.8 44.891C166.532 44.4686 167.362 44.2462 168.206 44.2462C169.051 44.2462 169.881 44.4686 170.613 44.891L199.728 61.4075C200.457 61.8302 201.061 62.4368 201.482 63.1664C201.903 63.8961 202.124 64.7233 202.125 65.5655V93.6608C202.125 94.5091 201.9 95.3422 201.474 96.0758C201.048 96.8094 200.436 97.4174 199.699 97.8381L170.824 114.335C170.093 114.758 169.263 114.98 168.418 114.98C167.573 114.98 166.744 114.758 166.012 114.335L137.137 97.8381C136.408 97.4125 135.803 96.8024 135.384 96.0692C134.965 95.3359 134.746 94.5053 134.75 93.6608V65.5462C134.751 64.7005 134.975 63.87 135.399 63.1384C135.823 62.4067 136.432 61.7997 137.166 61.3786Z" fill="#FDDAD3"></path>
<path d="M49.4533 18.788L66.297 10.3661C66.632 10.1999 67.001 10.1134 67.375 10.1134C67.749 10.1134 68.118 10.1999 68.453 10.3661L85.2968 18.788C85.696 18.9893 86.0315 19.2974 86.266 19.678C86.5005 20.0587 86.6248 20.4969 86.625 20.944V40.3191C86.625 41.2048 86.3806 42.0734 85.9187 42.8291C85.4568 43.5848 84.7953 44.1984 84.007 44.6022L68.4722 52.5814C68.1318 52.7524 67.756 52.8414 67.375 52.8414C66.994 52.8414 66.6182 52.7524 66.2778 52.5814L49.434 43.9189C49.042 43.7181 48.7127 43.4135 48.4819 43.0384C48.2511 42.6634 48.1276 42.2321 48.125 41.7917V20.944C48.1252 20.4969 48.2495 20.0587 48.484 19.678C48.7185 19.2974 49.054 18.9893 49.4533 18.788Z" fill="#FA8B75" stroke="#A02006" stroke-width="5" stroke-linecap="round" stroke-linejoin="round"></path>
<path d="M31.3486 152.826L69.8486 131.439C70.564 131.041 71.369 130.832 72.1875 130.832C73.006 130.832 73.811 131.041 74.5264 131.439L113.026 152.826C113.776 153.243 114.401 153.852 114.836 154.592C115.271 155.332 115.5 156.174 115.5 157.032V194.685C115.5 195.543 115.271 196.385 114.836 197.125C114.401 197.864 113.776 198.474 113.026 198.891L74.5264 220.278C73.811 220.676 73.006 220.884 72.1875 220.884C71.369 220.884 70.564 220.676 69.8486 220.278L31.3486 198.891C30.5988 198.474 29.9741 197.864 29.5392 197.125C29.1043 196.385 28.875 195.543 28.875 194.685V157.032C28.875 156.174 29.1043 155.332 29.5392 154.592C29.9741 153.852 30.5988 153.243 31.3486 152.826Z" fill="#FBA897"></path>
<path d="M48.125 206.552V166.965C48.1261 166.061 48.3685 165.175 48.827 164.396C49.2856 163.618 49.9437 162.976 50.7334 162.537L91.2161 142.45C91.876 142.112 92.6024 141.925 93.3433 141.901L74.5264 131.439C73.811 131.041 73.006 130.832 72.1875 130.832C71.369 130.832 70.564 131.041 69.8486 131.439L31.3486 152.826C30.5988 153.243 29.9741 153.852 29.5392 154.592C29.1043 155.332 28.875 156.174 28.875 157.032V194.685C28.875 195.543 29.1043 196.385 29.5392 197.125C29.9741 197.864 30.5988 198.474 31.3486 198.891L48.6736 208.516C48.3545 207.907 48.1676 207.238 48.125 206.552Z" fill="#FDDAD3"></path>
<path d="M31.3486 152.826L69.8486 131.439C70.564 131.041 71.369 130.832 72.1875 130.832C73.006 130.832 73.811 131.041 74.5264 131.439L113.026 152.826C113.776 153.243 114.401 153.852 114.836 154.592C115.271 155.332 115.5 156.174 115.5 157.032V194.685C115.5 195.543 115.271 196.385 114.836 197.125C114.401 197.864 113.776 198.474 113.026 198.891L74.5264 220.278C73.811 220.676 73.006 220.884 72.1875 220.884C71.369 220.884 70.564 220.676 69.8486 220.278L31.3486 198.891C30.5988 198.474 29.9741 197.864 29.5392 197.125C29.1043 196.385 28.875 195.543 28.875 194.685V157.032C28.875 156.174 29.1043 155.332 29.5392 154.592C29.9741 153.852 30.5988 153.243 31.3486 152.826Z" stroke="#A02006" stroke-width="5" stroke-linecap="round" stroke-linejoin="round"></path>
<path d="M154 104.643V75.5851C154.001 74.7109 154.232 73.8523 154.669 73.0955C155.107 72.3387 155.736 71.7102 156.493 71.2731L186.09 56.1619C186.675 55.8474 187.32 55.6577 187.982 55.6047C188.645 55.5517 189.312 55.6365 189.94 55.8539L170.574 44.8717C169.843 44.4494 169.013 44.227 168.168 44.227C167.323 44.227 166.493 44.4494 165.762 44.8717L137.156 61.3786C136.425 61.801 135.817 62.4085 135.395 63.1401C134.972 63.8716 134.75 64.7015 134.75 65.5462V93.6609C134.75 94.5091 134.975 95.3423 135.401 96.0758C135.827 96.8094 136.439 97.4174 137.175 97.8381L156.329 108.782C155.624 108.343 155.041 107.734 154.634 107.011C154.227 106.287 154.009 105.473 154 104.643Z" fill="#FBA897"></path>
<path d="M137.166 61.3786L165.8 44.891C166.532 44.4686 167.362 44.2462 168.206 44.2462C169.051 44.2462 169.881 44.4686 170.613 44.891L199.728 61.4075C200.457 61.8302 201.061 62.4368 201.482 63.1664C201.903 63.8961 202.124 64.7233 202.125 65.5655V93.6608C202.125 94.5091 201.9 95.3422 201.474 96.0758C201.048 96.8094 200.436 97.4174 199.699 97.8381L170.824 114.335C170.093 114.758 169.263 114.98 168.418 114.98C167.573 114.98 166.744 114.758 166.012 114.335L137.137 97.8381C136.408 97.4125 135.803 96.8024 135.384 96.0692C134.965 95.3359 134.746 94.5053 134.75 93.6608V65.5462C134.751 64.7005 134.975 63.87 135.399 63.1384C135.823 62.4067 136.432 61.7997 137.166 61.3786Z" fill="#FBA897" stroke="#A02006" stroke-width="5" stroke-linecap="round" stroke-linejoin="round"></path>
<path d="M115.23 155.482L170.824 114.335" stroke="#A02006" stroke-width="5" stroke-linecap="round" stroke-linejoin="round"></path>
<path d="M135.462 63.0534L85.6818 43.1393" stroke="#A02006" stroke-width="5" stroke-linecap="round" stroke-linejoin="round"></path>
<path d="M48.125 183.077V166.801C48.125 165.908 48.3735 165.033 48.8427 164.273C49.3118 163.513 49.9831 162.899 50.7815 162.499L67.375 154.202" stroke="#A02006" stroke-width="5" stroke-linecap="round" stroke-linejoin="round"></path>
<path d="M154 86.8271V75.3638C154 74.4708 154.249 73.5954 154.718 72.8356C155.187 72.0758 155.858 71.4615 156.656 71.0614L163.625 67.5771" stroke="#A02006" stroke-width="5" stroke-linecap="round" stroke-linejoin="round"></path>
</svg>