<svg width="230" height="230" viewBox="0 0 230 230" fill="none" xmlns="http://www.w3.org/2000/svg">
<path d="M143.75 215.625C135.362 204.501 130.369 191.188 129.375 177.292H100.625C99.6306 191.188 94.6384 204.501 86.25 215.625H143.75Z" fill="#FA8B75" stroke="#A02006" stroke-width="5" stroke-linecap="round" stroke-linejoin="round"></path>
<path d="M71.875 215.625H158.125" stroke="#A02006" stroke-width="5" stroke-linecap="round" stroke-linejoin="round"></path>
<path d="M225.208 148.542V167.708C225.208 170.25 224.199 172.688 222.401 174.485C220.604 176.282 218.167 177.292 215.625 177.292H14.375C11.8333 177.292 9.39577 176.282 7.59855 174.485C5.80133 172.688 4.79166 170.25 4.79166 167.708V148.542H225.208Z" fill="#F86447" stroke="#A02006" stroke-width="5" stroke-linecap="round" stroke-linejoin="round"></path>
<path d="M225.208 23.9583V91.0417H166.175C165.213 91.0561 164.268 90.7804 163.465 90.2505C162.662 89.7206 162.036 88.9611 161.671 88.0708L158.412 79.6375C158.029 78.7223 157.374 77.9465 156.537 77.4144C155.699 76.8823 154.718 76.6194 153.727 76.6612C152.736 76.7029 151.781 77.0473 150.991 77.6479C150.201 78.2485 149.614 79.0766 149.308 80.0208L139.725 111.262C139.431 112.286 138.795 113.177 137.923 113.788C137.051 114.398 135.995 114.691 134.933 114.617C133.862 114.574 132.836 114.173 132.019 113.478C131.203 112.783 130.643 111.834 130.429 110.783L118.833 52.6125C118.62 51.5617 118.06 50.6129 117.243 49.918C116.427 49.223 115.401 48.822 114.329 48.7792C113.254 48.7101 112.189 49.0163 111.315 49.6456C110.441 50.2748 109.813 51.188 109.537 52.2292L95.5458 99.5708C95.2665 100.546 94.6743 101.403 93.8605 102.009C93.0467 102.615 92.0563 102.937 91.0417 102.925C90.017 102.931 89.0174 102.609 88.1895 102.005C87.3616 101.401 86.749 100.548 86.4417 99.5708L80.5958 80.2125C80.2987 79.2658 79.7151 78.4347 78.9254 77.8339C78.1358 77.2331 77.1791 76.8922 76.1875 76.8583C75.2055 76.8058 74.2321 77.0647 73.406 77.5982C72.5799 78.1317 71.9435 78.9125 71.5875 79.8292L68.3292 88.0708C67.9636 88.9611 67.3384 89.7206 66.535 90.2505C65.7316 90.7804 64.7873 91.0561 63.825 91.0417H4.79166V23.9583C4.79166 21.4167 5.80133 18.9791 7.59855 17.1819C9.39577 15.3847 11.8333 14.375 14.375 14.375H215.625C218.167 14.375 220.604 15.3847 222.401 17.1819C224.199 18.9791 225.208 21.4167 225.208 23.9583Z" fill="#FDDAD3" stroke="#A02006" stroke-width="5" stroke-linecap="round" stroke-linejoin="round"></path>
<path d="M225.208 91.0417V148.542H4.79166V91.0417H63.825C64.7873 91.0561 65.7316 90.7804 66.535 90.2505C67.3384 89.7206 67.9636 88.9611 68.3292 88.0708L71.5875 79.8292C71.9435 78.9125 72.5799 78.1317 73.406 77.5982C74.2321 77.0647 75.2055 76.8058 76.1875 76.8583C77.1791 76.8922 78.1358 77.2331 78.9254 77.8339C79.7151 78.4347 80.2987 79.2658 80.5958 80.2125L86.4417 99.5708C86.749 100.548 87.3616 101.401 88.1895 102.005C89.0174 102.609 90.017 102.931 91.0417 102.925C92.0563 102.937 93.0467 102.615 93.8605 102.009C94.6743 101.403 95.2665 100.546 95.5458 99.5708L109.537 52.2292C109.813 51.188 110.441 50.2748 111.315 49.6456C112.189 49.0163 113.254 48.7101 114.329 48.7792C115.401 48.822 116.427 49.223 117.243 49.918C118.06 50.6129 118.62 51.5617 118.833 52.6125L130.429 110.783C130.643 111.834 131.203 112.783 132.019 113.478C132.836 114.173 133.862 114.574 134.933 114.617C135.995 114.691 137.051 114.398 137.923 113.788C138.795 113.177 139.431 112.286 139.725 111.263L149.308 80.0208C149.614 79.0766 150.201 78.2485 150.991 77.6479C151.781 77.0473 152.736 76.703 153.727 76.6612C154.718 76.6195 155.699 76.8823 156.537 77.4144C157.374 77.9465 158.029 78.7223 158.412 79.6375L161.671 88.0708C162.036 88.9611 162.662 89.7206 163.465 90.2505C164.268 90.7804 165.213 91.0561 166.175 91.0417H225.208Z" fill="#FBA897" stroke="#A02006" stroke-width="5" stroke-linecap="round" stroke-linejoin="round"></path>
</svg>