<svg width="231" height="231" viewBox="0 0 231 231" fill="none" xmlns="http://www.w3.org/2000/svg">
<path d="M14.4375 91.4375C11.8848 91.4375 9.43664 92.4516 7.6316 94.2566C5.82656 96.0616 4.8125 98.5098 4.8125 101.063C4.8125 103.615 5.82656 106.063 7.6316 107.868C9.43664 109.673 11.8848 110.688 14.4375 110.688C16.948 110.685 19.3695 111.617 21.2306 113.302C23.0917 114.987 24.259 117.304 24.5053 119.802C25.9885 135.625 31.2435 150.861 39.8297 164.233C48.4158 177.606 60.0829 188.725 73.8526 196.658C74.6469 197.095 75.3014 197.748 75.7408 198.541C76.1803 199.334 76.3867 200.235 76.3364 201.141C76.2861 202.046 75.9811 202.919 75.4566 203.658C74.932 204.398 74.2092 204.974 73.3714 205.321C65.705 208.153 58.6586 212.441 52.6199 217.949C51.9511 218.623 51.497 219.481 51.3147 220.413C51.1324 221.345 51.23 222.311 51.5954 223.187C51.9608 224.064 52.5775 224.813 53.3678 225.34C54.1582 225.867 55.0868 226.149 56.0368 226.149H174.963C175.913 226.149 176.842 225.867 177.632 225.34C178.423 224.813 179.039 224.064 179.405 223.187C179.77 222.311 179.868 221.345 179.685 220.413C179.503 219.481 179.049 218.623 178.38 217.949C172.337 212.442 165.287 208.155 157.619 205.321C156.781 204.974 156.058 204.398 155.534 203.658C155.009 202.919 154.704 202.046 154.654 201.141C154.604 200.235 154.81 199.334 155.25 198.541C155.689 197.748 156.344 197.095 157.138 196.658C170.903 188.728 182.568 177.615 191.156 164.25C199.743 150.885 205.003 135.657 206.495 119.841C206.734 117.336 207.898 115.011 209.76 113.319C211.621 111.626 214.047 110.688 216.562 110.688C219.115 110.688 221.563 109.673 223.368 107.868C225.173 106.063 226.188 103.615 226.188 101.063C226.188 98.5098 225.173 96.0616 223.368 94.2566C221.563 92.4516 219.115 91.4375 216.562 91.4375H14.4375Z" fill="#FBA897"></path>
<path d="M157.619 205.359C156.781 205.012 156.058 204.436 155.534 203.697C155.009 202.957 154.704 202.084 154.654 201.179C154.604 200.274 154.81 199.373 155.249 198.58C155.689 197.787 156.343 197.134 157.138 196.697C178.769 184.356 194.863 164.212 202.125 140.39C174.928 155.467 144.274 163.203 113.18 162.836C84.2033 163.097 55.5863 156.403 29.7316 143.316C37.4016 165.908 53.1075 184.892 73.8622 196.658C74.6564 197.095 75.311 197.748 75.7504 198.541C76.1898 199.334 76.3963 200.235 76.346 201.141C76.2957 202.046 75.9907 202.919 75.4661 203.658C74.9415 204.398 74.2187 204.974 73.3809 205.321C65.7146 208.153 58.6681 212.441 52.6294 217.948C51.9607 218.623 51.5065 219.481 51.3242 220.413C51.1419 221.345 51.2396 222.311 51.605 223.187C51.9703 224.064 52.587 224.813 53.3774 225.34C54.1677 225.867 55.0964 226.149 56.0463 226.149H174.963C175.913 226.149 176.842 225.867 177.632 225.34C178.422 224.813 179.039 224.064 179.405 223.187C179.77 222.311 179.868 221.345 179.685 220.413C179.503 219.481 179.049 218.623 178.38 217.948C172.333 212.456 165.284 208.182 157.619 205.359Z" fill="#F86447"></path>
<path d="M171.267 72.1875C211.019 16.7475 213.858 12.5125 206.938 6.85301C199.546 0.847005 195.022 4.16763 132.19 72.1875L113.171 91.4375H157.783L171.267 72.1875Z" fill="#FDDAD3"></path>
<path d="M14.4375 91.4375C11.8848 91.4375 9.43663 92.4516 7.6316 94.2566C5.82656 96.0616 4.8125 98.5098 4.8125 101.063C4.8125 103.615 5.82656 106.063 7.6316 107.868C9.43663 109.673 11.8848 110.688 14.4375 110.688C16.948 110.685 19.3695 111.617 21.2306 113.302C23.0917 114.987 24.259 117.304 24.5053 119.802C25.9885 135.625 31.2435 150.861 39.8297 164.233C48.4158 177.606 60.0829 188.725 73.8526 196.658C74.6469 197.095 75.3014 197.748 75.7408 198.541C76.1803 199.334 76.3867 200.235 76.3364 201.141C76.2861 202.046 75.9811 202.919 75.4566 203.658C74.932 204.398 74.2092 204.974 73.3714 205.321C65.705 208.153 58.6586 212.441 52.6199 217.949C51.9511 218.623 51.497 219.481 51.3147 220.413C51.1324 221.345 51.23 222.311 51.5954 223.187C51.9608 224.064 52.5775 224.813 53.3678 225.34C54.1582 225.867 55.0868 226.149 56.0368 226.149H174.963C175.913 226.149 176.842 225.867 177.632 225.34C178.423 224.813 179.039 224.064 179.405 223.187C179.77 222.311 179.868 221.345 179.685 220.413C179.503 219.481 179.049 218.623 178.38 217.949C172.337 212.442 165.287 208.155 157.619 205.321C156.781 204.974 156.058 204.398 155.534 203.658C155.009 202.919 154.704 202.046 154.654 201.141C154.604 200.235 154.81 199.334 155.25 198.541C155.689 197.748 156.344 197.095 157.138 196.658C170.903 188.728 182.568 177.615 191.156 164.25C199.743 150.885 205.003 135.657 206.495 119.841C206.734 117.336 207.898 115.011 209.76 113.319C211.621 111.626 214.047 110.688 216.562 110.688C219.115 110.688 221.563 109.673 223.368 107.868C225.173 106.063 226.188 103.615 226.188 101.063C226.188 98.5098 225.173 96.0616 223.368 94.2566C221.563 92.4516 219.115 91.4375 216.562 91.4375H14.4375Z" stroke="#A02006" stroke-width="5" stroke-linecap="round" stroke-linejoin="round"></path>
<path d="M171.267 72.1875C211.018 16.7475 213.858 12.5125 206.937 6.85301C199.545 0.847005 195.022 4.16763 132.19 72.1875" stroke="#A02006" stroke-width="5" stroke-linecap="round" stroke-linejoin="round"></path>
</svg>