<svg width="231" height="232" viewBox="0 0 231 232" fill="none" xmlns="http://www.w3.org/2000/svg">
<path d="M226.187 227.167V43.6063C226.188 41.0617 225.687 38.5421 224.716 36.1921C223.744 33.842 222.32 31.7077 220.525 29.9116C218.731 28.1154 216.601 26.6928 214.257 25.7252C211.914 24.7576 209.404 24.2641 206.87 24.273C189.843 24.36 167.677 24.418 167.408 24.1666C153.266 11.1895 134.647 4.25482 115.5 4.83329C96.3784 4.32327 77.7995 11.2495 63.6405 24.1666H24.0625C18.9571 24.1666 14.0608 26.2035 10.4507 29.8292C6.84062 33.4549 4.8125 38.3724 4.8125 43.5V227.167" fill="#FDDAD3"></path>
<path d="M206.87 24.273C189.843 24.36 167.687 24.418 167.408 24.1666C153.266 11.1895 134.647 4.25482 115.5 4.83329C96.3784 4.32327 77.7995 11.2495 63.6405 24.1666H24.0625C18.9571 24.1666 14.0608 26.2035 10.4507 29.8292C6.84062 33.4549 4.8125 38.3724 4.8125 43.5V84.5833C4.8125 79.4558 6.84062 74.5383 10.4507 70.9126C14.0608 67.2869 18.9571 65.25 24.0625 65.25C24.0625 65.25 189.843 65.4433 206.87 65.3563C209.404 65.3474 211.914 65.8409 214.257 66.8085C216.601 67.7761 218.731 69.1988 220.525 70.9949C222.32 72.7911 223.744 74.9254 224.716 77.2754C225.687 79.6255 226.188 82.145 226.187 84.6896V43.6063C226.188 41.0617 225.687 38.5421 224.716 36.1921C223.744 33.842 222.32 31.7077 220.525 29.9116C218.731 28.1154 216.601 26.6928 214.257 25.7252C211.914 24.7576 209.404 24.2641 206.87 24.273Z" fill="#FBA897"></path>
<path d="M226.187 227.167V43.6063C226.187 41.0617 225.687 38.5421 224.716 36.1921C223.744 33.842 222.32 31.7077 220.525 29.9116C218.731 28.1154 216.601 26.6928 214.257 25.7252C211.914 24.7576 209.404 24.2641 206.87 24.273C189.843 24.36 167.677 24.418 167.408 24.1666C153.266 11.1895 134.647 4.25482 115.5 4.83329C96.3784 4.32327 77.7995 11.2495 63.6405 24.1666H24.0625C18.9571 24.1666 14.0608 26.2035 10.4507 29.8292C6.84062 33.4549 4.8125 38.3724 4.8125 43.5V227.167" stroke="#A02006" stroke-width="5" stroke-linecap="round" stroke-linejoin="round"></path>
<path d="M33.6875 116C33.6875 137.792 42.307 158.691 57.6498 174.101C72.9926 189.51 93.802 198.167 115.5 198.167C137.198 198.167 158.007 189.51 173.35 174.101C188.693 158.691 197.312 137.792 197.312 116C197.312 94.2081 188.693 73.3087 173.35 57.8994C158.007 42.4902 137.198 33.8334 115.5 33.8334C93.802 33.8334 72.9926 42.4902 57.6498 57.8994C42.307 73.3087 33.6875 94.2081 33.6875 116Z" fill="#FBA897"></path>
<path d="M62.832 116C62.832 122.946 64.1943 129.825 66.8411 136.242C69.488 142.66 73.3675 148.491 78.2581 153.403C83.1488 158.315 88.9549 162.211 95.3449 164.87C101.735 167.528 108.584 168.896 115.5 168.896C122.416 168.896 129.265 167.528 135.655 164.87C142.045 162.211 147.851 158.315 152.742 153.403C157.633 148.491 161.512 142.66 164.159 136.242C166.806 129.825 168.168 122.946 168.168 116C168.168 109.054 166.806 102.175 164.159 95.7576C161.512 89.3399 157.633 83.5087 152.742 78.5969C147.851 73.685 142.045 69.7887 135.655 67.1305C129.265 64.4722 122.416 63.104 115.5 63.104C108.584 63.104 101.735 64.4722 95.3449 67.1305C88.9549 69.7887 83.1488 73.685 78.2581 78.5969C73.3675 83.5087 69.488 89.3399 66.8411 95.7576C64.1943 102.175 62.832 109.054 62.832 116Z" fill="#FDDAD3"></path>
<path d="M115.5 90.8667C127.058 90.8741 138.292 94.7011 147.47 101.757C156.647 108.813 163.258 118.707 166.282 129.91C168.432 122.059 168.749 113.814 167.207 105.82C165.665 97.825 162.305 90.2958 157.391 83.8188C152.476 77.3418 146.139 72.0919 138.873 68.478C131.607 64.8642 123.608 62.984 115.5 62.984C107.392 62.984 99.3931 64.8642 92.127 68.478C84.8609 72.0919 78.5237 77.3418 73.6092 83.8188C68.6947 90.2958 65.3355 97.825 63.7934 105.82C62.2513 113.814 62.5679 122.059 64.7185 129.91C67.7422 118.707 74.3527 108.813 83.5302 101.757C92.7077 94.7011 103.942 90.8741 115.5 90.8667Z" fill="#F86447"></path>
<path d="M176.137 195.586C177.387 197.259 178.062 199.294 178.062 201.386V207.833C178.062 210.397 177.048 212.856 175.243 214.669C173.438 216.482 170.99 217.5 168.438 217.5H62.5625C60.0098 217.5 57.5616 216.482 55.7566 214.669C53.9516 212.856 52.9375 210.397 52.9375 207.833V201.386C52.9375 199.294 53.613 197.259 54.8625 195.586L78.925 163.367C79.8215 162.166 80.9841 161.192 82.3206 160.521C83.6571 159.849 85.1308 159.5 86.625 159.5H144.375C145.869 159.5 147.343 159.849 148.679 160.521C150.016 161.192 151.178 162.166 152.075 163.367L176.137 195.586Z" fill="#FBA897"></path>
<path d="M53.515 198.167C53.1418 199.199 52.9465 200.288 52.9375 201.386V207.833C52.9375 210.397 53.9516 212.856 55.7566 214.669C57.5616 216.482 60.0098 217.5 62.5625 217.5H168.438C170.99 217.5 173.438 216.482 175.243 214.669C177.048 212.856 178.062 210.397 178.062 207.833V201.386C178.053 200.288 177.858 199.199 177.485 198.167H53.515Z" fill="#F86447"></path>
<path d="M176.137 195.586C177.387 197.259 178.062 199.294 178.062 201.386V207.833C178.062 210.397 177.048 212.856 175.243 214.669C173.438 216.482 170.99 217.5 168.438 217.5H62.5625C60.0098 217.5 57.5616 216.482 55.7566 214.669C53.9516 212.856 52.9375 210.397 52.9375 207.833V201.386C52.9375 199.294 53.613 197.259 54.8625 195.586L78.925 163.367C79.8215 162.166 80.9841 161.192 82.3206 160.521C83.6571 159.849 85.1308 159.5 86.625 159.5H144.375C145.869 159.5 147.343 159.849 148.679 160.521C150.016 161.192 151.178 162.166 152.075 163.367L176.137 195.586Z" stroke="#A02006" stroke-width="5" stroke-linecap="round" stroke-linejoin="round"></path>
<path d="M145.395 39.498L139.024 68.4304" stroke="#A02006" stroke-width="5" stroke-linecap="round" stroke-linejoin="round"></path>
<path d="M91.9766 68.4303L85.6433 39.6816" stroke="#A02006" stroke-width="5" stroke-linecap="round" stroke-linejoin="round"></path>
<path d="M50.7623 166.267C41.4113 154.113 35.6396 139.57 34.1021 124.288C32.5645 109.006 35.3227 93.5972 42.0637 79.8101C48.8046 66.0229 59.2585 54.4095 72.2389 46.2875C85.2193 38.1656 100.207 33.8604 115.5 33.8604C130.794 33.8604 145.781 38.1656 158.761 46.2875C171.742 54.4095 182.195 66.0229 188.936 79.8101C195.677 93.5972 198.436 109.006 196.898 124.288C195.36 139.57 189.589 154.113 180.238 166.267" stroke="#A02006" stroke-width="5" stroke-linecap="round" stroke-linejoin="round"></path>
<path d="M33.6875 45.9166C34.3257 45.9166 34.9377 46.1712 35.389 46.6244C35.8402 47.0777 36.0938 47.6924 36.0938 48.3333" stroke="#A02006" stroke-width="3" stroke-linecap="round" stroke-linejoin="round"></path>
<path d="M31.2812 48.3333C31.2812 47.6924 31.5348 47.0777 31.986 46.6244C32.4373 46.1712 33.0493 45.9166 33.6875 45.9166" stroke="#A02006" stroke-width="3" stroke-linecap="round" stroke-linejoin="round"></path>
<path d="M33.6875 50.75C33.0493 50.75 32.4373 50.4954 31.986 50.0422C31.5348 49.589 31.2812 48.9743 31.2812 48.3334" stroke="#A02006" stroke-width="3" stroke-linecap="round" stroke-linejoin="round"></path>
<path d="M36.0938 48.3334C36.0938 48.9743 35.8402 49.589 35.389 50.0422C34.9377 50.4954 34.3257 50.75 33.6875 50.75" stroke="#A02006" stroke-width="3" stroke-linecap="round" stroke-linejoin="round"></path>
<path d="M197.312 45.9166C197.951 45.9166 198.563 46.1712 199.014 46.6244C199.465 47.0777 199.719 47.6924 199.719 48.3333" stroke="#A02006" stroke-width="3" stroke-linecap="round" stroke-linejoin="round"></path>
<path d="M194.906 48.3333C194.906 47.6924 195.16 47.0777 195.611 46.6244C196.062 46.1712 196.674 45.9166 197.313 45.9166" stroke="#A02006" stroke-width="3" stroke-linecap="round" stroke-linejoin="round"></path>
<path d="M197.313 50.75C196.674 50.75 196.062 50.4954 195.611 50.0422C195.16 49.589 194.906 48.9743 194.906 48.3334" stroke="#A02006" stroke-width="3" stroke-linecap="round" stroke-linejoin="round"></path>
<path d="M199.719 48.3334C199.719 48.9743 199.465 49.589 199.014 50.0422C198.563 50.4954 197.951 50.75 197.312 50.75" stroke="#A02006" stroke-width="3" stroke-linecap="round" stroke-linejoin="round"></path>
<path d="M72.1875 217.5V227.167" stroke="#A02006" stroke-width="5" stroke-linecap="round" stroke-linejoin="round"></path>
<path d="M158.812 217.5V227.167" stroke="#A02006" stroke-width="5" stroke-linecap="round" stroke-linejoin="round"></path>
<path d="M160.295 143.724C165.228 135.712 167.942 126.521 168.154 117.103C168.367 107.684 166.072 98.3797 161.505 90.1507C156.938 81.9218 150.266 75.067 142.178 70.2951C134.09 65.5231 124.88 63.0071 115.5 63.0071C106.12 63.0071 96.9098 65.5231 88.822 70.2951C80.7341 75.067 74.062 81.9218 69.4953 90.1507C64.9285 98.3797 62.6329 107.684 62.8456 117.103C63.0583 126.521 65.7717 135.712 70.7053 143.724" stroke="#A02006" stroke-width="5" stroke-linecap="round" stroke-linejoin="round"></path>
</svg>