<svg width="210" height="210" viewBox="0 0 210 210" fill="none" xmlns="http://www.w3.org/2000/svg">
<path d="M4.16675 104.983C4.16675 117.568 6.64555 130.03 11.4616 141.657C16.2777 153.284 23.3367 163.849 32.2357 172.748C41.1346 181.647 51.6992 188.706 63.3263 193.522C74.9533 198.338 87.4151 200.817 100 200.817C112.585 200.817 125.047 198.338 136.674 193.522C148.301 188.706 158.866 181.647 167.764 172.748C176.663 163.849 183.722 153.284 188.539 141.657C193.355 130.03 195.833 117.568 195.833 104.983C195.833 92.3984 193.355 79.9366 188.539 68.3095C183.722 56.6825 176.663 46.1179 167.764 37.219C158.866 28.32 148.301 21.261 136.674 16.4449C125.047 11.6288 112.585 9.15002 100 9.15002C87.4151 9.15002 74.9533 11.6288 63.3263 16.4449C51.6992 21.261 41.1346 28.32 32.2357 37.219C23.3367 46.1179 16.2777 56.6825 11.4616 68.3095C6.64555 79.9366 4.16675 92.3984 4.16675 104.983Z" fill="#FBA897"></path>
<path d="M33.0333 130C33.0307 113.262 37.412 96.8149 45.7413 82.2963C54.0705 67.7777 66.0571 55.6938 80.5079 47.2475C94.9588 38.8013 111.37 34.2871 128.107 34.1545C144.845 34.0219 161.326 38.2754 175.908 46.4917C167.236 35.2436 156.173 26.0638 143.518 19.6162C130.862 13.1686 116.933 9.61455 102.735 9.21105C88.5382 8.80755 74.4289 11.5647 61.4281 17.2831C48.4272 23.0015 36.86 31.5382 27.5631 42.2755C18.2663 53.0128 11.4722 65.6824 7.67257 79.3676C3.8729 93.0527 3.16258 107.411 5.59299 121.405C8.0234 135.398 13.5338 148.676 21.7255 160.279C29.9172 171.881 40.5854 181.518 52.9583 188.492C40.0108 171.745 33.0012 151.168 33.0333 130Z" fill="#FDDAD3"></path>
<path d="M15.8167 150.833H79.175" stroke="#A02006" stroke-width="5" stroke-linecap="round" stroke-linejoin="round"></path>
<path d="M20.9333 50.8334H179.133" stroke="#A02006" stroke-width="5" stroke-linecap="round" stroke-linejoin="round"></path>
<path d="M87.5 100.833H4.2583" stroke="#A02006" stroke-width="5" stroke-linecap="round" stroke-linejoin="round"></path>
<path d="M94.8166 200.7C76.8287 199.704 59.4856 193.659 44.7769 183.256C30.0682 172.854 18.5895 158.516 11.6576 141.888C4.72564 125.259 2.62122 107.013 5.5857 89.2436C8.55018 71.4737 16.4635 54.8993 28.4179 41.4215C40.3724 27.9438 55.8837 18.1087 73.1727 13.0443C90.4617 7.97993 108.828 7.89143 126.165 12.789C143.502 17.6865 159.108 27.3717 171.191 40.7336C183.275 54.0955 191.348 70.5929 194.483 88.3334" stroke="#A02006" stroke-width="5" stroke-linecap="round" stroke-linejoin="round"></path>
<path d="M93.9083 9.3833C43.9083 63.55 44.8166 134.033 94.8166 200.7" stroke="#A02006" stroke-width="5" stroke-linecap="round" stroke-linejoin="round"></path>
<path d="M106.083 9.3833C124.758 28.8211 137.156 53.4253 141.667 80" stroke="#A02006" stroke-width="5" stroke-linecap="round" stroke-linejoin="round"></path>
<path d="M99.8333 150.833C99.8333 164.094 105.101 176.812 114.478 186.189C123.855 195.566 136.572 200.833 149.833 200.833C163.094 200.833 175.812 195.566 185.189 186.189C194.565 176.812 199.833 164.094 199.833 150.833C199.833 137.573 194.565 124.855 185.189 115.478C175.812 106.101 163.094 100.833 149.833 100.833C136.572 100.833 123.855 106.101 114.478 115.478C105.101 124.855 99.8333 137.573 99.8333 150.833Z" fill="#FBA897"></path>
<path d="M114.475 186.192C105.097 176.814 99.8291 164.095 99.8291 150.833C99.8291 137.571 105.097 124.853 114.475 115.475C123.853 106.097 136.571 100.829 149.833 100.829C163.095 100.829 175.814 106.097 185.192 115.475L114.475 186.192Z" fill="#FDDAD3"></path>
<path d="M100 151C100 164.261 105.268 176.979 114.645 186.355C124.021 195.732 136.739 201 150 201C163.261 201 175.979 195.732 185.355 186.355C194.732 176.979 200 164.261 200 151C200 137.739 194.732 125.021 185.355 115.645C175.979 106.268 163.261 101 150 101C136.739 101 124.021 106.268 114.645 115.645C105.268 125.021 100 137.739 100 151Z" stroke="#A02006" stroke-width="5" stroke-linecap="round" stroke-linejoin="round"></path>
<path d="M177 143.286C177 142.263 176.594 141.282 175.87 140.558C175.147 139.835 174.166 139.429 173.143 139.429H161.571V127.857C161.571 126.834 161.165 125.853 160.442 125.13C159.718 124.406 158.737 124 157.714 124H142.286C141.263 124 140.282 124.406 139.558 125.13C138.835 125.853 138.429 126.834 138.429 127.857V139.429H126.857C125.834 139.429 124.853 139.835 124.13 140.558C123.406 141.282 123 142.263 123 143.286V158.714C123 159.737 123.406 160.718 124.13 161.442C124.853 162.165 125.834 162.571 126.857 162.571H138.429V174.143C138.429 175.166 138.835 176.147 139.558 176.87C140.282 177.594 141.263 178 142.286 178H157.714C158.737 178 159.718 177.594 160.442 176.87C161.165 176.147 161.571 175.166 161.571 174.143V162.571H173.143C174.166 162.571 175.147 162.165 175.87 161.442C176.594 160.718 177 159.737 177 158.714V143.286Z" fill="#FDDAD3" stroke="#A02006" stroke-width="5" stroke-linecap="round" stroke-linejoin="round"></path>
</svg>