<svg width="230" height="230" viewBox="0 0 230 230" fill="none" xmlns="http://www.w3.org/2000/svg">
<path d="M158.125 14.375C158.125 11.8333 157.115 9.39574 155.318 7.59852C153.521 5.8013 151.083 4.79163 148.542 4.79163H14.375C11.8333 4.79163 9.39574 5.8013 7.59852 7.59852C5.8013 9.39574 4.79163 11.8333 4.79163 14.375V186.875C4.79163 189.417 5.8013 191.854 7.59852 193.651C9.39574 195.449 11.8333 196.458 14.375 196.458H148.542C151.083 196.458 153.521 195.449 155.318 193.651C157.115 191.854 158.125 189.417 158.125 186.875V14.375Z" fill="#FBA897"></path>
<path d="M156.716 9.67913C155.908 8.21424 154.725 6.99004 153.289 6.13142C151.853 5.27279 150.215 4.81047 148.542 4.79163H14.375C11.8333 4.79163 9.39574 5.8013 7.59852 7.59852C5.8013 9.39574 4.79163 11.8333 4.79163 14.375V161.604L156.716 9.67913Z" fill="#FDDAD3"></path>
<path d="M158.125 150.937V14.375C158.125 11.8333 157.115 9.39574 155.318 7.59852C153.521 5.8013 151.083 4.79163 148.542 4.79163H14.375C11.8333 4.79163 9.39574 5.8013 7.59852 7.59852C5.8013 9.39574 4.79163 11.8333 4.79163 14.375V186.875C4.79163 189.417 5.8013 191.854 7.59852 193.651C9.39574 195.449 11.8333 196.458 14.375 196.458H135.02" stroke="#A02006" stroke-width="5" stroke-linecap="round" stroke-linejoin="round"></path>
<path d="M225.208 225.208L201.432 192.299L201.25 148.542C201.652 131.503 176.515 111.521 158.125 95.8334V147.756L151.733 141.182C149.811 139.354 147.251 138.351 144.599 138.384C141.947 138.418 139.413 139.486 137.538 141.361C135.662 143.237 134.594 145.771 134.56 148.422C134.527 151.074 135.531 153.635 137.358 155.557L163.137 186.875V201.25C163.137 210.46 178.087 225.208 178.087 225.208" fill="#FDDAD3"></path>
<path d="M225.208 225.208L201.432 192.299L201.25 148.542C201.652 131.503 176.515 111.521 158.125 95.8334V147.756L151.733 141.182C149.811 139.354 147.251 138.351 144.599 138.384C141.947 138.418 139.413 139.486 137.538 141.361C135.662 143.237 134.594 145.771 134.56 148.422C134.527 151.074 135.531 153.635 137.358 155.557L163.137 186.875V201.25C163.137 210.46 178.087 225.208 178.087 225.208" stroke="#A02006" stroke-width="5" stroke-linecap="round" stroke-linejoin="round"></path>
<path d="M177.512 167.708L158.125 147.756" stroke="#A02006" stroke-width="5" stroke-linecap="round" stroke-linejoin="round"></path>
<path d="M91.0416 33.5416H119.792V62.2916" stroke="#A02006" stroke-width="5" stroke-linecap="round" stroke-linejoin="round"></path>
<path d="M119.792 33.5416L38.3334 110.208" stroke="#A02006" stroke-width="5" stroke-linecap="round" stroke-linejoin="round"></path>
<path d="M43.125 134.167V167.708" stroke="#A02006" stroke-width="5" stroke-linecap="round" stroke-linejoin="round"></path>
<path d="M71.875 110.208V167.708" stroke="#A02006" stroke-width="5" stroke-linecap="round" stroke-linejoin="round"></path>
<path d="M100.625 91.0416V167.708" stroke="#A02006" stroke-width="5" stroke-linecap="round" stroke-linejoin="round"></path>
</svg>