<svg width="230" height="230" viewBox="0 0 230 230" fill="none" xmlns="http://www.w3.org/2000/svg">
<path d="M4.79175 218.5H225.208" stroke="#A02006" stroke-width="5" stroke-linecap="round" stroke-linejoin="round"></path>
<path d="M43.125 218.5V195.5C43.1125 194.883 42.9787 194.275 42.7311 193.71C42.4836 193.145 42.1271 192.635 41.6821 192.207C41.2372 191.78 40.7124 191.445 40.1378 191.221C39.5632 190.996 38.95 190.887 38.3333 190.9H19.1667C18.55 190.887 17.9368 190.996 17.3622 191.221C16.7876 191.445 16.2628 191.78 15.8179 192.207C15.3729 192.635 15.0164 193.145 14.7689 193.71C14.5213 194.275 14.3875 194.883 14.375 195.5V218.5H43.125Z" fill="#FA8B75"></path>
<path d="M100.625 218.5V158.7C100.613 158.083 100.479 157.475 100.231 156.91C99.9836 156.345 99.6271 155.834 99.1821 155.407C98.7372 154.98 98.2124 154.645 97.6378 154.421C97.0632 154.196 96.45 154.087 95.8333 154.1H76.6667C76.05 154.087 75.4368 154.196 74.8622 154.421C74.2876 154.645 73.7628 154.98 73.3179 155.407C72.8729 155.834 72.5164 156.345 72.2689 156.91C72.0213 157.475 71.8875 158.083 71.875 158.7V218.5H100.625Z" fill="#FA8B75"></path>
<path d="M158.125 218.5V121.9C158.113 121.283 157.979 120.675 157.731 120.11C157.484 119.545 157.127 119.034 156.682 118.607C156.237 118.18 155.712 117.845 155.138 117.62C154.563 117.396 153.95 117.287 153.333 117.3H134.167C133.55 117.287 132.937 117.396 132.362 117.62C131.788 117.845 131.263 118.18 130.818 118.607C130.373 119.034 130.016 119.545 129.769 120.11C129.521 120.675 129.387 121.283 129.375 121.9V218.5H158.125Z" fill="#FA8B75"></path>
<path d="M215.625 218.5V85.1C215.613 84.4833 215.479 83.8751 215.231 83.3101C214.984 82.7452 214.627 82.2345 214.182 81.8073C213.737 81.3802 213.212 81.0449 212.638 80.8205C212.063 80.5962 211.45 80.4873 210.833 80.5H191.667C191.05 80.4873 190.437 80.5962 189.862 80.8205C189.288 81.0449 188.763 81.3802 188.318 81.8073C187.873 82.2345 187.516 82.7452 187.269 83.3101C187.021 83.8751 186.887 84.4833 186.875 85.1V218.5H215.625Z" fill="#FA8B75"></path>
<path d="M43.125 218.5V195.5C43.1125 194.883 42.9787 194.275 42.7311 193.71C42.4836 193.145 42.1271 192.635 41.6821 192.207C41.2372 191.78 40.7124 191.445 40.1378 191.221C39.5632 190.996 38.95 190.887 38.3333 190.9H19.1667C18.55 190.887 17.9368 190.996 17.3622 191.221C16.7876 191.445 16.2628 191.78 15.8179 192.207C15.3729 192.635 15.0164 193.145 14.7689 193.71C14.5213 194.275 14.3875 194.883 14.375 195.5V218.5H43.125Z" fill="#FA8B75"></path>
<path d="M95.8333 154.1H76.6667C76.05 154.087 75.4368 154.196 74.8622 154.421C74.2876 154.645 73.7628 154.98 73.3179 155.407C72.8729 155.834 72.5164 156.345 72.2689 156.91C72.0213 157.475 71.8875 158.083 71.875 158.7V179.544C71.8875 178.927 72.0213 178.319 72.2689 177.754C72.5164 177.189 72.8729 176.678 73.3179 176.251C73.7628 175.824 74.2876 175.489 74.8622 175.264C75.4368 175.04 76.05 174.931 76.6667 174.944H95.8333C96.45 174.931 97.0632 175.04 97.6378 175.264C98.2124 175.489 98.7372 175.824 99.1821 176.251C99.6271 176.678 99.9836 177.189 100.231 177.754C100.479 178.319 100.613 178.927 100.625 179.544V158.7C100.613 158.083 100.479 157.475 100.231 156.91C99.9836 156.345 99.6271 155.834 99.1821 155.407C98.7372 154.98 98.2124 154.645 97.6378 154.421C97.0632 154.196 96.45 154.087 95.8333 154.1Z" fill="#FDDAD3"></path>
<path d="M153.333 117.3H134.167C133.55 117.287 132.937 117.396 132.362 117.62C131.788 117.845 131.263 118.18 130.818 118.607C130.373 119.034 130.016 119.545 129.769 120.11C129.521 120.675 129.387 121.283 129.375 121.9V142.792C129.4 141.545 129.919 140.36 130.817 139.496C131.716 138.631 132.92 138.159 134.167 138.182H153.333C154.58 138.159 155.784 138.631 156.683 139.496C157.581 140.36 158.1 141.545 158.125 142.792V121.9C158.113 121.283 157.979 120.675 157.731 120.11C157.484 119.545 157.127 119.034 156.682 118.607C156.237 118.18 155.712 117.845 155.138 117.62C154.563 117.396 153.95 117.287 153.333 117.3Z" fill="#FDDAD3"></path>
<path d="M210.833 80.5H191.667C191.05 80.4873 190.437 80.5962 189.862 80.8205C189.288 81.0449 188.763 81.3802 188.318 81.8073C187.873 82.2345 187.516 82.7452 187.269 83.3101C187.021 83.8751 186.887 84.4833 186.875 85.1V105.944C186.887 105.327 187.021 104.719 187.269 104.154C187.516 103.589 187.873 103.078 188.318 102.651C188.763 102.224 189.288 101.889 189.862 101.664C190.437 101.44 191.05 101.331 191.667 101.344H210.833C211.45 101.331 212.063 101.44 212.638 101.664C213.212 101.889 213.737 102.224 214.182 102.651C214.627 103.078 214.984 103.589 215.231 104.154C215.479 104.719 215.613 105.327 215.625 105.944V85.1C215.613 84.4833 215.479 83.8751 215.231 83.3101C214.984 82.7452 214.627 82.2345 214.182 81.8073C213.737 81.3802 213.212 81.0449 212.638 80.8205C212.063 80.5962 211.45 80.4873 210.833 80.5Z" fill="#FDDAD3"></path>
<path d="M43.125 218.5V195.5C43.1125 194.883 42.9787 194.275 42.7311 193.71C42.4836 193.145 42.1271 192.635 41.6821 192.207C41.2372 191.78 40.7124 191.445 40.1378 191.221C39.5632 190.996 38.95 190.887 38.3333 190.9H19.1667C18.55 190.887 17.9368 190.996 17.3622 191.221C16.7876 191.445 16.2628 191.78 15.8179 192.207C15.3729 192.635 15.0164 193.145 14.7689 193.71C14.5213 194.275 14.3875 194.883 14.375 195.5V218.5H43.125Z" stroke="#A02006" stroke-width="5" stroke-linecap="round" stroke-linejoin="round"></path>
<path d="M100.625 218.5V158.7C100.613 158.083 100.479 157.475 100.231 156.91C99.9836 156.345 99.6271 155.834 99.1821 155.407C98.7372 154.98 98.2124 154.645 97.6378 154.421C97.0632 154.196 96.45 154.087 95.8333 154.1H76.6667C76.05 154.087 75.4368 154.196 74.8622 154.421C74.2876 154.645 73.7628 154.98 73.3179 155.407C72.8729 155.834 72.5164 156.345 72.2689 156.91C72.0213 157.475 71.8875 158.083 71.875 158.7V218.5H100.625Z" stroke="#A02006" stroke-width="5" stroke-linecap="round" stroke-linejoin="round"></path>
<path d="M158.125 218.5V121.9C158.113 121.283 157.979 120.675 157.731 120.11C157.484 119.545 157.127 119.034 156.682 118.607C156.237 118.18 155.712 117.845 155.138 117.62C154.563 117.396 153.95 117.287 153.333 117.3H134.167C133.55 117.287 132.937 117.396 132.362 117.62C131.788 117.845 131.263 118.18 130.818 118.607C130.373 119.034 130.016 119.545 129.769 120.11C129.521 120.675 129.387 121.283 129.375 121.9V218.5H158.125Z" stroke="#A02006" stroke-width="5" stroke-linecap="round" stroke-linejoin="round"></path>
<path d="M215.625 218.5V85.1C215.613 84.4833 215.479 83.8751 215.231 83.3101C214.984 82.7452 214.627 82.2345 214.182 81.8073C213.737 81.3802 213.212 81.0449 212.638 80.8205C212.063 80.5962 211.45 80.4873 210.833 80.5H191.667C191.05 80.4873 190.437 80.5962 189.862 80.8205C189.288 81.0449 188.763 81.3802 188.318 81.8073C187.873 82.2345 187.516 82.7452 187.269 83.3101C187.021 83.8751 186.887 84.4833 186.875 85.1V218.5H215.625Z" stroke="#A02006" stroke-width="5" stroke-linecap="round" stroke-linejoin="round"></path>
<path d="M29 126.4L201.5 16" stroke="#A02006" stroke-width="5" stroke-linecap="round" stroke-linejoin="round"></path>
<path d="M196.458 52.9L201.25 16.1L162.917 11.5" stroke="#A02006" stroke-width="5" stroke-linecap="round" stroke-linejoin="round"></path>
</svg>