<svg width="206" height="205" viewBox="0 0 206 205" fill="none" xmlns="http://www.w3.org/2000/svg">
<path d="M201.708 59.7063C201.713 74.4356 195.849 88.5657 185.4 98.9981L142.483 141.791L63.6025 63.2938L106.519 20.5001C114.321 12.7567 124.253 7.48578 135.061 5.35222C145.87 3.21866 157.071 4.31796 167.253 8.51151C177.435 12.705 186.14 19.805 192.272 28.916C198.404 38.0269 201.687 48.7407 201.708 59.7063Z" fill="#FDDAD3"></path>
<path d="M142.483 141.791L99.4811 184.5C88.9413 194.521 74.8795 200.039 60.3038 199.873C45.7281 199.708 31.7962 193.873 21.4889 183.615C11.1817 173.358 5.31771 159.494 5.15158 144.989C4.98545 130.484 10.5303 116.491 20.6 106.002L63.6025 63.2937L142.483 141.791Z" fill="#FDDAD3"></path>
<path d="M118.184 117.61L75.1814 160.319C66.8293 168.581 56.0711 174.013 44.4378 175.839C32.8045 177.665 20.8887 175.795 10.3858 170.491C13.0245 175.669 16.4721 180.397 20.6 184.5C31.0754 194.881 45.2569 200.709 60.0405 200.709C74.8239 200.709 89.0054 194.881 99.4811 184.5L142.483 141.791L118.184 117.61Z" fill="#F86447"></path>
<path d="M185.4 20.4999C181.277 16.3866 176.522 12.9526 171.314 10.3268C176.667 20.7738 178.562 32.638 176.728 44.2216C174.892 55.8051 169.423 66.5143 161.101 74.8164L118.184 117.61L142.483 141.791L185.4 98.9981C195.844 88.5799 201.71 74.4647 201.71 59.7489C201.71 45.033 195.844 30.9179 185.4 20.4999Z" fill="#F86447"></path>
<path d="M63.6036 63.2947L63.5167 63.2084" stroke="#A02006" stroke-width="5" stroke-linecap="round" stroke-linejoin="round"></path>
<path d="M118.665 38.574C121.853 35.3999 125.639 32.882 129.805 31.1641C133.971 29.4462 138.437 28.562 142.947 28.562C147.457 28.562 151.923 29.4462 156.089 31.1641C160.256 32.882 164.041 35.3999 167.229 38.574" stroke="#A02006" stroke-width="5" stroke-linecap="round" stroke-linejoin="round"></path>
<path d="M201.019 59.7063C201.024 74.4356 195.16 88.5657 184.711 98.9981L141.794 141.791L62.9134 63.2938L105.83 20.5001C113.633 12.7567 123.563 7.48578 134.373 5.35222C145.181 3.21866 156.383 4.31796 166.564 8.51151C176.745 12.705 185.451 19.805 191.583 28.916C197.715 38.0269 200.998 48.7407 201.019 59.7063Z" stroke="#A02006" stroke-width="5" stroke-linecap="round" stroke-linejoin="round"></path>
<path d="M141.794 141.638L98.7917 184.347C88.2523 194.367 74.1904 199.885 59.6147 199.72C45.039 199.554 31.1071 193.719 20.7998 183.462C10.4926 173.205 4.62863 159.34 4.46249 144.835C4.29635 130.33 9.84126 116.337 19.9109 105.849L62.9134 63.1401L141.794 141.638Z" stroke="#A02006" stroke-width="5" stroke-linecap="round" stroke-linejoin="round"></path>
</svg>