<svg width="230" height="230" viewBox="0 0 230 230" fill="none" xmlns="http://www.w3.org/2000/svg">
<path d="M29 92.25C29 103.577 31.2309 114.792 35.5654 125.256C39.8999 135.721 46.253 145.229 54.262 153.238C62.2711 161.247 71.7792 167.6 82.2435 171.935C92.7079 176.269 103.923 178.5 115.25 178.5C126.577 178.5 137.792 176.269 148.256 171.935C158.721 167.6 168.229 161.247 176.238 153.238C184.247 145.229 190.6 135.721 194.935 125.256C199.269 114.792 201.5 103.577 201.5 92.25C201.5 80.9235 199.269 69.7079 194.935 59.2435C190.6 48.7792 184.247 39.2711 176.238 31.262C168.229 23.253 158.721 16.8999 148.256 12.5654C137.792 8.23092 126.577 6 115.25 6C103.923 6 92.7079 8.23092 82.2435 12.5654C71.7792 16.8999 62.2711 23.253 54.262 31.262C46.253 39.2711 39.8999 48.7792 35.5654 59.2435C31.2309 69.7079 29 80.9235 29 92.25Z" fill="#FBA897"></path>
<path d="M54.0117 153.333C37.8315 137.158 28.7396 115.218 28.736 92.3394C28.7324 69.4607 37.8174 47.5177 53.9925 31.3375C70.1677 15.1573 92.1078 6.06536 114.986 6.06177C137.865 6.05817 159.808 15.1432 175.988 31.3183L54.0117 153.333Z" fill="#FDDAD3"></path>
<path d="M39.7516 134.492L5.36663 193.401C4.04413 195.682 5.0983 197.187 7.69538 196.746L39.8762 191.293L51.0312 221.96C51.9321 224.432 53.7721 224.614 55.1233 222.343L84.4962 173.008" fill="#FDDAD3"></path>
<path d="M39.7516 134.492L5.36663 193.401C4.04413 195.682 5.0983 197.187 7.69538 196.746L39.8762 191.293L51.0312 221.96C51.9321 224.432 53.7721 224.614 55.1233 222.343L84.4962 173.008" stroke="#A02006" stroke-width="5" stroke-linecap="round" stroke-linejoin="round"></path>
<path d="M190.248 134.492L224.633 193.401C225.956 195.682 224.902 197.187 222.305 196.746L190.124 191.293L178.969 221.96C178.068 224.432 176.228 224.614 174.877 222.343L145.504 173.008" fill="#F86447"></path>
<path d="M190.248 134.492L224.633 193.401C225.956 195.682 224.902 197.187 222.305 196.746L190.124 191.293L178.969 221.96C178.068 224.432 176.228 224.614 174.877 222.343L145.504 173.008" stroke="#A02006" stroke-width="5" stroke-linecap="round" stroke-linejoin="round"></path>
<path d="M28.75 92.3066C28.75 103.633 30.9809 114.849 35.3154 125.313C39.6499 135.777 46.003 145.286 54.012 153.295C62.0211 161.304 71.5292 167.657 81.9936 171.991C92.4579 176.326 103.673 178.557 115 178.557C126.327 178.557 137.542 176.326 148.006 171.991C158.471 167.657 167.979 161.304 175.988 153.295C183.997 145.286 190.35 135.777 194.685 125.313C199.019 114.849 201.25 103.633 201.25 92.3066C201.25 80.9801 199.019 69.7645 194.685 59.3002C190.35 48.8359 183.997 39.3277 175.988 31.3187C167.979 23.3096 158.471 16.9565 148.006 12.622C137.542 8.28756 126.327 6.05664 115 6.05664C103.673 6.05664 92.4579 8.28756 81.9936 12.622C71.5292 16.9565 62.0211 23.3096 54.012 31.3187C46.003 39.3277 39.6499 48.8359 35.3154 59.3002C30.9809 69.7645 28.75 80.9801 28.75 92.3066Z" stroke="#A02006" stroke-width="5" stroke-linecap="round" stroke-linejoin="round"></path>
<path d="M95.6432 79.2634L93.4781 78.0136L90.9777 82.3435L93.1429 83.5933L94.3931 81.4283L95.6432 79.2634ZM107.871 92.0947L110.036 93.3445L112.536 89.0146L110.371 87.7648L109.121 89.9298L107.871 92.0947ZM94.3931 81.4283L93.1429 83.5933L107.871 92.0947L109.121 89.9298L110.371 87.7648L95.6432 79.2634L94.3931 81.4283Z" fill="#A02006"></path>
<path d="M95.6432 79.2634L93.4781 78.0136L90.9777 82.3435L93.1429 83.5933L94.3931 81.4283L95.6432 79.2634ZM107.871 92.0947L110.036 93.3445L112.536 89.0146L110.371 87.7648L109.121 89.9298L107.871 92.0947ZM94.3931 81.4283L93.1429 83.5933L107.871 92.0947L109.121 89.9298L110.371 87.7648L95.6432 79.2634L94.3931 81.4283Z" fill="#A02006"></path>
<path d="M95.6432 79.2634L93.4781 78.0136L90.9777 82.3435L93.1429 83.5933L94.3931 81.4283L95.6432 79.2634ZM107.871 92.0947L110.036 93.3445L112.536 89.0146L110.371 87.7648L109.121 89.9298L107.871 92.0947ZM94.3931 81.4283L93.1429 83.5933L107.871 92.0947L109.121 89.9298L110.371 87.7648L95.6432 79.2634L94.3931 81.4283Z" fill="#A02006"></path>
<path d="M82.4904 71.4921L80.3535 70.1945L77.7577 74.4679L79.8946 75.7655L81.1925 73.6288L82.4904 71.4921ZM85.4076 79.1131L87.5445 80.4106L90.1403 76.1372L88.0034 74.8397L86.7055 76.9764L85.4076 79.1131ZM81.1925 73.6288L79.8946 75.7655L85.4076 79.1131L86.7055 76.9764L88.0034 74.8397L82.4904 71.4921L81.1925 73.6288Z" fill="#A02006"></path>
<path d="M82.4904 71.4921L80.3535 70.1945L77.7577 74.4679L79.8946 75.7655L81.1925 73.6288L82.4904 71.4921ZM85.4076 79.1131L87.5445 80.4106L90.1403 76.1372L88.0034 74.8397L86.7055 76.9764L85.4076 79.1131ZM81.1925 73.6288L79.8946 75.7655L85.4076 79.1131L86.7055 76.9764L88.0034 74.8397L82.4904 71.4921L81.1925 73.6288Z" fill="#A02006"></path>
<path d="M82.4904 71.4921L80.3535 70.1945L77.7577 74.4679L79.8946 75.7655L81.1925 73.6288L82.4904 71.4921ZM85.4076 79.1131L87.5445 80.4106L90.1403 76.1372L88.0034 74.8397L86.7055 76.9764L85.4076 79.1131ZM81.1925 73.6288L79.8946 75.7655L85.4076 79.1131L86.7055 76.9764L88.0034 74.8397L82.4904 71.4921L81.1925 73.6288Z" fill="#A02006"></path>
<path d="M78.8068 63.6376L76.6417 64.8875L79.142 69.2174L81.3072 67.9676L80.057 65.8026L78.8068 63.6376ZM109.974 51.4199L112.139 50.17L109.639 45.8401L107.474 47.0899L108.724 49.2549L109.974 51.4199ZM80.057 65.8026L81.3072 67.9676L109.974 51.4199L108.724 49.2549L107.474 47.0899L78.8068 63.6376L80.057 65.8026Z" fill="#A02006"></path>
<path d="M133.618 53.306L131.453 52.0562L128.952 56.3861L131.118 57.6359L132.368 55.4709L133.618 53.306ZM148.342 67.5787L150.507 68.8285L153.008 64.4986L150.843 63.2488L149.592 65.4137L148.342 67.5787ZM132.368 55.4709L131.118 57.6359L148.342 67.5787L149.592 65.4137L150.843 63.2488L133.618 53.306L132.368 55.4709Z" fill="#A02006"></path>
<path d="M155.542 75.3109V99.7055" stroke="#A02006" stroke-width="5" stroke-linecap="square"></path>
<path d="M155.542 75.3109V99.7055" stroke="#A02006" stroke-width="5" stroke-linecap="square"></path>
<path d="M114.829 113.201V99.4024" stroke="#A02006" stroke-width="5" stroke-linecap="square"></path>
<path d="M114.829 134.885V123.017" stroke="#A02006" stroke-width="5" stroke-linecap="square"></path>
<path d="M91.4107 123.687L89.2455 122.438L86.7452 126.767L88.9103 128.017L90.1605 125.852L91.4107 123.687ZM107.687 138.856L109.852 140.106L112.353 135.776L110.188 134.526L108.937 136.691L107.687 138.856ZM90.1605 125.852L88.9103 128.017L107.687 138.856L108.937 136.691L110.188 134.526L91.4107 123.687L90.1605 125.852Z" fill="#A02006"></path>
<path d="M119.865 134.466L117.7 135.716L120.2 140.046L122.365 138.796L121.115 136.631L119.865 134.466ZM150.993 122.271L153.158 121.021L150.657 116.692L148.492 117.941L149.742 120.106L150.993 122.271ZM121.115 136.631L122.365 138.796L150.993 122.271L149.742 120.106L148.492 117.941L119.865 134.466L121.115 136.631Z" fill="#A02006"></path>
<path d="M135.811 78.8049L133.646 80.0547L136.146 84.3846L138.311 83.1348L137.061 80.9698L135.811 78.8049ZM149.563 76.6396L151.729 75.3898L149.228 71.0599L147.063 72.3097L148.313 74.4747L149.563 76.6396ZM137.061 80.9698L138.311 83.1348L149.563 76.6396L148.313 74.4747L147.063 72.3097L135.811 78.8049L137.061 80.9698Z" fill="#A02006"></path>
<path d="M120.586 87.7072L118.421 88.9571L120.921 93.287L123.086 92.0372L121.836 89.8722L120.586 87.7072ZM131.124 87.3977L133.289 86.1479L130.789 81.8179L128.623 83.0678L129.874 85.2327L131.124 87.3977ZM121.836 89.8722L123.086 92.0372L131.124 87.3977L129.874 85.2327L128.623 83.0678L120.586 87.7072L121.836 89.8722Z" fill="#A02006"></path>
<path d="M74.038 79.7017L74.038 106.306" stroke="#A02006" stroke-width="5" stroke-linecap="square"></path>
<circle cx="114.83" cy="133.56" r="9.49855" fill="#FBA897" stroke="#A02006" stroke-width="5"></circle>
<circle cx="73.9998" cy="113.509" r="9.49855" fill="#F86447" stroke="#A02006" stroke-width="5"></circle>
<circle cx="155.661" cy="113.509" r="9.49855" fill="#F86447" stroke="#A02006" stroke-width="5"></circle>
<circle cx="114.83" cy="92.7793" r="9.49855" fill="#F86447" stroke="#A02006" stroke-width="5"></circle>
<circle cx="73.9986" cy="72.5238" r="9.49855" fill="#FDDAD3" stroke="#A02006" stroke-width="5"></circle>
<circle cx="155.66" cy="72.5238" r="9.49855" fill="#FBA897" stroke="#A02006" stroke-width="5"></circle>
<circle cx="114.83" cy="51.9984" r="9.49855" fill="#F86447" stroke="#A02006" stroke-width="5"></circle>
</svg>