<svg width="231" height="231" viewBox="0 0 231 231" fill="none" xmlns="http://www.w3.org/2000/svg">
<path d="M135.424 136.386L87.7799 184.03C82.3062 189.13 75.0664 191.907 67.5858 191.775C60.1052 191.643 52.9679 188.613 47.6775 183.322C42.3871 178.032 39.3567 170.895 39.2247 163.414C39.0927 155.934 41.8695 148.694 46.9699 143.22L94.6137 95.5762L135.424 136.386Z" fill="#FDDAD3"></path>
<path d="M109.128 110.091C110.84 125.371 106.539 140.718 97.1354 152.883C90.8404 161.489 82.2703 168.167 72.3883 172.17C62.5063 176.172 51.7039 177.34 41.1949 175.541C42.5881 178.698 44.5451 181.575 46.9699 184.03C52.384 189.437 59.723 192.475 67.3749 192.475C75.0268 192.475 82.3659 189.437 87.7799 184.03L135.424 136.386L109.128 110.091Z" fill="#F86447"></path>
<path d="M135.424 136.386L87.7799 184.03C82.3062 189.13 75.0664 191.907 67.5858 191.775C60.1052 191.643 52.9679 188.613 47.6775 183.322C42.3871 178.032 39.3567 170.895 39.2247 163.414C39.0927 155.934 41.8695 148.694 46.9699 143.22L94.6137 95.5762L135.424 136.386Z" stroke="#A02006" stroke-width="5" stroke-linecap="round" stroke-linejoin="round"></path>
<path d="M94.6138 95.5763L126.665 63.525L167.465 104.335L135.414 136.386L94.6138 95.5763Z" fill="#FBA897" stroke="#A02006" stroke-width="5" stroke-linecap="round" stroke-linejoin="round"></path>
<path d="M4.8125 226.188L46.9604 184.04" stroke="#A02006" stroke-width="5" stroke-linecap="round" stroke-linejoin="round"></path>
<path d="M147.051 83.9492L185.108 45.892" stroke="#A02006" stroke-width="5" stroke-linecap="round" stroke-linejoin="round"></path>
<path d="M92.6022 63.525C89.2376 60.1595 86.9465 55.872 86.0185 51.2045C85.0906 46.537 85.5675 41.6992 87.3889 37.3027C89.2103 32.9062 92.2945 29.1485 96.2514 26.5048C100.208 23.8611 104.86 22.45 109.619 22.45C114.378 22.45 119.03 23.8611 122.987 26.5048C126.944 29.1485 130.028 32.9062 131.849 37.3027C133.671 41.6992 134.148 46.537 133.22 51.2045C132.292 55.872 130.001 60.1595 126.636 63.525" stroke="#A02006" stroke-width="5" stroke-linecap="round" stroke-linejoin="round"></path>
<path d="M167.475 138.398C170.84 141.762 175.128 144.054 179.795 144.981C184.463 145.909 189.301 145.433 193.697 143.611C198.094 141.79 201.851 138.706 204.495 134.749C207.139 130.792 208.55 126.14 208.55 121.381C208.55 116.622 207.139 111.97 204.495 108.013C201.851 104.056 198.094 100.972 193.697 99.1506C189.301 97.3292 184.463 96.8523 179.795 97.7803C175.128 98.7082 170.84 100.999 167.475 104.364" stroke="#A02006" stroke-width="5" stroke-linecap="round" stroke-linejoin="round"></path>
<path d="M74.1799 115.981L84.3921 126.193" stroke="#A02006" stroke-width="5" stroke-linecap="round" stroke-linejoin="round"></path>
<path d="M53.7653 136.406L63.9678 146.608" stroke="#A02006" stroke-width="5" stroke-linecap="round" stroke-linejoin="round"></path>
<path d="M178.062 28.875C178.062 35.2568 180.598 41.3772 185.11 45.8898C189.623 50.4024 195.743 52.9375 202.125 52.9375C208.507 52.9375 214.627 50.4024 219.14 45.8898C223.652 41.3772 226.188 35.2568 226.188 28.875C226.188 22.4932 223.652 16.3728 219.14 11.8602C214.627 7.34765 208.507 4.8125 202.125 4.8125C195.743 4.8125 189.623 7.34765 185.11 11.8602C180.598 16.3728 178.062 22.4932 178.062 28.875Z" stroke="#A02006" stroke-width="5" stroke-linecap="round" stroke-linejoin="round"></path>
</svg>