<svg width="230" height="230" viewBox="0 0 230 230" fill="none" xmlns="http://www.w3.org/2000/svg">
<path d="M81.4584 52.7083V148.542C80.8658 158.063 84.0577 167.433 90.3395 174.612C96.6214 181.791 105.485 186.199 115 186.875C124.514 186.194 133.374 181.785 139.655 174.607C145.935 167.429 149.129 158.062 148.542 148.542V52.7083H81.4584Z" fill="#FDDAD3"></path>
<path d="M115 145.743C105.484 145.069 96.619 140.662 90.3367 133.483C84.0544 126.303 80.8633 116.932 81.4584 107.41V148.542C80.8658 158.063 84.0578 167.433 90.3396 174.612C96.6214 181.791 105.485 186.198 115 186.875C124.514 186.194 133.374 181.785 139.655 174.607C145.936 167.429 149.129 158.062 148.542 148.542V107.41C149.132 116.93 145.939 126.299 139.658 133.478C133.376 140.656 124.515 145.064 115 145.743Z" fill="#F86447"></path>
<path d="M115 186.875V225.208" stroke="#A02006" stroke-width="5" stroke-linecap="round" stroke-linejoin="round"></path>
<path d="M81.4583 4.79167H148.532" stroke="#A02006" stroke-width="5" stroke-linecap="round" stroke-linejoin="round"></path>
<path d="M81.468 81.4583H110.199" stroke="#A02006" stroke-width="5" stroke-linecap="round" stroke-linejoin="round"></path>
<path d="M81.468 119.792H110.199" stroke="#A02006" stroke-width="5" stroke-linecap="round" stroke-linejoin="round"></path>
<path d="M81.4584 52.7083V148.542C80.8658 158.063 84.0577 167.433 90.3395 174.612C96.6214 181.791 105.485 186.199 115 186.875C124.514 186.194 133.374 181.785 139.655 174.607C145.935 167.429 149.129 158.062 148.542 148.542V52.7083H81.4584Z" stroke="#A02006" stroke-width="5" stroke-linecap="round" stroke-linejoin="round"></path>
<path d="M100.635 4.79167H129.375V52.7083H100.635V4.79167Z" fill="#FBA897" stroke="#A02006" stroke-width="5" stroke-linecap="round" stroke-linejoin="round"></path>
<path d="M52.7083 52.7083H177.282" stroke="#A02006" stroke-width="5" stroke-linecap="round" stroke-linejoin="round"></path>
</svg>