<svg width="230" height="226" viewBox="0 0 230 226" fill="none" xmlns="http://www.w3.org/2000/svg">
<path d="M206.042 4.70837C211.125 4.70837 216 6.69259 219.595 10.2245C223.189 13.7565 225.208 18.5468 225.208 23.5417V165.027C225.208 179.949 219.176 194.261 208.437 204.812C197.699 215.364 183.134 221.292 167.948 221.292H23.9584C18.8751 221.292 14 219.307 10.4055 215.776C6.81109 212.244 4.79175 207.453 4.79175 202.458V23.5417C4.79175 18.5468 6.81109 13.7565 10.4055 10.2245C14 6.69259 18.8751 4.70837 23.9584 4.70837H206.042Z" fill="#FBA897"></path>
<path d="M206.042 4.70837H23.9584C18.8751 4.70837 14 6.69259 10.4055 10.2245C6.81109 13.7565 4.79175 18.5468 4.79175 23.5417V202.458C4.79232 205.553 5.56911 208.6 7.05341 211.33C8.53771 214.06 10.6838 216.388 13.3017 218.109L221.969 13.0798C220.219 10.5056 217.85 8.39502 215.072 6.93486C212.294 5.47469 209.192 4.70997 206.042 4.70837Z" fill="#FDDAD3"></path>
<path d="M206.042 4.70837C211.125 4.70837 216 6.69259 219.595 10.2245C223.189 13.7565 225.208 18.5468 225.208 23.5417V165.027C225.208 179.949 219.176 194.261 208.437 204.812C197.699 215.364 183.134 221.292 167.948 221.292H23.9584C18.8751 221.292 14 219.307 10.4055 215.776C6.81109 212.244 4.79175 207.453 4.79175 202.458V23.5417C4.79175 18.5468 6.81109 13.7565 10.4055 10.2245C14 6.69259 18.8751 4.70837 23.9584 4.70837H206.042Z" stroke="#A02006" stroke-width="5" stroke-linecap="round" stroke-linejoin="round"></path>
<path d="M224.365 174.208C222.441 185.788 216.863 196.48 208.42 204.777C199.977 213.073 189.095 218.553 177.311 220.444V183.625C177.311 181.128 178.32 178.732 180.118 176.966C181.915 175.2 184.352 174.208 186.894 174.208H224.365Z" fill="#FDDAD3" stroke="#A02006" stroke-width="5" stroke-linecap="round" stroke-linejoin="round"></path>
<path d="M224.457 174.208H224.365" stroke="#A02006" stroke-width="5" stroke-linecap="round" stroke-linejoin="round"></path>
<path d="M177.311 220.536V220.444" stroke="#A02006" stroke-width="5" stroke-linecap="round" stroke-linejoin="round"></path>
<path d="M33.5417 61.2084H196.458" stroke="#A02006" stroke-width="5" stroke-linecap="round" stroke-linejoin="round"></path>
<path d="M33.5417 98.875H196.458" stroke="#A02006" stroke-width="5" stroke-linecap="round" stroke-linejoin="round"></path>
<path d="M33.5417 136.542H196.458" stroke="#A02006" stroke-width="5" stroke-linecap="round" stroke-linejoin="round"></path>
<path d="M33.5417 174.208H138.958" stroke="#A02006" stroke-width="5" stroke-linecap="round" stroke-linejoin="round"></path>
<path d="M62.2917 32.9584V193.042" stroke="#A02006" stroke-width="5" stroke-linecap="round" stroke-linejoin="round"></path>
</svg>