<svg width="1450" height="228" viewBox="0 0 1450 228" fill="none" xmlns="http://www.w3.org/2000/svg">
<path d="M767.922 76.1328H794.816C818.387 76.1328 833.963 89.2893 833.963 113.723C833.963 138.156 818.387 151.313 794.816 151.313H767.922V76.1328ZM778.41 142.41H795.127C812.78 142.41 823.06 132.221 823.06 113.723C823.06 95.3235 812.78 85.0357 795.127 85.0357H778.41V142.41Z" fill="#F5F5F5"></path>
<path d="M735.639 119.163L755.784 151.313H743.531L724.529 120.647H724.217H705.63V151.313H695.143V76.1328H724.217C741.662 76.1328 752.565 84.8379 752.565 98.3901C752.565 108.678 746.231 116.196 735.639 119.163ZM724.425 85.0357H705.63V111.744H724.425C735.12 111.744 741.662 106.996 741.662 98.3901C741.662 89.7839 735.12 85.0357 724.425 85.0357Z" fill="#F5F5F5"></path>
<path d="M686.026 151.313H674.811L666.297 128.561H627.565L619.05 151.313H607.836L636.184 76.1328H657.678L686.026 151.313ZM646.983 76.5285L630.888 119.658H662.974L646.983 76.5285Z" fill="#F5F5F5"></path>
<path d="M538.416 76.1328H565.31C588.881 76.1328 604.457 89.2893 604.457 113.723C604.457 138.156 588.881 151.313 565.31 151.313H538.416V76.1328ZM548.904 142.41H565.622C583.274 142.41 593.554 132.221 593.554 113.723C593.554 95.3235 583.274 85.0357 565.622 85.0357H548.904V142.41Z" fill="#F5F5F5"></path>
<path d="M509.264 150.917V76.1328H519.751V151.313H498.049L462.433 76.5285V151.313H451.945V76.1328H473.647L509.264 150.917Z" fill="#F5F5F5"></path>
<path d="M442.829 151.313H431.614L423.099 128.561H384.368L375.853 151.313H364.639L392.986 76.1328H414.481L442.829 151.313ZM403.786 76.5285L387.691 119.658H419.777L403.786 76.5285Z" fill="#F5F5F5"></path>
<path d="M309.436 76.1328H372.465V85.0357H346.194V151.313H335.707V85.0357H309.436V76.1328Z" fill="#F5F5F5"></path>
<path d="M273.835 152.401C257.117 152.401 245.072 143.399 242.684 128.66H253.587C255.04 138.849 263.243 143.993 273.835 143.993C287.749 143.993 295.329 138.453 295.329 130.639C295.329 122.428 288.995 120.45 276.327 117.779L266.462 115.701C254.106 113.13 245.176 107.194 245.176 95.9173C245.176 83.9478 257.74 75.0449 273.627 75.0449C290.241 75.0449 301.56 83.3543 303.844 95.7194H292.941C290.449 87.1133 283.18 83.4532 273.627 83.4532C263.659 83.4532 255.767 88.0036 255.767 94.9281C255.767 102.05 260.855 104.424 273.004 106.996L282.869 109.074C298.756 112.437 305.921 117.779 305.921 129.55C305.921 143.004 293.149 152.401 273.835 152.401Z" fill="#F5F5F5"></path>
<path d="M1412.41 152.401C1390.19 152.401 1374.82 136.772 1374.82 113.723C1374.82 90.6744 1390.19 75.0449 1412.41 75.0449C1434.63 75.0449 1450 90.6744 1450 113.723C1450 136.772 1434.63 152.401 1412.41 152.401ZM1412.41 143.993C1428.3 143.993 1439.1 131.529 1439.1 113.723C1439.1 95.9173 1428.3 83.4532 1412.41 83.4532C1396.52 83.4532 1385.73 95.9173 1385.73 113.723C1385.73 131.529 1396.52 143.993 1412.41 143.993Z" fill="#F5F5F5"></path>
<path d="M1361.63 152.401H1351.14V77.2207H1361.63V152.401Z" fill="#F5F5F5"></path>
<path d="M1315.74 113.723C1330.39 114.217 1338.07 120.152 1338.07 131.528C1338.07 145.081 1327.37 152.401 1308.79 152.401H1279.09V77.2207H1308.79C1328 77.2207 1335.37 86.3214 1335.37 96.7081C1335.37 106.6 1327.37 112.634 1315.74 113.723ZM1324.47 97.6974C1324.47 89.7837 1318.65 86.1236 1308.79 86.1236H1289.58V109.172H1308.79C1318.65 109.172 1324.47 105.71 1324.47 97.6974ZM1289.58 143.498H1309.1C1321.25 143.498 1327.17 139.046 1327.17 130.836C1327.17 122.527 1321.25 118.075 1309.1 118.075H1289.58V143.498Z" fill="#F5F5F5"></path>
<path d="M1212.4 77.2207V143.498H1248.53V152.401H1201.91V77.2207H1212.4Z" fill="#F5F5F5"></path>
<path d="M1146.12 118.075V143.498H1187.97V152.401H1135.63V77.2207H1187.03V86.1236H1146.12V109.172H1186.31V118.075H1146.12Z" fill="#F5F5F5"></path>
<path d="M1056.28 77.2207H1083.18C1106.75 77.2207 1122.32 90.3772 1122.32 114.811C1122.32 139.244 1106.75 152.401 1083.18 152.401H1056.28V77.2207ZM1066.77 143.498H1083.49C1101.14 143.498 1111.42 133.309 1111.42 114.811C1111.42 96.4114 1101.14 86.1236 1083.49 86.1236H1066.77V143.498Z" fill="#F5F5F5"></path>
<path d="M1005.48 152.401C983.257 152.401 967.889 136.772 967.889 113.723C967.889 90.6744 983.257 75.0449 1005.48 75.0449C1027.7 75.0449 1043.07 90.6744 1043.07 113.723C1043.07 136.772 1027.7 152.401 1005.48 152.401ZM1005.48 143.993C1021.37 143.993 1032.16 131.529 1032.16 113.723C1032.16 95.9173 1021.37 83.4532 1005.48 83.4532C989.591 83.4532 978.792 95.9173 978.792 113.723C978.792 131.529 989.591 143.993 1005.48 143.993Z" fill="#F5F5F5"></path>
<path d="M954.729 77.2207V152.401H944.241V77.5175L920.878 152.401H899.072L875.708 77.5175V152.401H865.221V77.2207H886.611L909.975 152.104L933.338 77.2207H954.729Z" fill="#F5F5F5"></path>
<path d="M62.8348 84.388L59.3944 82.3475L55.4748 89.3215L58.9152 91.362L60.875 87.875L62.8348 84.388ZM86.5924 107.777L90.0328 109.818L93.9523 102.844L90.512 100.803L88.5522 104.29L86.5924 107.777ZM60.875 87.875L58.9152 91.362L86.5924 107.777L88.5522 104.29L90.512 100.803L62.8348 84.388L60.875 87.875Z" fill="#F8F4EB"></path>
<path d="M62.8348 84.388L59.3944 82.3475L55.4748 89.3215L58.9152 91.362L60.875 87.875L62.8348 84.388ZM86.5924 107.777L90.0328 109.818L93.9523 102.844L90.512 100.803L88.5522 104.29L86.5924 107.777ZM60.875 87.875L58.9152 91.362L86.5924 107.777L88.5522 104.29L90.512 100.803L62.8348 84.388L60.875 87.875Z" fill="#F8F4EB"></path>
<path d="M62.8348 84.388L59.3944 82.3475L55.4748 89.3215L58.9152 91.362L60.875 87.875L62.8348 84.388ZM86.5924 107.777L90.0328 109.818L93.9523 102.844L90.512 100.803L88.5522 104.29L86.5924 107.777ZM60.875 87.875L58.9152 91.362L86.5924 107.777L88.5522 104.29L90.512 100.803L62.8348 84.388L60.875 87.875Z" fill="#F8F4EB"></path>
<path d="M38.105 69.3742L34.7095 67.2558L30.6363 74.1363L34.0317 76.2547L36.0684 72.8145L38.105 69.3742ZM44.3916 82.7182L47.7871 84.8366L51.8604 77.9561L48.4649 75.8377L46.4283 79.278L44.3916 82.7182ZM36.0684 72.8145L34.0317 76.2547L44.3916 82.7182L46.4283 79.278L48.4649 75.8377L38.105 69.3742L36.0684 72.8145Z" fill="#F8F4EB"></path>
<path d="M38.105 69.3742L34.7095 67.2558L30.6363 74.1363L34.0317 76.2547L36.0684 72.8145L38.105 69.3742ZM44.3916 82.7182L47.7871 84.8366L51.8604 77.9561L48.4649 75.8377L46.4283 79.278L44.3916 82.7182ZM36.0684 72.8145L34.0317 76.2547L44.3916 82.7182L46.4283 79.278L48.4649 75.8377L38.105 69.3742L36.0684 72.8145Z" fill="#F8F4EB"></path>
<path d="M38.105 69.3742L34.7095 67.2558L30.6363 74.1363L34.0317 76.2547L36.0684 72.8145L38.105 69.3742ZM44.3916 82.7182L47.7871 84.8366L51.8604 77.9561L48.4649 75.8377L46.4283 79.278L44.3916 82.7182ZM36.0684 72.8145L34.0317 76.2547L44.3916 82.7182L46.4283 79.278L48.4649 75.8377L38.105 69.3742L36.0684 72.8145Z" fill="#F8F4EB"></path>
<path d="M31.9758 54.2161L28.5354 56.2566L32.4549 63.2307L35.8953 61.1901L33.9355 57.7031L31.9758 54.2161ZM89.7681 29.2381L93.2085 27.1976L89.2889 20.2236L85.8485 22.2641L87.8083 25.7511L89.7681 29.2381ZM33.9355 57.7031L35.8953 61.1901L89.7681 29.2381L87.8083 25.7511L85.8485 22.2641L31.9758 54.2161L33.9355 57.7031Z" fill="#F8F4EB"></path>
<path d="M134.2 34.2669L130.76 32.2264L126.84 39.2004L130.28 41.2409L132.24 37.7539L134.2 34.2669ZM162.65 60.4395L166.091 62.48L170.01 55.5059L166.57 53.4654L164.61 56.9525L162.65 60.4395ZM132.24 37.7539L130.28 41.2409L162.65 60.4395L164.61 56.9525L166.57 53.4654L134.2 34.2669L132.24 37.7539Z" fill="#F8F4EB"></path>
<path d="M175.791 76.0625V123.166" stroke="#F8F4EB" stroke-width="8" stroke-linecap="square"></path>
<path d="M175.791 76.0625V123.166" stroke="#F8F4EB" stroke-width="8" stroke-linecap="square"></path>
<path d="M99.2812 149.225V122.581" stroke="#F8F4EB" stroke-width="8" stroke-linecap="square"></path>
<path d="M99.2812 191.094V168.179" stroke="#F8F4EB" stroke-width="8" stroke-linecap="square"></path>
<path d="M54.8816 170.166L51.4412 168.126L47.5217 175.1L50.9621 177.14L52.9219 173.653L54.8816 170.166ZM86.2491 198.069L89.6895 200.11L93.609 193.136L90.1686 191.095L88.2089 194.582L86.2491 198.069ZM52.9219 173.653L50.9621 177.14L86.2491 198.069L88.2089 194.582L90.1686 191.095L54.8816 170.166L52.9219 173.653Z" fill="#F8F4EB"></path>
<path d="M109.134 190.98L105.694 193.02L109.613 199.994L113.054 197.954L111.094 194.467L109.134 190.98ZM166.852 166.046L170.293 164.005L166.373 157.031L162.933 159.072L164.893 162.559L166.852 166.046ZM111.094 194.467L113.054 197.954L166.852 166.046L164.893 162.559L162.933 159.072L109.134 190.98L111.094 194.467Z" fill="#F8F4EB"></path>
<path d="M139.101 83.5022L135.66 85.5427L139.58 92.5168L143.02 90.4763L141.061 86.9893L139.101 83.5022ZM164.166 77.9347L167.606 75.8942L163.687 68.9202L160.246 70.9607L162.206 74.4477L164.166 77.9347ZM141.061 86.9893L143.02 90.4763L164.166 77.9347L162.206 74.4477L160.246 70.9607L139.101 83.5022L141.061 86.9893Z" fill="#F8F4EB"></path>
<path d="M110.489 100.692L107.049 102.732L110.969 109.706L114.409 107.666L112.449 104.179L110.489 100.692ZM129.513 98.7074L132.954 96.6669L129.034 89.6928L125.594 91.7333L127.553 95.2204L129.513 98.7074ZM112.449 104.179L114.409 107.666L129.513 98.7074L127.553 95.2204L125.594 91.7333L110.489 100.692L112.449 104.179Z" fill="#F8F4EB"></path>
<path d="M22.623 84.541L22.623 135.912" stroke="#F8F4EB" stroke-width="8" stroke-linecap="square"></path>
<circle cx="99.282" cy="204.591" r="18.8562" fill="#EEA594" stroke="#F8F4EB" stroke-width="8"></circle>
<circle cx="22.8562" cy="159.755" r="18.8562" fill="#F86447" stroke="#F8F4EB" stroke-width="8"></circle>
<circle cx="175.706" cy="159.755" r="18.8562" fill="#9EADC7" stroke="#F8F4EB" stroke-width="8"></circle>
<circle cx="99.282" cy="113.723" r="18.8562" fill="#F86447" stroke="#F8F4EB" stroke-width="8"></circle>
<circle cx="22.8562" cy="68.7458" r="18.8562" fill="#203059" stroke="#F8F4EB" stroke-width="8"></circle>
<circle cx="175.706" cy="68.7458" r="18.8562" fill="#EEA594" stroke="#F8F4EB" stroke-width="8"></circle>
<circle cx="99.282" cy="22.8562" r="18.8562" fill="#F86447" stroke="#F8F4EB" stroke-width="8"></circle>
</svg>